[
 {
  "track": 3,
  "delta": 0,
  "tick": 0,
  "byteIndex": 114,
  "name": "Note on",
  "channel": 1,
  "noteNumber": 67,
  "noteName": "G4",
  "velocity": 79,
  "dtick": 48,
  "ins": 0
 },
 {
  "track": 3,
  "delta": 0,
  "tick": 0,
  "byteIndex": 118,
  "name": "Note on",
  "channel": 1,
  "noteNumber": 45,
  "noteName": "A2",
  "velocity": 79,
  "dtick": 48,
  "ins": 0
 },
 {
  "track": 3,
  "delta": 0,
  "tick": 0,
  "byteIndex": 122,
  "name": "Note on",
  "channel": 1,
  "noteNumber": 57,
  "noteName": "A3",
  "velocity": 79,
  "dtick": 48,
  "ins": 0
 },
 {
  "track": 3,
  "delta": 0,
  "tick": 0,
  "byteIndex": 126,
  "name": "Note on",
  "channel": 1,
  "noteNumber": 52,
  "noteName": "E3",
  "velocity": 79,
  "dtick": 48,
  "ins": 0
 },
 {
  "track": 3,
  "delta": 96,
  "tick": 144,
  "byteIndex": 146,
  "name": "Note on",
  "channel": 1,
  "noteNumber": 67,
  "noteName": "G4",
  "velocity": 79,
  "dtick": 48,
  "ins": 0
 },
 {
  "track": 3,
  "delta": 0,
  "tick": 144,
  "byteIndex": 150,
  "name": "Note on",
  "channel": 1,
  "noteNumber": 45,
  "noteName": "A2",
  "velocity": 79,
  "dtick": 48,
  "ins": 0
 },
 {
  "track": 3,
  "delta": 0,
  "tick": 144,
  "byteIndex": 154,
  "name": "Note on",
  "channel": 1,
  "noteNumber": 57,
  "noteName": "A3",
  "velocity": 79,
  "dtick": 48,
  "ins": 0
 },
 {
  "track": 3,
  "delta": 0,
  "tick": 144,
  "byteIndex": 158,
  "name": "Note on",
  "channel": 1,
  "noteNumber": 52,
  "noteName": "E3",
  "velocity": 79,
  "dtick": 48,
  "ins": 0
 },
 {
  "track": 3,
  "delta": 0,
  "tick": 192,
  "byteIndex": 178,
  "name": "Note on",
  "channel": 1,
  "noteNumber": 67,
  "noteName": "G4",
  "velocity": 79,
  "dtick": 48,
  "ins": 0
 },
 {
  "track": 3,
  "delta": 0,
  "tick": 192,
  "byteIndex": 182,
  "name": "Note on",
  "channel": 1,
  "noteNumber": 52,
  "noteName": "E3",
  "velocity": 79,
  "dtick": 48,
  "ins": 0
 },
 {
  "track": 3,
  "delta": 0,
  "tick": 192,
  "byteIndex": 186,
  "name": "Note on",
  "channel": 1,
  "noteNumber": 57,
  "noteName": "A3",
  "velocity": 79,
  "dtick": 48,
  "ins": 0
 },
 {
  "track": 3,
  "delta": 0,
  "tick": 192,
  "byteIndex": 190,
  "name": "Note on",
  "channel": 1,
  "noteNumber": 45,
  "noteName": "A2",
  "velocity": 79,
  "dtick": 48,
  "ins": 0
 },
 {
  "track": 3,
  "delta": 0,
  "tick": 240,
  "byteIndex": 210,
  "name": "Note on",
  "channel": 1,
  "noteNumber": 45,
  "noteName": "A2",
  "velocity": 79,
  "dtick": 48,
  "ins": 0
 },
 {
  "track": 3,
  "delta": 0,
  "tick": 240,
  "byteIndex": 214,
  "name": "Note on",
  "channel": 1,
  "noteNumber": 57,
  "noteName": "A3",
  "velocity": 79,
  "dtick": 48,
  "ins": 0
 },
 {
  "track": 3,
  "delta": 0,
  "tick": 240,
  "byteIndex": 218,
  "name": "Note on",
  "channel": 1,
  "noteNumber": 52,
  "noteName": "E3",
  "velocity": 79,
  "dtick": 48,
  "ins": 0
 },
 {
  "track": 3,
  "delta": 0,
  "tick": 240,
  "byteIndex": 222,
  "name": "Note on",
  "channel": 1,
  "noteNumber": 67,
  "noteName": "G4",
  "velocity": 79,
  "dtick": 48,
  "ins": 0
 },
 {
  "track": 3,
  "delta": 48,
  "tick": 336,
  "byteIndex": 242,
  "name": "Note on",
  "channel": 1,
  "noteNumber": 67,
  "noteName": "G4",
  "velocity": 79,
  "dtick": 48,
  "ins": 0
 },
 {
  "track": 3,
  "delta": 0,
  "tick": 336,
  "byteIndex": 246,
  "name": "Note on",
  "channel": 1,
  "noteNumber": 45,
  "noteName": "A2",
  "velocity": 79,
  "dtick": 48,
  "ins": 0
 },
 {
  "track": 3,
  "delta": 0,
  "tick": 336,
  "byteIndex": 250,
  "name": "Note on",
  "channel": 1,
  "noteNumber": 57,
  "noteName": "A3",
  "velocity": 79,
  "dtick": 48,
  "ins": 0
 },
 {
  "track": 3,
  "delta": 0,
  "tick": 336,
  "byteIndex": 254,
  "name": "Note on",
  "channel": 1,
  "noteNumber": 52,
  "noteName": "E3",
  "velocity": 79,
  "dtick": 48,
  "ins": 0
 },
 {
  "track": 3,
  "delta": 0,
  "tick": 384,
  "byteIndex": 274,
  "name": "Note on",
  "channel": 1,
  "noteNumber": 41,
  "noteName": "F2",
  "velocity": 79,
  "dtick": 48,
  "ins": 0
 },
 {
  "track": 3,
  "delta": 0,
  "tick": 384,
  "byteIndex": 278,
  "name": "Note on",
  "channel": 1,
  "noteNumber": 53,
  "noteName": "F3",
  "velocity": 79,
  "dtick": 48,
  "ins": 0
 },
 {
  "track": 3,
  "delta": 0,
  "tick": 384,
  "byteIndex": 282,
  "name": "Note on",
  "channel": 1,
  "noteNumber": 48,
  "noteName": "C3",
  "velocity": 79,
  "dtick": 48,
  "ins": 0
 },
 {
  "track": 3,
  "delta": 0,
  "tick": 384,
  "byteIndex": 286,
  "name": "Note on",
  "channel": 1,
  "noteNumber": 65,
  "noteName": "F4",
  "velocity": 79,
  "dtick": 48,
  "ins": 0
 },
 {
  "track": 3,
  "delta": 96,
  "tick": 528,
  "byteIndex": 306,
  "name": "Note on",
  "channel": 1,
  "noteNumber": 65,
  "noteName": "F4",
  "velocity": 79,
  "dtick": 48,
  "ins": 0
 },
 {
  "track": 3,
  "delta": 0,
  "tick": 528,
  "byteIndex": 310,
  "name": "Note on",
  "channel": 1,
  "noteNumber": 41,
  "noteName": "F2",
  "velocity": 79,
  "dtick": 48,
  "ins": 0
 },
 {
  "track": 3,
  "delta": 0,
  "tick": 528,
  "byteIndex": 314,
  "name": "Note on",
  "channel": 1,
  "noteNumber": 53,
  "noteName": "F3",
  "velocity": 79,
  "dtick": 48,
  "ins": 0
 },
 {
  "track": 3,
  "delta": 0,
  "tick": 528,
  "byteIndex": 318,
  "name": "Note on",
  "channel": 1,
  "noteNumber": 48,
  "noteName": "C3",
  "velocity": 79,
  "dtick": 48,
  "ins": 0
 },
 {
  "track": 3,
  "delta": 0,
  "tick": 576,
  "byteIndex": 338,
  "name": "Note on",
  "channel": 1,
  "noteNumber": 65,
  "noteName": "F4",
  "velocity": 79,
  "dtick": 48,
  "ins": 0
 },
 {
  "track": 3,
  "delta": 0,
  "tick": 576,
  "byteIndex": 342,
  "name": "Note on",
  "channel": 1,
  "noteNumber": 41,
  "noteName": "F2",
  "velocity": 79,
  "dtick": 48,
  "ins": 0
 },
 {
  "track": 3,
  "delta": 0,
  "tick": 576,
  "byteIndex": 346,
  "name": "Note on",
  "channel": 1,
  "noteNumber": 53,
  "noteName": "F3",
  "velocity": 79,
  "dtick": 48,
  "ins": 0
 },
 {
  "track": 3,
  "delta": 0,
  "tick": 576,
  "byteIndex": 350,
  "name": "Note on",
  "channel": 1,
  "noteNumber": 48,
  "noteName": "C3",
  "velocity": 79,
  "dtick": 48,
  "ins": 0
 },
 {
  "track": 3,
  "delta": 0,
  "tick": 624,
  "byteIndex": 370,
  "name": "Note on",
  "channel": 1,
  "noteNumber": 48,
  "noteName": "C3",
  "velocity": 79,
  "dtick": 48,
  "ins": 0
 },
 {
  "track": 3,
  "delta": 0,
  "tick": 624,
  "byteIndex": 374,
  "name": "Note on",
  "channel": 1,
  "noteNumber": 53,
  "noteName": "F3",
  "velocity": 79,
  "dtick": 48,
  "ins": 0
 },
 {
  "track": 3,
  "delta": 0,
  "tick": 624,
  "byteIndex": 378,
  "name": "Note on",
  "channel": 1,
  "noteNumber": 41,
  "noteName": "F2",
  "velocity": 79,
  "dtick": 48,
  "ins": 0
 },
 {
  "track": 3,
  "delta": 0,
  "tick": 624,
  "byteIndex": 382,
  "name": "Note on",
  "channel": 1,
  "noteNumber": 65,
  "noteName": "F4",
  "velocity": 79,
  "dtick": 48,
  "ins": 0
 },
 {
  "track": 3,
  "delta": 48,
  "tick": 720,
  "byteIndex": 402,
  "name": "Note on",
  "channel": 1,
  "noteNumber": 65,
  "noteName": "F4",
  "velocity": 79,
  "dtick": 48,
  "ins": 0
 },
 {
  "track": 3,
  "delta": 0,
  "tick": 720,
  "byteIndex": 406,
  "name": "Note on",
  "channel": 1,
  "noteNumber": 41,
  "noteName": "F2",
  "velocity": 79,
  "dtick": 48,
  "ins": 0
 },
 {
  "track": 3,
  "delta": 0,
  "tick": 720,
  "byteIndex": 410,
  "name": "Note on",
  "channel": 1,
  "noteNumber": 53,
  "noteName": "F3",
  "velocity": 79,
  "dtick": 48,
  "ins": 0
 },
 {
  "track": 3,
  "delta": 0,
  "tick": 720,
  "byteIndex": 414,
  "name": "Note on",
  "channel": 1,
  "noteNumber": 48,
  "noteName": "C3",
  "velocity": 79,
  "dtick": 48,
  "ins": 0
 },
 {
  "track": 3,
  "delta": 0,
  "tick": 768,
  "byteIndex": 434,
  "name": "Note on",
  "channel": 1,
  "noteNumber": 55,
  "noteName": "G3",
  "velocity": 79,
  "dtick": 48,
  "ins": 0
 },
 {
  "track": 3,
  "delta": 0,
  "tick": 768,
  "byteIndex": 438,
  "name": "Note on",
  "channel": 1,
  "noteNumber": 60,
  "noteName": "C4",
  "velocity": 79,
  "dtick": 48,
  "ins": 0
 },
 {
  "track": 3,
  "delta": 0,
  "tick": 768,
  "byteIndex": 442,
  "name": "Note on",
  "channel": 1,
  "noteNumber": 48,
  "noteName": "C3",
  "velocity": 79,
  "dtick": 48,
  "ins": 0
 },
 {
  "track": 3,
  "delta": 0,
  "tick": 768,
  "byteIndex": 446,
  "name": "Note on",
  "channel": 1,
  "noteNumber": 64,
  "noteName": "E4",
  "velocity": 79,
  "dtick": 48,
  "ins": 0
 },
 {
  "track": 3,
  "delta": 96,
  "tick": 912,
  "byteIndex": 466,
  "name": "Note on",
  "channel": 1,
  "noteNumber": 64,
  "noteName": "E4",
  "velocity": 79,
  "dtick": 48,
  "ins": 0
 },
 {
  "track": 3,
  "delta": 0,
  "tick": 912,
  "byteIndex": 470,
  "name": "Note on",
  "channel": 1,
  "noteNumber": 55,
  "noteName": "G3",
  "velocity": 79,
  "dtick": 48,
  "ins": 0
 },
 {
  "track": 3,
  "delta": 0,
  "tick": 912,
  "byteIndex": 474,
  "name": "Note on",
  "channel": 1,
  "noteNumber": 60,
  "noteName": "C4",
  "velocity": 79,
  "dtick": 48,
  "ins": 0
 },
 {
  "track": 3,
  "delta": 0,
  "tick": 912,
  "byteIndex": 478,
  "name": "Note on",
  "channel": 1,
  "noteNumber": 48,
  "noteName": "C3",
  "velocity": 79,
  "dtick": 48,
  "ins": 0
 },
 {
  "track": 3,
  "delta": 0,
  "tick": 960,
  "byteIndex": 498,
  "name": "Note on",
  "channel": 1,
  "noteNumber": 64,
  "noteName": "E4",
  "velocity": 79,
  "dtick": 48,
  "ins": 0
 },
 {
  "track": 3,
  "delta": 0,
  "tick": 960,
  "byteIndex": 502,
  "name": "Note on",
  "channel": 1,
  "noteNumber": 48,
  "noteName": "C3",
  "velocity": 79,
  "dtick": 48,
  "ins": 0
 },
 {
  "track": 3,
  "delta": 0,
  "tick": 960,
  "byteIndex": 506,
  "name": "Note on",
  "channel": 1,
  "noteNumber": 60,
  "noteName": "C4",
  "velocity": 79,
  "dtick": 48,
  "ins": 0
 },
 {
  "track": 3,
  "delta": 0,
  "tick": 960,
  "byteIndex": 510,
  "name": "Note on",
  "channel": 1,
  "noteNumber": 55,
  "noteName": "G3",
  "velocity": 79,
  "dtick": 48,
  "ins": 0
 },
 {
  "track": 3,
  "delta": 0,
  "tick": 1008,
  "byteIndex": 530,
  "name": "Note on",
  "channel": 1,
  "noteNumber": 64,
  "noteName": "E4",
  "velocity": 79,
  "dtick": 48,
  "ins": 0
 },
 {
  "track": 3,
  "delta": 0,
  "tick": 1008,
  "byteIndex": 534,
  "name": "Note on",
  "channel": 1,
  "noteNumber": 48,
  "noteName": "C3",
  "velocity": 79,
  "dtick": 48,
  "ins": 0
 },
 {
  "track": 3,
  "delta": 0,
  "tick": 1008,
  "byteIndex": 538,
  "name": "Note on",
  "channel": 1,
  "noteNumber": 60,
  "noteName": "C4",
  "velocity": 79,
  "dtick": 48,
  "ins": 0
 },
 {
  "track": 3,
  "delta": 0,
  "tick": 1008,
  "byteIndex": 542,
  "name": "Note on",
  "channel": 1,
  "noteNumber": 55,
  "noteName": "G3",
  "velocity": 79,
  "dtick": 48,
  "ins": 0
 },
 {
  "track": 3,
  "delta": 48,
  "tick": 1104,
  "byteIndex": 562,
  "name": "Note on",
  "channel": 1,
  "noteNumber": 48,
  "noteName": "C3",
  "velocity": 79,
  "dtick": 48,
  "ins": 0
 },
 {
  "track": 3,
  "delta": 0,
  "tick": 1104,
  "byteIndex": 566,
  "name": "Note on",
  "channel": 1,
  "noteNumber": 60,
  "noteName": "C4",
  "velocity": 79,
  "dtick": 48,
  "ins": 0
 },
 {
  "track": 3,
  "delta": 0,
  "tick": 1104,
  "byteIndex": 570,
  "name": "Note on",
  "channel": 1,
  "noteNumber": 55,
  "noteName": "G3",
  "velocity": 79,
  "dtick": 48,
  "ins": 0
 },
 {
  "track": 3,
  "delta": 0,
  "tick": 1104,
  "byteIndex": 574,
  "name": "Note on",
  "channel": 1,
  "noteNumber": 64,
  "noteName": "E4",
  "velocity": 79,
  "dtick": 48,
  "ins": 0
 },
 {
  "track": 3,
  "delta": 0,
  "tick": 1152,
  "byteIndex": 594,
  "name": "Note on",
  "channel": 1,
  "noteNumber": 55,
  "noteName": "G3",
  "velocity": 79,
  "dtick": 48,
  "ins": 0
 },
 {
  "track": 3,
  "delta": 0,
  "tick": 1152,
  "byteIndex": 598,
  "name": "Note on",
  "channel": 1,
  "noteNumber": 60,
  "noteName": "C4",
  "velocity": 79,
  "dtick": 48,
  "ins": 0
 },
 {
  "track": 3,
  "delta": 0,
  "tick": 1152,
  "byteIndex": 602,
  "name": "Note on",
  "channel": 1,
  "noteNumber": 48,
  "noteName": "C3",
  "velocity": 79,
  "dtick": 48,
  "ins": 0
 },
 {
  "track": 3,
  "delta": 0,
  "tick": 1152,
  "byteIndex": 606,
  "name": "Note on",
  "channel": 1,
  "noteNumber": 62,
  "noteName": "D4",
  "velocity": 79,
  "dtick": 48,
  "ins": 0
 },
 {
  "track": 3,
  "delta": 96,
  "tick": 1296,
  "byteIndex": 626,
  "name": "Note on",
  "channel": 1,
  "noteNumber": 48,
  "noteName": "C3",
  "velocity": 79,
  "dtick": 48,
  "ins": 0
 },
 {
  "track": 3,
  "delta": 0,
  "tick": 1296,
  "byteIndex": 630,
  "name": "Note on",
  "channel": 1,
  "noteNumber": 60,
  "noteName": "C4",
  "velocity": 79,
  "dtick": 48,
  "ins": 0
 },
 {
  "track": 3,
  "delta": 0,
  "tick": 1296,
  "byteIndex": 634,
  "name": "Note on",
  "channel": 1,
  "noteNumber": 55,
  "noteName": "G3",
  "velocity": 79,
  "dtick": 48,
  "ins": 0
 },
 {
  "track": 3,
  "delta": 0,
  "tick": 1296,
  "byteIndex": 638,
  "name": "Note on",
  "channel": 1,
  "noteNumber": 62,
  "noteName": "D4",
  "velocity": 79,
  "dtick": 48,
  "ins": 0
 },
 {
  "track": 3,
  "delta": 0,
  "tick": 1344,
  "byteIndex": 658,
  "name": "Note on",
  "channel": 1,
  "noteNumber": 62,
  "noteName": "D4",
  "velocity": 79,
  "dtick": 48,
  "ins": 0
 },
 {
  "track": 3,
  "delta": 0,
  "tick": 1344,
  "byteIndex": 662,
  "name": "Note on",
  "channel": 1,
  "noteNumber": 55,
  "noteName": "G3",
  "velocity": 79,
  "dtick": 48,
  "ins": 0
 },
 {
  "track": 3,
  "delta": 0,
  "tick": 1344,
  "byteIndex": 666,
  "name": "Note on",
  "channel": 1,
  "noteNumber": 60,
  "noteName": "C4",
  "velocity": 79,
  "dtick": 48,
  "ins": 0
 },
 {
  "track": 3,
  "delta": 0,
  "tick": 1344,
  "byteIndex": 670,
  "name": "Note on",
  "channel": 1,
  "noteNumber": 48,
  "noteName": "C3",
  "velocity": 79,
  "dtick": 48,
  "ins": 0
 },
 {
  "track": 3,
  "delta": 0,
  "tick": 1392,
  "byteIndex": 690,
  "name": "Note on",
  "channel": 1,
  "noteNumber": 55,
  "noteName": "G3",
  "velocity": 79,
  "dtick": 48,
  "ins": 0
 },
 {
  "track": 3,
  "delta": 0,
  "tick": 1392,
  "byteIndex": 694,
  "name": "Note on",
  "channel": 1,
  "noteNumber": 60,
  "noteName": "C4",
  "velocity": 79,
  "dtick": 48,
  "ins": 0
 },
 {
  "track": 3,
  "delta": 0,
  "tick": 1392,
  "byteIndex": 698,
  "name": "Note on",
  "channel": 1,
  "noteNumber": 48,
  "noteName": "C3",
  "velocity": 79,
  "dtick": 48,
  "ins": 0
 },
 {
  "track": 3,
  "delta": 0,
  "tick": 1392,
  "byteIndex": 702,
  "name": "Note on",
  "channel": 1,
  "noteNumber": 62,
  "noteName": "D4",
  "velocity": 79,
  "dtick": 48,
  "ins": 0
 },
 {
  "track": 3,
  "delta": 48,
  "tick": 1488,
  "byteIndex": 722,
  "name": "Note on",
  "channel": 1,
  "noteNumber": 55,
  "noteName": "G3",
  "velocity": 79,
  "dtick": 48,
  "ins": 0
 },
 {
  "track": 3,
  "delta": 0,
  "tick": 1488,
  "byteIndex": 726,
  "name": "Note on",
  "channel": 1,
  "noteNumber": 60,
  "noteName": "C4",
  "velocity": 79,
  "dtick": 48,
  "ins": 0
 },
 {
  "track": 3,
  "delta": 0,
  "tick": 1488,
  "byteIndex": 730,
  "name": "Note on",
  "channel": 1,
  "noteNumber": 48,
  "noteName": "C3",
  "velocity": 79,
  "dtick": 48,
  "ins": 0
 },
 {
  "track": 3,
  "delta": 0,
  "tick": 1488,
  "byteIndex": 734,
  "name": "Note on",
  "channel": 1,
  "noteNumber": 62,
  "noteName": "D4",
  "velocity": 79,
  "dtick": 48,
  "ins": 0
 },
 {
  "track": 3,
  "delta": 0,
  "tick": 1536,
  "byteIndex": 754,
  "name": "Note on",
  "channel": 1,
  "noteNumber": 52,
  "noteName": "E3",
  "velocity": 79,
  "dtick": 48,
  "ins": 0
 },
 {
  "track": 3,
  "delta": 0,
  "tick": 1536,
  "byteIndex": 758,
  "name": "Note on",
  "channel": 1,
  "noteNumber": 57,
  "noteName": "A3",
  "velocity": 79,
  "dtick": 48,
  "ins": 0
 },
 {
  "track": 3,
  "delta": 0,
  "tick": 1536,
  "byteIndex": 762,
  "name": "Note on",
  "channel": 1,
  "noteNumber": 45,
  "noteName": "A2",
  "velocity": 79,
  "dtick": 48,
  "ins": 0
 },
 {
  "track": 3,
  "delta": 0,
  "tick": 1536,
  "byteIndex": 766,
  "name": "Note on",
  "channel": 1,
  "noteNumber": 64,
  "noteName": "E4",
  "velocity": 79,
  "dtick": 48,
  "ins": 0
 },
 {
  "track": 3,
  "delta": 96,
  "tick": 1680,
  "byteIndex": 786,
  "name": "Note on",
  "channel": 1,
  "noteNumber": 64,
  "noteName": "E4",
  "velocity": 79,
  "dtick": 48,
  "ins": 0
 },
 {
  "track": 3,
  "delta": 0,
  "tick": 1680,
  "byteIndex": 790,
  "name": "Note on",
  "channel": 1,
  "noteNumber": 52,
  "noteName": "E3",
  "velocity": 79,
  "dtick": 48,
  "ins": 0
 },
 {
  "track": 3,
  "delta": 0,
  "tick": 1680,
  "byteIndex": 794,
  "name": "Note on",
  "channel": 1,
  "noteNumber": 57,
  "noteName": "A3",
  "velocity": 79,
  "dtick": 48,
  "ins": 0
 },
 {
  "track": 3,
  "delta": 0,
  "tick": 1680,
  "byteIndex": 798,
  "name": "Note on",
  "channel": 1,
  "noteNumber": 45,
  "noteName": "A2",
  "velocity": 79,
  "dtick": 48,
  "ins": 0
 },
 {
  "track": 3,
  "delta": 0,
  "tick": 1728,
  "byteIndex": 818,
  "name": "Note on",
  "channel": 1,
  "noteNumber": 64,
  "noteName": "E4",
  "velocity": 79,
  "dtick": 48,
  "ins": 0
 },
 {
  "track": 3,
  "delta": 0,
  "tick": 1728,
  "byteIndex": 822,
  "name": "Note on",
  "channel": 1,
  "noteNumber": 52,
  "noteName": "E3",
  "velocity": 79,
  "dtick": 48,
  "ins": 0
 },
 {
  "track": 3,
  "delta": 0,
  "tick": 1728,
  "byteIndex": 826,
  "name": "Note on",
  "channel": 1,
  "noteNumber": 57,
  "noteName": "A3",
  "velocity": 79,
  "dtick": 48,
  "ins": 0
 },
 {
  "track": 3,
  "delta": 0,
  "tick": 1728,
  "byteIndex": 830,
  "name": "Note on",
  "channel": 1,
  "noteNumber": 45,
  "noteName": "A2",
  "velocity": 79,
  "dtick": 48,
  "ins": 0
 },
 {
  "track": 3,
  "delta": 0,
  "tick": 1776,
  "byteIndex": 850,
  "name": "Note on",
  "channel": 1,
  "noteNumber": 64,
  "noteName": "E4",
  "velocity": 79,
  "dtick": 48,
  "ins": 0
 },
 {
  "track": 3,
  "delta": 0,
  "tick": 1776,
  "byteIndex": 854,
  "name": "Note on",
  "channel": 1,
  "noteNumber": 45,
  "noteName": "A2",
  "velocity": 79,
  "dtick": 48,
  "ins": 0
 },
 {
  "track": 3,
  "delta": 0,
  "tick": 1776,
  "byteIndex": 858,
  "name": "Note on",
  "channel": 1,
  "noteNumber": 57,
  "noteName": "A3",
  "velocity": 79,
  "dtick": 48,
  "ins": 0
 },
 {
  "track": 3,
  "delta": 0,
  "tick": 1776,
  "byteIndex": 862,
  "name": "Note on",
  "channel": 1,
  "noteNumber": 52,
  "noteName": "E3",
  "velocity": 79,
  "dtick": 48,
  "ins": 0
 },
 {
  "track": 3,
  "delta": 48,
  "tick": 1872,
  "byteIndex": 882,
  "name": "Note on",
  "channel": 1,
  "noteNumber": 45,
  "noteName": "A2",
  "velocity": 79,
  "dtick": 48,
  "ins": 0
 },
 {
  "track": 3,
  "delta": 0,
  "tick": 1872,
  "byteIndex": 886,
  "name": "Note on",
  "channel": 1,
  "noteNumber": 57,
  "noteName": "A3",
  "velocity": 79,
  "dtick": 48,
  "ins": 0
 },
 {
  "track": 3,
  "delta": 0,
  "tick": 1872,
  "byteIndex": 890,
  "name": "Note on",
  "channel": 1,
  "noteNumber": 52,
  "noteName": "E3",
  "velocity": 79,
  "dtick": 48,
  "ins": 0
 },
 {
  "track": 3,
  "delta": 0,
  "tick": 1872,
  "byteIndex": 894,
  "name": "Note on",
  "channel": 1,
  "noteNumber": 64,
  "noteName": "E4",
  "velocity": 79,
  "dtick": 48,
  "ins": 0
 },
 {
  "track": 3,
  "delta": 0,
  "tick": 1920,
  "byteIndex": 914,
  "name": "Note on",
  "channel": 1,
  "noteNumber": 67,
  "noteName": "G4",
  "velocity": 79,
  "dtick": 48,
  "ins": 0
 },
 {
  "track": 3,
  "delta": 0,
  "tick": 1920,
  "byteIndex": 918,
  "name": "Note on",
  "channel": 1,
  "noteNumber": 48,
  "noteName": "C3",
  "velocity": 79,
  "dtick": 48,
  "ins": 0
 },
 {
  "track": 3,
  "delta": 0,
  "tick": 1920,
  "byteIndex": 922,
  "name": "Note on",
  "channel": 1,
  "noteNumber": 53,
  "noteName": "F3",
  "velocity": 79,
  "dtick": 48,
  "ins": 0
 },
 {
  "track": 3,
  "delta": 0,
  "tick": 1920,
  "byteIndex": 926,
  "name": "Note on",
  "channel": 1,
  "noteNumber": 41,
  "noteName": "F2",
  "velocity": 79,
  "dtick": 48,
  "ins": 0
 },
 {
  "track": 3,
  "delta": 96,
  "tick": 2064,
  "byteIndex": 946,
  "name": "Note on",
  "channel": 1,
  "noteNumber": 41,
  "noteName": "F2",
  "velocity": 79,
  "dtick": 48,
  "ins": 0
 },
 {
  "track": 3,
  "delta": 0,
  "tick": 2064,
  "byteIndex": 950,
  "name": "Note on",
  "channel": 1,
  "noteNumber": 53,
  "noteName": "F3",
  "velocity": 79,
  "dtick": 48,
  "ins": 0
 },
 {
  "track": 3,
  "delta": 0,
  "tick": 2064,
  "byteIndex": 954,
  "name": "Note on",
  "channel": 1,
  "noteNumber": 48,
  "noteName": "C3",
  "velocity": 79,
  "dtick": 48,
  "ins": 0
 },
 {
  "track": 3,
  "delta": 0,
  "tick": 2064,
  "byteIndex": 958,
  "name": "Note on",
  "channel": 1,
  "noteNumber": 67,
  "noteName": "G4",
  "velocity": 79,
  "dtick": 48,
  "ins": 0
 },
 {
  "track": 3,
  "delta": 0,
  "tick": 2112,
  "byteIndex": 978,
  "name": "Note on",
  "channel": 1,
  "noteNumber": 67,
  "noteName": "G4",
  "velocity": 79,
  "dtick": 48,
  "ins": 0
 },
 {
  "track": 3,
  "delta": 0,
  "tick": 2112,
  "byteIndex": 982,
  "name": "Note on",
  "channel": 1,
  "noteNumber": 48,
  "noteName": "C3",
  "velocity": 79,
  "dtick": 48,
  "ins": 0
 },
 {
  "track": 3,
  "delta": 0,
  "tick": 2112,
  "byteIndex": 986,
  "name": "Note on",
  "channel": 1,
  "noteNumber": 53,
  "noteName": "F3",
  "velocity": 79,
  "dtick": 48,
  "ins": 0
 },
 {
  "track": 3,
  "delta": 0,
  "tick": 2112,
  "byteIndex": 990,
  "name": "Note on",
  "channel": 1,
  "noteNumber": 41,
  "noteName": "F2",
  "velocity": 79,
  "dtick": 48,
  "ins": 0
 },
 {
  "track": 3,
  "delta": 0,
  "tick": 2160,
  "byteIndex": 1010,
  "name": "Note on",
  "channel": 1,
  "noteNumber": 41,
  "noteName": "F2",
  "velocity": 79,
  "dtick": 48,
  "ins": 0
 },
 {
  "track": 3,
  "delta": 0,
  "tick": 2160,
  "byteIndex": 1014,
  "name": "Note on",
  "channel": 1,
  "noteNumber": 53,
  "noteName": "F3",
  "velocity": 79,
  "dtick": 48,
  "ins": 0
 },
 {
  "track": 3,
  "delta": 0,
  "tick": 2160,
  "byteIndex": 1018,
  "name": "Note on",
  "channel": 1,
  "noteNumber": 48,
  "noteName": "C3",
  "velocity": 79,
  "dtick": 48,
  "ins": 0
 },
 {
  "track": 3,
  "delta": 0,
  "tick": 2160,
  "byteIndex": 1022,
  "name": "Note on",
  "channel": 1,
  "noteNumber": 67,
  "noteName": "G4",
  "velocity": 79,
  "dtick": 48,
  "ins": 0
 },
 {
  "track": 3,
  "delta": 48,
  "tick": 2256,
  "byteIndex": 1042,
  "name": "Note on",
  "channel": 1,
  "noteNumber": 41,
  "noteName": "F2",
  "velocity": 79,
  "dtick": 48,
  "ins": 0
 },
 {
  "track": 3,
  "delta": 0,
  "tick": 2256,
  "byteIndex": 1046,
  "name": "Note on",
  "channel": 1,
  "noteNumber": 53,
  "noteName": "F3",
  "velocity": 79,
  "dtick": 48,
  "ins": 0
 },
 {
  "track": 3,
  "delta": 0,
  "tick": 2256,
  "byteIndex": 1050,
  "name": "Note on",
  "channel": 1,
  "noteNumber": 48,
  "noteName": "C3",
  "velocity": 79,
  "dtick": 48,
  "ins": 0
 },
 {
  "track": 3,
  "delta": 0,
  "tick": 2256,
  "byteIndex": 1054,
  "name": "Note on",
  "channel": 1,
  "noteNumber": 67,
  "noteName": "G4",
  "velocity": 79,
  "dtick": 48,
  "ins": 0
 },
 {
  "track": 3,
  "delta": 0,
  "tick": 2304,
  "byteIndex": 1074,
  "name": "Note on",
  "channel": 1,
  "noteNumber": 55,
  "noteName": "G3",
  "velocity": 79,
  "dtick": 48,
  "ins": 0
 },
 {
  "track": 3,
  "delta": 0,
  "tick": 2304,
  "byteIndex": 1078,
  "name": "Note on",
  "channel": 1,
  "noteNumber": 60,
  "noteName": "C4",
  "velocity": 79,
  "dtick": 48,
  "ins": 0
 },
 {
  "track": 3,
  "delta": 0,
  "tick": 2304,
  "byteIndex": 1082,
  "name": "Note on",
  "channel": 1,
  "noteNumber": 48,
  "noteName": "C3",
  "velocity": 79,
  "dtick": 48,
  "ins": 0
 },
 {
  "track": 3,
  "delta": 0,
  "tick": 2304,
  "byteIndex": 1086,
  "name": "Note on",
  "channel": 1,
  "noteNumber": 64,
  "noteName": "E4",
  "velocity": 79,
  "dtick": 48,
  "ins": 0
 },
 {
  "track": 3,
  "delta": 96,
  "tick": 2448,
  "byteIndex": 1106,
  "name": "Note on",
  "channel": 1,
  "noteNumber": 55,
  "noteName": "G3",
  "velocity": 79,
  "dtick": 48,
  "ins": 0
 },
 {
  "track": 3,
  "delta": 0,
  "tick": 2448,
  "byteIndex": 1110,
  "name": "Note on",
  "channel": 1,
  "noteNumber": 60,
  "noteName": "C4",
  "velocity": 79,
  "dtick": 48,
  "ins": 0
 },
 {
  "track": 3,
  "delta": 0,
  "tick": 2448,
  "byteIndex": 1114,
  "name": "Note on",
  "channel": 1,
  "noteNumber": 48,
  "noteName": "C3",
  "velocity": 79,
  "dtick": 48,
  "ins": 0
 },
 {
  "track": 3,
  "delta": 0,
  "tick": 2448,
  "byteIndex": 1118,
  "name": "Note on",
  "channel": 1,
  "noteNumber": 64,
  "noteName": "E4",
  "velocity": 79,
  "dtick": 48,
  "ins": 0
 },
 {
  "track": 3,
  "delta": 0,
  "tick": 2496,
  "byteIndex": 1138,
  "name": "Note on",
  "channel": 1,
  "noteNumber": 64,
  "noteName": "E4",
  "velocity": 79,
  "dtick": 48,
  "ins": 0
 },
 {
  "track": 3,
  "delta": 0,
  "tick": 2496,
  "byteIndex": 1142,
  "name": "Note on",
  "channel": 1,
  "noteNumber": 48,
  "noteName": "C3",
  "velocity": 79,
  "dtick": 48,
  "ins": 0
 },
 {
  "track": 3,
  "delta": 0,
  "tick": 2496,
  "byteIndex": 1146,
  "name": "Note on",
  "channel": 1,
  "noteNumber": 60,
  "noteName": "C4",
  "velocity": 79,
  "dtick": 48,
  "ins": 0
 },
 {
  "track": 3,
  "delta": 0,
  "tick": 2496,
  "byteIndex": 1150,
  "name": "Note on",
  "channel": 1,
  "noteNumber": 55,
  "noteName": "G3",
  "velocity": 79,
  "dtick": 48,
  "ins": 0
 },
 {
  "track": 3,
  "delta": 0,
  "tick": 2544,
  "byteIndex": 1170,
  "name": "Note on",
  "channel": 1,
  "noteNumber": 64,
  "noteName": "E4",
  "velocity": 79,
  "dtick": 48,
  "ins": 0
 },
 {
  "track": 3,
  "delta": 0,
  "tick": 2544,
  "byteIndex": 1174,
  "name": "Note on",
  "channel": 1,
  "noteNumber": 48,
  "noteName": "C3",
  "velocity": 79,
  "dtick": 48,
  "ins": 0
 },
 {
  "track": 3,
  "delta": 0,
  "tick": 2544,
  "byteIndex": 1178,
  "name": "Note on",
  "channel": 1,
  "noteNumber": 60,
  "noteName": "C4",
  "velocity": 79,
  "dtick": 48,
  "ins": 0
 },
 {
  "track": 3,
  "delta": 0,
  "tick": 2544,
  "byteIndex": 1182,
  "name": "Note on",
  "channel": 1,
  "noteNumber": 55,
  "noteName": "G3",
  "velocity": 79,
  "dtick": 48,
  "ins": 0
 },
 {
  "track": 3,
  "delta": 48,
  "tick": 2640,
  "byteIndex": 1202,
  "name": "Note on",
  "channel": 1,
  "noteNumber": 55,
  "noteName": "G3",
  "velocity": 79,
  "dtick": 48,
  "ins": 0
 },
 {
  "track": 3,
  "delta": 0,
  "tick": 2640,
  "byteIndex": 1206,
  "name": "Note on",
  "channel": 1,
  "noteNumber": 60,
  "noteName": "C4",
  "velocity": 79,
  "dtick": 48,
  "ins": 0
 },
 {
  "track": 3,
  "delta": 0,
  "tick": 2640,
  "byteIndex": 1210,
  "name": "Note on",
  "channel": 1,
  "noteNumber": 48,
  "noteName": "C3",
  "velocity": 79,
  "dtick": 48,
  "ins": 0
 },
 {
  "track": 3,
  "delta": 0,
  "tick": 2640,
  "byteIndex": 1214,
  "name": "Note on",
  "channel": 1,
  "noteNumber": 64,
  "noteName": "E4",
  "velocity": 79,
  "dtick": 48,
  "ins": 0
 },
 {
  "track": 3,
  "delta": 0,
  "tick": 2688,
  "byteIndex": 1234,
  "name": "Note on",
  "channel": 1,
  "noteNumber": 48,
  "noteName": "C3",
  "velocity": 79,
  "dtick": 48,
  "ins": 0
 },
 {
  "track": 3,
  "delta": 0,
  "tick": 2688,
  "byteIndex": 1238,
  "name": "Note on",
  "channel": 1,
  "noteNumber": 55,
  "noteName": "G3",
  "velocity": 79,
  "dtick": 48,
  "ins": 0
 },
 {
  "track": 3,
  "delta": 0,
  "tick": 2688,
  "byteIndex": 1242,
  "name": "Note on",
  "channel": 1,
  "noteNumber": 60,
  "noteName": "C4",
  "velocity": 79,
  "dtick": 48,
  "ins": 0
 },
 {
  "track": 3,
  "delta": 0,
  "tick": 2688,
  "byteIndex": 1246,
  "name": "Note on",
  "channel": 1,
  "noteNumber": 55,
  "noteName": "G3",
  "velocity": 79,
  "dtick": 48,
  "ins": 0
 },
 {
  "track": 3,
  "delta": 0,
  "tick": 2688,
  "byteIndex": 1250,
  "name": "Note on",
  "channel": 1,
  "noteNumber": 62,
  "noteName": "D4",
  "velocity": 79,
  "dtick": 48,
  "ins": 0
 },
 {
  "track": 3,
  "delta": 96,
  "tick": 2832,
  "byteIndex": 1274,
  "name": "Note on",
  "channel": 1,
  "noteNumber": 62,
  "noteName": "D4",
  "velocity": 79,
  "dtick": 48,
  "ins": 0
 },
 {
  "track": 3,
  "delta": 0,
  "tick": 2832,
  "byteIndex": 1278,
  "name": "Note on",
  "channel": 1,
  "noteNumber": 48,
  "noteName": "C3",
  "velocity": 79,
  "dtick": 48,
  "ins": 0
 },
 {
  "track": 3,
  "delta": 0,
  "tick": 2832,
  "byteIndex": 1282,
  "name": "Note on",
  "channel": 1,
  "noteNumber": 60,
  "noteName": "C4",
  "velocity": 79,
  "dtick": 48,
  "ins": 0
 },
 {
  "track": 3,
  "delta": 0,
  "tick": 2832,
  "byteIndex": 1286,
  "name": "Note on",
  "channel": 1,
  "noteNumber": 55,
  "noteName": "G3",
  "velocity": 79,
  "dtick": 48,
  "ins": 0
 },
 {
  "track": 3,
  "delta": 0,
  "tick": 2880,
  "byteIndex": 1306,
  "name": "Note on",
  "channel": 1,
  "noteNumber": 62,
  "noteName": "D4",
  "velocity": 79,
  "dtick": 48,
  "ins": 0
 },
 {
  "track": 3,
  "delta": 0,
  "tick": 2880,
  "byteIndex": 1310,
  "name": "Note on",
  "channel": 1,
  "noteNumber": 55,
  "noteName": "G3",
  "velocity": 79,
  "dtick": 48,
  "ins": 0
 },
 {
  "track": 3,
  "delta": 0,
  "tick": 2880,
  "byteIndex": 1314,
  "name": "Note on",
  "channel": 1,
  "noteNumber": 60,
  "noteName": "C4",
  "velocity": 79,
  "dtick": 48,
  "ins": 0
 },
 {
  "track": 3,
  "delta": 0,
  "tick": 2880,
  "byteIndex": 1318,
  "name": "Note on",
  "channel": 1,
  "noteNumber": 48,
  "noteName": "C3",
  "velocity": 79,
  "dtick": 48,
  "ins": 0
 },
 {
  "track": 3,
  "delta": 0,
  "tick": 2928,
  "byteIndex": 1338,
  "name": "Note on",
  "channel": 1,
  "noteNumber": 62,
  "noteName": "D4",
  "velocity": 79,
  "dtick": 48,
  "ins": 0
 },
 {
  "track": 3,
  "delta": 0,
  "tick": 2928,
  "byteIndex": 1342,
  "name": "Note on",
  "channel": 1,
  "noteNumber": 55,
  "noteName": "G3",
  "velocity": 79,
  "dtick": 48,
  "ins": 0
 },
 {
  "track": 3,
  "delta": 0,
  "tick": 2928,
  "byteIndex": 1346,
  "name": "Note on",
  "channel": 1,
  "noteNumber": 60,
  "noteName": "C4",
  "velocity": 79,
  "dtick": 48,
  "ins": 0
 },
 {
  "track": 3,
  "delta": 0,
  "tick": 2928,
  "byteIndex": 1350,
  "name": "Note on",
  "channel": 1,
  "noteNumber": 48,
  "noteName": "C3",
  "velocity": 79,
  "dtick": 48,
  "ins": 0
 },
 {
  "track": 3,
  "delta": 48,
  "tick": 3024,
  "byteIndex": 1370,
  "name": "Note on",
  "channel": 1,
  "noteNumber": 55,
  "noteName": "G3",
  "velocity": 79,
  "dtick": 48,
  "ins": 0
 },
 {
  "track": 3,
  "delta": 0,
  "tick": 3024,
  "byteIndex": 1374,
  "name": "Note on",
  "channel": 1,
  "noteNumber": 60,
  "noteName": "C4",
  "velocity": 79,
  "dtick": 48,
  "ins": 0
 },
 {
  "track": 3,
  "delta": 0,
  "tick": 3024,
  "byteIndex": 1378,
  "name": "Note on",
  "channel": 1,
  "noteNumber": 48,
  "noteName": "C3",
  "velocity": 79,
  "dtick": 48,
  "ins": 0
 },
 {
  "track": 3,
  "delta": 0,
  "tick": 3024,
  "byteIndex": 1382,
  "name": "Note on",
  "channel": 1,
  "noteNumber": 62,
  "noteName": "D4",
  "velocity": 79,
  "dtick": 48,
  "ins": 0
 },
 {
  "track": 3,
  "delta": 0,
  "tick": 3072,
  "byteIndex": 1402,
  "name": "Note on",
  "channel": 1,
  "noteNumber": 45,
  "noteName": "A2",
  "velocity": 79,
  "dtick": 48,
  "ins": 0
 },
 {
  "track": 3,
  "delta": 0,
  "tick": 3072,
  "byteIndex": 1406,
  "name": "Note on",
  "channel": 1,
  "noteNumber": 57,
  "noteName": "A3",
  "velocity": 79,
  "dtick": 48,
  "ins": 0
 },
 {
  "track": 3,
  "delta": 0,
  "tick": 3072,
  "byteIndex": 1410,
  "name": "Note on",
  "channel": 1,
  "noteNumber": 52,
  "noteName": "E3",
  "velocity": 79,
  "dtick": 48,
  "ins": 0
 },
 {
  "track": 3,
  "delta": 0,
  "tick": 3072,
  "byteIndex": 1414,
  "name": "Note on",
  "channel": 1,
  "noteNumber": 79,
  "noteName": "G5",
  "velocity": 79,
  "dtick": 48,
  "ins": 0
 },
 {
  "track": 3,
  "delta": 0,
  "tick": 3120,
  "byteIndex": 1434,
  "name": "Note on",
  "channel": 1,
  "noteNumber": 76,
  "noteName": "E5",
  "velocity": 79,
  "dtick": 48,
  "ins": 0
 },
 {
  "track": 3,
  "delta": 0,
  "tick": 3168,
  "byteIndex": 1442,
  "name": "Note on",
  "channel": 1,
  "noteNumber": 72,
  "noteName": "C5",
  "velocity": 79,
  "dtick": 48,
  "ins": 0
 },
 {
  "track": 3,
  "delta": 0,
  "tick": 3216,
  "byteIndex": 1450,
  "name": "Note on",
  "channel": 1,
  "noteNumber": 45,
  "noteName": "A2",
  "velocity": 79,
  "dtick": 48,
  "ins": 0
 },
 {
  "track": 3,
  "delta": 0,
  "tick": 3216,
  "byteIndex": 1454,
  "name": "Note on",
  "channel": 1,
  "noteNumber": 57,
  "noteName": "A3",
  "velocity": 79,
  "dtick": 48,
  "ins": 0
 },
 {
  "track": 3,
  "delta": 0,
  "tick": 3216,
  "byteIndex": 1458,
  "name": "Note on",
  "channel": 1,
  "noteNumber": 52,
  "noteName": "E3",
  "velocity": 79,
  "dtick": 48,
  "ins": 0
 },
 {
  "track": 3,
  "delta": 0,
  "tick": 3216,
  "byteIndex": 1462,
  "name": "Note on",
  "channel": 1,
  "noteNumber": 79,
  "noteName": "G5",
  "velocity": 79,
  "dtick": 240,
  "ins": 0
 },
 {
  "track": 3,
  "delta": 0,
  "tick": 3264,
  "byteIndex": 1478,
  "name": "Note on",
  "channel": 1,
  "noteNumber": 52,
  "noteName": "E3",
  "velocity": 79,
  "dtick": 48,
  "ins": 0
 },
 {
  "track": 3,
  "delta": 0,
  "tick": 3264,
  "byteIndex": 1482,
  "name": "Note on",
  "channel": 1,
  "noteNumber": 57,
  "noteName": "A3",
  "velocity": 79,
  "dtick": 48,
  "ins": 0
 },
 {
  "track": 3,
  "delta": 0,
  "tick": 3264,
  "byteIndex": 1486,
  "name": "Note on",
  "channel": 1,
  "noteNumber": 45,
  "noteName": "A2",
  "velocity": 79,
  "dtick": 48,
  "ins": 0
 },
 {
  "track": 3,
  "delta": 0,
  "tick": 3312,
  "byteIndex": 1502,
  "name": "Note on",
  "channel": 1,
  "noteNumber": 45,
  "noteName": "A2",
  "velocity": 79,
  "dtick": 48,
  "ins": 0
 },
 {
  "track": 3,
  "delta": 0,
  "tick": 3312,
  "byteIndex": 1506,
  "name": "Note on",
  "channel": 1,
  "noteNumber": 57,
  "noteName": "A3",
  "velocity": 79,
  "dtick": 48,
  "ins": 0
 },
 {
  "track": 3,
  "delta": 0,
  "tick": 3312,
  "byteIndex": 1510,
  "name": "Note on",
  "channel": 1,
  "noteNumber": 52,
  "noteName": "E3",
  "velocity": 79,
  "dtick": 48,
  "ins": 0
 },
 {
  "track": 3,
  "delta": 48,
  "tick": 3408,
  "byteIndex": 1526,
  "name": "Note on",
  "channel": 1,
  "noteNumber": 45,
  "noteName": "A2",
  "velocity": 79,
  "dtick": 48,
  "ins": 0
 },
 {
  "track": 3,
  "delta": 0,
  "tick": 3408,
  "byteIndex": 1530,
  "name": "Note on",
  "channel": 1,
  "noteNumber": 57,
  "noteName": "A3",
  "velocity": 79,
  "dtick": 48,
  "ins": 0
 },
 {
  "track": 3,
  "delta": 0,
  "tick": 3408,
  "byteIndex": 1534,
  "name": "Note on",
  "channel": 1,
  "noteNumber": 52,
  "noteName": "E3",
  "velocity": 79,
  "dtick": 48,
  "ins": 0
 },
 {
  "track": 3,
  "delta": 0,
  "tick": 3456,
  "byteIndex": 1554,
  "name": "Note on",
  "channel": 1,
  "noteNumber": 41,
  "noteName": "F2",
  "velocity": 79,
  "dtick": 48,
  "ins": 0
 },
 {
  "track": 3,
  "delta": 0,
  "tick": 3456,
  "byteIndex": 1558,
  "name": "Note on",
  "channel": 1,
  "noteNumber": 53,
  "noteName": "F3",
  "velocity": 79,
  "dtick": 48,
  "ins": 0
 },
 {
  "track": 3,
  "delta": 0,
  "tick": 3456,
  "byteIndex": 1562,
  "name": "Note on",
  "channel": 1,
  "noteNumber": 48,
  "noteName": "C3",
  "velocity": 79,
  "dtick": 48,
  "ins": 0
 },
 {
  "track": 3,
  "delta": 0,
  "tick": 3456,
  "byteIndex": 1566,
  "name": "Note on",
  "channel": 1,
  "noteNumber": 72,
  "noteName": "C5",
  "velocity": 79,
  "dtick": 48,
  "ins": 0
 },
 {
  "track": 3,
  "delta": 0,
  "tick": 3504,
  "byteIndex": 1586,
  "name": "Note on",
  "channel": 1,
  "noteNumber": 74,
  "noteName": "D5",
  "velocity": 79,
  "dtick": 48,
  "ins": 0
 },
 {
  "track": 3,
  "delta": 0,
  "tick": 3552,
  "byteIndex": 1594,
  "name": "Note on",
  "channel": 1,
  "noteNumber": 76,
  "noteName": "E5",
  "velocity": 79,
  "dtick": 48,
  "ins": 0
 },
 {
  "track": 3,
  "delta": 0,
  "tick": 3600,
  "byteIndex": 1602,
  "name": "Note on",
  "channel": 1,
  "noteNumber": 41,
  "noteName": "F2",
  "velocity": 79,
  "dtick": 48,
  "ins": 0
 },
 {
  "track": 3,
  "delta": 0,
  "tick": 3600,
  "byteIndex": 1606,
  "name": "Note on",
  "channel": 1,
  "noteNumber": 53,
  "noteName": "F3",
  "velocity": 79,
  "dtick": 48,
  "ins": 0
 },
 {
  "track": 3,
  "delta": 0,
  "tick": 3600,
  "byteIndex": 1610,
  "name": "Note on",
  "channel": 1,
  "noteNumber": 48,
  "noteName": "C3",
  "velocity": 79,
  "dtick": 48,
  "ins": 0
 },
 {
  "track": 3,
  "delta": 0,
  "tick": 3600,
  "byteIndex": 1614,
  "name": "Note on",
  "channel": 1,
  "noteNumber": 72,
  "noteName": "C5",
  "velocity": 79,
  "dtick": 240,
  "ins": 0
 },
 {
  "track": 3,
  "delta": 0,
  "tick": 3648,
  "byteIndex": 1630,
  "name": "Note on",
  "channel": 1,
  "noteNumber": 41,
  "noteName": "F2",
  "velocity": 79,
  "dtick": 48,
  "ins": 0
 },
 {
  "track": 3,
  "delta": 0,
  "tick": 3648,
  "byteIndex": 1634,
  "name": "Note on",
  "channel": 1,
  "noteNumber": 53,
  "noteName": "F3",
  "velocity": 79,
  "dtick": 48,
  "ins": 0
 },
 {
  "track": 3,
  "delta": 0,
  "tick": 3648,
  "byteIndex": 1638,
  "name": "Note on",
  "channel": 1,
  "noteNumber": 48,
  "noteName": "C3",
  "velocity": 79,
  "dtick": 48,
  "ins": 0
 },
 {
  "track": 3,
  "delta": 0,
  "tick": 3696,
  "byteIndex": 1654,
  "name": "Note on",
  "channel": 1,
  "noteNumber": 48,
  "noteName": "C3",
  "velocity": 79,
  "dtick": 48,
  "ins": 0
 },
 {
  "track": 3,
  "delta": 0,
  "tick": 3696,
  "byteIndex": 1658,
  "name": "Note on",
  "channel": 1,
  "noteNumber": 53,
  "noteName": "F3",
  "velocity": 79,
  "dtick": 48,
  "ins": 0
 },
 {
  "track": 3,
  "delta": 0,
  "tick": 3696,
  "byteIndex": 1662,
  "name": "Note on",
  "channel": 1,
  "noteNumber": 41,
  "noteName": "F2",
  "velocity": 79,
  "dtick": 48,
  "ins": 0
 },
 {
  "track": 3,
  "delta": 48,
  "tick": 3792,
  "byteIndex": 1678,
  "name": "Note on",
  "channel": 1,
  "noteNumber": 41,
  "noteName": "F2",
  "velocity": 79,
  "dtick": 48,
  "ins": 0
 },
 {
  "track": 3,
  "delta": 0,
  "tick": 3792,
  "byteIndex": 1682,
  "name": "Note on",
  "channel": 1,
  "noteNumber": 53,
  "noteName": "F3",
  "velocity": 79,
  "dtick": 48,
  "ins": 0
 },
 {
  "track": 3,
  "delta": 0,
  "tick": 3792,
  "byteIndex": 1686,
  "name": "Note on",
  "channel": 1,
  "noteNumber": 48,
  "noteName": "C3",
  "velocity": 79,
  "dtick": 48,
  "ins": 0
 },
 {
  "track": 3,
  "delta": 0,
  "tick": 3840,
  "byteIndex": 1706,
  "name": "Note on",
  "channel": 1,
  "noteNumber": 55,
  "noteName": "G3",
  "velocity": 79,
  "dtick": 48,
  "ins": 0
 },
 {
  "track": 3,
  "delta": 0,
  "tick": 3840,
  "byteIndex": 1710,
  "name": "Note on",
  "channel": 1,
  "noteNumber": 60,
  "noteName": "C4",
  "velocity": 79,
  "dtick": 48,
  "ins": 0
 },
 {
  "track": 3,
  "delta": 0,
  "tick": 3840,
  "byteIndex": 1714,
  "name": "Note on",
  "channel": 1,
  "noteNumber": 48,
  "noteName": "C3",
  "velocity": 79,
  "dtick": 48,
  "ins": 0
 },
 {
  "track": 3,
  "delta": 0,
  "tick": 3840,
  "byteIndex": 1718,
  "name": "Note on",
  "channel": 1,
  "noteNumber": 79,
  "noteName": "G5",
  "velocity": 79,
  "dtick": 48,
  "ins": 0
 },
 {
  "track": 3,
  "delta": 0,
  "tick": 3888,
  "byteIndex": 1738,
  "name": "Note on",
  "channel": 1,
  "noteNumber": 76,
  "noteName": "E5",
  "velocity": 79,
  "dtick": 48,
  "ins": 0
 },
 {
  "track": 3,
  "delta": 0,
  "tick": 3936,
  "byteIndex": 1746,
  "name": "Note on",
  "channel": 1,
  "noteNumber": 72,
  "noteName": "C5",
  "velocity": 79,
  "dtick": 48,
  "ins": 0
 },
 {
  "track": 3,
  "delta": 0,
  "tick": 3984,
  "byteIndex": 1754,
  "name": "Note on",
  "channel": 1,
  "noteNumber": 55,
  "noteName": "G3",
  "velocity": 79,
  "dtick": 48,
  "ins": 0
 },
 {
  "track": 3,
  "delta": 0,
  "tick": 3984,
  "byteIndex": 1758,
  "name": "Note on",
  "channel": 1,
  "noteNumber": 60,
  "noteName": "C4",
  "velocity": 79,
  "dtick": 48,
  "ins": 0
 },
 {
  "track": 3,
  "delta": 0,
  "tick": 3984,
  "byteIndex": 1762,
  "name": "Note on",
  "channel": 1,
  "noteNumber": 48,
  "noteName": "C3",
  "velocity": 79,
  "dtick": 48,
  "ins": 0
 },
 {
  "track": 3,
  "delta": 0,
  "tick": 3984,
  "byteIndex": 1766,
  "name": "Note on",
  "channel": 1,
  "noteNumber": 79,
  "noteName": "G5",
  "velocity": 79,
  "dtick": 240,
  "ins": 0
 },
 {
  "track": 3,
  "delta": 0,
  "tick": 4032,
  "byteIndex": 1782,
  "name": "Note on",
  "channel": 1,
  "noteNumber": 48,
  "noteName": "C3",
  "velocity": 79,
  "dtick": 48,
  "ins": 0
 },
 {
  "track": 3,
  "delta": 0,
  "tick": 4032,
  "byteIndex": 1786,
  "name": "Note on",
  "channel": 1,
  "noteNumber": 60,
  "noteName": "C4",
  "velocity": 79,
  "dtick": 48,
  "ins": 0
 },
 {
  "track": 3,
  "delta": 0,
  "tick": 4032,
  "byteIndex": 1790,
  "name": "Note on",
  "channel": 1,
  "noteNumber": 55,
  "noteName": "G3",
  "velocity": 79,
  "dtick": 48,
  "ins": 0
 },
 {
  "track": 3,
  "delta": 0,
  "tick": 4080,
  "byteIndex": 1806,
  "name": "Note on",
  "channel": 1,
  "noteNumber": 48,
  "noteName": "C3",
  "velocity": 79,
  "dtick": 48,
  "ins": 0
 },
 {
  "track": 3,
  "delta": 0,
  "tick": 4080,
  "byteIndex": 1810,
  "name": "Note on",
  "channel": 1,
  "noteNumber": 60,
  "noteName": "C4",
  "velocity": 79,
  "dtick": 48,
  "ins": 0
 },
 {
  "track": 3,
  "delta": 0,
  "tick": 4080,
  "byteIndex": 1814,
  "name": "Note on",
  "channel": 1,
  "noteNumber": 55,
  "noteName": "G3",
  "velocity": 79,
  "dtick": 48,
  "ins": 0
 },
 {
  "track": 3,
  "delta": 48,
  "tick": 4176,
  "byteIndex": 1830,
  "name": "Note on",
  "channel": 1,
  "noteNumber": 48,
  "noteName": "C3",
  "velocity": 79,
  "dtick": 48,
  "ins": 0
 },
 {
  "track": 3,
  "delta": 0,
  "tick": 4176,
  "byteIndex": 1834,
  "name": "Note on",
  "channel": 1,
  "noteNumber": 60,
  "noteName": "C4",
  "velocity": 79,
  "dtick": 48,
  "ins": 0
 },
 {
  "track": 3,
  "delta": 0,
  "tick": 4176,
  "byteIndex": 1838,
  "name": "Note on",
  "channel": 1,
  "noteNumber": 55,
  "noteName": "G3",
  "velocity": 79,
  "dtick": 48,
  "ins": 0
 },
 {
  "track": 3,
  "delta": 0,
  "tick": 4224,
  "byteIndex": 1858,
  "name": "Note on",
  "channel": 1,
  "noteNumber": 55,
  "noteName": "G3",
  "velocity": 79,
  "dtick": 48,
  "ins": 0
 },
 {
  "track": 3,
  "delta": 0,
  "tick": 4224,
  "byteIndex": 1862,
  "name": "Note on",
  "channel": 1,
  "noteNumber": 60,
  "noteName": "C4",
  "velocity": 79,
  "dtick": 48,
  "ins": 0
 },
 {
  "track": 3,
  "delta": 0,
  "tick": 4224,
  "byteIndex": 1866,
  "name": "Note on",
  "channel": 1,
  "noteNumber": 48,
  "noteName": "C3",
  "velocity": 79,
  "dtick": 48,
  "ins": 0
 },
 {
  "track": 3,
  "delta": 0,
  "tick": 4224,
  "byteIndex": 1870,
  "name": "Note on",
  "channel": 1,
  "noteNumber": 72,
  "noteName": "C5",
  "velocity": 79,
  "dtick": 48,
  "ins": 0
 },
 {
  "track": 3,
  "delta": 0,
  "tick": 4272,
  "byteIndex": 1890,
  "name": "Note on",
  "channel": 1,
  "noteNumber": 74,
  "noteName": "D5",
  "velocity": 79,
  "dtick": 48,
  "ins": 0
 },
 {
  "track": 3,
  "delta": 0,
  "tick": 4320,
  "byteIndex": 1898,
  "name": "Note on",
  "channel": 1,
  "noteNumber": 76,
  "noteName": "E5",
  "velocity": 79,
  "dtick": 48,
  "ins": 0
 },
 {
  "track": 3,
  "delta": 0,
  "tick": 4368,
  "byteIndex": 1906,
  "name": "Note on",
  "channel": 1,
  "noteNumber": 48,
  "noteName": "C3",
  "velocity": 79,
  "dtick": 48,
  "ins": 0
 },
 {
  "track": 3,
  "delta": 0,
  "tick": 4368,
  "byteIndex": 1910,
  "name": "Note on",
  "channel": 1,
  "noteNumber": 60,
  "noteName": "C4",
  "velocity": 79,
  "dtick": 48,
  "ins": 0
 },
 {
  "track": 3,
  "delta": 0,
  "tick": 4368,
  "byteIndex": 1914,
  "name": "Note on",
  "channel": 1,
  "noteNumber": 55,
  "noteName": "G3",
  "velocity": 79,
  "dtick": 48,
  "ins": 0
 },
 {
  "track": 3,
  "delta": 0,
  "tick": 4368,
  "byteIndex": 1918,
  "name": "Note on",
  "channel": 1,
  "noteNumber": 72,
  "noteName": "C5",
  "velocity": 79,
  "dtick": 240,
  "ins": 0
 },
 {
  "track": 3,
  "delta": 0,
  "tick": 4416,
  "byteIndex": 1934,
  "name": "Note on",
  "channel": 1,
  "noteNumber": 55,
  "noteName": "G3",
  "velocity": 79,
  "dtick": 48,
  "ins": 0
 },
 {
  "track": 3,
  "delta": 0,
  "tick": 4416,
  "byteIndex": 1938,
  "name": "Note on",
  "channel": 1,
  "noteNumber": 60,
  "noteName": "C4",
  "velocity": 79,
  "dtick": 48,
  "ins": 0
 },
 {
  "track": 3,
  "delta": 0,
  "tick": 4416,
  "byteIndex": 1942,
  "name": "Note on",
  "channel": 1,
  "noteNumber": 48,
  "noteName": "C3",
  "velocity": 79,
  "dtick": 48,
  "ins": 0
 },
 {
  "track": 3,
  "delta": 0,
  "tick": 4464,
  "byteIndex": 1958,
  "name": "Note on",
  "channel": 1,
  "noteNumber": 55,
  "noteName": "G3",
  "velocity": 79,
  "dtick": 48,
  "ins": 0
 },
 {
  "track": 3,
  "delta": 0,
  "tick": 4464,
  "byteIndex": 1962,
  "name": "Note on",
  "channel": 1,
  "noteNumber": 60,
  "noteName": "C4",
  "velocity": 79,
  "dtick": 48,
  "ins": 0
 },
 {
  "track": 3,
  "delta": 0,
  "tick": 4464,
  "byteIndex": 1966,
  "name": "Note on",
  "channel": 1,
  "noteNumber": 48,
  "noteName": "C3",
  "velocity": 79,
  "dtick": 48,
  "ins": 0
 },
 {
  "track": 3,
  "delta": 48,
  "tick": 4560,
  "byteIndex": 1982,
  "name": "Note on",
  "channel": 1,
  "noteNumber": 55,
  "noteName": "G3",
  "velocity": 79,
  "dtick": 48,
  "ins": 0
 },
 {
  "track": 3,
  "delta": 0,
  "tick": 4560,
  "byteIndex": 1986,
  "name": "Note on",
  "channel": 1,
  "noteNumber": 60,
  "noteName": "C4",
  "velocity": 79,
  "dtick": 48,
  "ins": 0
 },
 {
  "track": 3,
  "delta": 0,
  "tick": 4560,
  "byteIndex": 1990,
  "name": "Note on",
  "channel": 1,
  "noteNumber": 48,
  "noteName": "C3",
  "velocity": 79,
  "dtick": 48,
  "ins": 0
 },
 {
  "track": 3,
  "delta": 0,
  "tick": 4608,
  "byteIndex": 2010,
  "name": "Note on",
  "channel": 1,
  "noteNumber": 52,
  "noteName": "E3",
  "velocity": 79,
  "dtick": 48,
  "ins": 0
 },
 {
  "track": 3,
  "delta": 0,
  "tick": 4608,
  "byteIndex": 2014,
  "name": "Note on",
  "channel": 1,
  "noteNumber": 57,
  "noteName": "A3",
  "velocity": 79,
  "dtick": 48,
  "ins": 0
 },
 {
  "track": 3,
  "delta": 0,
  "tick": 4608,
  "byteIndex": 2018,
  "name": "Note on",
  "channel": 1,
  "noteNumber": 45,
  "noteName": "A2",
  "velocity": 79,
  "dtick": 48,
  "ins": 0
 },
 {
  "track": 3,
  "delta": 0,
  "tick": 4608,
  "byteIndex": 2022,
  "name": "Note on",
  "channel": 1,
  "noteNumber": 79,
  "noteName": "G5",
  "velocity": 79,
  "dtick": 48,
  "ins": 0
 },
 {
  "track": 3,
  "delta": 0,
  "tick": 4656,
  "byteIndex": 2042,
  "name": "Note on",
  "channel": 1,
  "noteNumber": 76,
  "noteName": "E5",
  "velocity": 79,
  "dtick": 48,
  "ins": 0
 },
 {
  "track": 3,
  "delta": 0,
  "tick": 4704,
  "byteIndex": 2050,
  "name": "Note on",
  "channel": 1,
  "noteNumber": 72,
  "noteName": "C5",
  "velocity": 79,
  "dtick": 48,
  "ins": 0
 },
 {
  "track": 3,
  "delta": 0,
  "tick": 4752,
  "byteIndex": 2058,
  "name": "Note on",
  "channel": 1,
  "noteNumber": 52,
  "noteName": "E3",
  "velocity": 79,
  "dtick": 48,
  "ins": 0
 },
 {
  "track": 3,
  "delta": 0,
  "tick": 4752,
  "byteIndex": 2062,
  "name": "Note on",
  "channel": 1,
  "noteNumber": 57,
  "noteName": "A3",
  "velocity": 79,
  "dtick": 48,
  "ins": 0
 },
 {
  "track": 3,
  "delta": 0,
  "tick": 4752,
  "byteIndex": 2066,
  "name": "Note on",
  "channel": 1,
  "noteNumber": 45,
  "noteName": "A2",
  "velocity": 79,
  "dtick": 48,
  "ins": 0
 },
 {
  "track": 3,
  "delta": 0,
  "tick": 4752,
  "byteIndex": 2070,
  "name": "Note on",
  "channel": 1,
  "noteNumber": 79,
  "noteName": "G5",
  "velocity": 79,
  "dtick": 240,
  "ins": 0
 },
 {
  "track": 3,
  "delta": 0,
  "tick": 4800,
  "byteIndex": 2086,
  "name": "Note on",
  "channel": 1,
  "noteNumber": 52,
  "noteName": "E3",
  "velocity": 79,
  "dtick": 48,
  "ins": 0
 },
 {
  "track": 3,
  "delta": 0,
  "tick": 4800,
  "byteIndex": 2090,
  "name": "Note on",
  "channel": 1,
  "noteNumber": 57,
  "noteName": "A3",
  "velocity": 79,
  "dtick": 48,
  "ins": 0
 },
 {
  "track": 3,
  "delta": 0,
  "tick": 4800,
  "byteIndex": 2094,
  "name": "Note on",
  "channel": 1,
  "noteNumber": 45,
  "noteName": "A2",
  "velocity": 79,
  "dtick": 48,
  "ins": 0
 },
 {
  "track": 3,
  "delta": 0,
  "tick": 4848,
  "byteIndex": 2110,
  "name": "Note on",
  "channel": 1,
  "noteNumber": 45,
  "noteName": "A2",
  "velocity": 79,
  "dtick": 48,
  "ins": 0
 },
 {
  "track": 3,
  "delta": 0,
  "tick": 4848,
  "byteIndex": 2114,
  "name": "Note on",
  "channel": 1,
  "noteNumber": 57,
  "noteName": "A3",
  "velocity": 79,
  "dtick": 48,
  "ins": 0
 },
 {
  "track": 3,
  "delta": 0,
  "tick": 4848,
  "byteIndex": 2118,
  "name": "Note on",
  "channel": 1,
  "noteNumber": 52,
  "noteName": "E3",
  "velocity": 79,
  "dtick": 48,
  "ins": 0
 },
 {
  "track": 3,
  "delta": 48,
  "tick": 4944,
  "byteIndex": 2134,
  "name": "Note on",
  "channel": 1,
  "noteNumber": 45,
  "noteName": "A2",
  "velocity": 79,
  "dtick": 48,
  "ins": 0
 },
 {
  "track": 3,
  "delta": 0,
  "tick": 4944,
  "byteIndex": 2138,
  "name": "Note on",
  "channel": 1,
  "noteNumber": 57,
  "noteName": "A3",
  "velocity": 79,
  "dtick": 48,
  "ins": 0
 },
 {
  "track": 3,
  "delta": 0,
  "tick": 4944,
  "byteIndex": 2142,
  "name": "Note on",
  "channel": 1,
  "noteNumber": 52,
  "noteName": "E3",
  "velocity": 79,
  "dtick": 48,
  "ins": 0
 },
 {
  "track": 3,
  "delta": 0,
  "tick": 4992,
  "byteIndex": 2162,
  "name": "Note on",
  "channel": 1,
  "noteNumber": 48,
  "noteName": "C3",
  "velocity": 79,
  "dtick": 48,
  "ins": 0
 },
 {
  "track": 3,
  "delta": 0,
  "tick": 4992,
  "byteIndex": 2166,
  "name": "Note on",
  "channel": 1,
  "noteNumber": 53,
  "noteName": "F3",
  "velocity": 79,
  "dtick": 48,
  "ins": 0
 },
 {
  "track": 3,
  "delta": 0,
  "tick": 4992,
  "byteIndex": 2170,
  "name": "Note on",
  "channel": 1,
  "noteNumber": 41,
  "noteName": "F2",
  "velocity": 79,
  "dtick": 48,
  "ins": 0
 },
 {
  "track": 3,
  "delta": 0,
  "tick": 4992,
  "byteIndex": 2174,
  "name": "Note on",
  "channel": 1,
  "noteNumber": 72,
  "noteName": "C5",
  "velocity": 79,
  "dtick": 48,
  "ins": 0
 },
 {
  "track": 3,
  "delta": 0,
  "tick": 5040,
  "byteIndex": 2194,
  "name": "Note on",
  "channel": 1,
  "noteNumber": 74,
  "noteName": "D5",
  "velocity": 79,
  "dtick": 48,
  "ins": 0
 },
 {
  "track": 3,
  "delta": 0,
  "tick": 5088,
  "byteIndex": 2202,
  "name": "Note on",
  "channel": 1,
  "noteNumber": 76,
  "noteName": "E5",
  "velocity": 79,
  "dtick": 48,
  "ins": 0
 },
 {
  "track": 3,
  "delta": 0,
  "tick": 5136,
  "byteIndex": 2210,
  "name": "Note on",
  "channel": 1,
  "noteNumber": 41,
  "noteName": "F2",
  "velocity": 79,
  "dtick": 48,
  "ins": 0
 },
 {
  "track": 3,
  "delta": 0,
  "tick": 5136,
  "byteIndex": 2214,
  "name": "Note on",
  "channel": 1,
  "noteNumber": 53,
  "noteName": "F3",
  "velocity": 79,
  "dtick": 48,
  "ins": 0
 },
 {
  "track": 3,
  "delta": 0,
  "tick": 5136,
  "byteIndex": 2218,
  "name": "Note on",
  "channel": 1,
  "noteNumber": 48,
  "noteName": "C3",
  "velocity": 79,
  "dtick": 48,
  "ins": 0
 },
 {
  "track": 3,
  "delta": 0,
  "tick": 5136,
  "byteIndex": 2222,
  "name": "Note on",
  "channel": 1,
  "noteNumber": 72,
  "noteName": "C5",
  "velocity": 79,
  "dtick": 240,
  "ins": 0
 },
 {
  "track": 3,
  "delta": 0,
  "tick": 5184,
  "byteIndex": 2238,
  "name": "Note on",
  "channel": 1,
  "noteNumber": 48,
  "noteName": "C3",
  "velocity": 79,
  "dtick": 48,
  "ins": 0
 },
 {
  "track": 3,
  "delta": 0,
  "tick": 5184,
  "byteIndex": 2242,
  "name": "Note on",
  "channel": 1,
  "noteNumber": 53,
  "noteName": "F3",
  "velocity": 79,
  "dtick": 48,
  "ins": 0
 },
 {
  "track": 3,
  "delta": 0,
  "tick": 5184,
  "byteIndex": 2246,
  "name": "Note on",
  "channel": 1,
  "noteNumber": 41,
  "noteName": "F2",
  "velocity": 79,
  "dtick": 48,
  "ins": 0
 },
 {
  "track": 3,
  "delta": 0,
  "tick": 5232,
  "byteIndex": 2262,
  "name": "Note on",
  "channel": 1,
  "noteNumber": 41,
  "noteName": "F2",
  "velocity": 79,
  "dtick": 48,
  "ins": 0
 },
 {
  "track": 3,
  "delta": 0,
  "tick": 5232,
  "byteIndex": 2266,
  "name": "Note on",
  "channel": 1,
  "noteNumber": 53,
  "noteName": "F3",
  "velocity": 79,
  "dtick": 48,
  "ins": 0
 },
 {
  "track": 3,
  "delta": 0,
  "tick": 5232,
  "byteIndex": 2270,
  "name": "Note on",
  "channel": 1,
  "noteNumber": 48,
  "noteName": "C3",
  "velocity": 79,
  "dtick": 48,
  "ins": 0
 },
 {
  "track": 3,
  "delta": 48,
  "tick": 5328,
  "byteIndex": 2286,
  "name": "Note on",
  "channel": 1,
  "noteNumber": 41,
  "noteName": "F2",
  "velocity": 79,
  "dtick": 48,
  "ins": 0
 },
 {
  "track": 3,
  "delta": 0,
  "tick": 5328,
  "byteIndex": 2290,
  "name": "Note on",
  "channel": 1,
  "noteNumber": 53,
  "noteName": "F3",
  "velocity": 79,
  "dtick": 48,
  "ins": 0
 },
 {
  "track": 3,
  "delta": 0,
  "tick": 5328,
  "byteIndex": 2294,
  "name": "Note on",
  "channel": 1,
  "noteNumber": 48,
  "noteName": "C3",
  "velocity": 79,
  "dtick": 48,
  "ins": 0
 },
 {
  "track": 3,
  "delta": 0,
  "tick": 5376,
  "byteIndex": 2314,
  "name": "Note on",
  "channel": 1,
  "noteNumber": 60,
  "noteName": "C4",
  "velocity": 79,
  "dtick": 48,
  "ins": 0
 },
 {
  "track": 3,
  "delta": 0,
  "tick": 5376,
  "byteIndex": 2318,
  "name": "Note on",
  "channel": 1,
  "noteNumber": 55,
  "noteName": "G3",
  "velocity": 79,
  "dtick": 48,
  "ins": 0
 },
 {
  "track": 3,
  "delta": 0,
  "tick": 5376,
  "byteIndex": 2322,
  "name": "Note on",
  "channel": 1,
  "noteNumber": 48,
  "noteName": "C3",
  "velocity": 79,
  "dtick": 48,
  "ins": 0
 },
 {
  "track": 3,
  "delta": 0,
  "tick": 5376,
  "byteIndex": 2326,
  "name": "Note on",
  "channel": 1,
  "noteNumber": 79,
  "noteName": "G5",
  "velocity": 79,
  "dtick": 48,
  "ins": 0
 },
 {
  "track": 3,
  "delta": 0,
  "tick": 5424,
  "byteIndex": 2346,
  "name": "Note on",
  "channel": 1,
  "noteNumber": 76,
  "noteName": "E5",
  "velocity": 79,
  "dtick": 48,
  "ins": 0
 },
 {
  "track": 3,
  "delta": 0,
  "tick": 5472,
  "byteIndex": 2354,
  "name": "Note on",
  "channel": 1,
  "noteNumber": 72,
  "noteName": "C5",
  "velocity": 79,
  "dtick": 48,
  "ins": 0
 },
 {
  "track": 3,
  "delta": 0,
  "tick": 5520,
  "byteIndex": 2362,
  "name": "Note on",
  "channel": 1,
  "noteNumber": 55,
  "noteName": "G3",
  "velocity": 79,
  "dtick": 48,
  "ins": 0
 },
 {
  "track": 3,
  "delta": 0,
  "tick": 5520,
  "byteIndex": 2366,
  "name": "Note on",
  "channel": 1,
  "noteNumber": 60,
  "noteName": "C4",
  "velocity": 79,
  "dtick": 48,
  "ins": 0
 },
 {
  "track": 3,
  "delta": 0,
  "tick": 5520,
  "byteIndex": 2370,
  "name": "Note on",
  "channel": 1,
  "noteNumber": 48,
  "noteName": "C3",
  "velocity": 79,
  "dtick": 48,
  "ins": 0
 },
 {
  "track": 3,
  "delta": 0,
  "tick": 5520,
  "byteIndex": 2374,
  "name": "Note on",
  "channel": 1,
  "noteNumber": 79,
  "noteName": "G5",
  "velocity": 79,
  "dtick": 240,
  "ins": 0
 },
 {
  "track": 3,
  "delta": 0,
  "tick": 5568,
  "byteIndex": 2390,
  "name": "Note on",
  "channel": 1,
  "noteNumber": 48,
  "noteName": "C3",
  "velocity": 79,
  "dtick": 48,
  "ins": 0
 },
 {
  "track": 3,
  "delta": 0,
  "tick": 5568,
  "byteIndex": 2394,
  "name": "Note on",
  "channel": 1,
  "noteNumber": 60,
  "noteName": "C4",
  "velocity": 79,
  "dtick": 48,
  "ins": 0
 },
 {
  "track": 3,
  "delta": 0,
  "tick": 5568,
  "byteIndex": 2398,
  "name": "Note on",
  "channel": 1,
  "noteNumber": 55,
  "noteName": "G3",
  "velocity": 79,
  "dtick": 48,
  "ins": 0
 },
 {
  "track": 3,
  "delta": 0,
  "tick": 5616,
  "byteIndex": 2414,
  "name": "Note on",
  "channel": 1,
  "noteNumber": 48,
  "noteName": "C3",
  "velocity": 79,
  "dtick": 48,
  "ins": 0
 },
 {
  "track": 3,
  "delta": 0,
  "tick": 5616,
  "byteIndex": 2418,
  "name": "Note on",
  "channel": 1,
  "noteNumber": 60,
  "noteName": "C4",
  "velocity": 79,
  "dtick": 48,
  "ins": 0
 },
 {
  "track": 3,
  "delta": 0,
  "tick": 5616,
  "byteIndex": 2422,
  "name": "Note on",
  "channel": 1,
  "noteNumber": 55,
  "noteName": "G3",
  "velocity": 79,
  "dtick": 48,
  "ins": 0
 },
 {
  "track": 3,
  "delta": 48,
  "tick": 5712,
  "byteIndex": 2438,
  "name": "Note on",
  "channel": 1,
  "noteNumber": 55,
  "noteName": "G3",
  "velocity": 79,
  "dtick": 48,
  "ins": 0
 },
 {
  "track": 3,
  "delta": 0,
  "tick": 5712,
  "byteIndex": 2442,
  "name": "Note on",
  "channel": 1,
  "noteNumber": 60,
  "noteName": "C4",
  "velocity": 79,
  "dtick": 48,
  "ins": 0
 },
 {
  "track": 3,
  "delta": 0,
  "tick": 5712,
  "byteIndex": 2446,
  "name": "Note on",
  "channel": 1,
  "noteNumber": 48,
  "noteName": "C3",
  "velocity": 79,
  "dtick": 48,
  "ins": 0
 },
 {
  "track": 3,
  "delta": 0,
  "tick": 5760,
  "byteIndex": 2466,
  "name": "Note on",
  "channel": 1,
  "noteNumber": 48,
  "noteName": "C3",
  "velocity": 79,
  "dtick": 48,
  "ins": 0
 },
 {
  "track": 3,
  "delta": 0,
  "tick": 5760,
  "byteIndex": 2470,
  "name": "Note on",
  "channel": 1,
  "noteNumber": 55,
  "noteName": "G3",
  "velocity": 79,
  "dtick": 48,
  "ins": 0
 },
 {
  "track": 3,
  "delta": 0,
  "tick": 5760,
  "byteIndex": 2474,
  "name": "Note on",
  "channel": 1,
  "noteNumber": 59,
  "noteName": "B3",
  "velocity": 79,
  "dtick": 48,
  "ins": 0
 },
 {
  "track": 3,
  "delta": 0,
  "tick": 5760,
  "byteIndex": 2478,
  "name": "Note on",
  "channel": 1,
  "noteNumber": 55,
  "noteName": "G3",
  "velocity": 79,
  "dtick": 48,
  "ins": 0
 },
 {
  "track": 3,
  "delta": 0,
  "tick": 5760,
  "byteIndex": 2482,
  "name": "Note on",
  "channel": 1,
  "noteNumber": 72,
  "noteName": "C5",
  "velocity": 79,
  "dtick": 48,
  "ins": 0
 },
 {
  "track": 3,
  "delta": 0,
  "tick": 5808,
  "byteIndex": 2506,
  "name": "Note on",
  "channel": 1,
  "noteNumber": 74,
  "noteName": "D5",
  "velocity": 79,
  "dtick": 48,
  "ins": 0
 },
 {
  "track": 3,
  "delta": 0,
  "tick": 5856,
  "byteIndex": 2514,
  "name": "Note on",
  "channel": 1,
  "noteNumber": 76,
  "noteName": "E5",
  "velocity": 79,
  "dtick": 48,
  "ins": 0
 },
 {
  "track": 3,
  "delta": 0,
  "tick": 5904,
  "byteIndex": 2522,
  "name": "Note on",
  "channel": 1,
  "noteNumber": 48,
  "noteName": "C3",
  "velocity": 79,
  "dtick": 48,
  "ins": 0
 },
 {
  "track": 3,
  "delta": 0,
  "tick": 5904,
  "byteIndex": 2526,
  "name": "Note on",
  "channel": 1,
  "noteNumber": 59,
  "noteName": "B3",
  "velocity": 79,
  "dtick": 48,
  "ins": 0
 },
 {
  "track": 3,
  "delta": 0,
  "tick": 5904,
  "byteIndex": 2530,
  "name": "Note on",
  "channel": 1,
  "noteNumber": 55,
  "noteName": "G3",
  "velocity": 79,
  "dtick": 48,
  "ins": 0
 },
 {
  "track": 3,
  "delta": 0,
  "tick": 5904,
  "byteIndex": 2534,
  "name": "Note on",
  "channel": 1,
  "noteNumber": 79,
  "noteName": "G5",
  "velocity": 79,
  "dtick": 240,
  "ins": 0
 },
 {
  "track": 3,
  "delta": 0,
  "tick": 5952,
  "byteIndex": 2550,
  "name": "Note on",
  "channel": 1,
  "noteNumber": 55,
  "noteName": "G3",
  "velocity": 79,
  "dtick": 48,
  "ins": 0
 },
 {
  "track": 3,
  "delta": 0,
  "tick": 5952,
  "byteIndex": 2554,
  "name": "Note on",
  "channel": 1,
  "noteNumber": 59,
  "noteName": "B3",
  "velocity": 79,
  "dtick": 48,
  "ins": 0
 },
 {
  "track": 3,
  "delta": 0,
  "tick": 5952,
  "byteIndex": 2558,
  "name": "Note on",
  "channel": 1,
  "noteNumber": 48,
  "noteName": "C3",
  "velocity": 79,
  "dtick": 48,
  "ins": 0
 },
 {
  "track": 3,
  "delta": 0,
  "tick": 6000,
  "byteIndex": 2574,
  "name": "Note on",
  "channel": 1,
  "noteNumber": 55,
  "noteName": "G3",
  "velocity": 79,
  "dtick": 48,
  "ins": 0
 },
 {
  "track": 3,
  "delta": 0,
  "tick": 6000,
  "byteIndex": 2578,
  "name": "Note on",
  "channel": 1,
  "noteNumber": 59,
  "noteName": "B3",
  "velocity": 79,
  "dtick": 48,
  "ins": 0
 },
 {
  "track": 3,
  "delta": 0,
  "tick": 6000,
  "byteIndex": 2582,
  "name": "Note on",
  "channel": 1,
  "noteNumber": 48,
  "noteName": "C3",
  "velocity": 79,
  "dtick": 48,
  "ins": 0
 },
 {
  "track": 3,
  "delta": 48,
  "tick": 6096,
  "byteIndex": 2598,
  "name": "Note on",
  "channel": 1,
  "noteNumber": 55,
  "noteName": "G3",
  "velocity": 79,
  "dtick": 48,
  "ins": 0
 },
 {
  "track": 3,
  "delta": 0,
  "tick": 6096,
  "byteIndex": 2602,
  "name": "Note on",
  "channel": 1,
  "noteNumber": 59,
  "noteName": "B3",
  "velocity": 79,
  "dtick": 48,
  "ins": 0
 },
 {
  "track": 3,
  "delta": 0,
  "tick": 6096,
  "byteIndex": 2606,
  "name": "Note on",
  "channel": 1,
  "noteNumber": 48,
  "noteName": "C3",
  "velocity": 79,
  "dtick": 48,
  "ins": 0
 },
 {
  "track": 3,
  "delta": 0,
  "tick": 6144,
  "byteIndex": 2626,
  "name": "Note on",
  "channel": 1,
  "noteNumber": 76,
  "noteName": "E5",
  "velocity": 79,
  "dtick": 24,
  "ins": 0
 },
 {
  "track": 3,
  "delta": 0,
  "tick": 6144,
  "byteIndex": 2630,
  "name": "Note on",
  "channel": 1,
  "noteNumber": 57,
  "noteName": "A3",
  "velocity": 79,
  "dtick": 48,
  "ins": 0
 },
 {
  "track": 3,
  "delta": 0,
  "tick": 6144,
  "byteIndex": 2634,
  "name": "Note on",
  "channel": 1,
  "noteNumber": 45,
  "noteName": "A2",
  "velocity": 79,
  "dtick": 48,
  "ins": 0
 },
 {
  "track": 3,
  "delta": 0,
  "tick": 6144,
  "byteIndex": 2638,
  "name": "Note on",
  "channel": 1,
  "noteNumber": 52,
  "noteName": "E3",
  "velocity": 79,
  "dtick": 48,
  "ins": 0
 },
 {
  "track": 3,
  "delta": 0,
  "tick": 6168,
  "byteIndex": 2646,
  "name": "Note on",
  "channel": 1,
  "noteNumber": 67,
  "noteName": "G4",
  "velocity": 79,
  "dtick": 24,
  "ins": 0
 },
 {
  "track": 3,
  "delta": 0,
  "tick": 6192,
  "byteIndex": 2666,
  "name": "Note on",
  "channel": 1,
  "noteNumber": 72,
  "noteName": "C5",
  "velocity": 79,
  "dtick": 24,
  "ins": 0
 },
 {
  "track": 3,
  "delta": 0,
  "tick": 6192,
  "byteIndex": 2670,
  "name": "Note on",
  "channel": 1,
  "noteNumber": 57,
  "noteName": "A3",
  "velocity": 79,
  "dtick": 48,
  "ins": 0
 },
 {
  "track": 3,
  "delta": 0,
  "tick": 6192,
  "byteIndex": 2674,
  "name": "Note on",
  "channel": 1,
  "noteNumber": 52,
  "noteName": "E3",
  "velocity": 79,
  "dtick": 48,
  "ins": 0
 },
 {
  "track": 3,
  "delta": 0,
  "tick": 6192,
  "byteIndex": 2678,
  "name": "Note on",
  "channel": 1,
  "noteNumber": 45,
  "noteName": "A2",
  "velocity": 79,
  "dtick": 48,
  "ins": 0
 },
 {
  "track": 3,
  "delta": 0,
  "tick": 6216,
  "byteIndex": 2686,
  "name": "Note on",
  "channel": 1,
  "noteNumber": 74,
  "noteName": "D5",
  "velocity": 79,
  "dtick": 24,
  "ins": 0
 },
 {
  "track": 3,
  "delta": 0,
  "tick": 6240,
  "byteIndex": 2706,
  "name": "Note on",
  "channel": 1,
  "noteNumber": 76,
  "noteName": "E5",
  "velocity": 79,
  "dtick": 24,
  "ins": 0
 },
 {
  "track": 3,
  "delta": 0,
  "tick": 6240,
  "byteIndex": 2710,
  "name": "Note on",
  "channel": 1,
  "noteNumber": 57,
  "noteName": "A3",
  "velocity": 79,
  "dtick": 48,
  "ins": 0
 },
 {
  "track": 3,
  "delta": 0,
  "tick": 6240,
  "byteIndex": 2714,
  "name": "Note on",
  "channel": 1,
  "noteNumber": 52,
  "noteName": "E3",
  "velocity": 79,
  "dtick": 48,
  "ins": 0
 },
 {
  "track": 3,
  "delta": 0,
  "tick": 6240,
  "byteIndex": 2718,
  "name": "Note on",
  "channel": 1,
  "noteNumber": 45,
  "noteName": "A2",
  "velocity": 79,
  "dtick": 48,
  "ins": 0
 },
 {
  "track": 3,
  "delta": 0,
  "tick": 6264,
  "byteIndex": 2726,
  "name": "Note on",
  "channel": 1,
  "noteNumber": 79,
  "noteName": "G5",
  "velocity": 79,
  "dtick": 24,
  "ins": 0
 },
 {
  "track": 3,
  "delta": 0,
  "tick": 6288,
  "byteIndex": 2746,
  "name": "Note on",
  "channel": 1,
  "noteNumber": 76,
  "noteName": "E5",
  "velocity": 79,
  "dtick": 24,
  "ins": 0
 },
 {
  "track": 3,
  "delta": 0,
  "tick": 6288,
  "byteIndex": 2750,
  "name": "Note on",
  "channel": 1,
  "noteNumber": 52,
  "noteName": "E3",
  "velocity": 79,
  "dtick": 48,
  "ins": 0
 },
 {
  "track": 3,
  "delta": 0,
  "tick": 6288,
  "byteIndex": 2754,
  "name": "Note on",
  "channel": 1,
  "noteNumber": 57,
  "noteName": "A3",
  "velocity": 79,
  "dtick": 48,
  "ins": 0
 },
 {
  "track": 3,
  "delta": 0,
  "tick": 6288,
  "byteIndex": 2758,
  "name": "Note on",
  "channel": 1,
  "noteNumber": 45,
  "noteName": "A2",
  "velocity": 79,
  "dtick": 48,
  "ins": 0
 },
 {
  "track": 3,
  "delta": 0,
  "tick": 6312,
  "byteIndex": 2766,
  "name": "Note on",
  "channel": 1,
  "noteNumber": 72,
  "noteName": "C5",
  "velocity": 79,
  "dtick": 24,
  "ins": 0
 },
 {
  "track": 3,
  "delta": 0,
  "tick": 6336,
  "byteIndex": 2786,
  "name": "Note on",
  "channel": 1,
  "noteNumber": 69,
  "noteName": "A4",
  "velocity": 79,
  "dtick": 24,
  "ins": 0
 },
 {
  "track": 3,
  "delta": 0,
  "tick": 6336,
  "byteIndex": 2790,
  "name": "Note on",
  "channel": 1,
  "noteNumber": 52,
  "noteName": "E3",
  "velocity": 79,
  "dtick": 48,
  "ins": 0
 },
 {
  "track": 3,
  "delta": 0,
  "tick": 6336,
  "byteIndex": 2794,
  "name": "Note on",
  "channel": 1,
  "noteNumber": 57,
  "noteName": "A3",
  "velocity": 79,
  "dtick": 48,
  "ins": 0
 },
 {
  "track": 3,
  "delta": 0,
  "tick": 6336,
  "byteIndex": 2798,
  "name": "Note on",
  "channel": 1,
  "noteNumber": 45,
  "noteName": "A2",
  "velocity": 79,
  "dtick": 48,
  "ins": 0
 },
 {
  "track": 3,
  "delta": 0,
  "tick": 6360,
  "byteIndex": 2806,
  "name": "Note on",
  "channel": 1,
  "noteNumber": 67,
  "noteName": "G4",
  "velocity": 79,
  "dtick": 24,
  "ins": 0
 },
 {
  "track": 3,
  "delta": 0,
  "tick": 6384,
  "byteIndex": 2826,
  "name": "Note on",
  "channel": 1,
  "noteNumber": 72,
  "noteName": "C5",
  "velocity": 79,
  "dtick": 24,
  "ins": 0
 },
 {
  "track": 3,
  "delta": 0,
  "tick": 6384,
  "byteIndex": 2830,
  "name": "Note on",
  "channel": 1,
  "noteNumber": 45,
  "noteName": "A2",
  "velocity": 79,
  "dtick": 48,
  "ins": 0
 },
 {
  "track": 3,
  "delta": 0,
  "tick": 6384,
  "byteIndex": 2834,
  "name": "Note on",
  "channel": 1,
  "noteNumber": 52,
  "noteName": "E3",
  "velocity": 79,
  "dtick": 48,
  "ins": 0
 },
 {
  "track": 3,
  "delta": 0,
  "tick": 6384,
  "byteIndex": 2838,
  "name": "Note on",
  "channel": 1,
  "noteNumber": 57,
  "noteName": "A3",
  "velocity": 79,
  "dtick": 48,
  "ins": 0
 },
 {
  "track": 3,
  "delta": 0,
  "tick": 6408,
  "byteIndex": 2846,
  "name": "Note on",
  "channel": 1,
  "noteNumber": 74,
  "noteName": "D5",
  "velocity": 79,
  "dtick": 24,
  "ins": 0
 },
 {
  "track": 3,
  "delta": 0,
  "tick": 6432,
  "byteIndex": 2866,
  "name": "Note on",
  "channel": 1,
  "noteNumber": 72,
  "noteName": "C5",
  "velocity": 79,
  "dtick": 24,
  "ins": 0
 },
 {
  "track": 3,
  "delta": 0,
  "tick": 6432,
  "byteIndex": 2870,
  "name": "Note on",
  "channel": 1,
  "noteNumber": 45,
  "noteName": "A2",
  "velocity": 79,
  "dtick": 48,
  "ins": 0
 },
 {
  "track": 3,
  "delta": 0,
  "tick": 6432,
  "byteIndex": 2874,
  "name": "Note on",
  "channel": 1,
  "noteNumber": 57,
  "noteName": "A3",
  "velocity": 79,
  "dtick": 48,
  "ins": 0
 },
 {
  "track": 3,
  "delta": 0,
  "tick": 6432,
  "byteIndex": 2878,
  "name": "Note on",
  "channel": 1,
  "noteNumber": 52,
  "noteName": "E3",
  "velocity": 79,
  "dtick": 48,
  "ins": 0
 },
 {
  "track": 3,
  "delta": 0,
  "tick": 6456,
  "byteIndex": 2886,
  "name": "Note on",
  "channel": 1,
  "noteNumber": 79,
  "noteName": "G5",
  "velocity": 79,
  "dtick": 24,
  "ins": 0
 },
 {
  "track": 3,
  "delta": 0,
  "tick": 6480,
  "byteIndex": 2906,
  "name": "Note on",
  "channel": 1,
  "noteNumber": 76,
  "noteName": "E5",
  "velocity": 79,
  "dtick": 24,
  "ins": 0
 },
 {
  "track": 3,
  "delta": 0,
  "tick": 6480,
  "byteIndex": 2910,
  "name": "Note on",
  "channel": 1,
  "noteNumber": 45,
  "noteName": "A2",
  "velocity": 79,
  "dtick": 48,
  "ins": 0
 },
 {
  "track": 3,
  "delta": 0,
  "tick": 6480,
  "byteIndex": 2914,
  "name": "Note on",
  "channel": 1,
  "noteNumber": 52,
  "noteName": "E3",
  "velocity": 79,
  "dtick": 48,
  "ins": 0
 },
 {
  "track": 3,
  "delta": 0,
  "tick": 6480,
  "byteIndex": 2918,
  "name": "Note on",
  "channel": 1,
  "noteNumber": 57,
  "noteName": "A3",
  "velocity": 79,
  "dtick": 48,
  "ins": 0
 },
 {
  "track": 3,
  "delta": 0,
  "tick": 6504,
  "byteIndex": 2926,
  "name": "Note on",
  "channel": 1,
  "noteNumber": 72,
  "noteName": "C5",
  "velocity": 79,
  "dtick": 24,
  "ins": 0
 },
 {
  "track": 3,
  "delta": 0,
  "tick": 6528,
  "byteIndex": 2946,
  "name": "Note on",
  "channel": 1,
  "noteNumber": 76,
  "noteName": "E5",
  "velocity": 79,
  "dtick": 24,
  "ins": 0
 },
 {
  "track": 3,
  "delta": 0,
  "tick": 6528,
  "byteIndex": 2950,
  "name": "Note on",
  "channel": 1,
  "noteNumber": 41,
  "noteName": "F2",
  "velocity": 79,
  "dtick": 48,
  "ins": 0
 },
 {
  "track": 3,
  "delta": 0,
  "tick": 6528,
  "byteIndex": 2954,
  "name": "Note on",
  "channel": 1,
  "noteNumber": 53,
  "noteName": "F3",
  "velocity": 79,
  "dtick": 48,
  "ins": 0
 },
 {
  "track": 3,
  "delta": 0,
  "tick": 6528,
  "byteIndex": 2958,
  "name": "Note on",
  "channel": 1,
  "noteNumber": 48,
  "noteName": "C3",
  "velocity": 79,
  "dtick": 48,
  "ins": 0
 },
 {
  "track": 3,
  "delta": 0,
  "tick": 6552,
  "byteIndex": 2966,
  "name": "Note on",
  "channel": 1,
  "noteNumber": 69,
  "noteName": "A4",
  "velocity": 79,
  "dtick": 24,
  "ins": 0
 },
 {
  "track": 3,
  "delta": 0,
  "tick": 6576,
  "byteIndex": 2986,
  "name": "Note on",
  "channel": 1,
  "noteNumber": 72,
  "noteName": "C5",
  "velocity": 79,
  "dtick": 24,
  "ins": 0
 },
 {
  "track": 3,
  "delta": 0,
  "tick": 6576,
  "byteIndex": 2990,
  "name": "Note on",
  "channel": 1,
  "noteNumber": 41,
  "noteName": "F2",
  "velocity": 79,
  "dtick": 48,
  "ins": 0
 },
 {
  "track": 3,
  "delta": 0,
  "tick": 6576,
  "byteIndex": 2994,
  "name": "Note on",
  "channel": 1,
  "noteNumber": 48,
  "noteName": "C3",
  "velocity": 79,
  "dtick": 48,
  "ins": 0
 },
 {
  "track": 3,
  "delta": 0,
  "tick": 6576,
  "byteIndex": 2998,
  "name": "Note on",
  "channel": 1,
  "noteNumber": 53,
  "noteName": "F3",
  "velocity": 79,
  "dtick": 48,
  "ins": 0
 },
 {
  "track": 3,
  "delta": 0,
  "tick": 6600,
  "byteIndex": 3006,
  "name": "Note on",
  "channel": 1,
  "noteNumber": 74,
  "noteName": "D5",
  "velocity": 79,
  "dtick": 24,
  "ins": 0
 },
 {
  "track": 3,
  "delta": 0,
  "tick": 6624,
  "byteIndex": 3026,
  "name": "Note on",
  "channel": 1,
  "noteNumber": 76,
  "noteName": "E5",
  "velocity": 79,
  "dtick": 24,
  "ins": 0
 },
 {
  "track": 3,
  "delta": 0,
  "tick": 6624,
  "byteIndex": 3030,
  "name": "Note on",
  "channel": 1,
  "noteNumber": 53,
  "noteName": "F3",
  "velocity": 79,
  "dtick": 48,
  "ins": 0
 },
 {
  "track": 3,
  "delta": 0,
  "tick": 6624,
  "byteIndex": 3034,
  "name": "Note on",
  "channel": 1,
  "noteNumber": 48,
  "noteName": "C3",
  "velocity": 79,
  "dtick": 48,
  "ins": 0
 },
 {
  "track": 3,
  "delta": 0,
  "tick": 6624,
  "byteIndex": 3038,
  "name": "Note on",
  "channel": 1,
  "noteNumber": 41,
  "noteName": "F2",
  "velocity": 79,
  "dtick": 48,
  "ins": 0
 },
 {
  "track": 3,
  "delta": 0,
  "tick": 6648,
  "byteIndex": 3046,
  "name": "Note on",
  "channel": 1,
  "noteNumber": 79,
  "noteName": "G5",
  "velocity": 79,
  "dtick": 24,
  "ins": 0
 },
 {
  "track": 3,
  "delta": 0,
  "tick": 6672,
  "byteIndex": 3066,
  "name": "Note on",
  "channel": 1,
  "noteNumber": 76,
  "noteName": "E5",
  "velocity": 79,
  "dtick": 24,
  "ins": 0
 },
 {
  "track": 3,
  "delta": 0,
  "tick": 6672,
  "byteIndex": 3070,
  "name": "Note on",
  "channel": 1,
  "noteNumber": 48,
  "noteName": "C3",
  "velocity": 79,
  "dtick": 48,
  "ins": 0
 },
 {
  "track": 3,
  "delta": 0,
  "tick": 6672,
  "byteIndex": 3074,
  "name": "Note on",
  "channel": 1,
  "noteNumber": 53,
  "noteName": "F3",
  "velocity": 79,
  "dtick": 48,
  "ins": 0
 },
 {
  "track": 3,
  "delta": 0,
  "tick": 6672,
  "byteIndex": 3078,
  "name": "Note on",
  "channel": 1,
  "noteNumber": 41,
  "noteName": "F2",
  "velocity": 79,
  "dtick": 48,
  "ins": 0
 },
 {
  "track": 3,
  "delta": 0,
  "tick": 6696,
  "byteIndex": 3086,
  "name": "Note on",
  "channel": 1,
  "noteNumber": 72,
  "noteName": "C5",
  "velocity": 79,
  "dtick": 24,
  "ins": 0
 },
 {
  "track": 3,
  "delta": 0,
  "tick": 6720,
  "byteIndex": 3106,
  "name": "Note on",
  "channel": 1,
  "noteNumber": 69,
  "noteName": "A4",
  "velocity": 79,
  "dtick": 24,
  "ins": 0
 },
 {
  "track": 3,
  "delta": 0,
  "tick": 6720,
  "byteIndex": 3110,
  "name": "Note on",
  "channel": 1,
  "noteNumber": 41,
  "noteName": "F2",
  "velocity": 79,
  "dtick": 48,
  "ins": 0
 },
 {
  "track": 3,
  "delta": 0,
  "tick": 6720,
  "byteIndex": 3114,
  "name": "Note on",
  "channel": 1,
  "noteNumber": 53,
  "noteName": "F3",
  "velocity": 79,
  "dtick": 48,
  "ins": 0
 },
 {
  "track": 3,
  "delta": 0,
  "tick": 6720,
  "byteIndex": 3118,
  "name": "Note on",
  "channel": 1,
  "noteNumber": 48,
  "noteName": "C3",
  "velocity": 79,
  "dtick": 48,
  "ins": 0
 },
 {
  "track": 3,
  "delta": 0,
  "tick": 6744,
  "byteIndex": 3126,
  "name": "Note on",
  "channel": 1,
  "noteNumber": 67,
  "noteName": "G4",
  "velocity": 79,
  "dtick": 24,
  "ins": 0
 },
 {
  "track": 3,
  "delta": 0,
  "tick": 6768,
  "byteIndex": 3146,
  "name": "Note on",
  "channel": 1,
  "noteNumber": 72,
  "noteName": "C5",
  "velocity": 79,
  "dtick": 24,
  "ins": 0
 },
 {
  "track": 3,
  "delta": 0,
  "tick": 6768,
  "byteIndex": 3150,
  "name": "Note on",
  "channel": 1,
  "noteNumber": 53,
  "noteName": "F3",
  "velocity": 79,
  "dtick": 48,
  "ins": 0
 },
 {
  "track": 3,
  "delta": 0,
  "tick": 6768,
  "byteIndex": 3154,
  "name": "Note on",
  "channel": 1,
  "noteNumber": 48,
  "noteName": "C3",
  "velocity": 79,
  "dtick": 48,
  "ins": 0
 },
 {
  "track": 3,
  "delta": 0,
  "tick": 6768,
  "byteIndex": 3158,
  "name": "Note on",
  "channel": 1,
  "noteNumber": 41,
  "noteName": "F2",
  "velocity": 79,
  "dtick": 48,
  "ins": 0
 },
 {
  "track": 3,
  "delta": 0,
  "tick": 6792,
  "byteIndex": 3166,
  "name": "Note on",
  "channel": 1,
  "noteNumber": 74,
  "noteName": "D5",
  "velocity": 79,
  "dtick": 24,
  "ins": 0
 },
 {
  "track": 3,
  "delta": 0,
  "tick": 6816,
  "byteIndex": 3186,
  "name": "Note on",
  "channel": 1,
  "noteNumber": 72,
  "noteName": "C5",
  "velocity": 79,
  "dtick": 24,
  "ins": 0
 },
 {
  "track": 3,
  "delta": 0,
  "tick": 6816,
  "byteIndex": 3190,
  "name": "Note on",
  "channel": 1,
  "noteNumber": 41,
  "noteName": "F2",
  "velocity": 79,
  "dtick": 48,
  "ins": 0
 },
 {
  "track": 3,
  "delta": 0,
  "tick": 6816,
  "byteIndex": 3194,
  "name": "Note on",
  "channel": 1,
  "noteNumber": 53,
  "noteName": "F3",
  "velocity": 79,
  "dtick": 48,
  "ins": 0
 },
 {
  "track": 3,
  "delta": 0,
  "tick": 6816,
  "byteIndex": 3198,
  "name": "Note on",
  "channel": 1,
  "noteNumber": 48,
  "noteName": "C3",
  "velocity": 79,
  "dtick": 48,
  "ins": 0
 },
 {
  "track": 3,
  "delta": 0,
  "tick": 6840,
  "byteIndex": 3206,
  "name": "Note on",
  "channel": 1,
  "noteNumber": 69,
  "noteName": "A4",
  "velocity": 79,
  "dtick": 24,
  "ins": 0
 },
 {
  "track": 3,
  "delta": 0,
  "tick": 6864,
  "byteIndex": 3226,
  "name": "Note on",
  "channel": 1,
  "noteNumber": 67,
  "noteName": "G4",
  "velocity": 79,
  "dtick": 24,
  "ins": 0
 },
 {
  "track": 3,
  "delta": 0,
  "tick": 6864,
  "byteIndex": 3230,
  "name": "Note on",
  "channel": 1,
  "noteNumber": 53,
  "noteName": "F3",
  "velocity": 79,
  "dtick": 48,
  "ins": 0
 },
 {
  "track": 3,
  "delta": 0,
  "tick": 6864,
  "byteIndex": 3234,
  "name": "Note on",
  "channel": 1,
  "noteNumber": 48,
  "noteName": "C3",
  "velocity": 79,
  "dtick": 48,
  "ins": 0
 },
 {
  "track": 3,
  "delta": 0,
  "tick": 6864,
  "byteIndex": 3238,
  "name": "Note on",
  "channel": 1,
  "noteNumber": 41,
  "noteName": "F2",
  "velocity": 79,
  "dtick": 48,
  "ins": 0
 },
 {
  "track": 3,
  "delta": 0,
  "tick": 6888,
  "byteIndex": 3246,
  "name": "Note on",
  "channel": 1,
  "noteNumber": 64,
  "noteName": "E4",
  "velocity": 79,
  "dtick": 24,
  "ins": 0
 },
 {
  "track": 3,
  "delta": 0,
  "tick": 6912,
  "byteIndex": 3266,
  "name": "Note on",
  "channel": 1,
  "noteNumber": 55,
  "noteName": "G3",
  "velocity": 79,
  "dtick": 48,
  "ins": 0
 },
 {
  "track": 3,
  "delta": 0,
  "tick": 6912,
  "byteIndex": 3270,
  "name": "Note on",
  "channel": 1,
  "noteNumber": 60,
  "noteName": "C4",
  "velocity": 79,
  "dtick": 48,
  "ins": 0
 },
 {
  "track": 3,
  "delta": 0,
  "tick": 6912,
  "byteIndex": 3274,
  "name": "Note on",
  "channel": 1,
  "noteNumber": 48,
  "noteName": "C3",
  "velocity": 79,
  "dtick": 48,
  "ins": 0
 },
 {
  "track": 3,
  "delta": 0,
  "tick": 6912,
  "byteIndex": 3278,
  "name": "Note on",
  "channel": 1,
  "noteNumber": 76,
  "noteName": "E5",
  "velocity": 79,
  "dtick": 24,
  "ins": 0
 },
 {
  "track": 3,
  "delta": 0,
  "tick": 6936,
  "byteIndex": 3286,
  "name": "Note on",
  "channel": 1,
  "noteNumber": 67,
  "noteName": "G4",
  "velocity": 79,
  "dtick": 24,
  "ins": 0
 },
 {
  "track": 3,
  "delta": 0,
  "tick": 6960,
  "byteIndex": 3306,
  "name": "Note on",
  "channel": 1,
  "noteNumber": 48,
  "noteName": "C3",
  "velocity": 79,
  "dtick": 48,
  "ins": 0
 },
 {
  "track": 3,
  "delta": 0,
  "tick": 6960,
  "byteIndex": 3310,
  "name": "Note on",
  "channel": 1,
  "noteNumber": 55,
  "noteName": "G3",
  "velocity": 79,
  "dtick": 48,
  "ins": 0
 },
 {
  "track": 3,
  "delta": 0,
  "tick": 6960,
  "byteIndex": 3314,
  "name": "Note on",
  "channel": 1,
  "noteNumber": 60,
  "noteName": "C4",
  "velocity": 79,
  "dtick": 48,
  "ins": 0
 },
 {
  "track": 3,
  "delta": 0,
  "tick": 6960,
  "byteIndex": 3318,
  "name": "Note on",
  "channel": 1,
  "noteNumber": 72,
  "noteName": "C5",
  "velocity": 79,
  "dtick": 24,
  "ins": 0
 },
 {
  "track": 3,
  "delta": 0,
  "tick": 6984,
  "byteIndex": 3326,
  "name": "Note on",
  "channel": 1,
  "noteNumber": 74,
  "noteName": "D5",
  "velocity": 79,
  "dtick": 24,
  "ins": 0
 },
 {
  "track": 3,
  "delta": 0,
  "tick": 7008,
  "byteIndex": 3346,
  "name": "Note on",
  "channel": 1,
  "noteNumber": 60,
  "noteName": "C4",
  "velocity": 79,
  "dtick": 48,
  "ins": 0
 },
 {
  "track": 3,
  "delta": 0,
  "tick": 7008,
  "byteIndex": 3350,
  "name": "Note on",
  "channel": 1,
  "noteNumber": 55,
  "noteName": "G3",
  "velocity": 79,
  "dtick": 48,
  "ins": 0
 },
 {
  "track": 3,
  "delta": 0,
  "tick": 7008,
  "byteIndex": 3354,
  "name": "Note on",
  "channel": 1,
  "noteNumber": 48,
  "noteName": "C3",
  "velocity": 79,
  "dtick": 48,
  "ins": 0
 },
 {
  "track": 3,
  "delta": 0,
  "tick": 7008,
  "byteIndex": 3358,
  "name": "Note on",
  "channel": 1,
  "noteNumber": 76,
  "noteName": "E5",
  "velocity": 79,
  "dtick": 24,
  "ins": 0
 },
 {
  "track": 3,
  "delta": 0,
  "tick": 7032,
  "byteIndex": 3366,
  "name": "Note on",
  "channel": 1,
  "noteNumber": 79,
  "noteName": "G5",
  "velocity": 79,
  "dtick": 24,
  "ins": 0
 },
 {
  "track": 3,
  "delta": 0,
  "tick": 7056,
  "byteIndex": 3386,
  "name": "Note on",
  "channel": 1,
  "noteNumber": 60,
  "noteName": "C4",
  "velocity": 79,
  "dtick": 48,
  "ins": 0
 },
 {
  "track": 3,
  "delta": 0,
  "tick": 7056,
  "byteIndex": 3390,
  "name": "Note on",
  "channel": 1,
  "noteNumber": 55,
  "noteName": "G3",
  "velocity": 79,
  "dtick": 48,
  "ins": 0
 },
 {
  "track": 3,
  "delta": 0,
  "tick": 7056,
  "byteIndex": 3394,
  "name": "Note on",
  "channel": 1,
  "noteNumber": 48,
  "noteName": "C3",
  "velocity": 79,
  "dtick": 48,
  "ins": 0
 },
 {
  "track": 3,
  "delta": 0,
  "tick": 7056,
  "byteIndex": 3398,
  "name": "Note on",
  "channel": 1,
  "noteNumber": 76,
  "noteName": "E5",
  "velocity": 79,
  "dtick": 24,
  "ins": 0
 },
 {
  "track": 3,
  "delta": 0,
  "tick": 7080,
  "byteIndex": 3406,
  "name": "Note on",
  "channel": 1,
  "noteNumber": 72,
  "noteName": "C5",
  "velocity": 79,
  "dtick": 24,
  "ins": 0
 },
 {
  "track": 3,
  "delta": 0,
  "tick": 7104,
  "byteIndex": 3426,
  "name": "Note on",
  "channel": 1,
  "noteNumber": 48,
  "noteName": "C3",
  "velocity": 79,
  "dtick": 48,
  "ins": 0
 },
 {
  "track": 3,
  "delta": 0,
  "tick": 7104,
  "byteIndex": 3430,
  "name": "Note on",
  "channel": 1,
  "noteNumber": 60,
  "noteName": "C4",
  "velocity": 79,
  "dtick": 48,
  "ins": 0
 },
 {
  "track": 3,
  "delta": 0,
  "tick": 7104,
  "byteIndex": 3434,
  "name": "Note on",
  "channel": 1,
  "noteNumber": 55,
  "noteName": "G3",
  "velocity": 79,
  "dtick": 48,
  "ins": 0
 },
 {
  "track": 3,
  "delta": 0,
  "tick": 7104,
  "byteIndex": 3438,
  "name": "Note on",
  "channel": 1,
  "noteNumber": 69,
  "noteName": "A4",
  "velocity": 79,
  "dtick": 24,
  "ins": 0
 },
 {
  "track": 3,
  "delta": 0,
  "tick": 7128,
  "byteIndex": 3446,
  "name": "Note on",
  "channel": 1,
  "noteNumber": 67,
  "noteName": "G4",
  "velocity": 79,
  "dtick": 24,
  "ins": 0
 },
 {
  "track": 3,
  "delta": 0,
  "tick": 7152,
  "byteIndex": 3466,
  "name": "Note on",
  "channel": 1,
  "noteNumber": 60,
  "noteName": "C4",
  "velocity": 79,
  "dtick": 48,
  "ins": 0
 },
 {
  "track": 3,
  "delta": 0,
  "tick": 7152,
  "byteIndex": 3470,
  "name": "Note on",
  "channel": 1,
  "noteNumber": 55,
  "noteName": "G3",
  "velocity": 79,
  "dtick": 48,
  "ins": 0
 },
 {
  "track": 3,
  "delta": 0,
  "tick": 7152,
  "byteIndex": 3474,
  "name": "Note on",
  "channel": 1,
  "noteNumber": 48,
  "noteName": "C3",
  "velocity": 79,
  "dtick": 48,
  "ins": 0
 },
 {
  "track": 3,
  "delta": 0,
  "tick": 7152,
  "byteIndex": 3478,
  "name": "Note on",
  "channel": 1,
  "noteNumber": 72,
  "noteName": "C5",
  "velocity": 79,
  "dtick": 24,
  "ins": 0
 },
 {
  "track": 3,
  "delta": 0,
  "tick": 7176,
  "byteIndex": 3486,
  "name": "Note on",
  "channel": 1,
  "noteNumber": 74,
  "noteName": "D5",
  "velocity": 79,
  "dtick": 24,
  "ins": 0
 },
 {
  "track": 3,
  "delta": 0,
  "tick": 7200,
  "byteIndex": 3506,
  "name": "Note on",
  "channel": 1,
  "noteNumber": 55,
  "noteName": "G3",
  "velocity": 79,
  "dtick": 48,
  "ins": 0
 },
 {
  "track": 3,
  "delta": 0,
  "tick": 7200,
  "byteIndex": 3510,
  "name": "Note on",
  "channel": 1,
  "noteNumber": 60,
  "noteName": "C4",
  "velocity": 79,
  "dtick": 48,
  "ins": 0
 },
 {
  "track": 3,
  "delta": 0,
  "tick": 7200,
  "byteIndex": 3514,
  "name": "Note on",
  "channel": 1,
  "noteNumber": 48,
  "noteName": "C3",
  "velocity": 79,
  "dtick": 48,
  "ins": 0
 },
 {
  "track": 3,
  "delta": 0,
  "tick": 7200,
  "byteIndex": 3518,
  "name": "Note on",
  "channel": 1,
  "noteNumber": 72,
  "noteName": "C5",
  "velocity": 79,
  "dtick": 24,
  "ins": 0
 },
 {
  "track": 3,
  "delta": 0,
  "tick": 7224,
  "byteIndex": 3526,
  "name": "Note on",
  "channel": 1,
  "noteNumber": 79,
  "noteName": "G5",
  "velocity": 79,
  "dtick": 24,
  "ins": 0
 },
 {
  "track": 3,
  "delta": 0,
  "tick": 7248,
  "byteIndex": 3546,
  "name": "Note on",
  "channel": 1,
  "noteNumber": 48,
  "noteName": "C3",
  "velocity": 79,
  "dtick": 48,
  "ins": 0
 },
 {
  "track": 3,
  "delta": 0,
  "tick": 7248,
  "byteIndex": 3550,
  "name": "Note on",
  "channel": 1,
  "noteNumber": 55,
  "noteName": "G3",
  "velocity": 79,
  "dtick": 48,
  "ins": 0
 },
 {
  "track": 3,
  "delta": 0,
  "tick": 7248,
  "byteIndex": 3554,
  "name": "Note on",
  "channel": 1,
  "noteNumber": 60,
  "noteName": "C4",
  "velocity": 79,
  "dtick": 48,
  "ins": 0
 },
 {
  "track": 3,
  "delta": 0,
  "tick": 7248,
  "byteIndex": 3558,
  "name": "Note on",
  "channel": 1,
  "noteNumber": 76,
  "noteName": "E5",
  "velocity": 79,
  "dtick": 24,
  "ins": 0
 },
 {
  "track": 3,
  "delta": 0,
  "tick": 7272,
  "byteIndex": 3566,
  "name": "Note on",
  "channel": 1,
  "noteNumber": 72,
  "noteName": "C5",
  "velocity": 79,
  "dtick": 24,
  "ins": 0
 },
 {
  "track": 3,
  "delta": 0,
  "tick": 7296,
  "byteIndex": 3586,
  "name": "Note on",
  "channel": 1,
  "noteNumber": 59,
  "noteName": "B3",
  "velocity": 79,
  "dtick": 48,
  "ins": 0
 },
 {
  "track": 3,
  "delta": 0,
  "tick": 7296,
  "byteIndex": 3590,
  "name": "Note on",
  "channel": 1,
  "noteNumber": 55,
  "noteName": "G3",
  "velocity": 79,
  "dtick": 48,
  "ins": 0
 },
 {
  "track": 3,
  "delta": 0,
  "tick": 7296,
  "byteIndex": 3594,
  "name": "Note on",
  "channel": 1,
  "noteNumber": 48,
  "noteName": "C3",
  "velocity": 79,
  "dtick": 48,
  "ins": 0
 },
 {
  "track": 3,
  "delta": 0,
  "tick": 7296,
  "byteIndex": 3598,
  "name": "Note on",
  "channel": 1,
  "noteNumber": 76,
  "noteName": "E5",
  "velocity": 79,
  "dtick": 24,
  "ins": 0
 },
 {
  "track": 3,
  "delta": 0,
  "tick": 7320,
  "byteIndex": 3606,
  "name": "Note on",
  "channel": 1,
  "noteNumber": 69,
  "noteName": "A4",
  "velocity": 79,
  "dtick": 24,
  "ins": 0
 },
 {
  "track": 3,
  "delta": 0,
  "tick": 7344,
  "byteIndex": 3626,
  "name": "Note on",
  "channel": 1,
  "noteNumber": 59,
  "noteName": "B3",
  "velocity": 79,
  "dtick": 48,
  "ins": 0
 },
 {
  "track": 3,
  "delta": 0,
  "tick": 7344,
  "byteIndex": 3630,
  "name": "Note on",
  "channel": 1,
  "noteNumber": 48,
  "noteName": "C3",
  "velocity": 79,
  "dtick": 48,
  "ins": 0
 },
 {
  "track": 3,
  "delta": 0,
  "tick": 7344,
  "byteIndex": 3634,
  "name": "Note on",
  "channel": 1,
  "noteNumber": 55,
  "noteName": "G3",
  "velocity": 79,
  "dtick": 48,
  "ins": 0
 },
 {
  "track": 3,
  "delta": 0,
  "tick": 7344,
  "byteIndex": 3638,
  "name": "Note on",
  "channel": 1,
  "noteNumber": 72,
  "noteName": "C5",
  "velocity": 79,
  "dtick": 24,
  "ins": 0
 },
 {
  "track": 3,
  "delta": 0,
  "tick": 7368,
  "byteIndex": 3646,
  "name": "Note on",
  "channel": 1,
  "noteNumber": 74,
  "noteName": "D5",
  "velocity": 79,
  "dtick": 24,
  "ins": 0
 },
 {
  "track": 3,
  "delta": 0,
  "tick": 7392,
  "byteIndex": 3666,
  "name": "Note on",
  "channel": 1,
  "noteNumber": 59,
  "noteName": "B3",
  "velocity": 79,
  "dtick": 48,
  "ins": 0
 },
 {
  "track": 3,
  "delta": 0,
  "tick": 7392,
  "byteIndex": 3670,
  "name": "Note on",
  "channel": 1,
  "noteNumber": 59,
  "noteName": "B3",
  "velocity": 79,
  "dtick": 48,
  "ins": 0
 },
 {
  "track": 3,
  "delta": 0,
  "tick": 7392,
  "byteIndex": 3674,
  "name": "Note on",
  "channel": 1,
  "noteNumber": 59,
  "noteName": "B3",
  "velocity": 79,
  "dtick": 48,
  "ins": 0
 },
 {
  "track": 3,
  "delta": 0,
  "tick": 7392,
  "byteIndex": 3678,
  "name": "Note on",
  "channel": 1,
  "noteNumber": 55,
  "noteName": "G3",
  "velocity": 79,
  "dtick": 48,
  "ins": 0
 },
 {
  "track": 3,
  "delta": 0,
  "tick": 7392,
  "byteIndex": 3682,
  "name": "Note on",
  "channel": 1,
  "noteNumber": 48,
  "noteName": "C3",
  "velocity": 79,
  "dtick": 48,
  "ins": 0
 },
 {
  "track": 3,
  "delta": 0,
  "tick": 7392,
  "byteIndex": 3686,
  "name": "Note on",
  "channel": 1,
  "noteNumber": 76,
  "noteName": "E5",
  "velocity": 79,
  "dtick": 24,
  "ins": 0
 },
 {
  "track": 3,
  "delta": 0,
  "tick": 7416,
  "byteIndex": 3694,
  "name": "Note on",
  "channel": 1,
  "noteNumber": 79,
  "noteName": "G5",
  "velocity": 79,
  "dtick": 24,
  "ins": 0
 },
 {
  "track": 3,
  "delta": 0,
  "tick": 7440,
  "byteIndex": 3722,
  "name": "Note on",
  "channel": 1,
  "noteNumber": 48,
  "noteName": "C3",
  "velocity": 79,
  "dtick": 48,
  "ins": 0
 },
 {
  "track": 3,
  "delta": 0,
  "tick": 7440,
  "byteIndex": 3726,
  "name": "Note on",
  "channel": 1,
  "noteNumber": 55,
  "noteName": "G3",
  "velocity": 79,
  "dtick": 48,
  "ins": 0
 },
 {
  "track": 3,
  "delta": 0,
  "tick": 7440,
  "byteIndex": 3730,
  "name": "Note on",
  "channel": 1,
  "noteNumber": 59,
  "noteName": "B3",
  "velocity": 79,
  "dtick": 48,
  "ins": 0
 },
 {
  "track": 3,
  "delta": 0,
  "tick": 7440,
  "byteIndex": 3734,
  "name": "Note on",
  "channel": 1,
  "noteNumber": 76,
  "noteName": "E5",
  "velocity": 79,
  "dtick": 24,
  "ins": 0
 },
 {
  "track": 3,
  "delta": 0,
  "tick": 7464,
  "byteIndex": 3742,
  "name": "Note on",
  "channel": 1,
  "noteNumber": 72,
  "noteName": "C5",
  "velocity": 79,
  "dtick": 24,
  "ins": 0
 },
 {
  "track": 3,
  "delta": 0,
  "tick": 7488,
  "byteIndex": 3762,
  "name": "Note on",
  "channel": 1,
  "noteNumber": 59,
  "noteName": "B3",
  "velocity": 79,
  "dtick": 48,
  "ins": 0
 },
 {
  "track": 3,
  "delta": 0,
  "tick": 7488,
  "byteIndex": 3766,
  "name": "Note on",
  "channel": 1,
  "noteNumber": 48,
  "noteName": "C3",
  "velocity": 79,
  "dtick": 48,
  "ins": 0
 },
 {
  "track": 3,
  "delta": 0,
  "tick": 7488,
  "byteIndex": 3770,
  "name": "Note on",
  "channel": 1,
  "noteNumber": 55,
  "noteName": "G3",
  "velocity": 79,
  "dtick": 48,
  "ins": 0
 },
 {
  "track": 3,
  "delta": 0,
  "tick": 7488,
  "byteIndex": 3774,
  "name": "Note on",
  "channel": 1,
  "noteNumber": 69,
  "noteName": "A4",
  "velocity": 79,
  "dtick": 24,
  "ins": 0
 },
 {
  "track": 3,
  "delta": 0,
  "tick": 7512,
  "byteIndex": 3782,
  "name": "Note on",
  "channel": 1,
  "noteNumber": 67,
  "noteName": "G4",
  "velocity": 79,
  "dtick": 24,
  "ins": 0
 },
 {
  "track": 3,
  "delta": 0,
  "tick": 7536,
  "byteIndex": 3802,
  "name": "Note on",
  "channel": 1,
  "noteNumber": 59,
  "noteName": "B3",
  "velocity": 79,
  "dtick": 48,
  "ins": 0
 },
 {
  "track": 3,
  "delta": 0,
  "tick": 7536,
  "byteIndex": 3806,
  "name": "Note on",
  "channel": 1,
  "noteNumber": 48,
  "noteName": "C3",
  "velocity": 79,
  "dtick": 48,
  "ins": 0
 },
 {
  "track": 3,
  "delta": 0,
  "tick": 7536,
  "byteIndex": 3810,
  "name": "Note on",
  "channel": 1,
  "noteNumber": 55,
  "noteName": "G3",
  "velocity": 79,
  "dtick": 48,
  "ins": 0
 },
 {
  "track": 3,
  "delta": 0,
  "tick": 7536,
  "byteIndex": 3814,
  "name": "Note on",
  "channel": 1,
  "noteNumber": 72,
  "noteName": "C5",
  "velocity": 79,
  "dtick": 24,
  "ins": 0
 },
 {
  "track": 3,
  "delta": 0,
  "tick": 7560,
  "byteIndex": 3822,
  "name": "Note on",
  "channel": 1,
  "noteNumber": 74,
  "noteName": "D5",
  "velocity": 79,
  "dtick": 24,
  "ins": 0
 },
 {
  "track": 3,
  "delta": 0,
  "tick": 7584,
  "byteIndex": 3842,
  "name": "Note on",
  "channel": 1,
  "noteNumber": 55,
  "noteName": "G3",
  "velocity": 79,
  "dtick": 48,
  "ins": 0
 },
 {
  "track": 3,
  "delta": 0,
  "tick": 7584,
  "byteIndex": 3846,
  "name": "Note on",
  "channel": 1,
  "noteNumber": 48,
  "noteName": "C3",
  "velocity": 79,
  "dtick": 48,
  "ins": 0
 },
 {
  "track": 3,
  "delta": 0,
  "tick": 7584,
  "byteIndex": 3850,
  "name": "Note on",
  "channel": 1,
  "noteNumber": 59,
  "noteName": "B3",
  "velocity": 79,
  "dtick": 48,
  "ins": 0
 },
 {
  "track": 3,
  "delta": 0,
  "tick": 7584,
  "byteIndex": 3854,
  "name": "Note on",
  "channel": 1,
  "noteNumber": 72,
  "noteName": "C5",
  "velocity": 79,
  "dtick": 24,
  "ins": 0
 },
 {
  "track": 3,
  "delta": 0,
  "tick": 7608,
  "byteIndex": 3862,
  "name": "Note on",
  "channel": 1,
  "noteNumber": 69,
  "noteName": "A4",
  "velocity": 79,
  "dtick": 24,
  "ins": 0
 },
 {
  "track": 3,
  "delta": 0,
  "tick": 7632,
  "byteIndex": 3882,
  "name": "Note on",
  "channel": 1,
  "noteNumber": 48,
  "noteName": "C3",
  "velocity": 79,
  "dtick": 48,
  "ins": 0
 },
 {
  "track": 3,
  "delta": 0,
  "tick": 7632,
  "byteIndex": 3886,
  "name": "Note on",
  "channel": 1,
  "noteNumber": 55,
  "noteName": "G3",
  "velocity": 79,
  "dtick": 48,
  "ins": 0
 },
 {
  "track": 3,
  "delta": 0,
  "tick": 7632,
  "byteIndex": 3890,
  "name": "Note on",
  "channel": 1,
  "noteNumber": 59,
  "noteName": "B3",
  "velocity": 79,
  "dtick": 48,
  "ins": 0
 },
 {
  "track": 3,
  "delta": 0,
  "tick": 7632,
  "byteIndex": 3894,
  "name": "Note on",
  "channel": 1,
  "noteNumber": 67,
  "noteName": "G4",
  "velocity": 79,
  "dtick": 24,
  "ins": 0
 },
 {
  "track": 3,
  "delta": 0,
  "tick": 7656,
  "byteIndex": 3902,
  "name": "Note on",
  "channel": 1,
  "noteNumber": 64,
  "noteName": "E4",
  "velocity": 79,
  "dtick": 24,
  "ins": 0
 },
 {
  "track": 3,
  "delta": 0,
  "tick": 7680,
  "byteIndex": 3922,
  "name": "Note on",
  "channel": 1,
  "noteNumber": 57,
  "noteName": "A3",
  "velocity": 79,
  "dtick": 48,
  "ins": 0
 },
 {
  "track": 3,
  "delta": 0,
  "tick": 7680,
  "byteIndex": 3926,
  "name": "Note on",
  "channel": 1,
  "noteNumber": 45,
  "noteName": "A2",
  "velocity": 79,
  "dtick": 48,
  "ins": 0
 },
 {
  "track": 3,
  "delta": 0,
  "tick": 7680,
  "byteIndex": 3930,
  "name": "Note on",
  "channel": 1,
  "noteNumber": 52,
  "noteName": "E3",
  "velocity": 79,
  "dtick": 48,
  "ins": 0
 },
 {
  "track": 3,
  "delta": 0,
  "tick": 7680,
  "byteIndex": 3934,
  "name": "Note on",
  "channel": 1,
  "noteNumber": 76,
  "noteName": "E5",
  "velocity": 79,
  "dtick": 24,
  "ins": 0
 },
 {
  "track": 3,
  "delta": 0,
  "tick": 7704,
  "byteIndex": 3942,
  "name": "Note on",
  "channel": 1,
  "noteNumber": 67,
  "noteName": "G4",
  "velocity": 79,
  "dtick": 24,
  "ins": 0
 },
 {
  "track": 3,
  "delta": 0,
  "tick": 7728,
  "byteIndex": 3962,
  "name": "Note on",
  "channel": 1,
  "noteNumber": 45,
  "noteName": "A2",
  "velocity": 79,
  "dtick": 48,
  "ins": 0
 },
 {
  "track": 3,
  "delta": 0,
  "tick": 7728,
  "byteIndex": 3966,
  "name": "Note on",
  "channel": 1,
  "noteNumber": 52,
  "noteName": "E3",
  "velocity": 79,
  "dtick": 48,
  "ins": 0
 },
 {
  "track": 3,
  "delta": 0,
  "tick": 7728,
  "byteIndex": 3970,
  "name": "Note on",
  "channel": 1,
  "noteNumber": 57,
  "noteName": "A3",
  "velocity": 79,
  "dtick": 48,
  "ins": 0
 },
 {
  "track": 3,
  "delta": 0,
  "tick": 7728,
  "byteIndex": 3974,
  "name": "Note on",
  "channel": 1,
  "noteNumber": 72,
  "noteName": "C5",
  "velocity": 79,
  "dtick": 24,
  "ins": 0
 },
 {
  "track": 3,
  "delta": 0,
  "tick": 7752,
  "byteIndex": 3982,
  "name": "Note on",
  "channel": 1,
  "noteNumber": 74,
  "noteName": "D5",
  "velocity": 79,
  "dtick": 24,
  "ins": 0
 },
 {
  "track": 3,
  "delta": 0,
  "tick": 7776,
  "byteIndex": 4002,
  "name": "Note on",
  "channel": 1,
  "noteNumber": 45,
  "noteName": "A2",
  "velocity": 79,
  "dtick": 48,
  "ins": 0
 },
 {
  "track": 3,
  "delta": 0,
  "tick": 7776,
  "byteIndex": 4006,
  "name": "Note on",
  "channel": 1,
  "noteNumber": 52,
  "noteName": "E3",
  "velocity": 79,
  "dtick": 48,
  "ins": 0
 },
 {
  "track": 3,
  "delta": 0,
  "tick": 7776,
  "byteIndex": 4010,
  "name": "Note on",
  "channel": 1,
  "noteNumber": 57,
  "noteName": "A3",
  "velocity": 79,
  "dtick": 48,
  "ins": 0
 },
 {
  "track": 3,
  "delta": 0,
  "tick": 7776,
  "byteIndex": 4014,
  "name": "Note on",
  "channel": 1,
  "noteNumber": 76,
  "noteName": "E5",
  "velocity": 79,
  "dtick": 24,
  "ins": 0
 },
 {
  "track": 3,
  "delta": 0,
  "tick": 7800,
  "byteIndex": 4022,
  "name": "Note on",
  "channel": 1,
  "noteNumber": 79,
  "noteName": "G5",
  "velocity": 79,
  "dtick": 24,
  "ins": 0
 },
 {
  "track": 3,
  "delta": 0,
  "tick": 7824,
  "byteIndex": 4042,
  "name": "Note on",
  "channel": 1,
  "noteNumber": 52,
  "noteName": "E3",
  "velocity": 79,
  "dtick": 48,
  "ins": 0
 },
 {
  "track": 3,
  "delta": 0,
  "tick": 7824,
  "byteIndex": 4046,
  "name": "Note on",
  "channel": 1,
  "noteNumber": 57,
  "noteName": "A3",
  "velocity": 79,
  "dtick": 48,
  "ins": 0
 },
 {
  "track": 3,
  "delta": 0,
  "tick": 7824,
  "byteIndex": 4050,
  "name": "Note on",
  "channel": 1,
  "noteNumber": 45,
  "noteName": "A2",
  "velocity": 79,
  "dtick": 48,
  "ins": 0
 },
 {
  "track": 3,
  "delta": 0,
  "tick": 7824,
  "byteIndex": 4054,
  "name": "Note on",
  "channel": 1,
  "noteNumber": 76,
  "noteName": "E5",
  "velocity": 79,
  "dtick": 24,
  "ins": 0
 },
 {
  "track": 3,
  "delta": 0,
  "tick": 7848,
  "byteIndex": 4062,
  "name": "Note on",
  "channel": 1,
  "noteNumber": 72,
  "noteName": "C5",
  "velocity": 79,
  "dtick": 24,
  "ins": 0
 },
 {
  "track": 3,
  "delta": 0,
  "tick": 7872,
  "byteIndex": 4082,
  "name": "Note on",
  "channel": 1,
  "noteNumber": 52,
  "noteName": "E3",
  "velocity": 79,
  "dtick": 48,
  "ins": 0
 },
 {
  "track": 3,
  "delta": 0,
  "tick": 7872,
  "byteIndex": 4086,
  "name": "Note on",
  "channel": 1,
  "noteNumber": 57,
  "noteName": "A3",
  "velocity": 79,
  "dtick": 48,
  "ins": 0
 },
 {
  "track": 3,
  "delta": 0,
  "tick": 7872,
  "byteIndex": 4090,
  "name": "Note on",
  "channel": 1,
  "noteNumber": 45,
  "noteName": "A2",
  "velocity": 79,
  "dtick": 48,
  "ins": 0
 },
 {
  "track": 3,
  "delta": 0,
  "tick": 7872,
  "byteIndex": 4094,
  "name": "Note on",
  "channel": 1,
  "noteNumber": 69,
  "noteName": "A4",
  "velocity": 79,
  "dtick": 24,
  "ins": 0
 },
 {
  "track": 3,
  "delta": 0,
  "tick": 7896,
  "byteIndex": 4102,
  "name": "Note on",
  "channel": 1,
  "noteNumber": 67,
  "noteName": "G4",
  "velocity": 79,
  "dtick": 24,
  "ins": 0
 },
 {
  "track": 3,
  "delta": 0,
  "tick": 7920,
  "byteIndex": 4122,
  "name": "Note on",
  "channel": 1,
  "noteNumber": 57,
  "noteName": "A3",
  "velocity": 79,
  "dtick": 48,
  "ins": 0
 },
 {
  "track": 3,
  "delta": 0,
  "tick": 7920,
  "byteIndex": 4126,
  "name": "Note on",
  "channel": 1,
  "noteNumber": 52,
  "noteName": "E3",
  "velocity": 79,
  "dtick": 48,
  "ins": 0
 },
 {
  "track": 3,
  "delta": 0,
  "tick": 7920,
  "byteIndex": 4130,
  "name": "Note on",
  "channel": 1,
  "noteNumber": 45,
  "noteName": "A2",
  "velocity": 79,
  "dtick": 48,
  "ins": 0
 },
 {
  "track": 3,
  "delta": 0,
  "tick": 7920,
  "byteIndex": 4134,
  "name": "Note on",
  "channel": 1,
  "noteNumber": 72,
  "noteName": "C5",
  "velocity": 79,
  "dtick": 24,
  "ins": 0
 },
 {
  "track": 3,
  "delta": 0,
  "tick": 7944,
  "byteIndex": 4142,
  "name": "Note on",
  "channel": 1,
  "noteNumber": 74,
  "noteName": "D5",
  "velocity": 79,
  "dtick": 24,
  "ins": 0
 },
 {
  "track": 3,
  "delta": 0,
  "tick": 7968,
  "byteIndex": 4162,
  "name": "Note on",
  "channel": 1,
  "noteNumber": 52,
  "noteName": "E3",
  "velocity": 79,
  "dtick": 48,
  "ins": 0
 },
 {
  "track": 3,
  "delta": 0,
  "tick": 7968,
  "byteIndex": 4166,
  "name": "Note on",
  "channel": 1,
  "noteNumber": 57,
  "noteName": "A3",
  "velocity": 79,
  "dtick": 48,
  "ins": 0
 },
 {
  "track": 3,
  "delta": 0,
  "tick": 7968,
  "byteIndex": 4170,
  "name": "Note on",
  "channel": 1,
  "noteNumber": 45,
  "noteName": "A2",
  "velocity": 79,
  "dtick": 48,
  "ins": 0
 },
 {
  "track": 3,
  "delta": 0,
  "tick": 7968,
  "byteIndex": 4174,
  "name": "Note on",
  "channel": 1,
  "noteNumber": 72,
  "noteName": "C5",
  "velocity": 79,
  "dtick": 24,
  "ins": 0
 },
 {
  "track": 3,
  "delta": 0,
  "tick": 7992,
  "byteIndex": 4182,
  "name": "Note on",
  "channel": 1,
  "noteNumber": 79,
  "noteName": "G5",
  "velocity": 79,
  "dtick": 24,
  "ins": 0
 },
 {
  "track": 3,
  "delta": 0,
  "tick": 8016,
  "byteIndex": 4202,
  "name": "Note on",
  "channel": 1,
  "noteNumber": 45,
  "noteName": "A2",
  "velocity": 79,
  "dtick": 48,
  "ins": 0
 },
 {
  "track": 3,
  "delta": 0,
  "tick": 8016,
  "byteIndex": 4206,
  "name": "Note on",
  "channel": 1,
  "noteNumber": 52,
  "noteName": "E3",
  "velocity": 79,
  "dtick": 48,
  "ins": 0
 },
 {
  "track": 3,
  "delta": 0,
  "tick": 8016,
  "byteIndex": 4210,
  "name": "Note on",
  "channel": 1,
  "noteNumber": 57,
  "noteName": "A3",
  "velocity": 79,
  "dtick": 48,
  "ins": 0
 },
 {
  "track": 3,
  "delta": 0,
  "tick": 8016,
  "byteIndex": 4214,
  "name": "Note on",
  "channel": 1,
  "noteNumber": 76,
  "noteName": "E5",
  "velocity": 79,
  "dtick": 24,
  "ins": 0
 },
 {
  "track": 3,
  "delta": 0,
  "tick": 8040,
  "byteIndex": 4222,
  "name": "Note on",
  "channel": 1,
  "noteNumber": 72,
  "noteName": "C5",
  "velocity": 79,
  "dtick": 24,
  "ins": 0
 },
 {
  "track": 3,
  "delta": 0,
  "tick": 8064,
  "byteIndex": 4242,
  "name": "Note on",
  "channel": 1,
  "noteNumber": 41,
  "noteName": "F2",
  "velocity": 79,
  "dtick": 48,
  "ins": 0
 },
 {
  "track": 3,
  "delta": 0,
  "tick": 8064,
  "byteIndex": 4246,
  "name": "Note on",
  "channel": 1,
  "noteNumber": 53,
  "noteName": "F3",
  "velocity": 79,
  "dtick": 48,
  "ins": 0
 },
 {
  "track": 3,
  "delta": 0,
  "tick": 8064,
  "byteIndex": 4250,
  "name": "Note on",
  "channel": 1,
  "noteNumber": 48,
  "noteName": "C3",
  "velocity": 79,
  "dtick": 48,
  "ins": 0
 },
 {
  "track": 3,
  "delta": 0,
  "tick": 8064,
  "byteIndex": 4254,
  "name": "Note on",
  "channel": 1,
  "noteNumber": 76,
  "noteName": "E5",
  "velocity": 79,
  "dtick": 24,
  "ins": 0
 },
 {
  "track": 3,
  "delta": 0,
  "tick": 8088,
  "byteIndex": 4262,
  "name": "Note on",
  "channel": 1,
  "noteNumber": 69,
  "noteName": "A4",
  "velocity": 79,
  "dtick": 24,
  "ins": 0
 },
 {
  "track": 3,
  "delta": 0,
  "tick": 8112,
  "byteIndex": 4282,
  "name": "Note on",
  "channel": 1,
  "noteNumber": 41,
  "noteName": "F2",
  "velocity": 79,
  "dtick": 48,
  "ins": 0
 },
 {
  "track": 3,
  "delta": 0,
  "tick": 8112,
  "byteIndex": 4286,
  "name": "Note on",
  "channel": 1,
  "noteNumber": 48,
  "noteName": "C3",
  "velocity": 79,
  "dtick": 48,
  "ins": 0
 },
 {
  "track": 3,
  "delta": 0,
  "tick": 8112,
  "byteIndex": 4290,
  "name": "Note on",
  "channel": 1,
  "noteNumber": 53,
  "noteName": "F3",
  "velocity": 79,
  "dtick": 48,
  "ins": 0
 },
 {
  "track": 3,
  "delta": 0,
  "tick": 8112,
  "byteIndex": 4294,
  "name": "Note on",
  "channel": 1,
  "noteNumber": 72,
  "noteName": "C5",
  "velocity": 79,
  "dtick": 24,
  "ins": 0
 },
 {
  "track": 3,
  "delta": 0,
  "tick": 8136,
  "byteIndex": 4302,
  "name": "Note on",
  "channel": 1,
  "noteNumber": 74,
  "noteName": "D5",
  "velocity": 79,
  "dtick": 24,
  "ins": 0
 },
 {
  "track": 3,
  "delta": 0,
  "tick": 8160,
  "byteIndex": 4322,
  "name": "Note on",
  "channel": 1,
  "noteNumber": 53,
  "noteName": "F3",
  "velocity": 79,
  "dtick": 48,
  "ins": 0
 },
 {
  "track": 3,
  "delta": 0,
  "tick": 8160,
  "byteIndex": 4326,
  "name": "Note on",
  "channel": 1,
  "noteNumber": 48,
  "noteName": "C3",
  "velocity": 79,
  "dtick": 48,
  "ins": 0
 },
 {
  "track": 3,
  "delta": 0,
  "tick": 8160,
  "byteIndex": 4330,
  "name": "Note on",
  "channel": 1,
  "noteNumber": 41,
  "noteName": "F2",
  "velocity": 79,
  "dtick": 48,
  "ins": 0
 },
 {
  "track": 3,
  "delta": 0,
  "tick": 8160,
  "byteIndex": 4334,
  "name": "Note on",
  "channel": 1,
  "noteNumber": 76,
  "noteName": "E5",
  "velocity": 79,
  "dtick": 24,
  "ins": 0
 },
 {
  "track": 3,
  "delta": 0,
  "tick": 8184,
  "byteIndex": 4342,
  "name": "Note on",
  "channel": 1,
  "noteNumber": 79,
  "noteName": "G5",
  "velocity": 79,
  "dtick": 24,
  "ins": 0
 },
 {
  "track": 3,
  "delta": 0,
  "tick": 8208,
  "byteIndex": 4362,
  "name": "Note on",
  "channel": 1,
  "noteNumber": 48,
  "noteName": "C3",
  "velocity": 79,
  "dtick": 48,
  "ins": 0
 },
 {
  "track": 3,
  "delta": 0,
  "tick": 8208,
  "byteIndex": 4366,
  "name": "Note on",
  "channel": 1,
  "noteNumber": 53,
  "noteName": "F3",
  "velocity": 79,
  "dtick": 48,
  "ins": 0
 },
 {
  "track": 3,
  "delta": 0,
  "tick": 8208,
  "byteIndex": 4370,
  "name": "Note on",
  "channel": 1,
  "noteNumber": 41,
  "noteName": "F2",
  "velocity": 79,
  "dtick": 48,
  "ins": 0
 },
 {
  "track": 3,
  "delta": 0,
  "tick": 8208,
  "byteIndex": 4374,
  "name": "Note on",
  "channel": 1,
  "noteNumber": 76,
  "noteName": "E5",
  "velocity": 79,
  "dtick": 24,
  "ins": 0
 },
 {
  "track": 3,
  "delta": 0,
  "tick": 8232,
  "byteIndex": 4382,
  "name": "Note on",
  "channel": 1,
  "noteNumber": 72,
  "noteName": "C5",
  "velocity": 79,
  "dtick": 24,
  "ins": 0
 },
 {
  "track": 3,
  "delta": 0,
  "tick": 8256,
  "byteIndex": 4402,
  "name": "Note on",
  "channel": 1,
  "noteNumber": 48,
  "noteName": "C3",
  "velocity": 79,
  "dtick": 48,
  "ins": 0
 },
 {
  "track": 3,
  "delta": 0,
  "tick": 8256,
  "byteIndex": 4406,
  "name": "Note on",
  "channel": 1,
  "noteNumber": 53,
  "noteName": "F3",
  "velocity": 79,
  "dtick": 48,
  "ins": 0
 },
 {
  "track": 3,
  "delta": 0,
  "tick": 8256,
  "byteIndex": 4410,
  "name": "Note on",
  "channel": 1,
  "noteNumber": 41,
  "noteName": "F2",
  "velocity": 79,
  "dtick": 48,
  "ins": 0
 },
 {
  "track": 3,
  "delta": 0,
  "tick": 8256,
  "byteIndex": 4414,
  "name": "Note on",
  "channel": 1,
  "noteNumber": 69,
  "noteName": "A4",
  "velocity": 79,
  "dtick": 24,
  "ins": 0
 },
 {
  "track": 3,
  "delta": 0,
  "tick": 8280,
  "byteIndex": 4422,
  "name": "Note on",
  "channel": 1,
  "noteNumber": 67,
  "noteName": "G4",
  "velocity": 79,
  "dtick": 24,
  "ins": 0
 },
 {
  "track": 3,
  "delta": 0,
  "tick": 8304,
  "byteIndex": 4442,
  "name": "Note on",
  "channel": 1,
  "noteNumber": 41,
  "noteName": "F2",
  "velocity": 79,
  "dtick": 48,
  "ins": 0
 },
 {
  "track": 3,
  "delta": 0,
  "tick": 8304,
  "byteIndex": 4446,
  "name": "Note on",
  "channel": 1,
  "noteNumber": 48,
  "noteName": "C3",
  "velocity": 79,
  "dtick": 48,
  "ins": 0
 },
 {
  "track": 3,
  "delta": 0,
  "tick": 8304,
  "byteIndex": 4450,
  "name": "Note on",
  "channel": 1,
  "noteNumber": 53,
  "noteName": "F3",
  "velocity": 79,
  "dtick": 48,
  "ins": 0
 },
 {
  "track": 3,
  "delta": 0,
  "tick": 8304,
  "byteIndex": 4454,
  "name": "Note on",
  "channel": 1,
  "noteNumber": 72,
  "noteName": "C5",
  "velocity": 79,
  "dtick": 24,
  "ins": 0
 },
 {
  "track": 3,
  "delta": 0,
  "tick": 8328,
  "byteIndex": 4462,
  "name": "Note on",
  "channel": 1,
  "noteNumber": 74,
  "noteName": "D5",
  "velocity": 79,
  "dtick": 24,
  "ins": 0
 },
 {
  "track": 3,
  "delta": 0,
  "tick": 8352,
  "byteIndex": 4482,
  "name": "Note on",
  "channel": 1,
  "noteNumber": 48,
  "noteName": "C3",
  "velocity": 79,
  "dtick": 48,
  "ins": 0
 },
 {
  "track": 3,
  "delta": 0,
  "tick": 8352,
  "byteIndex": 4486,
  "name": "Note on",
  "channel": 1,
  "noteNumber": 53,
  "noteName": "F3",
  "velocity": 79,
  "dtick": 48,
  "ins": 0
 },
 {
  "track": 3,
  "delta": 0,
  "tick": 8352,
  "byteIndex": 4490,
  "name": "Note on",
  "channel": 1,
  "noteNumber": 41,
  "noteName": "F2",
  "velocity": 79,
  "dtick": 48,
  "ins": 0
 },
 {
  "track": 3,
  "delta": 0,
  "tick": 8352,
  "byteIndex": 4494,
  "name": "Note on",
  "channel": 1,
  "noteNumber": 72,
  "noteName": "C5",
  "velocity": 79,
  "dtick": 24,
  "ins": 0
 },
 {
  "track": 3,
  "delta": 0,
  "tick": 8376,
  "byteIndex": 4502,
  "name": "Note on",
  "channel": 1,
  "noteNumber": 69,
  "noteName": "A4",
  "velocity": 79,
  "dtick": 24,
  "ins": 0
 },
 {
  "track": 3,
  "delta": 0,
  "tick": 8400,
  "byteIndex": 4522,
  "name": "Note on",
  "channel": 1,
  "noteNumber": 41,
  "noteName": "F2",
  "velocity": 79,
  "dtick": 48,
  "ins": 0
 },
 {
  "track": 3,
  "delta": 0,
  "tick": 8400,
  "byteIndex": 4526,
  "name": "Note on",
  "channel": 1,
  "noteNumber": 48,
  "noteName": "C3",
  "velocity": 79,
  "dtick": 48,
  "ins": 0
 },
 {
  "track": 3,
  "delta": 0,
  "tick": 8400,
  "byteIndex": 4530,
  "name": "Note on",
  "channel": 1,
  "noteNumber": 53,
  "noteName": "F3",
  "velocity": 79,
  "dtick": 48,
  "ins": 0
 },
 {
  "track": 3,
  "delta": 0,
  "tick": 8400,
  "byteIndex": 4534,
  "name": "Note on",
  "channel": 1,
  "noteNumber": 67,
  "noteName": "G4",
  "velocity": 79,
  "dtick": 24,
  "ins": 0
 },
 {
  "track": 3,
  "delta": 0,
  "tick": 8424,
  "byteIndex": 4542,
  "name": "Note on",
  "channel": 1,
  "noteNumber": 64,
  "noteName": "E4",
  "velocity": 79,
  "dtick": 24,
  "ins": 0
 },
 {
  "track": 3,
  "delta": 0,
  "tick": 8448,
  "byteIndex": 4562,
  "name": "Note on",
  "channel": 1,
  "noteNumber": 55,
  "noteName": "G3",
  "velocity": 79,
  "dtick": 48,
  "ins": 0
 },
 {
  "track": 3,
  "delta": 0,
  "tick": 8448,
  "byteIndex": 4566,
  "name": "Note on",
  "channel": 1,
  "noteNumber": 60,
  "noteName": "C4",
  "velocity": 79,
  "dtick": 48,
  "ins": 0
 },
 {
  "track": 3,
  "delta": 0,
  "tick": 8448,
  "byteIndex": 4570,
  "name": "Note on",
  "channel": 1,
  "noteNumber": 48,
  "noteName": "C3",
  "velocity": 79,
  "dtick": 48,
  "ins": 0
 },
 {
  "track": 3,
  "delta": 0,
  "tick": 8448,
  "byteIndex": 4574,
  "name": "Note on",
  "channel": 1,
  "noteNumber": 76,
  "noteName": "E5",
  "velocity": 79,
  "dtick": 24,
  "ins": 0
 },
 {
  "track": 3,
  "delta": 0,
  "tick": 8472,
  "byteIndex": 4582,
  "name": "Note on",
  "channel": 1,
  "noteNumber": 67,
  "noteName": "G4",
  "velocity": 79,
  "dtick": 24,
  "ins": 0
 },
 {
  "track": 3,
  "delta": 0,
  "tick": 8496,
  "byteIndex": 4602,
  "name": "Note on",
  "channel": 1,
  "noteNumber": 48,
  "noteName": "C3",
  "velocity": 79,
  "dtick": 48,
  "ins": 0
 },
 {
  "track": 3,
  "delta": 0,
  "tick": 8496,
  "byteIndex": 4606,
  "name": "Note on",
  "channel": 1,
  "noteNumber": 55,
  "noteName": "G3",
  "velocity": 79,
  "dtick": 48,
  "ins": 0
 },
 {
  "track": 3,
  "delta": 0,
  "tick": 8496,
  "byteIndex": 4610,
  "name": "Note on",
  "channel": 1,
  "noteNumber": 60,
  "noteName": "C4",
  "velocity": 79,
  "dtick": 48,
  "ins": 0
 },
 {
  "track": 3,
  "delta": 0,
  "tick": 8496,
  "byteIndex": 4614,
  "name": "Note on",
  "channel": 1,
  "noteNumber": 72,
  "noteName": "C5",
  "velocity": 79,
  "dtick": 24,
  "ins": 0
 },
 {
  "track": 3,
  "delta": 0,
  "tick": 8520,
  "byteIndex": 4622,
  "name": "Note on",
  "channel": 1,
  "noteNumber": 74,
  "noteName": "D5",
  "velocity": 79,
  "dtick": 24,
  "ins": 0
 },
 {
  "track": 3,
  "delta": 0,
  "tick": 8544,
  "byteIndex": 4642,
  "name": "Note on",
  "channel": 1,
  "noteNumber": 60,
  "noteName": "C4",
  "velocity": 79,
  "dtick": 48,
  "ins": 0
 },
 {
  "track": 3,
  "delta": 0,
  "tick": 8544,
  "byteIndex": 4646,
  "name": "Note on",
  "channel": 1,
  "noteNumber": 55,
  "noteName": "G3",
  "velocity": 79,
  "dtick": 48,
  "ins": 0
 },
 {
  "track": 3,
  "delta": 0,
  "tick": 8544,
  "byteIndex": 4650,
  "name": "Note on",
  "channel": 1,
  "noteNumber": 48,
  "noteName": "C3",
  "velocity": 79,
  "dtick": 48,
  "ins": 0
 },
 {
  "track": 3,
  "delta": 0,
  "tick": 8544,
  "byteIndex": 4654,
  "name": "Note on",
  "channel": 1,
  "noteNumber": 76,
  "noteName": "E5",
  "velocity": 79,
  "dtick": 24,
  "ins": 0
 },
 {
  "track": 3,
  "delta": 0,
  "tick": 8568,
  "byteIndex": 4662,
  "name": "Note on",
  "channel": 1,
  "noteNumber": 79,
  "noteName": "G5",
  "velocity": 79,
  "dtick": 24,
  "ins": 0
 },
 {
  "track": 3,
  "delta": 0,
  "tick": 8592,
  "byteIndex": 4682,
  "name": "Note on",
  "channel": 1,
  "noteNumber": 60,
  "noteName": "C4",
  "velocity": 79,
  "dtick": 48,
  "ins": 0
 },
 {
  "track": 3,
  "delta": 0,
  "tick": 8592,
  "byteIndex": 4686,
  "name": "Note on",
  "channel": 1,
  "noteNumber": 55,
  "noteName": "G3",
  "velocity": 79,
  "dtick": 48,
  "ins": 0
 },
 {
  "track": 3,
  "delta": 0,
  "tick": 8592,
  "byteIndex": 4690,
  "name": "Note on",
  "channel": 1,
  "noteNumber": 48,
  "noteName": "C3",
  "velocity": 79,
  "dtick": 48,
  "ins": 0
 },
 {
  "track": 3,
  "delta": 0,
  "tick": 8592,
  "byteIndex": 4694,
  "name": "Note on",
  "channel": 1,
  "noteNumber": 76,
  "noteName": "E5",
  "velocity": 79,
  "dtick": 24,
  "ins": 0
 },
 {
  "track": 3,
  "delta": 0,
  "tick": 8616,
  "byteIndex": 4702,
  "name": "Note on",
  "channel": 1,
  "noteNumber": 72,
  "noteName": "C5",
  "velocity": 79,
  "dtick": 24,
  "ins": 0
 },
 {
  "track": 3,
  "delta": 0,
  "tick": 8640,
  "byteIndex": 4722,
  "name": "Note on",
  "channel": 1,
  "noteNumber": 55,
  "noteName": "G3",
  "velocity": 79,
  "dtick": 48,
  "ins": 0
 },
 {
  "track": 3,
  "delta": 0,
  "tick": 8640,
  "byteIndex": 4726,
  "name": "Note on",
  "channel": 1,
  "noteNumber": 60,
  "noteName": "C4",
  "velocity": 79,
  "dtick": 48,
  "ins": 0
 },
 {
  "track": 3,
  "delta": 0,
  "tick": 8640,
  "byteIndex": 4730,
  "name": "Note on",
  "channel": 1,
  "noteNumber": 48,
  "noteName": "C3",
  "velocity": 79,
  "dtick": 48,
  "ins": 0
 },
 {
  "track": 3,
  "delta": 0,
  "tick": 8640,
  "byteIndex": 4734,
  "name": "Note on",
  "channel": 1,
  "noteNumber": 69,
  "noteName": "A4",
  "velocity": 79,
  "dtick": 24,
  "ins": 0
 },
 {
  "track": 3,
  "delta": 0,
  "tick": 8664,
  "byteIndex": 4742,
  "name": "Note on",
  "channel": 1,
  "noteNumber": 67,
  "noteName": "G4",
  "velocity": 79,
  "dtick": 24,
  "ins": 0
 },
 {
  "track": 3,
  "delta": 0,
  "tick": 8688,
  "byteIndex": 4762,
  "name": "Note on",
  "channel": 1,
  "noteNumber": 48,
  "noteName": "C3",
  "velocity": 79,
  "dtick": 48,
  "ins": 0
 },
 {
  "track": 3,
  "delta": 0,
  "tick": 8688,
  "byteIndex": 4766,
  "name": "Note on",
  "channel": 1,
  "noteNumber": 55,
  "noteName": "G3",
  "velocity": 79,
  "dtick": 48,
  "ins": 0
 },
 {
  "track": 3,
  "delta": 0,
  "tick": 8688,
  "byteIndex": 4770,
  "name": "Note on",
  "channel": 1,
  "noteNumber": 60,
  "noteName": "C4",
  "velocity": 79,
  "dtick": 48,
  "ins": 0
 },
 {
  "track": 3,
  "delta": 0,
  "tick": 8688,
  "byteIndex": 4774,
  "name": "Note on",
  "channel": 1,
  "noteNumber": 72,
  "noteName": "C5",
  "velocity": 79,
  "dtick": 24,
  "ins": 0
 },
 {
  "track": 3,
  "delta": 0,
  "tick": 8712,
  "byteIndex": 4782,
  "name": "Note on",
  "channel": 1,
  "noteNumber": 74,
  "noteName": "D5",
  "velocity": 79,
  "dtick": 24,
  "ins": 0
 },
 {
  "track": 3,
  "delta": 0,
  "tick": 8736,
  "byteIndex": 4802,
  "name": "Note on",
  "channel": 1,
  "noteNumber": 48,
  "noteName": "C3",
  "velocity": 79,
  "dtick": 48,
  "ins": 0
 },
 {
  "track": 3,
  "delta": 0,
  "tick": 8736,
  "byteIndex": 4806,
  "name": "Note on",
  "channel": 1,
  "noteNumber": 60,
  "noteName": "C4",
  "velocity": 79,
  "dtick": 48,
  "ins": 0
 },
 {
  "track": 3,
  "delta": 0,
  "tick": 8736,
  "byteIndex": 4810,
  "name": "Note on",
  "channel": 1,
  "noteNumber": 55,
  "noteName": "G3",
  "velocity": 79,
  "dtick": 48,
  "ins": 0
 },
 {
  "track": 3,
  "delta": 0,
  "tick": 8736,
  "byteIndex": 4814,
  "name": "Note on",
  "channel": 1,
  "noteNumber": 72,
  "noteName": "C5",
  "velocity": 79,
  "dtick": 24,
  "ins": 0
 },
 {
  "track": 3,
  "delta": 0,
  "tick": 8760,
  "byteIndex": 4822,
  "name": "Note on",
  "channel": 1,
  "noteNumber": 79,
  "noteName": "G5",
  "velocity": 79,
  "dtick": 24,
  "ins": 0
 },
 {
  "track": 3,
  "delta": 0,
  "tick": 8784,
  "byteIndex": 4842,
  "name": "Note on",
  "channel": 1,
  "noteNumber": 48,
  "noteName": "C3",
  "velocity": 79,
  "dtick": 48,
  "ins": 0
 },
 {
  "track": 3,
  "delta": 0,
  "tick": 8784,
  "byteIndex": 4846,
  "name": "Note on",
  "channel": 1,
  "noteNumber": 55,
  "noteName": "G3",
  "velocity": 79,
  "dtick": 48,
  "ins": 0
 },
 {
  "track": 3,
  "delta": 0,
  "tick": 8784,
  "byteIndex": 4850,
  "name": "Note on",
  "channel": 1,
  "noteNumber": 60,
  "noteName": "C4",
  "velocity": 79,
  "dtick": 48,
  "ins": 0
 },
 {
  "track": 3,
  "delta": 0,
  "tick": 8784,
  "byteIndex": 4854,
  "name": "Note on",
  "channel": 1,
  "noteNumber": 76,
  "noteName": "E5",
  "velocity": 79,
  "dtick": 24,
  "ins": 0
 },
 {
  "track": 3,
  "delta": 0,
  "tick": 8808,
  "byteIndex": 4862,
  "name": "Note on",
  "channel": 1,
  "noteNumber": 72,
  "noteName": "C5",
  "velocity": 79,
  "dtick": 24,
  "ins": 0
 },
 {
  "track": 3,
  "delta": 0,
  "tick": 8832,
  "byteIndex": 4882,
  "name": "Note on",
  "channel": 1,
  "noteNumber": 48,
  "noteName": "C3",
  "velocity": 79,
  "dtick": 48,
  "ins": 0
 },
 {
  "track": 3,
  "delta": 0,
  "tick": 8832,
  "byteIndex": 4886,
  "name": "Note on",
  "channel": 1,
  "noteNumber": 55,
  "noteName": "G3",
  "velocity": 79,
  "dtick": 48,
  "ins": 0
 },
 {
  "track": 3,
  "delta": 0,
  "tick": 8832,
  "byteIndex": 4890,
  "name": "Note on",
  "channel": 1,
  "noteNumber": 59,
  "noteName": "B3",
  "velocity": 79,
  "dtick": 48,
  "ins": 0
 },
 {
  "track": 3,
  "delta": 0,
  "tick": 8832,
  "byteIndex": 4894,
  "name": "Note on",
  "channel": 1,
  "noteNumber": 76,
  "noteName": "E5",
  "velocity": 79,
  "dtick": 24,
  "ins": 0
 },
 {
  "track": 3,
  "delta": 0,
  "tick": 8856,
  "byteIndex": 4902,
  "name": "Note on",
  "channel": 1,
  "noteNumber": 69,
  "noteName": "A4",
  "velocity": 79,
  "dtick": 24,
  "ins": 0
 },
 {
  "track": 3,
  "delta": 0,
  "tick": 8880,
  "byteIndex": 4922,
  "name": "Note on",
  "channel": 1,
  "noteNumber": 59,
  "noteName": "B3",
  "velocity": 79,
  "dtick": 48,
  "ins": 0
 },
 {
  "track": 3,
  "delta": 0,
  "tick": 8880,
  "byteIndex": 4926,
  "name": "Note on",
  "channel": 1,
  "noteNumber": 48,
  "noteName": "C3",
  "velocity": 79,
  "dtick": 48,
  "ins": 0
 },
 {
  "track": 3,
  "delta": 0,
  "tick": 8880,
  "byteIndex": 4930,
  "name": "Note on",
  "channel": 1,
  "noteNumber": 55,
  "noteName": "G3",
  "velocity": 79,
  "dtick": 48,
  "ins": 0
 },
 {
  "track": 3,
  "delta": 0,
  "tick": 8880,
  "byteIndex": 4934,
  "name": "Note on",
  "channel": 1,
  "noteNumber": 72,
  "noteName": "C5",
  "velocity": 79,
  "dtick": 24,
  "ins": 0
 },
 {
  "track": 3,
  "delta": 0,
  "tick": 8904,
  "byteIndex": 4942,
  "name": "Note on",
  "channel": 1,
  "noteNumber": 74,
  "noteName": "D5",
  "velocity": 79,
  "dtick": 24,
  "ins": 0
 },
 {
  "track": 3,
  "delta": 0,
  "tick": 8928,
  "byteIndex": 4962,
  "name": "Note on",
  "channel": 1,
  "noteNumber": 59,
  "noteName": "B3",
  "velocity": 79,
  "dtick": 48,
  "ins": 0
 },
 {
  "track": 3,
  "delta": 0,
  "tick": 8928,
  "byteIndex": 4966,
  "name": "Note on",
  "channel": 1,
  "noteNumber": 55,
  "noteName": "G3",
  "velocity": 79,
  "dtick": 48,
  "ins": 0
 },
 {
  "track": 3,
  "delta": 0,
  "tick": 8928,
  "byteIndex": 4970,
  "name": "Note on",
  "channel": 1,
  "noteNumber": 48,
  "noteName": "C3",
  "velocity": 79,
  "dtick": 48,
  "ins": 0
 },
 {
  "track": 3,
  "delta": 0,
  "tick": 8928,
  "byteIndex": 4974,
  "name": "Note on",
  "channel": 1,
  "noteNumber": 76,
  "noteName": "E5",
  "velocity": 79,
  "dtick": 24,
  "ins": 0
 },
 {
  "track": 3,
  "delta": 0,
  "tick": 8952,
  "byteIndex": 4982,
  "name": "Note on",
  "channel": 1,
  "noteNumber": 79,
  "noteName": "G5",
  "velocity": 79,
  "dtick": 24,
  "ins": 0
 },
 {
  "track": 3,
  "delta": 0,
  "tick": 8976,
  "byteIndex": 5002,
  "name": "Note on",
  "channel": 1,
  "noteNumber": 59,
  "noteName": "B3",
  "velocity": 79,
  "dtick": 48,
  "ins": 0
 },
 {
  "track": 3,
  "delta": 0,
  "tick": 8976,
  "byteIndex": 5006,
  "name": "Note on",
  "channel": 1,
  "noteNumber": 55,
  "noteName": "G3",
  "velocity": 79,
  "dtick": 48,
  "ins": 0
 },
 {
  "track": 3,
  "delta": 0,
  "tick": 8976,
  "byteIndex": 5010,
  "name": "Note on",
  "channel": 1,
  "noteNumber": 48,
  "noteName": "C3",
  "velocity": 79,
  "dtick": 48,
  "ins": 0
 },
 {
  "track": 3,
  "delta": 0,
  "tick": 8976,
  "byteIndex": 5014,
  "name": "Note on",
  "channel": 1,
  "noteNumber": 76,
  "noteName": "E5",
  "velocity": 79,
  "dtick": 24,
  "ins": 0
 },
 {
  "track": 3,
  "delta": 0,
  "tick": 9000,
  "byteIndex": 5022,
  "name": "Note on",
  "channel": 1,
  "noteNumber": 72,
  "noteName": "C5",
  "velocity": 79,
  "dtick": 24,
  "ins": 0
 },
 {
  "track": 3,
  "delta": 0,
  "tick": 9024,
  "byteIndex": 5042,
  "name": "Note on",
  "channel": 1,
  "noteNumber": 55,
  "noteName": "G3",
  "velocity": 79,
  "dtick": 48,
  "ins": 0
 },
 {
  "track": 3,
  "delta": 0,
  "tick": 9024,
  "byteIndex": 5046,
  "name": "Note on",
  "channel": 1,
  "noteNumber": 48,
  "noteName": "C3",
  "velocity": 79,
  "dtick": 48,
  "ins": 0
 },
 {
  "track": 3,
  "delta": 0,
  "tick": 9024,
  "byteIndex": 5050,
  "name": "Note on",
  "channel": 1,
  "noteNumber": 59,
  "noteName": "B3",
  "velocity": 79,
  "dtick": 48,
  "ins": 0
 },
 {
  "track": 3,
  "delta": 0,
  "tick": 9024,
  "byteIndex": 5054,
  "name": "Note on",
  "channel": 1,
  "noteNumber": 69,
  "noteName": "A4",
  "velocity": 79,
  "dtick": 24,
  "ins": 0
 },
 {
  "track": 3,
  "delta": 0,
  "tick": 9048,
  "byteIndex": 5062,
  "name": "Note on",
  "channel": 1,
  "noteNumber": 67,
  "noteName": "G4",
  "velocity": 79,
  "dtick": 24,
  "ins": 0
 },
 {
  "track": 3,
  "delta": 0,
  "tick": 9072,
  "byteIndex": 5082,
  "name": "Note on",
  "channel": 1,
  "noteNumber": 55,
  "noteName": "G3",
  "velocity": 79,
  "dtick": 48,
  "ins": 0
 },
 {
  "track": 3,
  "delta": 0,
  "tick": 9072,
  "byteIndex": 5086,
  "name": "Note on",
  "channel": 1,
  "noteNumber": 48,
  "noteName": "C3",
  "velocity": 79,
  "dtick": 48,
  "ins": 0
 },
 {
  "track": 3,
  "delta": 0,
  "tick": 9072,
  "byteIndex": 5090,
  "name": "Note on",
  "channel": 1,
  "noteNumber": 59,
  "noteName": "B3",
  "velocity": 79,
  "dtick": 48,
  "ins": 0
 },
 {
  "track": 3,
  "delta": 0,
  "tick": 9072,
  "byteIndex": 5094,
  "name": "Note on",
  "channel": 1,
  "noteNumber": 72,
  "noteName": "C5",
  "velocity": 79,
  "dtick": 24,
  "ins": 0
 },
 {
  "track": 3,
  "delta": 0,
  "tick": 9096,
  "byteIndex": 5102,
  "name": "Note on",
  "channel": 1,
  "noteNumber": 74,
  "noteName": "D5",
  "velocity": 79,
  "dtick": 24,
  "ins": 0
 },
 {
  "track": 3,
  "delta": 0,
  "tick": 9120,
  "byteIndex": 5122,
  "name": "Note on",
  "channel": 1,
  "noteNumber": 55,
  "noteName": "G3",
  "velocity": 79,
  "dtick": 48,
  "ins": 0
 },
 {
  "track": 3,
  "delta": 0,
  "tick": 9120,
  "byteIndex": 5126,
  "name": "Note on",
  "channel": 1,
  "noteNumber": 48,
  "noteName": "C3",
  "velocity": 79,
  "dtick": 48,
  "ins": 0
 },
 {
  "track": 3,
  "delta": 0,
  "tick": 9120,
  "byteIndex": 5130,
  "name": "Note on",
  "channel": 1,
  "noteNumber": 59,
  "noteName": "B3",
  "velocity": 79,
  "dtick": 48,
  "ins": 0
 },
 {
  "track": 3,
  "delta": 0,
  "tick": 9120,
  "byteIndex": 5134,
  "name": "Note on",
  "channel": 1,
  "noteNumber": 72,
  "noteName": "C5",
  "velocity": 79,
  "dtick": 24,
  "ins": 0
 },
 {
  "track": 3,
  "delta": 0,
  "tick": 9144,
  "byteIndex": 5142,
  "name": "Note on",
  "channel": 1,
  "noteNumber": 69,
  "noteName": "A4",
  "velocity": 79,
  "dtick": 24,
  "ins": 0
 },
 {
  "track": 3,
  "delta": 0,
  "tick": 9168,
  "byteIndex": 5162,
  "name": "Note on",
  "channel": 1,
  "noteNumber": 48,
  "noteName": "C3",
  "velocity": 79,
  "dtick": 48,
  "ins": 0
 },
 {
  "track": 3,
  "delta": 0,
  "tick": 9168,
  "byteIndex": 5166,
  "name": "Note on",
  "channel": 1,
  "noteNumber": 55,
  "noteName": "G3",
  "velocity": 79,
  "dtick": 48,
  "ins": 0
 },
 {
  "track": 3,
  "delta": 0,
  "tick": 9168,
  "byteIndex": 5170,
  "name": "Note on",
  "channel": 1,
  "noteNumber": 59,
  "noteName": "B3",
  "velocity": 79,
  "dtick": 48,
  "ins": 0
 },
 {
  "track": 3,
  "delta": 0,
  "tick": 9168,
  "byteIndex": 5174,
  "name": "Note on",
  "channel": 1,
  "noteNumber": 67,
  "noteName": "G4",
  "velocity": 79,
  "dtick": 24,
  "ins": 0
 },
 {
  "track": 3,
  "delta": 0,
  "tick": 9192,
  "byteIndex": 5182,
  "name": "Note on",
  "channel": 1,
  "noteNumber": 64,
  "noteName": "E4",
  "velocity": 79,
  "dtick": 24,
  "ins": 0
 },
 {
  "track": 3,
  "delta": 0,
  "tick": 9216,
  "byteIndex": 5202,
  "name": "Note on",
  "channel": 1,
  "noteNumber": 57,
  "noteName": "A3",
  "velocity": 79,
  "dtick": 384,
  "ins": 0
 },
 {
  "track": 3,
  "delta": 0,
  "tick": 9216,
  "byteIndex": 5206,
  "name": "Note on",
  "channel": 1,
  "noteNumber": 45,
  "noteName": "A2",
  "velocity": 79,
  "dtick": 384,
  "ins": 0
 },
 {
  "track": 3,
  "delta": 0,
  "tick": 9216,
  "byteIndex": 5210,
  "name": "Note on",
  "channel": 1,
  "noteNumber": 52,
  "noteName": "E3",
  "velocity": 79,
  "dtick": 384,
  "ins": 0
 },
 {
  "track": 3,
  "delta": 0,
  "tick": 9216,
  "byteIndex": 5214,
  "name": "Note on",
  "channel": 1,
  "noteNumber": 79,
  "noteName": "G5",
  "velocity": 79,
  "dtick": 48,
  "ins": 0
 },
 {
  "track": 3,
  "delta": 0,
  "tick": 9264,
  "byteIndex": 5222,
  "name": "Note on",
  "channel": 1,
  "noteNumber": 76,
  "noteName": "E5",
  "velocity": 79,
  "dtick": 48,
  "ins": 0
 },
 {
  "track": 3,
  "delta": 0,
  "tick": 9312,
  "byteIndex": 5230,
  "name": "Note on",
  "channel": 1,
  "noteNumber": 72,
  "noteName": "C5",
  "velocity": 79,
  "dtick": 48,
  "ins": 0
 },
 {
  "track": 3,
  "delta": 0,
  "tick": 9360,
  "byteIndex": 5238,
  "name": "Note on",
  "channel": 1,
  "noteNumber": 79,
  "noteName": "G5",
  "velocity": 79,
  "dtick": 48,
  "ins": 0
 },
 {
  "track": 3,
  "delta": 0,
  "tick": 9408,
  "byteIndex": 5246,
  "name": "Note on",
  "channel": 1,
  "noteNumber": 76,
  "noteName": "E5",
  "velocity": 79,
  "dtick": 48,
  "ins": 0
 },
 {
  "track": 3,
  "delta": 0,
  "tick": 9456,
  "byteIndex": 5254,
  "name": "Note on",
  "channel": 1,
  "noteNumber": 72,
  "noteName": "C5",
  "velocity": 79,
  "dtick": 48,
  "ins": 0
 },
 {
  "track": 3,
  "delta": 0,
  "tick": 9504,
  "byteIndex": 5262,
  "name": "Note on",
  "channel": 1,
  "noteNumber": 79,
  "noteName": "G5",
  "velocity": 79,
  "dtick": 48,
  "ins": 0
 },
 {
  "track": 3,
  "delta": 0,
  "tick": 9552,
  "byteIndex": 5270,
  "name": "Note on",
  "channel": 1,
  "noteNumber": 76,
  "noteName": "E5",
  "velocity": 79,
  "dtick": 48,
  "ins": 0
 },
 {
  "track": 3,
  "delta": 0,
  "tick": 9600,
  "byteIndex": 5290,
  "name": "Note on",
  "channel": 1,
  "noteNumber": 48,
  "noteName": "C3",
  "velocity": 79,
  "dtick": 384,
  "ins": 0
 },
 {
  "track": 3,
  "delta": 0,
  "tick": 9600,
  "byteIndex": 5294,
  "name": "Note on",
  "channel": 1,
  "noteNumber": 53,
  "noteName": "F3",
  "velocity": 79,
  "dtick": 384,
  "ins": 0
 },
 {
  "track": 3,
  "delta": 0,
  "tick": 9600,
  "byteIndex": 5298,
  "name": "Note on",
  "channel": 1,
  "noteNumber": 41,
  "noteName": "F2",
  "velocity": 79,
  "dtick": 384,
  "ins": 0
 },
 {
  "track": 3,
  "delta": 0,
  "tick": 9600,
  "byteIndex": 5302,
  "name": "Note on",
  "channel": 1,
  "noteNumber": 77,
  "noteName": "F5",
  "velocity": 79,
  "dtick": 48,
  "ins": 0
 },
 {
  "track": 3,
  "delta": 0,
  "tick": 9648,
  "byteIndex": 5310,
  "name": "Note on",
  "channel": 1,
  "noteNumber": 76,
  "noteName": "E5",
  "velocity": 79,
  "dtick": 48,
  "ins": 0
 },
 {
  "track": 3,
  "delta": 0,
  "tick": 9696,
  "byteIndex": 5318,
  "name": "Note on",
  "channel": 1,
  "noteNumber": 72,
  "noteName": "C5",
  "velocity": 79,
  "dtick": 48,
  "ins": 0
 },
 {
  "track": 3,
  "delta": 0,
  "tick": 9744,
  "byteIndex": 5326,
  "name": "Note on",
  "channel": 1,
  "noteNumber": 77,
  "noteName": "F5",
  "velocity": 79,
  "dtick": 48,
  "ins": 0
 },
 {
  "track": 3,
  "delta": 0,
  "tick": 9792,
  "byteIndex": 5334,
  "name": "Note on",
  "channel": 1,
  "noteNumber": 76,
  "noteName": "E5",
  "velocity": 79,
  "dtick": 48,
  "ins": 0
 },
 {
  "track": 3,
  "delta": 0,
  "tick": 9840,
  "byteIndex": 5342,
  "name": "Note on",
  "channel": 1,
  "noteNumber": 72,
  "noteName": "C5",
  "velocity": 79,
  "dtick": 48,
  "ins": 0
 },
 {
  "track": 3,
  "delta": 0,
  "tick": 9888,
  "byteIndex": 5350,
  "name": "Note on",
  "channel": 1,
  "noteNumber": 77,
  "noteName": "F5",
  "velocity": 79,
  "dtick": 48,
  "ins": 0
 },
 {
  "track": 3,
  "delta": 0,
  "tick": 9936,
  "byteIndex": 5358,
  "name": "Note on",
  "channel": 1,
  "noteNumber": 76,
  "noteName": "E5",
  "velocity": 79,
  "dtick": 48,
  "ins": 0
 },
 {
  "track": 3,
  "delta": 0,
  "tick": 9984,
  "byteIndex": 5378,
  "name": "Note on",
  "channel": 1,
  "noteNumber": 55,
  "noteName": "G3",
  "velocity": 79,
  "dtick": 384,
  "ins": 0
 },
 {
  "track": 3,
  "delta": 0,
  "tick": 9984,
  "byteIndex": 5382,
  "name": "Note on",
  "channel": 1,
  "noteNumber": 60,
  "noteName": "C4",
  "velocity": 79,
  "dtick": 384,
  "ins": 0
 },
 {
  "track": 3,
  "delta": 0,
  "tick": 9984,
  "byteIndex": 5386,
  "name": "Note on",
  "channel": 1,
  "noteNumber": 48,
  "noteName": "C3",
  "velocity": 79,
  "dtick": 384,
  "ins": 0
 },
 {
  "track": 3,
  "delta": 0,
  "tick": 9984,
  "byteIndex": 5390,
  "name": "Note on",
  "channel": 1,
  "noteNumber": 76,
  "noteName": "E5",
  "velocity": 79,
  "dtick": 48,
  "ins": 0
 },
 {
  "track": 3,
  "delta": 0,
  "tick": 10032,
  "byteIndex": 5398,
  "name": "Note on",
  "channel": 1,
  "noteNumber": 72,
  "noteName": "C5",
  "velocity": 79,
  "dtick": 48,
  "ins": 0
 },
 {
  "track": 3,
  "delta": 0,
  "tick": 10080,
  "byteIndex": 5406,
  "name": "Note on",
  "channel": 1,
  "noteNumber": 67,
  "noteName": "G4",
  "velocity": 79,
  "dtick": 48,
  "ins": 0
 },
 {
  "track": 3,
  "delta": 0,
  "tick": 10128,
  "byteIndex": 5414,
  "name": "Note on",
  "channel": 1,
  "noteNumber": 76,
  "noteName": "E5",
  "velocity": 79,
  "dtick": 48,
  "ins": 0
 },
 {
  "track": 3,
  "delta": 0,
  "tick": 10176,
  "byteIndex": 5422,
  "name": "Note on",
  "channel": 1,
  "noteNumber": 72,
  "noteName": "C5",
  "velocity": 79,
  "dtick": 48,
  "ins": 0
 },
 {
  "track": 3,
  "delta": 0,
  "tick": 10224,
  "byteIndex": 5430,
  "name": "Note on",
  "channel": 1,
  "noteNumber": 67,
  "noteName": "G4",
  "velocity": 79,
  "dtick": 48,
  "ins": 0
 },
 {
  "track": 3,
  "delta": 0,
  "tick": 10272,
  "byteIndex": 5438,
  "name": "Note on",
  "channel": 1,
  "noteNumber": 76,
  "noteName": "E5",
  "velocity": 79,
  "dtick": 48,
  "ins": 0
 },
 {
  "track": 3,
  "delta": 0,
  "tick": 10320,
  "byteIndex": 5446,
  "name": "Note on",
  "channel": 1,
  "noteNumber": 72,
  "noteName": "C5",
  "velocity": 79,
  "dtick": 48,
  "ins": 0
 },
 {
  "track": 3,
  "delta": 0,
  "tick": 10368,
  "byteIndex": 5466,
  "name": "Note on",
  "channel": 1,
  "noteNumber": 48,
  "noteName": "C3",
  "velocity": 79,
  "dtick": 384,
  "ins": 0
 },
 {
  "track": 3,
  "delta": 0,
  "tick": 10368,
  "byteIndex": 5470,
  "name": "Note on",
  "channel": 1,
  "noteNumber": 55,
  "noteName": "G3",
  "velocity": 79,
  "dtick": 384,
  "ins": 0
 },
 {
  "track": 3,
  "delta": 0,
  "tick": 10368,
  "byteIndex": 5474,
  "name": "Note on",
  "channel": 1,
  "noteNumber": 59,
  "noteName": "B3",
  "velocity": 79,
  "dtick": 384,
  "ins": 0
 },
 {
  "track": 3,
  "delta": 0,
  "tick": 10368,
  "byteIndex": 5478,
  "name": "Note on",
  "channel": 1,
  "noteNumber": 74,
  "noteName": "D5",
  "velocity": 79,
  "dtick": 48,
  "ins": 0
 },
 {
  "track": 3,
  "delta": 0,
  "tick": 10416,
  "byteIndex": 5486,
  "name": "Note on",
  "channel": 1,
  "noteNumber": 72,
  "noteName": "C5",
  "velocity": 79,
  "dtick": 48,
  "ins": 0
 },
 {
  "track": 3,
  "delta": 0,
  "tick": 10464,
  "byteIndex": 5494,
  "name": "Note on",
  "channel": 1,
  "noteNumber": 67,
  "noteName": "G4",
  "velocity": 79,
  "dtick": 48,
  "ins": 0
 },
 {
  "track": 3,
  "delta": 0,
  "tick": 10512,
  "byteIndex": 5502,
  "name": "Note on",
  "channel": 1,
  "noteNumber": 74,
  "noteName": "D5",
  "velocity": 79,
  "dtick": 48,
  "ins": 0
 },
 {
  "track": 3,
  "delta": 0,
  "tick": 10560,
  "byteIndex": 5510,
  "name": "Note on",
  "channel": 1,
  "noteNumber": 72,
  "noteName": "C5",
  "velocity": 79,
  "dtick": 48,
  "ins": 0
 },
 {
  "track": 3,
  "delta": 0,
  "tick": 10608,
  "byteIndex": 5518,
  "name": "Note on",
  "channel": 1,
  "noteNumber": 67,
  "noteName": "G4",
  "velocity": 79,
  "dtick": 48,
  "ins": 0
 },
 {
  "track": 3,
  "delta": 0,
  "tick": 10656,
  "byteIndex": 5526,
  "name": "Note on",
  "channel": 1,
  "noteNumber": 74,
  "noteName": "D5",
  "velocity": 79,
  "dtick": 48,
  "ins": 0
 },
 {
  "track": 3,
  "delta": 0,
  "tick": 10704,
  "byteIndex": 5534,
  "name": "Note on",
  "channel": 1,
  "noteNumber": 76,
  "noteName": "E5",
  "velocity": 79,
  "dtick": 48,
  "ins": 0
 },
 {
  "track": 3,
  "delta": 0,
  "tick": 10752,
  "byteIndex": 5554,
  "name": "Note on",
  "channel": 1,
  "noteNumber": 57,
  "noteName": "A3",
  "velocity": 79,
  "dtick": 144,
  "ins": 0
 },
 {
  "track": 3,
  "delta": 0,
  "tick": 10752,
  "byteIndex": 5558,
  "name": "Note on",
  "channel": 1,
  "noteNumber": 45,
  "noteName": "A2",
  "velocity": 79,
  "dtick": 144,
  "ins": 0
 },
 {
  "track": 3,
  "delta": 0,
  "tick": 10752,
  "byteIndex": 5562,
  "name": "Note on",
  "channel": 1,
  "noteNumber": 52,
  "noteName": "E3",
  "velocity": 79,
  "dtick": 144,
  "ins": 0
 },
 {
  "track": 3,
  "delta": 0,
  "tick": 10752,
  "byteIndex": 5566,
  "name": "Note on",
  "channel": 1,
  "noteNumber": 79,
  "noteName": "G5",
  "velocity": 79,
  "dtick": 48,
  "ins": 0
 },
 {
  "track": 3,
  "delta": 0,
  "tick": 10800,
  "byteIndex": 5574,
  "name": "Note on",
  "channel": 1,
  "noteNumber": 76,
  "noteName": "E5",
  "velocity": 79,
  "dtick": 48,
  "ins": 0
 },
 {
  "track": 3,
  "delta": 0,
  "tick": 10848,
  "byteIndex": 5582,
  "name": "Note on",
  "channel": 1,
  "noteNumber": 72,
  "noteName": "C5",
  "velocity": 79,
  "dtick": 48,
  "ins": 0
 },
 {
  "track": 3,
  "delta": 0,
  "tick": 10896,
  "byteIndex": 5602,
  "name": "Note on",
  "channel": 1,
  "noteNumber": 57,
  "noteName": "A3",
  "velocity": 79,
  "dtick": 144,
  "ins": 0
 },
 {
  "track": 3,
  "delta": 0,
  "tick": 10896,
  "byteIndex": 5606,
  "name": "Note on",
  "channel": 1,
  "noteNumber": 45,
  "noteName": "A2",
  "velocity": 79,
  "dtick": 144,
  "ins": 0
 },
 {
  "track": 3,
  "delta": 0,
  "tick": 10896,
  "byteIndex": 5610,
  "name": "Note on",
  "channel": 1,
  "noteNumber": 52,
  "noteName": "E3",
  "velocity": 79,
  "dtick": 144,
  "ins": 0
 },
 {
  "track": 3,
  "delta": 0,
  "tick": 10896,
  "byteIndex": 5614,
  "name": "Note on",
  "channel": 1,
  "noteNumber": 79,
  "noteName": "G5",
  "velocity": 79,
  "dtick": 48,
  "ins": 0
 },
 {
  "track": 3,
  "delta": 0,
  "tick": 10944,
  "byteIndex": 5622,
  "name": "Note on",
  "channel": 1,
  "noteNumber": 76,
  "noteName": "E5",
  "velocity": 79,
  "dtick": 48,
  "ins": 0
 },
 {
  "track": 3,
  "delta": 0,
  "tick": 10992,
  "byteIndex": 5630,
  "name": "Note on",
  "channel": 1,
  "noteNumber": 72,
  "noteName": "C5",
  "velocity": 79,
  "dtick": 48,
  "ins": 0
 },
 {
  "track": 3,
  "delta": 0,
  "tick": 11040,
  "byteIndex": 5650,
  "name": "Note on",
  "channel": 1,
  "noteNumber": 57,
  "noteName": "A3",
  "velocity": 79,
  "dtick": 96,
  "ins": 0
 },
 {
  "track": 3,
  "delta": 0,
  "tick": 11040,
  "byteIndex": 5654,
  "name": "Note on",
  "channel": 1,
  "noteNumber": 45,
  "noteName": "A2",
  "velocity": 79,
  "dtick": 96,
  "ins": 0
 },
 {
  "track": 3,
  "delta": 0,
  "tick": 11040,
  "byteIndex": 5658,
  "name": "Note on",
  "channel": 1,
  "noteNumber": 52,
  "noteName": "E3",
  "velocity": 79,
  "dtick": 96,
  "ins": 0
 },
 {
  "track": 3,
  "delta": 0,
  "tick": 11040,
  "byteIndex": 5662,
  "name": "Note on",
  "channel": 1,
  "noteNumber": 79,
  "noteName": "G5",
  "velocity": 79,
  "dtick": 48,
  "ins": 0
 },
 {
  "track": 3,
  "delta": 0,
  "tick": 11088,
  "byteIndex": 5670,
  "name": "Note on",
  "channel": 1,
  "noteNumber": 76,
  "noteName": "E5",
  "velocity": 79,
  "dtick": 48,
  "ins": 0
 },
 {
  "track": 3,
  "delta": 0,
  "tick": 11136,
  "byteIndex": 5690,
  "name": "Note on",
  "channel": 1,
  "noteNumber": 41,
  "noteName": "F2",
  "velocity": 79,
  "dtick": 144,
  "ins": 0
 },
 {
  "track": 3,
  "delta": 0,
  "tick": 11136,
  "byteIndex": 5694,
  "name": "Note on",
  "channel": 1,
  "noteNumber": 53,
  "noteName": "F3",
  "velocity": 79,
  "dtick": 144,
  "ins": 0
 },
 {
  "track": 3,
  "delta": 0,
  "tick": 11136,
  "byteIndex": 5698,
  "name": "Note on",
  "channel": 1,
  "noteNumber": 48,
  "noteName": "C3",
  "velocity": 79,
  "dtick": 144,
  "ins": 0
 },
 {
  "track": 3,
  "delta": 0,
  "tick": 11136,
  "byteIndex": 5702,
  "name": "Note on",
  "channel": 1,
  "noteNumber": 77,
  "noteName": "F5",
  "velocity": 79,
  "dtick": 48,
  "ins": 0
 },
 {
  "track": 3,
  "delta": 0,
  "tick": 11184,
  "byteIndex": 5710,
  "name": "Note on",
  "channel": 1,
  "noteNumber": 76,
  "noteName": "E5",
  "velocity": 79,
  "dtick": 48,
  "ins": 0
 },
 {
  "track": 3,
  "delta": 0,
  "tick": 11232,
  "byteIndex": 5718,
  "name": "Note on",
  "channel": 1,
  "noteNumber": 72,
  "noteName": "C5",
  "velocity": 79,
  "dtick": 48,
  "ins": 0
 },
 {
  "track": 3,
  "delta": 0,
  "tick": 11280,
  "byteIndex": 5738,
  "name": "Note on",
  "channel": 1,
  "noteNumber": 41,
  "noteName": "F2",
  "velocity": 79,
  "dtick": 144,
  "ins": 0
 },
 {
  "track": 3,
  "delta": 0,
  "tick": 11280,
  "byteIndex": 5742,
  "name": "Note on",
  "channel": 1,
  "noteNumber": 53,
  "noteName": "F3",
  "velocity": 79,
  "dtick": 144,
  "ins": 0
 },
 {
  "track": 3,
  "delta": 0,
  "tick": 11280,
  "byteIndex": 5746,
  "name": "Note on",
  "channel": 1,
  "noteNumber": 48,
  "noteName": "C3",
  "velocity": 79,
  "dtick": 144,
  "ins": 0
 },
 {
  "track": 3,
  "delta": 0,
  "tick": 11280,
  "byteIndex": 5750,
  "name": "Note on",
  "channel": 1,
  "noteNumber": 77,
  "noteName": "F5",
  "velocity": 79,
  "dtick": 48,
  "ins": 0
 },
 {
  "track": 3,
  "delta": 0,
  "tick": 11328,
  "byteIndex": 5758,
  "name": "Note on",
  "channel": 1,
  "noteNumber": 76,
  "noteName": "E5",
  "velocity": 79,
  "dtick": 48,
  "ins": 0
 },
 {
  "track": 3,
  "delta": 0,
  "tick": 11376,
  "byteIndex": 5766,
  "name": "Note on",
  "channel": 1,
  "noteNumber": 72,
  "noteName": "C5",
  "velocity": 79,
  "dtick": 48,
  "ins": 0
 },
 {
  "track": 3,
  "delta": 0,
  "tick": 11424,
  "byteIndex": 5786,
  "name": "Note on",
  "channel": 1,
  "noteNumber": 41,
  "noteName": "F2",
  "velocity": 79,
  "dtick": 96,
  "ins": 0
 },
 {
  "track": 3,
  "delta": 0,
  "tick": 11424,
  "byteIndex": 5790,
  "name": "Note on",
  "channel": 1,
  "noteNumber": 53,
  "noteName": "F3",
  "velocity": 79,
  "dtick": 96,
  "ins": 0
 },
 {
  "track": 3,
  "delta": 0,
  "tick": 11424,
  "byteIndex": 5794,
  "name": "Note on",
  "channel": 1,
  "noteNumber": 48,
  "noteName": "C3",
  "velocity": 79,
  "dtick": 96,
  "ins": 0
 },
 {
  "track": 3,
  "delta": 0,
  "tick": 11424,
  "byteIndex": 5798,
  "name": "Note on",
  "channel": 1,
  "noteNumber": 77,
  "noteName": "F5",
  "velocity": 79,
  "dtick": 48,
  "ins": 0
 },
 {
  "track": 3,
  "delta": 0,
  "tick": 11472,
  "byteIndex": 5806,
  "name": "Note on",
  "channel": 1,
  "noteNumber": 76,
  "noteName": "E5",
  "velocity": 79,
  "dtick": 48,
  "ins": 0
 },
 {
  "track": 3,
  "delta": 0,
  "tick": 11520,
  "byteIndex": 5826,
  "name": "Note on",
  "channel": 1,
  "noteNumber": 55,
  "noteName": "G3",
  "velocity": 79,
  "dtick": 144,
  "ins": 0
 },
 {
  "track": 3,
  "delta": 0,
  "tick": 11520,
  "byteIndex": 5830,
  "name": "Note on",
  "channel": 1,
  "noteNumber": 60,
  "noteName": "C4",
  "velocity": 79,
  "dtick": 144,
  "ins": 0
 },
 {
  "track": 3,
  "delta": 0,
  "tick": 11520,
  "byteIndex": 5834,
  "name": "Note on",
  "channel": 1,
  "noteNumber": 48,
  "noteName": "C3",
  "velocity": 79,
  "dtick": 144,
  "ins": 0
 },
 {
  "track": 3,
  "delta": 0,
  "tick": 11520,
  "byteIndex": 5838,
  "name": "Note on",
  "channel": 1,
  "noteNumber": 76,
  "noteName": "E5",
  "velocity": 79,
  "dtick": 48,
  "ins": 0
 },
 {
  "track": 3,
  "delta": 0,
  "tick": 11568,
  "byteIndex": 5846,
  "name": "Note on",
  "channel": 1,
  "noteNumber": 72,
  "noteName": "C5",
  "velocity": 79,
  "dtick": 48,
  "ins": 0
 },
 {
  "track": 3,
  "delta": 0,
  "tick": 11616,
  "byteIndex": 5854,
  "name": "Note on",
  "channel": 1,
  "noteNumber": 67,
  "noteName": "G4",
  "velocity": 79,
  "dtick": 48,
  "ins": 0
 },
 {
  "track": 3,
  "delta": 0,
  "tick": 11664,
  "byteIndex": 5874,
  "name": "Note on",
  "channel": 1,
  "noteNumber": 55,
  "noteName": "G3",
  "velocity": 79,
  "dtick": 144,
  "ins": 0
 },
 {
  "track": 3,
  "delta": 0,
  "tick": 11664,
  "byteIndex": 5878,
  "name": "Note on",
  "channel": 1,
  "noteNumber": 60,
  "noteName": "C4",
  "velocity": 79,
  "dtick": 144,
  "ins": 0
 },
 {
  "track": 3,
  "delta": 0,
  "tick": 11664,
  "byteIndex": 5882,
  "name": "Note on",
  "channel": 1,
  "noteNumber": 48,
  "noteName": "C3",
  "velocity": 79,
  "dtick": 144,
  "ins": 0
 },
 {
  "track": 3,
  "delta": 0,
  "tick": 11664,
  "byteIndex": 5886,
  "name": "Note on",
  "channel": 1,
  "noteNumber": 76,
  "noteName": "E5",
  "velocity": 79,
  "dtick": 48,
  "ins": 0
 },
 {
  "track": 3,
  "delta": 0,
  "tick": 11712,
  "byteIndex": 5894,
  "name": "Note on",
  "channel": 1,
  "noteNumber": 72,
  "noteName": "C5",
  "velocity": 79,
  "dtick": 48,
  "ins": 0
 },
 {
  "track": 3,
  "delta": 0,
  "tick": 11760,
  "byteIndex": 5902,
  "name": "Note on",
  "channel": 1,
  "noteNumber": 67,
  "noteName": "G4",
  "velocity": 79,
  "dtick": 48,
  "ins": 0
 },
 {
  "track": 3,
  "delta": 0,
  "tick": 11808,
  "byteIndex": 5922,
  "name": "Note on",
  "channel": 1,
  "noteNumber": 55,
  "noteName": "G3",
  "velocity": 79,
  "dtick": 96,
  "ins": 0
 },
 {
  "track": 3,
  "delta": 0,
  "tick": 11808,
  "byteIndex": 5926,
  "name": "Note on",
  "channel": 1,
  "noteNumber": 60,
  "noteName": "C4",
  "velocity": 79,
  "dtick": 96,
  "ins": 0
 },
 {
  "track": 3,
  "delta": 0,
  "tick": 11808,
  "byteIndex": 5930,
  "name": "Note on",
  "channel": 1,
  "noteNumber": 48,
  "noteName": "C3",
  "velocity": 79,
  "dtick": 96,
  "ins": 0
 },
 {
  "track": 3,
  "delta": 0,
  "tick": 11808,
  "byteIndex": 5934,
  "name": "Note on",
  "channel": 1,
  "noteNumber": 76,
  "noteName": "E5",
  "velocity": 79,
  "dtick": 48,
  "ins": 0
 },
 {
  "track": 3,
  "delta": 0,
  "tick": 11856,
  "byteIndex": 5942,
  "name": "Note on",
  "channel": 1,
  "noteNumber": 72,
  "noteName": "C5",
  "velocity": 79,
  "dtick": 48,
  "ins": 0
 },
 {
  "track": 3,
  "delta": 384,
  "tick": 12288,
  "byteIndex": 5962,
  "name": "Note on",
  "channel": 1,
  "noteNumber": 57,
  "noteName": "A3",
  "velocity": 79,
  "dtick": 48,
  "ins": 0
 },
 {
  "track": 3,
  "delta": 0,
  "tick": 12288,
  "byteIndex": 5967,
  "name": "Note on",
  "channel": 1,
  "noteNumber": 45,
  "noteName": "A2",
  "velocity": 79,
  "dtick": 48,
  "ins": 0
 },
 {
  "track": 3,
  "delta": 0,
  "tick": 12288,
  "byteIndex": 5971,
  "name": "Note on",
  "channel": 1,
  "noteNumber": 52,
  "noteName": "E3",
  "velocity": 79,
  "dtick": 48,
  "ins": 0
 },
 {
  "track": 3,
  "delta": 0,
  "tick": 12288,
  "byteIndex": 5975,
  "name": "Note on",
  "channel": 1,
  "noteNumber": 79,
  "noteName": "G5",
  "velocity": 79,
  "dtick": 48,
  "ins": 0
 },
 {
  "track": 3,
  "delta": 0,
  "tick": 12288,
  "byteIndex": 5979,
  "name": "Note on",
  "channel": 1,
  "noteNumber": 91,
  "noteName": "G6",
  "velocity": 79,
  "dtick": 48,
  "ins": 0
 },
 {
  "track": 3,
  "delta": 0,
  "tick": 12336,
  "byteIndex": 6003,
  "name": "Note on",
  "channel": 1,
  "noteNumber": 57,
  "noteName": "A3",
  "velocity": 79,
  "dtick": 48,
  "ins": 0
 },
 {
  "track": 3,
  "delta": 0,
  "tick": 12336,
  "byteIndex": 6007,
  "name": "Note on",
  "channel": 1,
  "noteNumber": 52,
  "noteName": "E3",
  "velocity": 79,
  "dtick": 48,
  "ins": 0
 },
 {
  "track": 3,
  "delta": 0,
  "tick": 12336,
  "byteIndex": 6011,
  "name": "Note on",
  "channel": 1,
  "noteNumber": 45,
  "noteName": "A2",
  "velocity": 79,
  "dtick": 48,
  "ins": 0
 },
 {
  "track": 3,
  "delta": 0,
  "tick": 12336,
  "byteIndex": 6015,
  "name": "Note on",
  "channel": 1,
  "noteNumber": 76,
  "noteName": "E5",
  "velocity": 79,
  "dtick": 48,
  "ins": 0
 },
 {
  "track": 3,
  "delta": 0,
  "tick": 12336,
  "byteIndex": 6019,
  "name": "Note on",
  "channel": 1,
  "noteNumber": 88,
  "noteName": "E6",
  "velocity": 79,
  "dtick": 48,
  "ins": 0
 },
 {
  "track": 3,
  "delta": 0,
  "tick": 12384,
  "byteIndex": 6043,
  "name": "Note on",
  "channel": 1,
  "noteNumber": 57,
  "noteName": "A3",
  "velocity": 79,
  "dtick": 48,
  "ins": 0
 },
 {
  "track": 3,
  "delta": 0,
  "tick": 12384,
  "byteIndex": 6047,
  "name": "Note on",
  "channel": 1,
  "noteNumber": 52,
  "noteName": "E3",
  "velocity": 79,
  "dtick": 48,
  "ins": 0
 },
 {
  "track": 3,
  "delta": 0,
  "tick": 12384,
  "byteIndex": 6051,
  "name": "Note on",
  "channel": 1,
  "noteNumber": 45,
  "noteName": "A2",
  "velocity": 79,
  "dtick": 48,
  "ins": 0
 },
 {
  "track": 3,
  "delta": 0,
  "tick": 12384,
  "byteIndex": 6055,
  "name": "Note on",
  "channel": 1,
  "noteNumber": 72,
  "noteName": "C5",
  "velocity": 79,
  "dtick": 48,
  "ins": 0
 },
 {
  "track": 3,
  "delta": 0,
  "tick": 12384,
  "byteIndex": 6059,
  "name": "Note on",
  "channel": 1,
  "noteNumber": 84,
  "noteName": "C6",
  "velocity": 79,
  "dtick": 48,
  "ins": 0
 },
 {
  "track": 3,
  "delta": 0,
  "tick": 12432,
  "byteIndex": 6083,
  "name": "Note on",
  "channel": 1,
  "noteNumber": 52,
  "noteName": "E3",
  "velocity": 79,
  "dtick": 48,
  "ins": 0
 },
 {
  "track": 3,
  "delta": 0,
  "tick": 12432,
  "byteIndex": 6087,
  "name": "Note on",
  "channel": 1,
  "noteNumber": 57,
  "noteName": "A3",
  "velocity": 79,
  "dtick": 48,
  "ins": 0
 },
 {
  "track": 3,
  "delta": 0,
  "tick": 12432,
  "byteIndex": 6091,
  "name": "Note on",
  "channel": 1,
  "noteNumber": 45,
  "noteName": "A2",
  "velocity": 79,
  "dtick": 48,
  "ins": 0
 },
 {
  "track": 3,
  "delta": 0,
  "tick": 12432,
  "byteIndex": 6095,
  "name": "Note on",
  "channel": 1,
  "noteNumber": 79,
  "noteName": "G5",
  "velocity": 79,
  "dtick": 48,
  "ins": 0
 },
 {
  "track": 3,
  "delta": 0,
  "tick": 12432,
  "byteIndex": 6099,
  "name": "Note on",
  "channel": 1,
  "noteNumber": 91,
  "noteName": "G6",
  "velocity": 79,
  "dtick": 48,
  "ins": 0
 },
 {
  "track": 3,
  "delta": 0,
  "tick": 12480,
  "byteIndex": 6123,
  "name": "Note on",
  "channel": 1,
  "noteNumber": 52,
  "noteName": "E3",
  "velocity": 79,
  "dtick": 48,
  "ins": 0
 },
 {
  "track": 3,
  "delta": 0,
  "tick": 12480,
  "byteIndex": 6127,
  "name": "Note on",
  "channel": 1,
  "noteNumber": 57,
  "noteName": "A3",
  "velocity": 79,
  "dtick": 48,
  "ins": 0
 },
 {
  "track": 3,
  "delta": 0,
  "tick": 12480,
  "byteIndex": 6131,
  "name": "Note on",
  "channel": 1,
  "noteNumber": 45,
  "noteName": "A2",
  "velocity": 79,
  "dtick": 48,
  "ins": 0
 },
 {
  "track": 3,
  "delta": 0,
  "tick": 12480,
  "byteIndex": 6135,
  "name": "Note on",
  "channel": 1,
  "noteNumber": 76,
  "noteName": "E5",
  "velocity": 79,
  "dtick": 48,
  "ins": 0
 },
 {
  "track": 3,
  "delta": 0,
  "tick": 12480,
  "byteIndex": 6139,
  "name": "Note on",
  "channel": 1,
  "noteNumber": 88,
  "noteName": "E6",
  "velocity": 79,
  "dtick": 48,
  "ins": 0
 },
 {
  "track": 3,
  "delta": 0,
  "tick": 12528,
  "byteIndex": 6163,
  "name": "Note on",
  "channel": 1,
  "noteNumber": 45,
  "noteName": "A2",
  "velocity": 79,
  "dtick": 48,
  "ins": 0
 },
 {
  "track": 3,
  "delta": 0,
  "tick": 12528,
  "byteIndex": 6167,
  "name": "Note on",
  "channel": 1,
  "noteNumber": 52,
  "noteName": "E3",
  "velocity": 79,
  "dtick": 48,
  "ins": 0
 },
 {
  "track": 3,
  "delta": 0,
  "tick": 12528,
  "byteIndex": 6171,
  "name": "Note on",
  "channel": 1,
  "noteNumber": 57,
  "noteName": "A3",
  "velocity": 79,
  "dtick": 48,
  "ins": 0
 },
 {
  "track": 3,
  "delta": 0,
  "tick": 12528,
  "byteIndex": 6175,
  "name": "Note on",
  "channel": 1,
  "noteNumber": 72,
  "noteName": "C5",
  "velocity": 79,
  "dtick": 48,
  "ins": 0
 },
 {
  "track": 3,
  "delta": 0,
  "tick": 12528,
  "byteIndex": 6179,
  "name": "Note on",
  "channel": 1,
  "noteNumber": 84,
  "noteName": "C6",
  "velocity": 79,
  "dtick": 48,
  "ins": 0
 },
 {
  "track": 3,
  "delta": 0,
  "tick": 12576,
  "byteIndex": 6203,
  "name": "Note on",
  "channel": 1,
  "noteNumber": 45,
  "noteName": "A2",
  "velocity": 79,
  "dtick": 48,
  "ins": 0
 },
 {
  "track": 3,
  "delta": 0,
  "tick": 12576,
  "byteIndex": 6207,
  "name": "Note on",
  "channel": 1,
  "noteNumber": 57,
  "noteName": "A3",
  "velocity": 79,
  "dtick": 48,
  "ins": 0
 },
 {
  "track": 3,
  "delta": 0,
  "tick": 12576,
  "byteIndex": 6211,
  "name": "Note on",
  "channel": 1,
  "noteNumber": 52,
  "noteName": "E3",
  "velocity": 79,
  "dtick": 48,
  "ins": 0
 },
 {
  "track": 3,
  "delta": 0,
  "tick": 12576,
  "byteIndex": 6215,
  "name": "Note on",
  "channel": 1,
  "noteNumber": 79,
  "noteName": "G5",
  "velocity": 79,
  "dtick": 48,
  "ins": 0
 },
 {
  "track": 3,
  "delta": 0,
  "tick": 12576,
  "byteIndex": 6219,
  "name": "Note on",
  "channel": 1,
  "noteNumber": 91,
  "noteName": "G6",
  "velocity": 79,
  "dtick": 48,
  "ins": 0
 },
 {
  "track": 3,
  "delta": 0,
  "tick": 12624,
  "byteIndex": 6243,
  "name": "Note on",
  "channel": 1,
  "noteNumber": 45,
  "noteName": "A2",
  "velocity": 79,
  "dtick": 48,
  "ins": 0
 },
 {
  "track": 3,
  "delta": 0,
  "tick": 12624,
  "byteIndex": 6247,
  "name": "Note on",
  "channel": 1,
  "noteNumber": 52,
  "noteName": "E3",
  "velocity": 79,
  "dtick": 48,
  "ins": 0
 },
 {
  "track": 3,
  "delta": 0,
  "tick": 12624,
  "byteIndex": 6251,
  "name": "Note on",
  "channel": 1,
  "noteNumber": 57,
  "noteName": "A3",
  "velocity": 79,
  "dtick": 48,
  "ins": 0
 },
 {
  "track": 3,
  "delta": 0,
  "tick": 12624,
  "byteIndex": 6255,
  "name": "Note on",
  "channel": 1,
  "noteNumber": 76,
  "noteName": "E5",
  "velocity": 79,
  "dtick": 48,
  "ins": 0
 },
 {
  "track": 3,
  "delta": 0,
  "tick": 12624,
  "byteIndex": 6259,
  "name": "Note on",
  "channel": 1,
  "noteNumber": 88,
  "noteName": "E6",
  "velocity": 79,
  "dtick": 48,
  "ins": 0
 },
 {
  "track": 3,
  "delta": 0,
  "tick": 12672,
  "byteIndex": 6283,
  "name": "Note on",
  "channel": 1,
  "noteNumber": 41,
  "noteName": "F2",
  "velocity": 79,
  "dtick": 48,
  "ins": 0
 },
 {
  "track": 3,
  "delta": 0,
  "tick": 12672,
  "byteIndex": 6287,
  "name": "Note on",
  "channel": 1,
  "noteNumber": 53,
  "noteName": "F3",
  "velocity": 79,
  "dtick": 48,
  "ins": 0
 },
 {
  "track": 3,
  "delta": 0,
  "tick": 12672,
  "byteIndex": 6291,
  "name": "Note on",
  "channel": 1,
  "noteNumber": 48,
  "noteName": "C3",
  "velocity": 79,
  "dtick": 48,
  "ins": 0
 },
 {
  "track": 3,
  "delta": 0,
  "tick": 12672,
  "byteIndex": 6295,
  "name": "Note on",
  "channel": 1,
  "noteNumber": 77,
  "noteName": "F5",
  "velocity": 79,
  "dtick": 48,
  "ins": 0
 },
 {
  "track": 3,
  "delta": 0,
  "tick": 12672,
  "byteIndex": 6299,
  "name": "Note on",
  "channel": 1,
  "noteNumber": 89,
  "noteName": "F6",
  "velocity": 79,
  "dtick": 48,
  "ins": 0
 },
 {
  "track": 3,
  "delta": 0,
  "tick": 12720,
  "byteIndex": 6323,
  "name": "Note on",
  "channel": 1,
  "noteNumber": 41,
  "noteName": "F2",
  "velocity": 79,
  "dtick": 48,
  "ins": 0
 },
 {
  "track": 3,
  "delta": 0,
  "tick": 12720,
  "byteIndex": 6327,
  "name": "Note on",
  "channel": 1,
  "noteNumber": 48,
  "noteName": "C3",
  "velocity": 79,
  "dtick": 48,
  "ins": 0
 },
 {
  "track": 3,
  "delta": 0,
  "tick": 12720,
  "byteIndex": 6331,
  "name": "Note on",
  "channel": 1,
  "noteNumber": 53,
  "noteName": "F3",
  "velocity": 79,
  "dtick": 48,
  "ins": 0
 },
 {
  "track": 3,
  "delta": 0,
  "tick": 12720,
  "byteIndex": 6335,
  "name": "Note on",
  "channel": 1,
  "noteNumber": 76,
  "noteName": "E5",
  "velocity": 79,
  "dtick": 48,
  "ins": 0
 },
 {
  "track": 3,
  "delta": 0,
  "tick": 12720,
  "byteIndex": 6339,
  "name": "Note on",
  "channel": 1,
  "noteNumber": 88,
  "noteName": "E6",
  "velocity": 79,
  "dtick": 48,
  "ins": 0
 },
 {
  "track": 3,
  "delta": 0,
  "tick": 12768,
  "byteIndex": 6363,
  "name": "Note on",
  "channel": 1,
  "noteNumber": 53,
  "noteName": "F3",
  "velocity": 79,
  "dtick": 48,
  "ins": 0
 },
 {
  "track": 3,
  "delta": 0,
  "tick": 12768,
  "byteIndex": 6367,
  "name": "Note on",
  "channel": 1,
  "noteNumber": 48,
  "noteName": "C3",
  "velocity": 79,
  "dtick": 48,
  "ins": 0
 },
 {
  "track": 3,
  "delta": 0,
  "tick": 12768,
  "byteIndex": 6371,
  "name": "Note on",
  "channel": 1,
  "noteNumber": 41,
  "noteName": "F2",
  "velocity": 79,
  "dtick": 48,
  "ins": 0
 },
 {
  "track": 3,
  "delta": 0,
  "tick": 12768,
  "byteIndex": 6375,
  "name": "Note on",
  "channel": 1,
  "noteNumber": 72,
  "noteName": "C5",
  "velocity": 79,
  "dtick": 48,
  "ins": 0
 },
 {
  "track": 3,
  "delta": 0,
  "tick": 12768,
  "byteIndex": 6379,
  "name": "Note on",
  "channel": 1,
  "noteNumber": 84,
  "noteName": "C6",
  "velocity": 79,
  "dtick": 48,
  "ins": 0
 },
 {
  "track": 3,
  "delta": 0,
  "tick": 12816,
  "byteIndex": 6403,
  "name": "Note on",
  "channel": 1,
  "noteNumber": 48,
  "noteName": "C3",
  "velocity": 79,
  "dtick": 48,
  "ins": 0
 },
 {
  "track": 3,
  "delta": 0,
  "tick": 12816,
  "byteIndex": 6407,
  "name": "Note on",
  "channel": 1,
  "noteNumber": 53,
  "noteName": "F3",
  "velocity": 79,
  "dtick": 48,
  "ins": 0
 },
 {
  "track": 3,
  "delta": 0,
  "tick": 12816,
  "byteIndex": 6411,
  "name": "Note on",
  "channel": 1,
  "noteNumber": 41,
  "noteName": "F2",
  "velocity": 79,
  "dtick": 48,
  "ins": 0
 },
 {
  "track": 3,
  "delta": 0,
  "tick": 12816,
  "byteIndex": 6415,
  "name": "Note on",
  "channel": 1,
  "noteNumber": 77,
  "noteName": "F5",
  "velocity": 79,
  "dtick": 48,
  "ins": 0
 },
 {
  "track": 3,
  "delta": 0,
  "tick": 12816,
  "byteIndex": 6419,
  "name": "Note on",
  "channel": 1,
  "noteNumber": 89,
  "noteName": "F6",
  "velocity": 79,
  "dtick": 48,
  "ins": 0
 },
 {
  "track": 3,
  "delta": 0,
  "tick": 12864,
  "byteIndex": 6443,
  "name": "Note on",
  "channel": 1,
  "noteNumber": 41,
  "noteName": "F2",
  "velocity": 79,
  "dtick": 48,
  "ins": 0
 },
 {
  "track": 3,
  "delta": 0,
  "tick": 12864,
  "byteIndex": 6447,
  "name": "Note on",
  "channel": 1,
  "noteNumber": 53,
  "noteName": "F3",
  "velocity": 79,
  "dtick": 48,
  "ins": 0
 },
 {
  "track": 3,
  "delta": 0,
  "tick": 12864,
  "byteIndex": 6451,
  "name": "Note on",
  "channel": 1,
  "noteNumber": 48,
  "noteName": "C3",
  "velocity": 79,
  "dtick": 48,
  "ins": 0
 },
 {
  "track": 3,
  "delta": 0,
  "tick": 12864,
  "byteIndex": 6455,
  "name": "Note on",
  "channel": 1,
  "noteNumber": 76,
  "noteName": "E5",
  "velocity": 79,
  "dtick": 48,
  "ins": 0
 },
 {
  "track": 3,
  "delta": 0,
  "tick": 12864,
  "byteIndex": 6459,
  "name": "Note on",
  "channel": 1,
  "noteNumber": 88,
  "noteName": "E6",
  "velocity": 79,
  "dtick": 48,
  "ins": 0
 },
 {
  "track": 3,
  "delta": 0,
  "tick": 12912,
  "byteIndex": 6483,
  "name": "Note on",
  "channel": 1,
  "noteNumber": 53,
  "noteName": "F3",
  "velocity": 79,
  "dtick": 48,
  "ins": 0
 },
 {
  "track": 3,
  "delta": 0,
  "tick": 12912,
  "byteIndex": 6487,
  "name": "Note on",
  "channel": 1,
  "noteNumber": 48,
  "noteName": "C3",
  "velocity": 79,
  "dtick": 48,
  "ins": 0
 },
 {
  "track": 3,
  "delta": 0,
  "tick": 12912,
  "byteIndex": 6491,
  "name": "Note on",
  "channel": 1,
  "noteNumber": 41,
  "noteName": "F2",
  "velocity": 79,
  "dtick": 48,
  "ins": 0
 },
 {
  "track": 3,
  "delta": 0,
  "tick": 12912,
  "byteIndex": 6495,
  "name": "Note on",
  "channel": 1,
  "noteNumber": 72,
  "noteName": "C5",
  "velocity": 79,
  "dtick": 48,
  "ins": 0
 },
 {
  "track": 3,
  "delta": 0,
  "tick": 12912,
  "byteIndex": 6499,
  "name": "Note on",
  "channel": 1,
  "noteNumber": 84,
  "noteName": "C6",
  "velocity": 79,
  "dtick": 48,
  "ins": 0
 },
 {
  "track": 3,
  "delta": 0,
  "tick": 12960,
  "byteIndex": 6523,
  "name": "Note on",
  "channel": 1,
  "noteNumber": 41,
  "noteName": "F2",
  "velocity": 79,
  "dtick": 48,
  "ins": 0
 },
 {
  "track": 3,
  "delta": 0,
  "tick": 12960,
  "byteIndex": 6527,
  "name": "Note on",
  "channel": 1,
  "noteNumber": 53,
  "noteName": "F3",
  "velocity": 79,
  "dtick": 48,
  "ins": 0
 },
 {
  "track": 3,
  "delta": 0,
  "tick": 12960,
  "byteIndex": 6531,
  "name": "Note on",
  "channel": 1,
  "noteNumber": 48,
  "noteName": "C3",
  "velocity": 79,
  "dtick": 48,
  "ins": 0
 },
 {
  "track": 3,
  "delta": 0,
  "tick": 12960,
  "byteIndex": 6535,
  "name": "Note on",
  "channel": 1,
  "noteNumber": 77,
  "noteName": "F5",
  "velocity": 79,
  "dtick": 48,
  "ins": 0
 },
 {
  "track": 3,
  "delta": 0,
  "tick": 12960,
  "byteIndex": 6539,
  "name": "Note on",
  "channel": 1,
  "noteNumber": 89,
  "noteName": "F6",
  "velocity": 79,
  "dtick": 48,
  "ins": 0
 },
 {
  "track": 3,
  "delta": 0,
  "tick": 13008,
  "byteIndex": 6563,
  "name": "Note on",
  "channel": 1,
  "noteNumber": 53,
  "noteName": "F3",
  "velocity": 79,
  "dtick": 48,
  "ins": 0
 },
 {
  "track": 3,
  "delta": 0,
  "tick": 13008,
  "byteIndex": 6567,
  "name": "Note on",
  "channel": 1,
  "noteNumber": 48,
  "noteName": "C3",
  "velocity": 79,
  "dtick": 48,
  "ins": 0
 },
 {
  "track": 3,
  "delta": 0,
  "tick": 13008,
  "byteIndex": 6571,
  "name": "Note on",
  "channel": 1,
  "noteNumber": 41,
  "noteName": "F2",
  "velocity": 79,
  "dtick": 48,
  "ins": 0
 },
 {
  "track": 3,
  "delta": 0,
  "tick": 13008,
  "byteIndex": 6575,
  "name": "Note on",
  "channel": 1,
  "noteNumber": 76,
  "noteName": "E5",
  "velocity": 79,
  "dtick": 48,
  "ins": 0
 },
 {
  "track": 3,
  "delta": 0,
  "tick": 13008,
  "byteIndex": 6579,
  "name": "Note on",
  "channel": 1,
  "noteNumber": 88,
  "noteName": "E6",
  "velocity": 79,
  "dtick": 48,
  "ins": 0
 },
 {
  "track": 3,
  "delta": 0,
  "tick": 13056,
  "byteIndex": 6603,
  "name": "Note on",
  "channel": 1,
  "noteNumber": 55,
  "noteName": "G3",
  "velocity": 79,
  "dtick": 48,
  "ins": 0
 },
 {
  "track": 3,
  "delta": 0,
  "tick": 13056,
  "byteIndex": 6607,
  "name": "Note on",
  "channel": 1,
  "noteNumber": 60,
  "noteName": "C4",
  "velocity": 79,
  "dtick": 48,
  "ins": 0
 },
 {
  "track": 3,
  "delta": 0,
  "tick": 13056,
  "byteIndex": 6611,
  "name": "Note on",
  "channel": 1,
  "noteNumber": 48,
  "noteName": "C3",
  "velocity": 79,
  "dtick": 48,
  "ins": 0
 },
 {
  "track": 3,
  "delta": 0,
  "tick": 13056,
  "byteIndex": 6615,
  "name": "Note on",
  "channel": 1,
  "noteNumber": 76,
  "noteName": "E5",
  "velocity": 79,
  "dtick": 48,
  "ins": 0
 },
 {
  "track": 3,
  "delta": 0,
  "tick": 13056,
  "byteIndex": 6619,
  "name": "Note on",
  "channel": 1,
  "noteNumber": 88,
  "noteName": "E6",
  "velocity": 79,
  "dtick": 48,
  "ins": 0
 },
 {
  "track": 3,
  "delta": 0,
  "tick": 13104,
  "byteIndex": 6643,
  "name": "Note on",
  "channel": 1,
  "noteNumber": 48,
  "noteName": "C3",
  "velocity": 79,
  "dtick": 48,
  "ins": 0
 },
 {
  "track": 3,
  "delta": 0,
  "tick": 13104,
  "byteIndex": 6647,
  "name": "Note on",
  "channel": 1,
  "noteNumber": 55,
  "noteName": "G3",
  "velocity": 79,
  "dtick": 48,
  "ins": 0
 },
 {
  "track": 3,
  "delta": 0,
  "tick": 13104,
  "byteIndex": 6651,
  "name": "Note on",
  "channel": 1,
  "noteNumber": 60,
  "noteName": "C4",
  "velocity": 79,
  "dtick": 48,
  "ins": 0
 },
 {
  "track": 3,
  "delta": 0,
  "tick": 13104,
  "byteIndex": 6655,
  "name": "Note on",
  "channel": 1,
  "noteNumber": 72,
  "noteName": "C5",
  "velocity": 79,
  "dtick": 48,
  "ins": 0
 },
 {
  "track": 3,
  "delta": 0,
  "tick": 13104,
  "byteIndex": 6659,
  "name": "Note on",
  "channel": 1,
  "noteNumber": 84,
  "noteName": "C6",
  "velocity": 79,
  "dtick": 48,
  "ins": 0
 },
 {
  "track": 3,
  "delta": 0,
  "tick": 13152,
  "byteIndex": 6683,
  "name": "Note on",
  "channel": 1,
  "noteNumber": 60,
  "noteName": "C4",
  "velocity": 79,
  "dtick": 48,
  "ins": 0
 },
 {
  "track": 3,
  "delta": 0,
  "tick": 13152,
  "byteIndex": 6687,
  "name": "Note on",
  "channel": 1,
  "noteNumber": 55,
  "noteName": "G3",
  "velocity": 79,
  "dtick": 48,
  "ins": 0
 },
 {
  "track": 3,
  "delta": 0,
  "tick": 13152,
  "byteIndex": 6691,
  "name": "Note on",
  "channel": 1,
  "noteNumber": 48,
  "noteName": "C3",
  "velocity": 79,
  "dtick": 48,
  "ins": 0
 },
 {
  "track": 3,
  "delta": 0,
  "tick": 13152,
  "byteIndex": 6695,
  "name": "Note on",
  "channel": 1,
  "noteNumber": 67,
  "noteName": "G4",
  "velocity": 79,
  "dtick": 48,
  "ins": 0
 },
 {
  "track": 3,
  "delta": 0,
  "tick": 13152,
  "byteIndex": 6699,
  "name": "Note on",
  "channel": 1,
  "noteNumber": 79,
  "noteName": "G5",
  "velocity": 79,
  "dtick": 48,
  "ins": 0
 },
 {
  "track": 3,
  "delta": 0,
  "tick": 13200,
  "byteIndex": 6723,
  "name": "Note on",
  "channel": 1,
  "noteNumber": 60,
  "noteName": "C4",
  "velocity": 79,
  "dtick": 48,
  "ins": 0
 },
 {
  "track": 3,
  "delta": 0,
  "tick": 13200,
  "byteIndex": 6727,
  "name": "Note on",
  "channel": 1,
  "noteNumber": 55,
  "noteName": "G3",
  "velocity": 79,
  "dtick": 48,
  "ins": 0
 },
 {
  "track": 3,
  "delta": 0,
  "tick": 13200,
  "byteIndex": 6731,
  "name": "Note on",
  "channel": 1,
  "noteNumber": 48,
  "noteName": "C3",
  "velocity": 79,
  "dtick": 48,
  "ins": 0
 },
 {
  "track": 3,
  "delta": 0,
  "tick": 13200,
  "byteIndex": 6735,
  "name": "Note on",
  "channel": 1,
  "noteNumber": 76,
  "noteName": "E5",
  "velocity": 79,
  "dtick": 48,
  "ins": 0
 },
 {
  "track": 3,
  "delta": 0,
  "tick": 13200,
  "byteIndex": 6739,
  "name": "Note on",
  "channel": 1,
  "noteNumber": 88,
  "noteName": "E6",
  "velocity": 79,
  "dtick": 48,
  "ins": 0
 },
 {
  "track": 3,
  "delta": 0,
  "tick": 13248,
  "byteIndex": 6763,
  "name": "Note on",
  "channel": 1,
  "noteNumber": 48,
  "noteName": "C3",
  "velocity": 79,
  "dtick": 48,
  "ins": 0
 },
 {
  "track": 3,
  "delta": 0,
  "tick": 13248,
  "byteIndex": 6767,
  "name": "Note on",
  "channel": 1,
  "noteNumber": 60,
  "noteName": "C4",
  "velocity": 79,
  "dtick": 48,
  "ins": 0
 },
 {
  "track": 3,
  "delta": 0,
  "tick": 13248,
  "byteIndex": 6771,
  "name": "Note on",
  "channel": 1,
  "noteNumber": 55,
  "noteName": "G3",
  "velocity": 79,
  "dtick": 48,
  "ins": 0
 },
 {
  "track": 3,
  "delta": 0,
  "tick": 13248,
  "byteIndex": 6775,
  "name": "Note on",
  "channel": 1,
  "noteNumber": 72,
  "noteName": "C5",
  "velocity": 79,
  "dtick": 48,
  "ins": 0
 },
 {
  "track": 3,
  "delta": 0,
  "tick": 13248,
  "byteIndex": 6779,
  "name": "Note on",
  "channel": 1,
  "noteNumber": 84,
  "noteName": "C6",
  "velocity": 79,
  "dtick": 48,
  "ins": 0
 },
 {
  "track": 3,
  "delta": 0,
  "tick": 13296,
  "byteIndex": 6803,
  "name": "Note on",
  "channel": 1,
  "noteNumber": 60,
  "noteName": "C4",
  "velocity": 79,
  "dtick": 48,
  "ins": 0
 },
 {
  "track": 3,
  "delta": 0,
  "tick": 13296,
  "byteIndex": 6807,
  "name": "Note on",
  "channel": 1,
  "noteNumber": 55,
  "noteName": "G3",
  "velocity": 79,
  "dtick": 48,
  "ins": 0
 },
 {
  "track": 3,
  "delta": 0,
  "tick": 13296,
  "byteIndex": 6811,
  "name": "Note on",
  "channel": 1,
  "noteNumber": 48,
  "noteName": "C3",
  "velocity": 79,
  "dtick": 48,
  "ins": 0
 },
 {
  "track": 3,
  "delta": 0,
  "tick": 13296,
  "byteIndex": 6815,
  "name": "Note on",
  "channel": 1,
  "noteNumber": 67,
  "noteName": "G4",
  "velocity": 79,
  "dtick": 48,
  "ins": 0
 },
 {
  "track": 3,
  "delta": 0,
  "tick": 13296,
  "byteIndex": 6819,
  "name": "Note on",
  "channel": 1,
  "noteNumber": 79,
  "noteName": "G5",
  "velocity": 79,
  "dtick": 48,
  "ins": 0
 },
 {
  "track": 3,
  "delta": 0,
  "tick": 13344,
  "byteIndex": 6843,
  "name": "Note on",
  "channel": 1,
  "noteNumber": 55,
  "noteName": "G3",
  "velocity": 79,
  "dtick": 48,
  "ins": 0
 },
 {
  "track": 3,
  "delta": 0,
  "tick": 13344,
  "byteIndex": 6847,
  "name": "Note on",
  "channel": 1,
  "noteNumber": 60,
  "noteName": "C4",
  "velocity": 79,
  "dtick": 48,
  "ins": 0
 },
 {
  "track": 3,
  "delta": 0,
  "tick": 13344,
  "byteIndex": 6851,
  "name": "Note on",
  "channel": 1,
  "noteNumber": 48,
  "noteName": "C3",
  "velocity": 79,
  "dtick": 48,
  "ins": 0
 },
 {
  "track": 3,
  "delta": 0,
  "tick": 13344,
  "byteIndex": 6855,
  "name": "Note on",
  "channel": 1,
  "noteNumber": 88,
  "noteName": "E6",
  "velocity": 79,
  "dtick": 48,
  "ins": 0
 },
 {
  "track": 3,
  "delta": 0,
  "tick": 13344,
  "byteIndex": 6859,
  "name": "Note on",
  "channel": 1,
  "noteNumber": 76,
  "noteName": "E5",
  "velocity": 79,
  "dtick": 48,
  "ins": 0
 },
 {
  "track": 3,
  "delta": 0,
  "tick": 13392,
  "byteIndex": 6883,
  "name": "Note on",
  "channel": 1,
  "noteNumber": 48,
  "noteName": "C3",
  "velocity": 79,
  "dtick": 48,
  "ins": 0
 },
 {
  "track": 3,
  "delta": 0,
  "tick": 13392,
  "byteIndex": 6887,
  "name": "Note on",
  "channel": 1,
  "noteNumber": 55,
  "noteName": "G3",
  "velocity": 79,
  "dtick": 48,
  "ins": 0
 },
 {
  "track": 3,
  "delta": 0,
  "tick": 13392,
  "byteIndex": 6891,
  "name": "Note on",
  "channel": 1,
  "noteNumber": 60,
  "noteName": "C4",
  "velocity": 79,
  "dtick": 48,
  "ins": 0
 },
 {
  "track": 3,
  "delta": 0,
  "tick": 13392,
  "byteIndex": 6895,
  "name": "Note on",
  "channel": 1,
  "noteNumber": 84,
  "noteName": "C6",
  "velocity": 79,
  "dtick": 48,
  "ins": 0
 },
 {
  "track": 3,
  "delta": 0,
  "tick": 13392,
  "byteIndex": 6899,
  "name": "Note on",
  "channel": 1,
  "noteNumber": 72,
  "noteName": "C5",
  "velocity": 79,
  "dtick": 48,
  "ins": 0
 },
 {
  "track": 3,
  "delta": 0,
  "tick": 13440,
  "byteIndex": 6923,
  "name": "Note on",
  "channel": 1,
  "noteNumber": 59,
  "noteName": "B3",
  "velocity": 79,
  "dtick": 48,
  "ins": 0
 },
 {
  "track": 3,
  "delta": 0,
  "tick": 13440,
  "byteIndex": 6927,
  "name": "Note on",
  "channel": 1,
  "noteNumber": 55,
  "noteName": "G3",
  "velocity": 79,
  "dtick": 48,
  "ins": 0
 },
 {
  "track": 3,
  "delta": 0,
  "tick": 13440,
  "byteIndex": 6931,
  "name": "Note on",
  "channel": 1,
  "noteNumber": 48,
  "noteName": "C3",
  "velocity": 79,
  "dtick": 48,
  "ins": 0
 },
 {
  "track": 3,
  "delta": 0,
  "tick": 13440,
  "byteIndex": 6935,
  "name": "Note on",
  "channel": 1,
  "noteNumber": 86,
  "noteName": "D6",
  "velocity": 79,
  "dtick": 48,
  "ins": 0
 },
 {
  "track": 3,
  "delta": 0,
  "tick": 13440,
  "byteIndex": 6939,
  "name": "Note on",
  "channel": 1,
  "noteNumber": 74,
  "noteName": "D5",
  "velocity": 79,
  "dtick": 48,
  "ins": 0
 },
 {
  "track": 3,
  "delta": 0,
  "tick": 13488,
  "byteIndex": 6963,
  "name": "Note on",
  "channel": 1,
  "noteNumber": 59,
  "noteName": "B3",
  "velocity": 79,
  "dtick": 48,
  "ins": 0
 },
 {
  "track": 3,
  "delta": 0,
  "tick": 13488,
  "byteIndex": 6967,
  "name": "Note on",
  "channel": 1,
  "noteNumber": 48,
  "noteName": "C3",
  "velocity": 79,
  "dtick": 48,
  "ins": 0
 },
 {
  "track": 3,
  "delta": 0,
  "tick": 13488,
  "byteIndex": 6971,
  "name": "Note on",
  "channel": 1,
  "noteNumber": 55,
  "noteName": "G3",
  "velocity": 79,
  "dtick": 48,
  "ins": 0
 },
 {
  "track": 3,
  "delta": 0,
  "tick": 13488,
  "byteIndex": 6975,
  "name": "Note on",
  "channel": 1,
  "noteNumber": 84,
  "noteName": "C6",
  "velocity": 79,
  "dtick": 48,
  "ins": 0
 },
 {
  "track": 3,
  "delta": 0,
  "tick": 13488,
  "byteIndex": 6979,
  "name": "Note on",
  "channel": 1,
  "noteNumber": 72,
  "noteName": "C5",
  "velocity": 79,
  "dtick": 48,
  "ins": 0
 },
 {
  "track": 3,
  "delta": 0,
  "tick": 13536,
  "byteIndex": 7003,
  "name": "Note on",
  "channel": 1,
  "noteNumber": 59,
  "noteName": "B3",
  "velocity": 79,
  "dtick": 48,
  "ins": 0
 },
 {
  "track": 3,
  "delta": 0,
  "tick": 13536,
  "byteIndex": 7007,
  "name": "Note on",
  "channel": 1,
  "noteNumber": 59,
  "noteName": "B3",
  "velocity": 79,
  "dtick": 48,
  "ins": 0
 },
 {
  "track": 3,
  "delta": 0,
  "tick": 13536,
  "byteIndex": 7011,
  "name": "Note on",
  "channel": 1,
  "noteNumber": 59,
  "noteName": "B3",
  "velocity": 79,
  "dtick": 48,
  "ins": 0
 },
 {
  "track": 3,
  "delta": 0,
  "tick": 13536,
  "byteIndex": 7015,
  "name": "Note on",
  "channel": 1,
  "noteNumber": 55,
  "noteName": "G3",
  "velocity": 79,
  "dtick": 48,
  "ins": 0
 },
 {
  "track": 3,
  "delta": 0,
  "tick": 13536,
  "byteIndex": 7019,
  "name": "Note on",
  "channel": 1,
  "noteNumber": 48,
  "noteName": "C3",
  "velocity": 79,
  "dtick": 48,
  "ins": 0
 },
 {
  "track": 3,
  "delta": 0,
  "tick": 13536,
  "byteIndex": 7023,
  "name": "Note on",
  "channel": 1,
  "noteNumber": 79,
  "noteName": "G5",
  "velocity": 79,
  "dtick": 48,
  "ins": 0
 },
 {
  "track": 3,
  "delta": 0,
  "tick": 13536,
  "byteIndex": 7027,
  "name": "Note on",
  "channel": 1,
  "noteNumber": 67,
  "noteName": "G4",
  "velocity": 79,
  "dtick": 48,
  "ins": 0
 },
 {
  "track": 3,
  "delta": 0,
  "tick": 13584,
  "byteIndex": 7059,
  "name": "Note on",
  "channel": 1,
  "noteNumber": 48,
  "noteName": "C3",
  "velocity": 79,
  "dtick": 48,
  "ins": 0
 },
 {
  "track": 3,
  "delta": 0,
  "tick": 13584,
  "byteIndex": 7063,
  "name": "Note on",
  "channel": 1,
  "noteNumber": 55,
  "noteName": "G3",
  "velocity": 79,
  "dtick": 48,
  "ins": 0
 },
 {
  "track": 3,
  "delta": 0,
  "tick": 13584,
  "byteIndex": 7067,
  "name": "Note on",
  "channel": 1,
  "noteNumber": 59,
  "noteName": "B3",
  "velocity": 79,
  "dtick": 48,
  "ins": 0
 },
 {
  "track": 3,
  "delta": 0,
  "tick": 13584,
  "byteIndex": 7071,
  "name": "Note on",
  "channel": 1,
  "noteNumber": 86,
  "noteName": "D6",
  "velocity": 79,
  "dtick": 48,
  "ins": 0
 },
 {
  "track": 3,
  "delta": 0,
  "tick": 13584,
  "byteIndex": 7075,
  "name": "Note on",
  "channel": 1,
  "noteNumber": 74,
  "noteName": "D5",
  "velocity": 79,
  "dtick": 48,
  "ins": 0
 },
 {
  "track": 3,
  "delta": 0,
  "tick": 13632,
  "byteIndex": 7099,
  "name": "Note on",
  "channel": 1,
  "noteNumber": 59,
  "noteName": "B3",
  "velocity": 79,
  "dtick": 48,
  "ins": 0
 },
 {
  "track": 3,
  "delta": 0,
  "tick": 13632,
  "byteIndex": 7103,
  "name": "Note on",
  "channel": 1,
  "noteNumber": 48,
  "noteName": "C3",
  "velocity": 79,
  "dtick": 48,
  "ins": 0
 },
 {
  "track": 3,
  "delta": 0,
  "tick": 13632,
  "byteIndex": 7107,
  "name": "Note on",
  "channel": 1,
  "noteNumber": 55,
  "noteName": "G3",
  "velocity": 79,
  "dtick": 48,
  "ins": 0
 },
 {
  "track": 3,
  "delta": 0,
  "tick": 13632,
  "byteIndex": 7111,
  "name": "Note on",
  "channel": 1,
  "noteNumber": 84,
  "noteName": "C6",
  "velocity": 79,
  "dtick": 48,
  "ins": 0
 },
 {
  "track": 3,
  "delta": 0,
  "tick": 13632,
  "byteIndex": 7115,
  "name": "Note on",
  "channel": 1,
  "noteNumber": 72,
  "noteName": "C5",
  "velocity": 79,
  "dtick": 48,
  "ins": 0
 },
 {
  "track": 3,
  "delta": 0,
  "tick": 13680,
  "byteIndex": 7139,
  "name": "Note on",
  "channel": 1,
  "noteNumber": 59,
  "noteName": "B3",
  "velocity": 79,
  "dtick": 48,
  "ins": 0
 },
 {
  "track": 3,
  "delta": 0,
  "tick": 13680,
  "byteIndex": 7143,
  "name": "Note on",
  "channel": 1,
  "noteNumber": 48,
  "noteName": "C3",
  "velocity": 79,
  "dtick": 48,
  "ins": 0
 },
 {
  "track": 3,
  "delta": 0,
  "tick": 13680,
  "byteIndex": 7147,
  "name": "Note on",
  "channel": 1,
  "noteNumber": 55,
  "noteName": "G3",
  "velocity": 79,
  "dtick": 48,
  "ins": 0
 },
 {
  "track": 3,
  "delta": 0,
  "tick": 13680,
  "byteIndex": 7151,
  "name": "Note on",
  "channel": 1,
  "noteNumber": 67,
  "noteName": "G4",
  "velocity": 79,
  "dtick": 48,
  "ins": 0
 },
 {
  "track": 3,
  "delta": 0,
  "tick": 13680,
  "byteIndex": 7155,
  "name": "Note on",
  "channel": 1,
  "noteNumber": 79,
  "noteName": "G5",
  "velocity": 79,
  "dtick": 48,
  "ins": 0
 },
 {
  "track": 3,
  "delta": 0,
  "tick": 13728,
  "byteIndex": 7179,
  "name": "Note on",
  "channel": 1,
  "noteNumber": 55,
  "noteName": "G3",
  "velocity": 79,
  "dtick": 48,
  "ins": 0
 },
 {
  "track": 3,
  "delta": 0,
  "tick": 13728,
  "byteIndex": 7183,
  "name": "Note on",
  "channel": 1,
  "noteNumber": 48,
  "noteName": "C3",
  "velocity": 79,
  "dtick": 48,
  "ins": 0
 },
 {
  "track": 3,
  "delta": 0,
  "tick": 13728,
  "byteIndex": 7187,
  "name": "Note on",
  "channel": 1,
  "noteNumber": 59,
  "noteName": "B3",
  "velocity": 79,
  "dtick": 48,
  "ins": 0
 },
 {
  "track": 3,
  "delta": 0,
  "tick": 13728,
  "byteIndex": 7191,
  "name": "Note on",
  "channel": 1,
  "noteNumber": 74,
  "noteName": "D5",
  "velocity": 79,
  "dtick": 48,
  "ins": 0
 },
 {
  "track": 3,
  "delta": 0,
  "tick": 13728,
  "byteIndex": 7195,
  "name": "Note on",
  "channel": 1,
  "noteNumber": 86,
  "noteName": "D6",
  "velocity": 79,
  "dtick": 48,
  "ins": 0
 },
 {
  "track": 3,
  "delta": 0,
  "tick": 13776,
  "byteIndex": 7219,
  "name": "Note on",
  "channel": 1,
  "noteNumber": 48,
  "noteName": "C3",
  "velocity": 79,
  "dtick": 48,
  "ins": 0
 },
 {
  "track": 3,
  "delta": 0,
  "tick": 13776,
  "byteIndex": 7223,
  "name": "Note on",
  "channel": 1,
  "noteNumber": 55,
  "noteName": "G3",
  "velocity": 79,
  "dtick": 48,
  "ins": 0
 },
 {
  "track": 3,
  "delta": 0,
  "tick": 13776,
  "byteIndex": 7227,
  "name": "Note on",
  "channel": 1,
  "noteNumber": 59,
  "noteName": "B3",
  "velocity": 79,
  "dtick": 48,
  "ins": 0
 },
 {
  "track": 3,
  "delta": 0,
  "tick": 13776,
  "byteIndex": 7231,
  "name": "Note on",
  "channel": 1,
  "noteNumber": 76,
  "noteName": "E5",
  "velocity": 79,
  "dtick": 48,
  "ins": 0
 },
 {
  "track": 3,
  "delta": 0,
  "tick": 13776,
  "byteIndex": 7235,
  "name": "Note on",
  "channel": 1,
  "noteNumber": 88,
  "noteName": "E6",
  "velocity": 79,
  "dtick": 48,
  "ins": 0
 },
 {
  "track": 3,
  "delta": 0,
  "tick": 13824,
  "byteIndex": 7259,
  "name": "Note on",
  "channel": 1,
  "noteNumber": 57,
  "noteName": "A3",
  "velocity": 79,
  "dtick": 48,
  "ins": 0
 },
 {
  "track": 3,
  "delta": 0,
  "tick": 13824,
  "byteIndex": 7263,
  "name": "Note on",
  "channel": 1,
  "noteNumber": 45,
  "noteName": "A2",
  "velocity": 79,
  "dtick": 48,
  "ins": 0
 },
 {
  "track": 3,
  "delta": 0,
  "tick": 13824,
  "byteIndex": 7267,
  "name": "Note on",
  "channel": 1,
  "noteNumber": 52,
  "noteName": "E3",
  "velocity": 79,
  "dtick": 48,
  "ins": 0
 },
 {
  "track": 3,
  "delta": 0,
  "tick": 13824,
  "byteIndex": 7271,
  "name": "Note on",
  "channel": 1,
  "noteNumber": 79,
  "noteName": "G5",
  "velocity": 79,
  "dtick": 48,
  "ins": 0
 },
 {
  "track": 3,
  "delta": 0,
  "tick": 13824,
  "byteIndex": 7275,
  "name": "Note on",
  "channel": 1,
  "noteNumber": 91,
  "noteName": "G6",
  "velocity": 79,
  "dtick": 48,
  "ins": 0
 },
 {
  "track": 3,
  "delta": 0,
  "tick": 13872,
  "byteIndex": 7299,
  "name": "Note on",
  "channel": 1,
  "noteNumber": 45,
  "noteName": "A2",
  "velocity": 79,
  "dtick": 48,
  "ins": 0
 },
 {
  "track": 3,
  "delta": 0,
  "tick": 13872,
  "byteIndex": 7303,
  "name": "Note on",
  "channel": 1,
  "noteNumber": 52,
  "noteName": "E3",
  "velocity": 79,
  "dtick": 48,
  "ins": 0
 },
 {
  "track": 3,
  "delta": 0,
  "tick": 13872,
  "byteIndex": 7307,
  "name": "Note on",
  "channel": 1,
  "noteNumber": 57,
  "noteName": "A3",
  "velocity": 79,
  "dtick": 48,
  "ins": 0
 },
 {
  "track": 3,
  "delta": 0,
  "tick": 13872,
  "byteIndex": 7311,
  "name": "Note on",
  "channel": 1,
  "noteNumber": 76,
  "noteName": "E5",
  "velocity": 79,
  "dtick": 48,
  "ins": 0
 },
 {
  "track": 3,
  "delta": 0,
  "tick": 13872,
  "byteIndex": 7315,
  "name": "Note on",
  "channel": 1,
  "noteNumber": 88,
  "noteName": "E6",
  "velocity": 79,
  "dtick": 48,
  "ins": 0
 },
 {
  "track": 3,
  "delta": 0,
  "tick": 13920,
  "byteIndex": 7339,
  "name": "Note on",
  "channel": 1,
  "noteNumber": 45,
  "noteName": "A2",
  "velocity": 79,
  "dtick": 48,
  "ins": 0
 },
 {
  "track": 3,
  "delta": 0,
  "tick": 13920,
  "byteIndex": 7343,
  "name": "Note on",
  "channel": 1,
  "noteNumber": 52,
  "noteName": "E3",
  "velocity": 79,
  "dtick": 48,
  "ins": 0
 },
 {
  "track": 3,
  "delta": 0,
  "tick": 13920,
  "byteIndex": 7347,
  "name": "Note on",
  "channel": 1,
  "noteNumber": 57,
  "noteName": "A3",
  "velocity": 79,
  "dtick": 48,
  "ins": 0
 },
 {
  "track": 3,
  "delta": 0,
  "tick": 13920,
  "byteIndex": 7351,
  "name": "Note on",
  "channel": 1,
  "noteNumber": 72,
  "noteName": "C5",
  "velocity": 79,
  "dtick": 48,
  "ins": 0
 },
 {
  "track": 3,
  "delta": 0,
  "tick": 13920,
  "byteIndex": 7355,
  "name": "Note on",
  "channel": 1,
  "noteNumber": 84,
  "noteName": "C6",
  "velocity": 79,
  "dtick": 48,
  "ins": 0
 },
 {
  "track": 3,
  "delta": 0,
  "tick": 13968,
  "byteIndex": 7379,
  "name": "Note on",
  "channel": 1,
  "noteNumber": 52,
  "noteName": "E3",
  "velocity": 79,
  "dtick": 48,
  "ins": 0
 },
 {
  "track": 3,
  "delta": 0,
  "tick": 13968,
  "byteIndex": 7383,
  "name": "Note on",
  "channel": 1,
  "noteNumber": 57,
  "noteName": "A3",
  "velocity": 79,
  "dtick": 48,
  "ins": 0
 },
 {
  "track": 3,
  "delta": 0,
  "tick": 13968,
  "byteIndex": 7387,
  "name": "Note on",
  "channel": 1,
  "noteNumber": 45,
  "noteName": "A2",
  "velocity": 79,
  "dtick": 48,
  "ins": 0
 },
 {
  "track": 3,
  "delta": 0,
  "tick": 13968,
  "byteIndex": 7391,
  "name": "Note on",
  "channel": 1,
  "noteNumber": 79,
  "noteName": "G5",
  "velocity": 79,
  "dtick": 48,
  "ins": 0
 },
 {
  "track": 3,
  "delta": 0,
  "tick": 13968,
  "byteIndex": 7395,
  "name": "Note on",
  "channel": 1,
  "noteNumber": 91,
  "noteName": "G6",
  "velocity": 79,
  "dtick": 48,
  "ins": 0
 },
 {
  "track": 3,
  "delta": 0,
  "tick": 14016,
  "byteIndex": 7419,
  "name": "Note on",
  "channel": 1,
  "noteNumber": 52,
  "noteName": "E3",
  "velocity": 79,
  "dtick": 48,
  "ins": 0
 },
 {
  "track": 3,
  "delta": 0,
  "tick": 14016,
  "byteIndex": 7423,
  "name": "Note on",
  "channel": 1,
  "noteNumber": 57,
  "noteName": "A3",
  "velocity": 79,
  "dtick": 48,
  "ins": 0
 },
 {
  "track": 3,
  "delta": 0,
  "tick": 14016,
  "byteIndex": 7427,
  "name": "Note on",
  "channel": 1,
  "noteNumber": 45,
  "noteName": "A2",
  "velocity": 79,
  "dtick": 48,
  "ins": 0
 },
 {
  "track": 3,
  "delta": 0,
  "tick": 14016,
  "byteIndex": 7431,
  "name": "Note on",
  "channel": 1,
  "noteNumber": 76,
  "noteName": "E5",
  "velocity": 79,
  "dtick": 48,
  "ins": 0
 },
 {
  "track": 3,
  "delta": 0,
  "tick": 14016,
  "byteIndex": 7435,
  "name": "Note on",
  "channel": 1,
  "noteNumber": 88,
  "noteName": "E6",
  "velocity": 79,
  "dtick": 48,
  "ins": 0
 },
 {
  "track": 3,
  "delta": 0,
  "tick": 14064,
  "byteIndex": 7459,
  "name": "Note on",
  "channel": 1,
  "noteNumber": 57,
  "noteName": "A3",
  "velocity": 79,
  "dtick": 48,
  "ins": 0
 },
 {
  "track": 3,
  "delta": 0,
  "tick": 14064,
  "byteIndex": 7463,
  "name": "Note on",
  "channel": 1,
  "noteNumber": 52,
  "noteName": "E3",
  "velocity": 79,
  "dtick": 48,
  "ins": 0
 },
 {
  "track": 3,
  "delta": 0,
  "tick": 14064,
  "byteIndex": 7467,
  "name": "Note on",
  "channel": 1,
  "noteNumber": 45,
  "noteName": "A2",
  "velocity": 79,
  "dtick": 48,
  "ins": 0
 },
 {
  "track": 3,
  "delta": 0,
  "tick": 14064,
  "byteIndex": 7471,
  "name": "Note on",
  "channel": 1,
  "noteNumber": 72,
  "noteName": "C5",
  "velocity": 79,
  "dtick": 48,
  "ins": 0
 },
 {
  "track": 3,
  "delta": 0,
  "tick": 14064,
  "byteIndex": 7475,
  "name": "Note on",
  "channel": 1,
  "noteNumber": 84,
  "noteName": "C6",
  "velocity": 79,
  "dtick": 48,
  "ins": 0
 },
 {
  "track": 3,
  "delta": 0,
  "tick": 14112,
  "byteIndex": 7499,
  "name": "Note on",
  "channel": 1,
  "noteNumber": 52,
  "noteName": "E3",
  "velocity": 79,
  "dtick": 48,
  "ins": 0
 },
 {
  "track": 3,
  "delta": 0,
  "tick": 14112,
  "byteIndex": 7503,
  "name": "Note on",
  "channel": 1,
  "noteNumber": 57,
  "noteName": "A3",
  "velocity": 79,
  "dtick": 48,
  "ins": 0
 },
 {
  "track": 3,
  "delta": 0,
  "tick": 14112,
  "byteIndex": 7507,
  "name": "Note on",
  "channel": 1,
  "noteNumber": 45,
  "noteName": "A2",
  "velocity": 79,
  "dtick": 48,
  "ins": 0
 },
 {
  "track": 3,
  "delta": 0,
  "tick": 14112,
  "byteIndex": 7511,
  "name": "Note on",
  "channel": 1,
  "noteNumber": 79,
  "noteName": "G5",
  "velocity": 79,
  "dtick": 48,
  "ins": 0
 },
 {
  "track": 3,
  "delta": 0,
  "tick": 14112,
  "byteIndex": 7515,
  "name": "Note on",
  "channel": 1,
  "noteNumber": 91,
  "noteName": "G6",
  "velocity": 79,
  "dtick": 48,
  "ins": 0
 },
 {
  "track": 3,
  "delta": 0,
  "tick": 14160,
  "byteIndex": 7539,
  "name": "Note on",
  "channel": 1,
  "noteNumber": 45,
  "noteName": "A2",
  "velocity": 79,
  "dtick": 48,
  "ins": 0
 },
 {
  "track": 3,
  "delta": 0,
  "tick": 14160,
  "byteIndex": 7543,
  "name": "Note on",
  "channel": 1,
  "noteNumber": 52,
  "noteName": "E3",
  "velocity": 79,
  "dtick": 48,
  "ins": 0
 },
 {
  "track": 3,
  "delta": 0,
  "tick": 14160,
  "byteIndex": 7547,
  "name": "Note on",
  "channel": 1,
  "noteNumber": 57,
  "noteName": "A3",
  "velocity": 79,
  "dtick": 48,
  "ins": 0
 },
 {
  "track": 3,
  "delta": 0,
  "tick": 14160,
  "byteIndex": 7551,
  "name": "Note on",
  "channel": 1,
  "noteNumber": 76,
  "noteName": "E5",
  "velocity": 79,
  "dtick": 48,
  "ins": 0
 },
 {
  "track": 3,
  "delta": 0,
  "tick": 14160,
  "byteIndex": 7555,
  "name": "Note on",
  "channel": 1,
  "noteNumber": 88,
  "noteName": "E6",
  "velocity": 79,
  "dtick": 48,
  "ins": 0
 },
 {
  "track": 3,
  "delta": 0,
  "tick": 14208,
  "byteIndex": 7579,
  "name": "Note on",
  "channel": 1,
  "noteNumber": 41,
  "noteName": "F2",
  "velocity": 79,
  "dtick": 48,
  "ins": 0
 },
 {
  "track": 3,
  "delta": 0,
  "tick": 14208,
  "byteIndex": 7583,
  "name": "Note on",
  "channel": 1,
  "noteNumber": 53,
  "noteName": "F3",
  "velocity": 79,
  "dtick": 48,
  "ins": 0
 },
 {
  "track": 3,
  "delta": 0,
  "tick": 14208,
  "byteIndex": 7587,
  "name": "Note on",
  "channel": 1,
  "noteNumber": 48,
  "noteName": "C3",
  "velocity": 79,
  "dtick": 48,
  "ins": 0
 },
 {
  "track": 3,
  "delta": 0,
  "tick": 14208,
  "byteIndex": 7591,
  "name": "Note on",
  "channel": 1,
  "noteNumber": 77,
  "noteName": "F5",
  "velocity": 79,
  "dtick": 48,
  "ins": 0
 },
 {
  "track": 3,
  "delta": 0,
  "tick": 14208,
  "byteIndex": 7595,
  "name": "Note on",
  "channel": 1,
  "noteNumber": 89,
  "noteName": "F6",
  "velocity": 79,
  "dtick": 48,
  "ins": 0
 },
 {
  "track": 3,
  "delta": 0,
  "tick": 14256,
  "byteIndex": 7619,
  "name": "Note on",
  "channel": 1,
  "noteNumber": 41,
  "noteName": "F2",
  "velocity": 79,
  "dtick": 48,
  "ins": 0
 },
 {
  "track": 3,
  "delta": 0,
  "tick": 14256,
  "byteIndex": 7623,
  "name": "Note on",
  "channel": 1,
  "noteNumber": 48,
  "noteName": "C3",
  "velocity": 79,
  "dtick": 48,
  "ins": 0
 },
 {
  "track": 3,
  "delta": 0,
  "tick": 14256,
  "byteIndex": 7627,
  "name": "Note on",
  "channel": 1,
  "noteNumber": 53,
  "noteName": "F3",
  "velocity": 79,
  "dtick": 48,
  "ins": 0
 },
 {
  "track": 3,
  "delta": 0,
  "tick": 14256,
  "byteIndex": 7631,
  "name": "Note on",
  "channel": 1,
  "noteNumber": 76,
  "noteName": "E5",
  "velocity": 79,
  "dtick": 48,
  "ins": 0
 },
 {
  "track": 3,
  "delta": 0,
  "tick": 14256,
  "byteIndex": 7635,
  "name": "Note on",
  "channel": 1,
  "noteNumber": 88,
  "noteName": "E6",
  "velocity": 79,
  "dtick": 48,
  "ins": 0
 },
 {
  "track": 3,
  "delta": 0,
  "tick": 14304,
  "byteIndex": 7659,
  "name": "Note on",
  "channel": 1,
  "noteNumber": 53,
  "noteName": "F3",
  "velocity": 79,
  "dtick": 48,
  "ins": 0
 },
 {
  "track": 3,
  "delta": 0,
  "tick": 14304,
  "byteIndex": 7663,
  "name": "Note on",
  "channel": 1,
  "noteNumber": 48,
  "noteName": "C3",
  "velocity": 79,
  "dtick": 48,
  "ins": 0
 },
 {
  "track": 3,
  "delta": 0,
  "tick": 14304,
  "byteIndex": 7667,
  "name": "Note on",
  "channel": 1,
  "noteNumber": 41,
  "noteName": "F2",
  "velocity": 79,
  "dtick": 48,
  "ins": 0
 },
 {
  "track": 3,
  "delta": 0,
  "tick": 14304,
  "byteIndex": 7671,
  "name": "Note on",
  "channel": 1,
  "noteNumber": 72,
  "noteName": "C5",
  "velocity": 79,
  "dtick": 48,
  "ins": 0
 },
 {
  "track": 3,
  "delta": 0,
  "tick": 14304,
  "byteIndex": 7675,
  "name": "Note on",
  "channel": 1,
  "noteNumber": 84,
  "noteName": "C6",
  "velocity": 79,
  "dtick": 48,
  "ins": 0
 },
 {
  "track": 3,
  "delta": 0,
  "tick": 14352,
  "byteIndex": 7699,
  "name": "Note on",
  "channel": 1,
  "noteNumber": 48,
  "noteName": "C3",
  "velocity": 79,
  "dtick": 48,
  "ins": 0
 },
 {
  "track": 3,
  "delta": 0,
  "tick": 14352,
  "byteIndex": 7703,
  "name": "Note on",
  "channel": 1,
  "noteNumber": 53,
  "noteName": "F3",
  "velocity": 79,
  "dtick": 48,
  "ins": 0
 },
 {
  "track": 3,
  "delta": 0,
  "tick": 14352,
  "byteIndex": 7707,
  "name": "Note on",
  "channel": 1,
  "noteNumber": 41,
  "noteName": "F2",
  "velocity": 79,
  "dtick": 48,
  "ins": 0
 },
 {
  "track": 3,
  "delta": 0,
  "tick": 14352,
  "byteIndex": 7711,
  "name": "Note on",
  "channel": 1,
  "noteNumber": 77,
  "noteName": "F5",
  "velocity": 79,
  "dtick": 48,
  "ins": 0
 },
 {
  "track": 3,
  "delta": 0,
  "tick": 14352,
  "byteIndex": 7715,
  "name": "Note on",
  "channel": 1,
  "noteNumber": 89,
  "noteName": "F6",
  "velocity": 79,
  "dtick": 48,
  "ins": 0
 },
 {
  "track": 3,
  "delta": 0,
  "tick": 14400,
  "byteIndex": 7739,
  "name": "Note on",
  "channel": 1,
  "noteNumber": 48,
  "noteName": "C3",
  "velocity": 79,
  "dtick": 48,
  "ins": 0
 },
 {
  "track": 3,
  "delta": 0,
  "tick": 14400,
  "byteIndex": 7743,
  "name": "Note on",
  "channel": 1,
  "noteNumber": 53,
  "noteName": "F3",
  "velocity": 79,
  "dtick": 48,
  "ins": 0
 },
 {
  "track": 3,
  "delta": 0,
  "tick": 14400,
  "byteIndex": 7747,
  "name": "Note on",
  "channel": 1,
  "noteNumber": 41,
  "noteName": "F2",
  "velocity": 79,
  "dtick": 48,
  "ins": 0
 },
 {
  "track": 3,
  "delta": 0,
  "tick": 14400,
  "byteIndex": 7751,
  "name": "Note on",
  "channel": 1,
  "noteNumber": 76,
  "noteName": "E5",
  "velocity": 79,
  "dtick": 48,
  "ins": 0
 },
 {
  "track": 3,
  "delta": 0,
  "tick": 14400,
  "byteIndex": 7755,
  "name": "Note on",
  "channel": 1,
  "noteNumber": 88,
  "noteName": "E6",
  "velocity": 79,
  "dtick": 48,
  "ins": 0
 },
 {
  "track": 3,
  "delta": 0,
  "tick": 14448,
  "byteIndex": 7779,
  "name": "Note on",
  "channel": 1,
  "noteNumber": 41,
  "noteName": "F2",
  "velocity": 79,
  "dtick": 48,
  "ins": 0
 },
 {
  "track": 3,
  "delta": 0,
  "tick": 14448,
  "byteIndex": 7783,
  "name": "Note on",
  "channel": 1,
  "noteNumber": 48,
  "noteName": "C3",
  "velocity": 79,
  "dtick": 48,
  "ins": 0
 },
 {
  "track": 3,
  "delta": 0,
  "tick": 14448,
  "byteIndex": 7787,
  "name": "Note on",
  "channel": 1,
  "noteNumber": 53,
  "noteName": "F3",
  "velocity": 79,
  "dtick": 48,
  "ins": 0
 },
 {
  "track": 3,
  "delta": 0,
  "tick": 14448,
  "byteIndex": 7791,
  "name": "Note on",
  "channel": 1,
  "noteNumber": 72,
  "noteName": "C5",
  "velocity": 79,
  "dtick": 48,
  "ins": 0
 },
 {
  "track": 3,
  "delta": 0,
  "tick": 14448,
  "byteIndex": 7795,
  "name": "Note on",
  "channel": 1,
  "noteNumber": 84,
  "noteName": "C6",
  "velocity": 79,
  "dtick": 48,
  "ins": 0
 },
 {
  "track": 3,
  "delta": 0,
  "tick": 14496,
  "byteIndex": 7819,
  "name": "Note on",
  "channel": 1,
  "noteNumber": 48,
  "noteName": "C3",
  "velocity": 79,
  "dtick": 48,
  "ins": 0
 },
 {
  "track": 3,
  "delta": 0,
  "tick": 14496,
  "byteIndex": 7823,
  "name": "Note on",
  "channel": 1,
  "noteNumber": 53,
  "noteName": "F3",
  "velocity": 79,
  "dtick": 48,
  "ins": 0
 },
 {
  "track": 3,
  "delta": 0,
  "tick": 14496,
  "byteIndex": 7827,
  "name": "Note on",
  "channel": 1,
  "noteNumber": 41,
  "noteName": "F2",
  "velocity": 79,
  "dtick": 48,
  "ins": 0
 },
 {
  "track": 3,
  "delta": 0,
  "tick": 14496,
  "byteIndex": 7831,
  "name": "Note on",
  "channel": 1,
  "noteNumber": 77,
  "noteName": "F5",
  "velocity": 79,
  "dtick": 48,
  "ins": 0
 },
 {
  "track": 3,
  "delta": 0,
  "tick": 14496,
  "byteIndex": 7835,
  "name": "Note on",
  "channel": 1,
  "noteNumber": 89,
  "noteName": "F6",
  "velocity": 79,
  "dtick": 48,
  "ins": 0
 },
 {
  "track": 3,
  "delta": 0,
  "tick": 14544,
  "byteIndex": 7859,
  "name": "Note on",
  "channel": 1,
  "noteNumber": 41,
  "noteName": "F2",
  "velocity": 79,
  "dtick": 48,
  "ins": 0
 },
 {
  "track": 3,
  "delta": 0,
  "tick": 14544,
  "byteIndex": 7863,
  "name": "Note on",
  "channel": 1,
  "noteNumber": 48,
  "noteName": "C3",
  "velocity": 79,
  "dtick": 48,
  "ins": 0
 },
 {
  "track": 3,
  "delta": 0,
  "tick": 14544,
  "byteIndex": 7867,
  "name": "Note on",
  "channel": 1,
  "noteNumber": 53,
  "noteName": "F3",
  "velocity": 79,
  "dtick": 48,
  "ins": 0
 },
 {
  "track": 3,
  "delta": 0,
  "tick": 14544,
  "byteIndex": 7871,
  "name": "Note on",
  "channel": 1,
  "noteNumber": 76,
  "noteName": "E5",
  "velocity": 79,
  "dtick": 48,
  "ins": 0
 },
 {
  "track": 3,
  "delta": 0,
  "tick": 14544,
  "byteIndex": 7875,
  "name": "Note on",
  "channel": 1,
  "noteNumber": 88,
  "noteName": "E6",
  "velocity": 79,
  "dtick": 48,
  "ins": 0
 },
 {
  "track": 3,
  "delta": 0,
  "tick": 14592,
  "byteIndex": 7899,
  "name": "Note on",
  "channel": 1,
  "noteNumber": 55,
  "noteName": "G3",
  "velocity": 79,
  "dtick": 48,
  "ins": 0
 },
 {
  "track": 3,
  "delta": 0,
  "tick": 14592,
  "byteIndex": 7903,
  "name": "Note on",
  "channel": 1,
  "noteNumber": 60,
  "noteName": "C4",
  "velocity": 79,
  "dtick": 48,
  "ins": 0
 },
 {
  "track": 3,
  "delta": 0,
  "tick": 14592,
  "byteIndex": 7907,
  "name": "Note on",
  "channel": 1,
  "noteNumber": 48,
  "noteName": "C3",
  "velocity": 79,
  "dtick": 48,
  "ins": 0
 },
 {
  "track": 3,
  "delta": 0,
  "tick": 14592,
  "byteIndex": 7911,
  "name": "Note on",
  "channel": 1,
  "noteNumber": 76,
  "noteName": "E5",
  "velocity": 79,
  "dtick": 48,
  "ins": 0
 },
 {
  "track": 3,
  "delta": 0,
  "tick": 14592,
  "byteIndex": 7915,
  "name": "Note on",
  "channel": 1,
  "noteNumber": 88,
  "noteName": "E6",
  "velocity": 79,
  "dtick": 48,
  "ins": 0
 },
 {
  "track": 3,
  "delta": 0,
  "tick": 14640,
  "byteIndex": 7939,
  "name": "Note on",
  "channel": 1,
  "noteNumber": 48,
  "noteName": "C3",
  "velocity": 79,
  "dtick": 48,
  "ins": 0
 },
 {
  "track": 3,
  "delta": 0,
  "tick": 14640,
  "byteIndex": 7943,
  "name": "Note on",
  "channel": 1,
  "noteNumber": 55,
  "noteName": "G3",
  "velocity": 79,
  "dtick": 48,
  "ins": 0
 },
 {
  "track": 3,
  "delta": 0,
  "tick": 14640,
  "byteIndex": 7947,
  "name": "Note on",
  "channel": 1,
  "noteNumber": 60,
  "noteName": "C4",
  "velocity": 79,
  "dtick": 48,
  "ins": 0
 },
 {
  "track": 3,
  "delta": 0,
  "tick": 14640,
  "byteIndex": 7951,
  "name": "Note on",
  "channel": 1,
  "noteNumber": 72,
  "noteName": "C5",
  "velocity": 79,
  "dtick": 48,
  "ins": 0
 },
 {
  "track": 3,
  "delta": 0,
  "tick": 14640,
  "byteIndex": 7955,
  "name": "Note on",
  "channel": 1,
  "noteNumber": 84,
  "noteName": "C6",
  "velocity": 79,
  "dtick": 48,
  "ins": 0
 },
 {
  "track": 3,
  "delta": 0,
  "tick": 14688,
  "byteIndex": 7979,
  "name": "Note on",
  "channel": 1,
  "noteNumber": 60,
  "noteName": "C4",
  "velocity": 79,
  "dtick": 48,
  "ins": 0
 },
 {
  "track": 3,
  "delta": 0,
  "tick": 14688,
  "byteIndex": 7983,
  "name": "Note on",
  "channel": 1,
  "noteNumber": 55,
  "noteName": "G3",
  "velocity": 79,
  "dtick": 48,
  "ins": 0
 },
 {
  "track": 3,
  "delta": 0,
  "tick": 14688,
  "byteIndex": 7987,
  "name": "Note on",
  "channel": 1,
  "noteNumber": 48,
  "noteName": "C3",
  "velocity": 79,
  "dtick": 48,
  "ins": 0
 },
 {
  "track": 3,
  "delta": 0,
  "tick": 14688,
  "byteIndex": 7991,
  "name": "Note on",
  "channel": 1,
  "noteNumber": 67,
  "noteName": "G4",
  "velocity": 79,
  "dtick": 48,
  "ins": 0
 },
 {
  "track": 3,
  "delta": 0,
  "tick": 14688,
  "byteIndex": 7995,
  "name": "Note on",
  "channel": 1,
  "noteNumber": 79,
  "noteName": "G5",
  "velocity": 79,
  "dtick": 48,
  "ins": 0
 },
 {
  "track": 3,
  "delta": 0,
  "tick": 14736,
  "byteIndex": 8019,
  "name": "Note on",
  "channel": 1,
  "noteNumber": 60,
  "noteName": "C4",
  "velocity": 79,
  "dtick": 48,
  "ins": 0
 },
 {
  "track": 3,
  "delta": 0,
  "tick": 14736,
  "byteIndex": 8023,
  "name": "Note on",
  "channel": 1,
  "noteNumber": 55,
  "noteName": "G3",
  "velocity": 79,
  "dtick": 48,
  "ins": 0
 },
 {
  "track": 3,
  "delta": 0,
  "tick": 14736,
  "byteIndex": 8027,
  "name": "Note on",
  "channel": 1,
  "noteNumber": 48,
  "noteName": "C3",
  "velocity": 79,
  "dtick": 48,
  "ins": 0
 },
 {
  "track": 3,
  "delta": 0,
  "tick": 14736,
  "byteIndex": 8031,
  "name": "Note on",
  "channel": 1,
  "noteNumber": 76,
  "noteName": "E5",
  "velocity": 79,
  "dtick": 48,
  "ins": 0
 },
 {
  "track": 3,
  "delta": 0,
  "tick": 14736,
  "byteIndex": 8035,
  "name": "Note on",
  "channel": 1,
  "noteNumber": 88,
  "noteName": "E6",
  "velocity": 79,
  "dtick": 48,
  "ins": 0
 },
 {
  "track": 3,
  "delta": 0,
  "tick": 14784,
  "byteIndex": 8059,
  "name": "Note on",
  "channel": 1,
  "noteNumber": 55,
  "noteName": "G3",
  "velocity": 79,
  "dtick": 48,
  "ins": 0
 },
 {
  "track": 3,
  "delta": 0,
  "tick": 14784,
  "byteIndex": 8063,
  "name": "Note on",
  "channel": 1,
  "noteNumber": 60,
  "noteName": "C4",
  "velocity": 79,
  "dtick": 48,
  "ins": 0
 },
 {
  "track": 3,
  "delta": 0,
  "tick": 14784,
  "byteIndex": 8067,
  "name": "Note on",
  "channel": 1,
  "noteNumber": 48,
  "noteName": "C3",
  "velocity": 79,
  "dtick": 48,
  "ins": 0
 },
 {
  "track": 3,
  "delta": 0,
  "tick": 14784,
  "byteIndex": 8071,
  "name": "Note on",
  "channel": 1,
  "noteNumber": 72,
  "noteName": "C5",
  "velocity": 79,
  "dtick": 48,
  "ins": 0
 },
 {
  "track": 3,
  "delta": 0,
  "tick": 14784,
  "byteIndex": 8075,
  "name": "Note on",
  "channel": 1,
  "noteNumber": 84,
  "noteName": "C6",
  "velocity": 79,
  "dtick": 48,
  "ins": 0
 },
 {
  "track": 3,
  "delta": 0,
  "tick": 14832,
  "byteIndex": 8099,
  "name": "Note on",
  "channel": 1,
  "noteNumber": 48,
  "noteName": "C3",
  "velocity": 79,
  "dtick": 48,
  "ins": 0
 },
 {
  "track": 3,
  "delta": 0,
  "tick": 14832,
  "byteIndex": 8103,
  "name": "Note on",
  "channel": 1,
  "noteNumber": 55,
  "noteName": "G3",
  "velocity": 79,
  "dtick": 48,
  "ins": 0
 },
 {
  "track": 3,
  "delta": 0,
  "tick": 14832,
  "byteIndex": 8107,
  "name": "Note on",
  "channel": 1,
  "noteNumber": 60,
  "noteName": "C4",
  "velocity": 79,
  "dtick": 48,
  "ins": 0
 },
 {
  "track": 3,
  "delta": 0,
  "tick": 14832,
  "byteIndex": 8111,
  "name": "Note on",
  "channel": 1,
  "noteNumber": 67,
  "noteName": "G4",
  "velocity": 79,
  "dtick": 48,
  "ins": 0
 },
 {
  "track": 3,
  "delta": 0,
  "tick": 14832,
  "byteIndex": 8115,
  "name": "Note on",
  "channel": 1,
  "noteNumber": 79,
  "noteName": "G5",
  "velocity": 79,
  "dtick": 48,
  "ins": 0
 },
 {
  "track": 3,
  "delta": 0,
  "tick": 14880,
  "byteIndex": 8139,
  "name": "Note on",
  "channel": 1,
  "noteNumber": 48,
  "noteName": "C3",
  "velocity": 79,
  "dtick": 48,
  "ins": 0
 },
 {
  "track": 3,
  "delta": 0,
  "tick": 14880,
  "byteIndex": 8143,
  "name": "Note on",
  "channel": 1,
  "noteNumber": 60,
  "noteName": "C4",
  "velocity": 79,
  "dtick": 48,
  "ins": 0
 },
 {
  "track": 3,
  "delta": 0,
  "tick": 14880,
  "byteIndex": 8147,
  "name": "Note on",
  "channel": 1,
  "noteNumber": 55,
  "noteName": "G3",
  "velocity": 79,
  "dtick": 48,
  "ins": 0
 },
 {
  "track": 3,
  "delta": 0,
  "tick": 14880,
  "byteIndex": 8151,
  "name": "Note on",
  "channel": 1,
  "noteNumber": 88,
  "noteName": "E6",
  "velocity": 79,
  "dtick": 48,
  "ins": 0
 },
 {
  "track": 3,
  "delta": 0,
  "tick": 14880,
  "byteIndex": 8155,
  "name": "Note on",
  "channel": 1,
  "noteNumber": 76,
  "noteName": "E5",
  "velocity": 79,
  "dtick": 48,
  "ins": 0
 },
 {
  "track": 3,
  "delta": 0,
  "tick": 14928,
  "byteIndex": 8179,
  "name": "Note on",
  "channel": 1,
  "noteNumber": 48,
  "noteName": "C3",
  "velocity": 79,
  "dtick": 48,
  "ins": 0
 },
 {
  "track": 3,
  "delta": 0,
  "tick": 14928,
  "byteIndex": 8183,
  "name": "Note on",
  "channel": 1,
  "noteNumber": 55,
  "noteName": "G3",
  "velocity": 79,
  "dtick": 48,
  "ins": 0
 },
 {
  "track": 3,
  "delta": 0,
  "tick": 14928,
  "byteIndex": 8187,
  "name": "Note on",
  "channel": 1,
  "noteNumber": 60,
  "noteName": "C4",
  "velocity": 79,
  "dtick": 48,
  "ins": 0
 },
 {
  "track": 3,
  "delta": 0,
  "tick": 14928,
  "byteIndex": 8191,
  "name": "Note on",
  "channel": 1,
  "noteNumber": 84,
  "noteName": "C6",
  "velocity": 79,
  "dtick": 48,
  "ins": 0
 },
 {
  "track": 3,
  "delta": 0,
  "tick": 14928,
  "byteIndex": 8195,
  "name": "Note on",
  "channel": 1,
  "noteNumber": 72,
  "noteName": "C5",
  "velocity": 79,
  "dtick": 48,
  "ins": 0
 },
 {
  "track": 3,
  "delta": 0,
  "tick": 14976,
  "byteIndex": 8219,
  "name": "Note on",
  "channel": 1,
  "noteNumber": 48,
  "noteName": "C3",
  "velocity": 79,
  "dtick": 48,
  "ins": 0
 },
 {
  "track": 3,
  "delta": 0,
  "tick": 14976,
  "byteIndex": 8223,
  "name": "Note on",
  "channel": 1,
  "noteNumber": 55,
  "noteName": "G3",
  "velocity": 79,
  "dtick": 48,
  "ins": 0
 },
 {
  "track": 3,
  "delta": 0,
  "tick": 14976,
  "byteIndex": 8227,
  "name": "Note on",
  "channel": 1,
  "noteNumber": 59,
  "noteName": "B3",
  "velocity": 79,
  "dtick": 48,
  "ins": 0
 },
 {
  "track": 3,
  "delta": 0,
  "tick": 14976,
  "byteIndex": 8231,
  "name": "Note on",
  "channel": 1,
  "noteNumber": 86,
  "noteName": "D6",
  "velocity": 79,
  "dtick": 48,
  "ins": 0
 },
 {
  "track": 3,
  "delta": 0,
  "tick": 14976,
  "byteIndex": 8235,
  "name": "Note on",
  "channel": 1,
  "noteNumber": 74,
  "noteName": "D5",
  "velocity": 79,
  "dtick": 48,
  "ins": 0
 },
 {
  "track": 3,
  "delta": 0,
  "tick": 15024,
  "byteIndex": 8259,
  "name": "Note on",
  "channel": 1,
  "noteNumber": 59,
  "noteName": "B3",
  "velocity": 79,
  "dtick": 48,
  "ins": 0
 },
 {
  "track": 3,
  "delta": 0,
  "tick": 15024,
  "byteIndex": 8263,
  "name": "Note on",
  "channel": 1,
  "noteNumber": 48,
  "noteName": "C3",
  "velocity": 79,
  "dtick": 48,
  "ins": 0
 },
 {
  "track": 3,
  "delta": 0,
  "tick": 15024,
  "byteIndex": 8267,
  "name": "Note on",
  "channel": 1,
  "noteNumber": 55,
  "noteName": "G3",
  "velocity": 79,
  "dtick": 48,
  "ins": 0
 },
 {
  "track": 3,
  "delta": 0,
  "tick": 15024,
  "byteIndex": 8271,
  "name": "Note on",
  "channel": 1,
  "noteNumber": 84,
  "noteName": "C6",
  "velocity": 79,
  "dtick": 48,
  "ins": 0
 },
 {
  "track": 3,
  "delta": 0,
  "tick": 15024,
  "byteIndex": 8275,
  "name": "Note on",
  "channel": 1,
  "noteNumber": 72,
  "noteName": "C5",
  "velocity": 79,
  "dtick": 48,
  "ins": 0
 },
 {
  "track": 3,
  "delta": 0,
  "tick": 15072,
  "byteIndex": 8299,
  "name": "Note on",
  "channel": 1,
  "noteNumber": 59,
  "noteName": "B3",
  "velocity": 79,
  "dtick": 48,
  "ins": 0
 },
 {
  "track": 3,
  "delta": 0,
  "tick": 15072,
  "byteIndex": 8303,
  "name": "Note on",
  "channel": 1,
  "noteNumber": 55,
  "noteName": "G3",
  "velocity": 79,
  "dtick": 48,
  "ins": 0
 },
 {
  "track": 3,
  "delta": 0,
  "tick": 15072,
  "byteIndex": 8307,
  "name": "Note on",
  "channel": 1,
  "noteNumber": 48,
  "noteName": "C3",
  "velocity": 79,
  "dtick": 48,
  "ins": 0
 },
 {
  "track": 3,
  "delta": 0,
  "tick": 15072,
  "byteIndex": 8311,
  "name": "Note on",
  "channel": 1,
  "noteNumber": 79,
  "noteName": "G5",
  "velocity": 79,
  "dtick": 48,
  "ins": 0
 },
 {
  "track": 3,
  "delta": 0,
  "tick": 15072,
  "byteIndex": 8315,
  "name": "Note on",
  "channel": 1,
  "noteNumber": 67,
  "noteName": "G4",
  "velocity": 79,
  "dtick": 48,
  "ins": 0
 },
 {
  "track": 3,
  "delta": 0,
  "tick": 15120,
  "byteIndex": 8339,
  "name": "Note on",
  "channel": 1,
  "noteNumber": 59,
  "noteName": "B3",
  "velocity": 79,
  "dtick": 48,
  "ins": 0
 },
 {
  "track": 3,
  "delta": 0,
  "tick": 15120,
  "byteIndex": 8343,
  "name": "Note on",
  "channel": 1,
  "noteNumber": 55,
  "noteName": "G3",
  "velocity": 79,
  "dtick": 48,
  "ins": 0
 },
 {
  "track": 3,
  "delta": 0,
  "tick": 15120,
  "byteIndex": 8347,
  "name": "Note on",
  "channel": 1,
  "noteNumber": 48,
  "noteName": "C3",
  "velocity": 79,
  "dtick": 48,
  "ins": 0
 },
 {
  "track": 3,
  "delta": 0,
  "tick": 15120,
  "byteIndex": 8351,
  "name": "Note on",
  "channel": 1,
  "noteNumber": 86,
  "noteName": "D6",
  "velocity": 79,
  "dtick": 48,
  "ins": 0
 },
 {
  "track": 3,
  "delta": 0,
  "tick": 15120,
  "byteIndex": 8355,
  "name": "Note on",
  "channel": 1,
  "noteNumber": 74,
  "noteName": "D5",
  "velocity": 79,
  "dtick": 48,
  "ins": 0
 },
 {
  "track": 3,
  "delta": 0,
  "tick": 15168,
  "byteIndex": 8379,
  "name": "Note on",
  "channel": 1,
  "noteNumber": 55,
  "noteName": "G3",
  "velocity": 79,
  "dtick": 48,
  "ins": 0
 },
 {
  "track": 3,
  "delta": 0,
  "tick": 15168,
  "byteIndex": 8383,
  "name": "Note on",
  "channel": 1,
  "noteNumber": 48,
  "noteName": "C3",
  "velocity": 79,
  "dtick": 48,
  "ins": 0
 },
 {
  "track": 3,
  "delta": 0,
  "tick": 15168,
  "byteIndex": 8387,
  "name": "Note on",
  "channel": 1,
  "noteNumber": 59,
  "noteName": "B3",
  "velocity": 79,
  "dtick": 48,
  "ins": 0
 },
 {
  "track": 3,
  "delta": 0,
  "tick": 15168,
  "byteIndex": 8391,
  "name": "Note on",
  "channel": 1,
  "noteNumber": 84,
  "noteName": "C6",
  "velocity": 79,
  "dtick": 48,
  "ins": 0
 },
 {
  "track": 3,
  "delta": 0,
  "tick": 15168,
  "byteIndex": 8395,
  "name": "Note on",
  "channel": 1,
  "noteNumber": 72,
  "noteName": "C5",
  "velocity": 79,
  "dtick": 48,
  "ins": 0
 },
 {
  "track": 3,
  "delta": 0,
  "tick": 15216,
  "byteIndex": 8419,
  "name": "Note on",
  "channel": 1,
  "noteNumber": 55,
  "noteName": "G3",
  "velocity": 79,
  "dtick": 48,
  "ins": 0
 },
 {
  "track": 3,
  "delta": 0,
  "tick": 15216,
  "byteIndex": 8423,
  "name": "Note on",
  "channel": 1,
  "noteNumber": 48,
  "noteName": "C3",
  "velocity": 79,
  "dtick": 48,
  "ins": 0
 },
 {
  "track": 3,
  "delta": 0,
  "tick": 15216,
  "byteIndex": 8427,
  "name": "Note on",
  "channel": 1,
  "noteNumber": 59,
  "noteName": "B3",
  "velocity": 79,
  "dtick": 48,
  "ins": 0
 },
 {
  "track": 3,
  "delta": 0,
  "tick": 15216,
  "byteIndex": 8431,
  "name": "Note on",
  "channel": 1,
  "noteNumber": 67,
  "noteName": "G4",
  "velocity": 79,
  "dtick": 48,
  "ins": 0
 },
 {
  "track": 3,
  "delta": 0,
  "tick": 15216,
  "byteIndex": 8435,
  "name": "Note on",
  "channel": 1,
  "noteNumber": 79,
  "noteName": "G5",
  "velocity": 79,
  "dtick": 48,
  "ins": 0
 },
 {
  "track": 3,
  "delta": 0,
  "tick": 15264,
  "byteIndex": 8459,
  "name": "Note on",
  "channel": 1,
  "noteNumber": 55,
  "noteName": "G3",
  "velocity": 79,
  "dtick": 48,
  "ins": 0
 },
 {
  "track": 3,
  "delta": 0,
  "tick": 15264,
  "byteIndex": 8463,
  "name": "Note on",
  "channel": 1,
  "noteNumber": 48,
  "noteName": "C3",
  "velocity": 79,
  "dtick": 48,
  "ins": 0
 },
 {
  "track": 3,
  "delta": 0,
  "tick": 15264,
  "byteIndex": 8467,
  "name": "Note on",
  "channel": 1,
  "noteNumber": 59,
  "noteName": "B3",
  "velocity": 79,
  "dtick": 48,
  "ins": 0
 },
 {
  "track": 3,
  "delta": 0,
  "tick": 15264,
  "byteIndex": 8471,
  "name": "Note on",
  "channel": 1,
  "noteNumber": 74,
  "noteName": "D5",
  "velocity": 79,
  "dtick": 48,
  "ins": 0
 },
 {
  "track": 3,
  "delta": 0,
  "tick": 15264,
  "byteIndex": 8475,
  "name": "Note on",
  "channel": 1,
  "noteNumber": 86,
  "noteName": "D6",
  "velocity": 79,
  "dtick": 48,
  "ins": 0
 },
 {
  "track": 3,
  "delta": 0,
  "tick": 15312,
  "byteIndex": 8499,
  "name": "Note on",
  "channel": 1,
  "noteNumber": 48,
  "noteName": "C3",
  "velocity": 79,
  "dtick": 48,
  "ins": 0
 },
 {
  "track": 3,
  "delta": 0,
  "tick": 15312,
  "byteIndex": 8503,
  "name": "Note on",
  "channel": 1,
  "noteNumber": 55,
  "noteName": "G3",
  "velocity": 79,
  "dtick": 48,
  "ins": 0
 },
 {
  "track": 3,
  "delta": 0,
  "tick": 15312,
  "byteIndex": 8507,
  "name": "Note on",
  "channel": 1,
  "noteNumber": 59,
  "noteName": "B3",
  "velocity": 79,
  "dtick": 48,
  "ins": 0
 },
 {
  "track": 3,
  "delta": 0,
  "tick": 15312,
  "byteIndex": 8511,
  "name": "Note on",
  "channel": 1,
  "noteNumber": 76,
  "noteName": "E5",
  "velocity": 79,
  "dtick": 48,
  "ins": 0
 },
 {
  "track": 3,
  "delta": 0,
  "tick": 15312,
  "byteIndex": 8515,
  "name": "Note on",
  "channel": 1,
  "noteNumber": 88,
  "noteName": "E6",
  "velocity": 79,
  "dtick": 48,
  "ins": 0
 },
 {
  "track": 3,
  "delta": 0,
  "tick": 15360,
  "byteIndex": 8539,
  "name": "Note on",
  "channel": 1,
  "noteNumber": 79,
  "noteName": "G5",
  "velocity": 79,
  "dtick": 48,
  "ins": 0
 },
 {
  "track": 3,
  "delta": 0,
  "tick": 15360,
  "byteIndex": 8543,
  "name": "Note on",
  "channel": 1,
  "noteNumber": 91,
  "noteName": "G6",
  "velocity": 79,
  "dtick": 48,
  "ins": 0
 },
 {
  "track": 3,
  "delta": 0,
  "tick": 15360,
  "byteIndex": 8547,
  "name": "Note on",
  "channel": 1,
  "noteNumber": 57,
  "noteName": "A3",
  "velocity": 79,
  "dtick": 48,
  "ins": 0
 },
 {
  "track": 3,
  "delta": 0,
  "tick": 15360,
  "byteIndex": 8551,
  "name": "Note on",
  "channel": 1,
  "noteNumber": 45,
  "noteName": "A2",
  "velocity": 79,
  "dtick": 48,
  "ins": 0
 },
 {
  "track": 3,
  "delta": 0,
  "tick": 15360,
  "byteIndex": 8555,
  "name": "Note on",
  "channel": 1,
  "noteNumber": 52,
  "noteName": "E3",
  "velocity": 79,
  "dtick": 48,
  "ins": 0
 },
 {
  "track": 3,
  "delta": 0,
  "tick": 15408,
  "byteIndex": 8579,
  "name": "Note on",
  "channel": 1,
  "noteNumber": 76,
  "noteName": "E5",
  "velocity": 79,
  "dtick": 48,
  "ins": 0
 },
 {
  "track": 3,
  "delta": 0,
  "tick": 15408,
  "byteIndex": 8583,
  "name": "Note on",
  "channel": 1,
  "noteNumber": 88,
  "noteName": "E6",
  "velocity": 79,
  "dtick": 48,
  "ins": 0
 },
 {
  "track": 3,
  "delta": 0,
  "tick": 15408,
  "byteIndex": 8587,
  "name": "Note on",
  "channel": 1,
  "noteNumber": 57,
  "noteName": "A3",
  "velocity": 79,
  "dtick": 48,
  "ins": 0
 },
 {
  "track": 3,
  "delta": 0,
  "tick": 15408,
  "byteIndex": 8591,
  "name": "Note on",
  "channel": 1,
  "noteNumber": 52,
  "noteName": "E3",
  "velocity": 79,
  "dtick": 48,
  "ins": 0
 },
 {
  "track": 3,
  "delta": 0,
  "tick": 15408,
  "byteIndex": 8595,
  "name": "Note on",
  "channel": 1,
  "noteNumber": 45,
  "noteName": "A2",
  "velocity": 79,
  "dtick": 48,
  "ins": 0
 },
 {
  "track": 3,
  "delta": 0,
  "tick": 15456,
  "byteIndex": 8619,
  "name": "Note on",
  "channel": 1,
  "noteNumber": 72,
  "noteName": "C5",
  "velocity": 79,
  "dtick": 48,
  "ins": 0
 },
 {
  "track": 3,
  "delta": 0,
  "tick": 15456,
  "byteIndex": 8623,
  "name": "Note on",
  "channel": 1,
  "noteNumber": 84,
  "noteName": "C6",
  "velocity": 79,
  "dtick": 48,
  "ins": 0
 },
 {
  "track": 3,
  "delta": 0,
  "tick": 15456,
  "byteIndex": 8627,
  "name": "Note on",
  "channel": 1,
  "noteNumber": 57,
  "noteName": "A3",
  "velocity": 79,
  "dtick": 48,
  "ins": 0
 },
 {
  "track": 3,
  "delta": 0,
  "tick": 15456,
  "byteIndex": 8631,
  "name": "Note on",
  "channel": 1,
  "noteNumber": 52,
  "noteName": "E3",
  "velocity": 79,
  "dtick": 48,
  "ins": 0
 },
 {
  "track": 3,
  "delta": 0,
  "tick": 15456,
  "byteIndex": 8635,
  "name": "Note on",
  "channel": 1,
  "noteNumber": 45,
  "noteName": "A2",
  "velocity": 79,
  "dtick": 48,
  "ins": 0
 },
 {
  "track": 3,
  "delta": 0,
  "tick": 15504,
  "byteIndex": 8659,
  "name": "Note on",
  "channel": 1,
  "noteNumber": 79,
  "noteName": "G5",
  "velocity": 79,
  "dtick": 48,
  "ins": 0
 },
 {
  "track": 3,
  "delta": 0,
  "tick": 15504,
  "byteIndex": 8663,
  "name": "Note on",
  "channel": 1,
  "noteNumber": 91,
  "noteName": "G6",
  "velocity": 79,
  "dtick": 48,
  "ins": 0
 },
 {
  "track": 3,
  "delta": 0,
  "tick": 15504,
  "byteIndex": 8667,
  "name": "Note on",
  "channel": 1,
  "noteNumber": 52,
  "noteName": "E3",
  "velocity": 79,
  "dtick": 48,
  "ins": 0
 },
 {
  "track": 3,
  "delta": 0,
  "tick": 15504,
  "byteIndex": 8671,
  "name": "Note on",
  "channel": 1,
  "noteNumber": 57,
  "noteName": "A3",
  "velocity": 79,
  "dtick": 48,
  "ins": 0
 },
 {
  "track": 3,
  "delta": 0,
  "tick": 15504,
  "byteIndex": 8675,
  "name": "Note on",
  "channel": 1,
  "noteNumber": 45,
  "noteName": "A2",
  "velocity": 79,
  "dtick": 48,
  "ins": 0
 },
 {
  "track": 3,
  "delta": 0,
  "tick": 15552,
  "byteIndex": 8699,
  "name": "Note on",
  "channel": 1,
  "noteNumber": 76,
  "noteName": "E5",
  "velocity": 79,
  "dtick": 48,
  "ins": 0
 },
 {
  "track": 3,
  "delta": 0,
  "tick": 15552,
  "byteIndex": 8703,
  "name": "Note on",
  "channel": 1,
  "noteNumber": 88,
  "noteName": "E6",
  "velocity": 79,
  "dtick": 48,
  "ins": 0
 },
 {
  "track": 3,
  "delta": 0,
  "tick": 15552,
  "byteIndex": 8707,
  "name": "Note on",
  "channel": 1,
  "noteNumber": 52,
  "noteName": "E3",
  "velocity": 79,
  "dtick": 48,
  "ins": 0
 },
 {
  "track": 3,
  "delta": 0,
  "tick": 15552,
  "byteIndex": 8711,
  "name": "Note on",
  "channel": 1,
  "noteNumber": 57,
  "noteName": "A3",
  "velocity": 79,
  "dtick": 48,
  "ins": 0
 },
 {
  "track": 3,
  "delta": 0,
  "tick": 15552,
  "byteIndex": 8715,
  "name": "Note on",
  "channel": 1,
  "noteNumber": 45,
  "noteName": "A2",
  "velocity": 79,
  "dtick": 48,
  "ins": 0
 },
 {
  "track": 3,
  "delta": 0,
  "tick": 15600,
  "byteIndex": 8739,
  "name": "Note on",
  "channel": 1,
  "noteNumber": 72,
  "noteName": "C5",
  "velocity": 79,
  "dtick": 48,
  "ins": 0
 },
 {
  "track": 3,
  "delta": 0,
  "tick": 15600,
  "byteIndex": 8743,
  "name": "Note on",
  "channel": 1,
  "noteNumber": 84,
  "noteName": "C6",
  "velocity": 79,
  "dtick": 48,
  "ins": 0
 },
 {
  "track": 3,
  "delta": 0,
  "tick": 15600,
  "byteIndex": 8747,
  "name": "Note on",
  "channel": 1,
  "noteNumber": 45,
  "noteName": "A2",
  "velocity": 79,
  "dtick": 48,
  "ins": 0
 },
 {
  "track": 3,
  "delta": 0,
  "tick": 15600,
  "byteIndex": 8751,
  "name": "Note on",
  "channel": 1,
  "noteNumber": 52,
  "noteName": "E3",
  "velocity": 79,
  "dtick": 48,
  "ins": 0
 },
 {
  "track": 3,
  "delta": 0,
  "tick": 15600,
  "byteIndex": 8755,
  "name": "Note on",
  "channel": 1,
  "noteNumber": 57,
  "noteName": "A3",
  "velocity": 79,
  "dtick": 48,
  "ins": 0
 },
 {
  "track": 3,
  "delta": 0,
  "tick": 15648,
  "byteIndex": 8779,
  "name": "Note on",
  "channel": 1,
  "noteNumber": 79,
  "noteName": "G5",
  "velocity": 79,
  "dtick": 48,
  "ins": 0
 },
 {
  "track": 3,
  "delta": 0,
  "tick": 15648,
  "byteIndex": 8783,
  "name": "Note on",
  "channel": 1,
  "noteNumber": 91,
  "noteName": "G6",
  "velocity": 79,
  "dtick": 48,
  "ins": 0
 },
 {
  "track": 3,
  "delta": 0,
  "tick": 15648,
  "byteIndex": 8787,
  "name": "Note on",
  "channel": 1,
  "noteNumber": 45,
  "noteName": "A2",
  "velocity": 79,
  "dtick": 48,
  "ins": 0
 },
 {
  "track": 3,
  "delta": 0,
  "tick": 15648,
  "byteIndex": 8791,
  "name": "Note on",
  "channel": 1,
  "noteNumber": 57,
  "noteName": "A3",
  "velocity": 79,
  "dtick": 48,
  "ins": 0
 },
 {
  "track": 3,
  "delta": 0,
  "tick": 15648,
  "byteIndex": 8795,
  "name": "Note on",
  "channel": 1,
  "noteNumber": 52,
  "noteName": "E3",
  "velocity": 79,
  "dtick": 48,
  "ins": 0
 },
 {
  "track": 3,
  "delta": 0,
  "tick": 15696,
  "byteIndex": 8819,
  "name": "Note on",
  "channel": 1,
  "noteNumber": 76,
  "noteName": "E5",
  "velocity": 79,
  "dtick": 48,
  "ins": 0
 },
 {
  "track": 3,
  "delta": 0,
  "tick": 15696,
  "byteIndex": 8823,
  "name": "Note on",
  "channel": 1,
  "noteNumber": 88,
  "noteName": "E6",
  "velocity": 79,
  "dtick": 48,
  "ins": 0
 },
 {
  "track": 3,
  "delta": 0,
  "tick": 15696,
  "byteIndex": 8827,
  "name": "Note on",
  "channel": 1,
  "noteNumber": 45,
  "noteName": "A2",
  "velocity": 79,
  "dtick": 48,
  "ins": 0
 },
 {
  "track": 3,
  "delta": 0,
  "tick": 15696,
  "byteIndex": 8831,
  "name": "Note on",
  "channel": 1,
  "noteNumber": 52,
  "noteName": "E3",
  "velocity": 79,
  "dtick": 48,
  "ins": 0
 },
 {
  "track": 3,
  "delta": 0,
  "tick": 15696,
  "byteIndex": 8835,
  "name": "Note on",
  "channel": 1,
  "noteNumber": 57,
  "noteName": "A3",
  "velocity": 79,
  "dtick": 48,
  "ins": 0
 },
 {
  "track": 3,
  "delta": 0,
  "tick": 15744,
  "byteIndex": 8859,
  "name": "Note on",
  "channel": 1,
  "noteNumber": 77,
  "noteName": "F5",
  "velocity": 79,
  "dtick": 48,
  "ins": 0
 },
 {
  "track": 3,
  "delta": 0,
  "tick": 15744,
  "byteIndex": 8863,
  "name": "Note on",
  "channel": 1,
  "noteNumber": 89,
  "noteName": "F6",
  "velocity": 79,
  "dtick": 48,
  "ins": 0
 },
 {
  "track": 3,
  "delta": 0,
  "tick": 15744,
  "byteIndex": 8867,
  "name": "Note on",
  "channel": 1,
  "noteNumber": 41,
  "noteName": "F2",
  "velocity": 79,
  "dtick": 48,
  "ins": 0
 },
 {
  "track": 3,
  "delta": 0,
  "tick": 15744,
  "byteIndex": 8871,
  "name": "Note on",
  "channel": 1,
  "noteNumber": 53,
  "noteName": "F3",
  "velocity": 79,
  "dtick": 48,
  "ins": 0
 },
 {
  "track": 3,
  "delta": 0,
  "tick": 15744,
  "byteIndex": 8875,
  "name": "Note on",
  "channel": 1,
  "noteNumber": 48,
  "noteName": "C3",
  "velocity": 79,
  "dtick": 48,
  "ins": 0
 },
 {
  "track": 3,
  "delta": 0,
  "tick": 15792,
  "byteIndex": 8899,
  "name": "Note on",
  "channel": 1,
  "noteNumber": 76,
  "noteName": "E5",
  "velocity": 79,
  "dtick": 48,
  "ins": 0
 },
 {
  "track": 3,
  "delta": 0,
  "tick": 15792,
  "byteIndex": 8903,
  "name": "Note on",
  "channel": 1,
  "noteNumber": 88,
  "noteName": "E6",
  "velocity": 79,
  "dtick": 48,
  "ins": 0
 },
 {
  "track": 3,
  "delta": 0,
  "tick": 15792,
  "byteIndex": 8907,
  "name": "Note on",
  "channel": 1,
  "noteNumber": 41,
  "noteName": "F2",
  "velocity": 79,
  "dtick": 48,
  "ins": 0
 },
 {
  "track": 3,
  "delta": 0,
  "tick": 15792,
  "byteIndex": 8911,
  "name": "Note on",
  "channel": 1,
  "noteNumber": 48,
  "noteName": "C3",
  "velocity": 79,
  "dtick": 48,
  "ins": 0
 },
 {
  "track": 3,
  "delta": 0,
  "tick": 15792,
  "byteIndex": 8915,
  "name": "Note on",
  "channel": 1,
  "noteNumber": 53,
  "noteName": "F3",
  "velocity": 79,
  "dtick": 48,
  "ins": 0
 },
 {
  "track": 3,
  "delta": 0,
  "tick": 15840,
  "byteIndex": 8939,
  "name": "Note on",
  "channel": 1,
  "noteNumber": 72,
  "noteName": "C5",
  "velocity": 79,
  "dtick": 48,
  "ins": 0
 },
 {
  "track": 3,
  "delta": 0,
  "tick": 15840,
  "byteIndex": 8943,
  "name": "Note on",
  "channel": 1,
  "noteNumber": 84,
  "noteName": "C6",
  "velocity": 79,
  "dtick": 48,
  "ins": 0
 },
 {
  "track": 3,
  "delta": 0,
  "tick": 15840,
  "byteIndex": 8947,
  "name": "Note on",
  "channel": 1,
  "noteNumber": 53,
  "noteName": "F3",
  "velocity": 79,
  "dtick": 48,
  "ins": 0
 },
 {
  "track": 3,
  "delta": 0,
  "tick": 15840,
  "byteIndex": 8951,
  "name": "Note on",
  "channel": 1,
  "noteNumber": 48,
  "noteName": "C3",
  "velocity": 79,
  "dtick": 48,
  "ins": 0
 },
 {
  "track": 3,
  "delta": 0,
  "tick": 15840,
  "byteIndex": 8955,
  "name": "Note on",
  "channel": 1,
  "noteNumber": 41,
  "noteName": "F2",
  "velocity": 79,
  "dtick": 48,
  "ins": 0
 },
 {
  "track": 3,
  "delta": 0,
  "tick": 15888,
  "byteIndex": 8979,
  "name": "Note on",
  "channel": 1,
  "noteNumber": 77,
  "noteName": "F5",
  "velocity": 79,
  "dtick": 48,
  "ins": 0
 },
 {
  "track": 3,
  "delta": 0,
  "tick": 15888,
  "byteIndex": 8983,
  "name": "Note on",
  "channel": 1,
  "noteNumber": 89,
  "noteName": "F6",
  "velocity": 79,
  "dtick": 48,
  "ins": 0
 },
 {
  "track": 3,
  "delta": 0,
  "tick": 15888,
  "byteIndex": 8987,
  "name": "Note on",
  "channel": 1,
  "noteNumber": 48,
  "noteName": "C3",
  "velocity": 79,
  "dtick": 48,
  "ins": 0
 },
 {
  "track": 3,
  "delta": 0,
  "tick": 15888,
  "byteIndex": 8991,
  "name": "Note on",
  "channel": 1,
  "noteNumber": 53,
  "noteName": "F3",
  "velocity": 79,
  "dtick": 48,
  "ins": 0
 },
 {
  "track": 3,
  "delta": 0,
  "tick": 15888,
  "byteIndex": 8995,
  "name": "Note on",
  "channel": 1,
  "noteNumber": 41,
  "noteName": "F2",
  "velocity": 79,
  "dtick": 48,
  "ins": 0
 },
 {
  "track": 3,
  "delta": 0,
  "tick": 15936,
  "byteIndex": 9019,
  "name": "Note on",
  "channel": 1,
  "noteNumber": 76,
  "noteName": "E5",
  "velocity": 79,
  "dtick": 48,
  "ins": 0
 },
 {
  "track": 3,
  "delta": 0,
  "tick": 15936,
  "byteIndex": 9023,
  "name": "Note on",
  "channel": 1,
  "noteNumber": 88,
  "noteName": "E6",
  "velocity": 79,
  "dtick": 48,
  "ins": 0
 },
 {
  "track": 3,
  "delta": 0,
  "tick": 15936,
  "byteIndex": 9027,
  "name": "Note on",
  "channel": 1,
  "noteNumber": 41,
  "noteName": "F2",
  "velocity": 79,
  "dtick": 48,
  "ins": 0
 },
 {
  "track": 3,
  "delta": 0,
  "tick": 15936,
  "byteIndex": 9031,
  "name": "Note on",
  "channel": 1,
  "noteNumber": 53,
  "noteName": "F3",
  "velocity": 79,
  "dtick": 48,
  "ins": 0
 },
 {
  "track": 3,
  "delta": 0,
  "tick": 15936,
  "byteIndex": 9035,
  "name": "Note on",
  "channel": 1,
  "noteNumber": 48,
  "noteName": "C3",
  "velocity": 79,
  "dtick": 48,
  "ins": 0
 },
 {
  "track": 3,
  "delta": 0,
  "tick": 15984,
  "byteIndex": 9059,
  "name": "Note on",
  "channel": 1,
  "noteNumber": 72,
  "noteName": "C5",
  "velocity": 79,
  "dtick": 48,
  "ins": 0
 },
 {
  "track": 3,
  "delta": 0,
  "tick": 15984,
  "byteIndex": 9063,
  "name": "Note on",
  "channel": 1,
  "noteNumber": 84,
  "noteName": "C6",
  "velocity": 79,
  "dtick": 48,
  "ins": 0
 },
 {
  "track": 3,
  "delta": 0,
  "tick": 15984,
  "byteIndex": 9067,
  "name": "Note on",
  "channel": 1,
  "noteNumber": 53,
  "noteName": "F3",
  "velocity": 79,
  "dtick": 48,
  "ins": 0
 },
 {
  "track": 3,
  "delta": 0,
  "tick": 15984,
  "byteIndex": 9071,
  "name": "Note on",
  "channel": 1,
  "noteNumber": 48,
  "noteName": "C3",
  "velocity": 79,
  "dtick": 48,
  "ins": 0
 },
 {
  "track": 3,
  "delta": 0,
  "tick": 15984,
  "byteIndex": 9075,
  "name": "Note on",
  "channel": 1,
  "noteNumber": 41,
  "noteName": "F2",
  "velocity": 79,
  "dtick": 48,
  "ins": 0
 },
 {
  "track": 3,
  "delta": 0,
  "tick": 16032,
  "byteIndex": 9099,
  "name": "Note on",
  "channel": 1,
  "noteNumber": 77,
  "noteName": "F5",
  "velocity": 79,
  "dtick": 48,
  "ins": 0
 },
 {
  "track": 3,
  "delta": 0,
  "tick": 16032,
  "byteIndex": 9103,
  "name": "Note on",
  "channel": 1,
  "noteNumber": 89,
  "noteName": "F6",
  "velocity": 79,
  "dtick": 48,
  "ins": 0
 },
 {
  "track": 3,
  "delta": 0,
  "tick": 16032,
  "byteIndex": 9107,
  "name": "Note on",
  "channel": 1,
  "noteNumber": 41,
  "noteName": "F2",
  "velocity": 79,
  "dtick": 48,
  "ins": 0
 },
 {
  "track": 3,
  "delta": 0,
  "tick": 16032,
  "byteIndex": 9111,
  "name": "Note on",
  "channel": 1,
  "noteNumber": 53,
  "noteName": "F3",
  "velocity": 79,
  "dtick": 48,
  "ins": 0
 },
 {
  "track": 3,
  "delta": 0,
  "tick": 16032,
  "byteIndex": 9115,
  "name": "Note on",
  "channel": 1,
  "noteNumber": 48,
  "noteName": "C3",
  "velocity": 79,
  "dtick": 48,
  "ins": 0
 },
 {
  "track": 3,
  "delta": 0,
  "tick": 16080,
  "byteIndex": 9139,
  "name": "Note on",
  "channel": 1,
  "noteNumber": 76,
  "noteName": "E5",
  "velocity": 79,
  "dtick": 48,
  "ins": 0
 },
 {
  "track": 3,
  "delta": 0,
  "tick": 16080,
  "byteIndex": 9143,
  "name": "Note on",
  "channel": 1,
  "noteNumber": 88,
  "noteName": "E6",
  "velocity": 79,
  "dtick": 48,
  "ins": 0
 },
 {
  "track": 3,
  "delta": 0,
  "tick": 16080,
  "byteIndex": 9147,
  "name": "Note on",
  "channel": 1,
  "noteNumber": 53,
  "noteName": "F3",
  "velocity": 79,
  "dtick": 48,
  "ins": 0
 },
 {
  "track": 3,
  "delta": 0,
  "tick": 16080,
  "byteIndex": 9151,
  "name": "Note on",
  "channel": 1,
  "noteNumber": 48,
  "noteName": "C3",
  "velocity": 79,
  "dtick": 48,
  "ins": 0
 },
 {
  "track": 3,
  "delta": 0,
  "tick": 16080,
  "byteIndex": 9155,
  "name": "Note on",
  "channel": 1,
  "noteNumber": 41,
  "noteName": "F2",
  "velocity": 79,
  "dtick": 48,
  "ins": 0
 },
 {
  "track": 3,
  "delta": 0,
  "tick": 16128,
  "byteIndex": 9179,
  "name": "Note on",
  "channel": 1,
  "noteNumber": 76,
  "noteName": "E5",
  "velocity": 79,
  "dtick": 48,
  "ins": 0
 },
 {
  "track": 3,
  "delta": 0,
  "tick": 16128,
  "byteIndex": 9183,
  "name": "Note on",
  "channel": 1,
  "noteNumber": 88,
  "noteName": "E6",
  "velocity": 79,
  "dtick": 48,
  "ins": 0
 },
 {
  "track": 3,
  "delta": 0,
  "tick": 16128,
  "byteIndex": 9187,
  "name": "Note on",
  "channel": 1,
  "noteNumber": 55,
  "noteName": "G3",
  "velocity": 79,
  "dtick": 48,
  "ins": 0
 },
 {
  "track": 3,
  "delta": 0,
  "tick": 16128,
  "byteIndex": 9191,
  "name": "Note on",
  "channel": 1,
  "noteNumber": 60,
  "noteName": "C4",
  "velocity": 79,
  "dtick": 48,
  "ins": 0
 },
 {
  "track": 3,
  "delta": 0,
  "tick": 16128,
  "byteIndex": 9195,
  "name": "Note on",
  "channel": 1,
  "noteNumber": 48,
  "noteName": "C3",
  "velocity": 79,
  "dtick": 48,
  "ins": 0
 },
 {
  "track": 3,
  "delta": 0,
  "tick": 16176,
  "byteIndex": 9219,
  "name": "Note on",
  "channel": 1,
  "noteNumber": 72,
  "noteName": "C5",
  "velocity": 79,
  "dtick": 48,
  "ins": 0
 },
 {
  "track": 3,
  "delta": 0,
  "tick": 16176,
  "byteIndex": 9223,
  "name": "Note on",
  "channel": 1,
  "noteNumber": 84,
  "noteName": "C6",
  "velocity": 79,
  "dtick": 48,
  "ins": 0
 },
 {
  "track": 3,
  "delta": 0,
  "tick": 16176,
  "byteIndex": 9227,
  "name": "Note on",
  "channel": 1,
  "noteNumber": 48,
  "noteName": "C3",
  "velocity": 79,
  "dtick": 48,
  "ins": 0
 },
 {
  "track": 3,
  "delta": 0,
  "tick": 16176,
  "byteIndex": 9231,
  "name": "Note on",
  "channel": 1,
  "noteNumber": 55,
  "noteName": "G3",
  "velocity": 79,
  "dtick": 48,
  "ins": 0
 },
 {
  "track": 3,
  "delta": 0,
  "tick": 16176,
  "byteIndex": 9235,
  "name": "Note on",
  "channel": 1,
  "noteNumber": 60,
  "noteName": "C4",
  "velocity": 79,
  "dtick": 48,
  "ins": 0
 },
 {
  "track": 3,
  "delta": 0,
  "tick": 16224,
  "byteIndex": 9259,
  "name": "Note on",
  "channel": 1,
  "noteNumber": 67,
  "noteName": "G4",
  "velocity": 79,
  "dtick": 48,
  "ins": 0
 },
 {
  "track": 3,
  "delta": 0,
  "tick": 16224,
  "byteIndex": 9263,
  "name": "Note on",
  "channel": 1,
  "noteNumber": 79,
  "noteName": "G5",
  "velocity": 79,
  "dtick": 48,
  "ins": 0
 },
 {
  "track": 3,
  "delta": 0,
  "tick": 16224,
  "byteIndex": 9267,
  "name": "Note on",
  "channel": 1,
  "noteNumber": 60,
  "noteName": "C4",
  "velocity": 79,
  "dtick": 48,
  "ins": 0
 },
 {
  "track": 3,
  "delta": 0,
  "tick": 16224,
  "byteIndex": 9271,
  "name": "Note on",
  "channel": 1,
  "noteNumber": 55,
  "noteName": "G3",
  "velocity": 79,
  "dtick": 48,
  "ins": 0
 },
 {
  "track": 3,
  "delta": 0,
  "tick": 16224,
  "byteIndex": 9275,
  "name": "Note on",
  "channel": 1,
  "noteNumber": 48,
  "noteName": "C3",
  "velocity": 79,
  "dtick": 48,
  "ins": 0
 },
 {
  "track": 3,
  "delta": 0,
  "tick": 16272,
  "byteIndex": 9299,
  "name": "Note on",
  "channel": 1,
  "noteNumber": 76,
  "noteName": "E5",
  "velocity": 79,
  "dtick": 48,
  "ins": 0
 },
 {
  "track": 3,
  "delta": 0,
  "tick": 16272,
  "byteIndex": 9303,
  "name": "Note on",
  "channel": 1,
  "noteNumber": 88,
  "noteName": "E6",
  "velocity": 79,
  "dtick": 48,
  "ins": 0
 },
 {
  "track": 3,
  "delta": 0,
  "tick": 16272,
  "byteIndex": 9307,
  "name": "Note on",
  "channel": 1,
  "noteNumber": 60,
  "noteName": "C4",
  "velocity": 79,
  "dtick": 48,
  "ins": 0
 },
 {
  "track": 3,
  "delta": 0,
  "tick": 16272,
  "byteIndex": 9311,
  "name": "Note on",
  "channel": 1,
  "noteNumber": 55,
  "noteName": "G3",
  "velocity": 79,
  "dtick": 48,
  "ins": 0
 },
 {
  "track": 3,
  "delta": 0,
  "tick": 16272,
  "byteIndex": 9315,
  "name": "Note on",
  "channel": 1,
  "noteNumber": 48,
  "noteName": "C3",
  "velocity": 79,
  "dtick": 48,
  "ins": 0
 },
 {
  "track": 3,
  "delta": 0,
  "tick": 16320,
  "byteIndex": 9339,
  "name": "Note on",
  "channel": 1,
  "noteNumber": 72,
  "noteName": "C5",
  "velocity": 79,
  "dtick": 48,
  "ins": 0
 },
 {
  "track": 3,
  "delta": 0,
  "tick": 16320,
  "byteIndex": 9343,
  "name": "Note on",
  "channel": 1,
  "noteNumber": 84,
  "noteName": "C6",
  "velocity": 79,
  "dtick": 48,
  "ins": 0
 },
 {
  "track": 3,
  "delta": 0,
  "tick": 16320,
  "byteIndex": 9347,
  "name": "Note on",
  "channel": 1,
  "noteNumber": 48,
  "noteName": "C3",
  "velocity": 79,
  "dtick": 48,
  "ins": 0
 },
 {
  "track": 3,
  "delta": 0,
  "tick": 16320,
  "byteIndex": 9351,
  "name": "Note on",
  "channel": 1,
  "noteNumber": 60,
  "noteName": "C4",
  "velocity": 79,
  "dtick": 48,
  "ins": 0
 },
 {
  "track": 3,
  "delta": 0,
  "tick": 16320,
  "byteIndex": 9355,
  "name": "Note on",
  "channel": 1,
  "noteNumber": 55,
  "noteName": "G3",
  "velocity": 79,
  "dtick": 48,
  "ins": 0
 },
 {
  "track": 3,
  "delta": 0,
  "tick": 16368,
  "byteIndex": 9379,
  "name": "Note on",
  "channel": 1,
  "noteNumber": 67,
  "noteName": "G4",
  "velocity": 79,
  "dtick": 48,
  "ins": 0
 },
 {
  "track": 3,
  "delta": 0,
  "tick": 16368,
  "byteIndex": 9383,
  "name": "Note on",
  "channel": 1,
  "noteNumber": 79,
  "noteName": "G5",
  "velocity": 79,
  "dtick": 48,
  "ins": 0
 },
 {
  "track": 3,
  "delta": 0,
  "tick": 16368,
  "byteIndex": 9387,
  "name": "Note on",
  "channel": 1,
  "noteNumber": 60,
  "noteName": "C4",
  "velocity": 79,
  "dtick": 48,
  "ins": 0
 },
 {
  "track": 3,
  "delta": 0,
  "tick": 16368,
  "byteIndex": 9391,
  "name": "Note on",
  "channel": 1,
  "noteNumber": 55,
  "noteName": "G3",
  "velocity": 79,
  "dtick": 48,
  "ins": 0
 },
 {
  "track": 3,
  "delta": 0,
  "tick": 16368,
  "byteIndex": 9395,
  "name": "Note on",
  "channel": 1,
  "noteNumber": 48,
  "noteName": "C3",
  "velocity": 79,
  "dtick": 48,
  "ins": 0
 },
 {
  "track": 3,
  "delta": 0,
  "tick": 16416,
  "byteIndex": 9419,
  "name": "Note on",
  "channel": 1,
  "noteNumber": 88,
  "noteName": "E6",
  "velocity": 79,
  "dtick": 48,
  "ins": 0
 },
 {
  "track": 3,
  "delta": 0,
  "tick": 16416,
  "byteIndex": 9423,
  "name": "Note on",
  "channel": 1,
  "noteNumber": 76,
  "noteName": "E5",
  "velocity": 79,
  "dtick": 48,
  "ins": 0
 },
 {
  "track": 3,
  "delta": 0,
  "tick": 16416,
  "byteIndex": 9427,
  "name": "Note on",
  "channel": 1,
  "noteNumber": 55,
  "noteName": "G3",
  "velocity": 79,
  "dtick": 48,
  "ins": 0
 },
 {
  "track": 3,
  "delta": 0,
  "tick": 16416,
  "byteIndex": 9431,
  "name": "Note on",
  "channel": 1,
  "noteNumber": 60,
  "noteName": "C4",
  "velocity": 79,
  "dtick": 48,
  "ins": 0
 },
 {
  "track": 3,
  "delta": 0,
  "tick": 16416,
  "byteIndex": 9435,
  "name": "Note on",
  "channel": 1,
  "noteNumber": 48,
  "noteName": "C3",
  "velocity": 79,
  "dtick": 48,
  "ins": 0
 },
 {
  "track": 3,
  "delta": 0,
  "tick": 16464,
  "byteIndex": 9459,
  "name": "Note on",
  "channel": 1,
  "noteNumber": 84,
  "noteName": "C6",
  "velocity": 79,
  "dtick": 48,
  "ins": 0
 },
 {
  "track": 3,
  "delta": 0,
  "tick": 16464,
  "byteIndex": 9463,
  "name": "Note on",
  "channel": 1,
  "noteNumber": 72,
  "noteName": "C5",
  "velocity": 79,
  "dtick": 48,
  "ins": 0
 },
 {
  "track": 3,
  "delta": 0,
  "tick": 16464,
  "byteIndex": 9467,
  "name": "Note on",
  "channel": 1,
  "noteNumber": 48,
  "noteName": "C3",
  "velocity": 79,
  "dtick": 48,
  "ins": 0
 },
 {
  "track": 3,
  "delta": 0,
  "tick": 16464,
  "byteIndex": 9471,
  "name": "Note on",
  "channel": 1,
  "noteNumber": 55,
  "noteName": "G3",
  "velocity": 79,
  "dtick": 48,
  "ins": 0
 },
 {
  "track": 3,
  "delta": 0,
  "tick": 16464,
  "byteIndex": 9475,
  "name": "Note on",
  "channel": 1,
  "noteNumber": 60,
  "noteName": "C4",
  "velocity": 79,
  "dtick": 48,
  "ins": 0
 },
 {
  "track": 3,
  "delta": 0,
  "tick": 16512,
  "byteIndex": 9499,
  "name": "Note on",
  "channel": 1,
  "noteNumber": 86,
  "noteName": "D6",
  "velocity": 79,
  "dtick": 48,
  "ins": 0
 },
 {
  "track": 3,
  "delta": 0,
  "tick": 16512,
  "byteIndex": 9503,
  "name": "Note on",
  "channel": 1,
  "noteNumber": 74,
  "noteName": "D5",
  "velocity": 79,
  "dtick": 48,
  "ins": 0
 },
 {
  "track": 3,
  "delta": 0,
  "tick": 16512,
  "byteIndex": 9507,
  "name": "Note on",
  "channel": 1,
  "noteNumber": 59,
  "noteName": "B3",
  "velocity": 79,
  "dtick": 48,
  "ins": 0
 },
 {
  "track": 3,
  "delta": 0,
  "tick": 16512,
  "byteIndex": 9511,
  "name": "Note on",
  "channel": 1,
  "noteNumber": 55,
  "noteName": "G3",
  "velocity": 79,
  "dtick": 48,
  "ins": 0
 },
 {
  "track": 3,
  "delta": 0,
  "tick": 16512,
  "byteIndex": 9515,
  "name": "Note on",
  "channel": 1,
  "noteNumber": 48,
  "noteName": "C3",
  "velocity": 79,
  "dtick": 48,
  "ins": 0
 },
 {
  "track": 3,
  "delta": 0,
  "tick": 16560,
  "byteIndex": 9539,
  "name": "Note on",
  "channel": 1,
  "noteNumber": 84,
  "noteName": "C6",
  "velocity": 79,
  "dtick": 48,
  "ins": 0
 },
 {
  "track": 3,
  "delta": 0,
  "tick": 16560,
  "byteIndex": 9543,
  "name": "Note on",
  "channel": 1,
  "noteNumber": 72,
  "noteName": "C5",
  "velocity": 79,
  "dtick": 48,
  "ins": 0
 },
 {
  "track": 3,
  "delta": 0,
  "tick": 16560,
  "byteIndex": 9547,
  "name": "Note on",
  "channel": 1,
  "noteNumber": 59,
  "noteName": "B3",
  "velocity": 79,
  "dtick": 48,
  "ins": 0
 },
 {
  "track": 3,
  "delta": 0,
  "tick": 16560,
  "byteIndex": 9551,
  "name": "Note on",
  "channel": 1,
  "noteNumber": 48,
  "noteName": "C3",
  "velocity": 79,
  "dtick": 48,
  "ins": 0
 },
 {
  "track": 3,
  "delta": 0,
  "tick": 16560,
  "byteIndex": 9555,
  "name": "Note on",
  "channel": 1,
  "noteNumber": 55,
  "noteName": "G3",
  "velocity": 79,
  "dtick": 48,
  "ins": 0
 },
 {
  "track": 3,
  "delta": 0,
  "tick": 16608,
  "byteIndex": 9579,
  "name": "Note on",
  "channel": 1,
  "noteNumber": 79,
  "noteName": "G5",
  "velocity": 79,
  "dtick": 48,
  "ins": 0
 },
 {
  "track": 3,
  "delta": 0,
  "tick": 16608,
  "byteIndex": 9583,
  "name": "Note on",
  "channel": 1,
  "noteNumber": 67,
  "noteName": "G4",
  "velocity": 79,
  "dtick": 48,
  "ins": 0
 },
 {
  "track": 3,
  "delta": 0,
  "tick": 16608,
  "byteIndex": 9587,
  "name": "Note on",
  "channel": 1,
  "noteNumber": 59,
  "noteName": "B3",
  "velocity": 79,
  "dtick": 48,
  "ins": 0
 },
 {
  "track": 3,
  "delta": 0,
  "tick": 16608,
  "byteIndex": 9591,
  "name": "Note on",
  "channel": 1,
  "noteNumber": 59,
  "noteName": "B3",
  "velocity": 79,
  "dtick": 48,
  "ins": 0
 },
 {
  "track": 3,
  "delta": 0,
  "tick": 16608,
  "byteIndex": 9595,
  "name": "Note on",
  "channel": 1,
  "noteNumber": 59,
  "noteName": "B3",
  "velocity": 79,
  "dtick": 48,
  "ins": 0
 },
 {
  "track": 3,
  "delta": 0,
  "tick": 16608,
  "byteIndex": 9599,
  "name": "Note on",
  "channel": 1,
  "noteNumber": 55,
  "noteName": "G3",
  "velocity": 79,
  "dtick": 48,
  "ins": 0
 },
 {
  "track": 3,
  "delta": 0,
  "tick": 16608,
  "byteIndex": 9603,
  "name": "Note on",
  "channel": 1,
  "noteNumber": 48,
  "noteName": "C3",
  "velocity": 79,
  "dtick": 48,
  "ins": 0
 },
 {
  "track": 3,
  "delta": 0,
  "tick": 16656,
  "byteIndex": 9635,
  "name": "Note on",
  "channel": 1,
  "noteNumber": 86,
  "noteName": "D6",
  "velocity": 79,
  "dtick": 48,
  "ins": 0
 },
 {
  "track": 3,
  "delta": 0,
  "tick": 16656,
  "byteIndex": 9639,
  "name": "Note on",
  "channel": 1,
  "noteNumber": 74,
  "noteName": "D5",
  "velocity": 79,
  "dtick": 48,
  "ins": 0
 },
 {
  "track": 3,
  "delta": 0,
  "tick": 16656,
  "byteIndex": 9643,
  "name": "Note on",
  "channel": 1,
  "noteNumber": 48,
  "noteName": "C3",
  "velocity": 79,
  "dtick": 48,
  "ins": 0
 },
 {
  "track": 3,
  "delta": 0,
  "tick": 16656,
  "byteIndex": 9647,
  "name": "Note on",
  "channel": 1,
  "noteNumber": 55,
  "noteName": "G3",
  "velocity": 79,
  "dtick": 48,
  "ins": 0
 },
 {
  "track": 3,
  "delta": 0,
  "tick": 16656,
  "byteIndex": 9651,
  "name": "Note on",
  "channel": 1,
  "noteNumber": 59,
  "noteName": "B3",
  "velocity": 79,
  "dtick": 48,
  "ins": 0
 },
 {
  "track": 3,
  "delta": 0,
  "tick": 16704,
  "byteIndex": 9675,
  "name": "Note on",
  "channel": 1,
  "noteNumber": 84,
  "noteName": "C6",
  "velocity": 79,
  "dtick": 48,
  "ins": 0
 },
 {
  "track": 3,
  "delta": 0,
  "tick": 16704,
  "byteIndex": 9679,
  "name": "Note on",
  "channel": 1,
  "noteNumber": 72,
  "noteName": "C5",
  "velocity": 79,
  "dtick": 48,
  "ins": 0
 },
 {
  "track": 3,
  "delta": 0,
  "tick": 16704,
  "byteIndex": 9683,
  "name": "Note on",
  "channel": 1,
  "noteNumber": 59,
  "noteName": "B3",
  "velocity": 79,
  "dtick": 48,
  "ins": 0
 },
 {
  "track": 3,
  "delta": 0,
  "tick": 16704,
  "byteIndex": 9687,
  "name": "Note on",
  "channel": 1,
  "noteNumber": 48,
  "noteName": "C3",
  "velocity": 79,
  "dtick": 48,
  "ins": 0
 },
 {
  "track": 3,
  "delta": 0,
  "tick": 16704,
  "byteIndex": 9691,
  "name": "Note on",
  "channel": 1,
  "noteNumber": 55,
  "noteName": "G3",
  "velocity": 79,
  "dtick": 48,
  "ins": 0
 },
 {
  "track": 3,
  "delta": 0,
  "tick": 16752,
  "byteIndex": 9715,
  "name": "Note on",
  "channel": 1,
  "noteNumber": 67,
  "noteName": "G4",
  "velocity": 79,
  "dtick": 48,
  "ins": 0
 },
 {
  "track": 3,
  "delta": 0,
  "tick": 16752,
  "byteIndex": 9719,
  "name": "Note on",
  "channel": 1,
  "noteNumber": 79,
  "noteName": "G5",
  "velocity": 79,
  "dtick": 48,
  "ins": 0
 },
 {
  "track": 3,
  "delta": 0,
  "tick": 16752,
  "byteIndex": 9723,
  "name": "Note on",
  "channel": 1,
  "noteNumber": 59,
  "noteName": "B3",
  "velocity": 79,
  "dtick": 48,
  "ins": 0
 },
 {
  "track": 3,
  "delta": 0,
  "tick": 16752,
  "byteIndex": 9727,
  "name": "Note on",
  "channel": 1,
  "noteNumber": 48,
  "noteName": "C3",
  "velocity": 79,
  "dtick": 48,
  "ins": 0
 },
 {
  "track": 3,
  "delta": 0,
  "tick": 16752,
  "byteIndex": 9731,
  "name": "Note on",
  "channel": 1,
  "noteNumber": 55,
  "noteName": "G3",
  "velocity": 79,
  "dtick": 48,
  "ins": 0
 },
 {
  "track": 3,
  "delta": 0,
  "tick": 16800,
  "byteIndex": 9755,
  "name": "Note on",
  "channel": 1,
  "noteNumber": 74,
  "noteName": "D5",
  "velocity": 79,
  "dtick": 48,
  "ins": 0
 },
 {
  "track": 3,
  "delta": 0,
  "tick": 16800,
  "byteIndex": 9759,
  "name": "Note on",
  "channel": 1,
  "noteNumber": 86,
  "noteName": "D6",
  "velocity": 79,
  "dtick": 48,
  "ins": 0
 },
 {
  "track": 3,
  "delta": 0,
  "tick": 16800,
  "byteIndex": 9763,
  "name": "Note on",
  "channel": 1,
  "noteNumber": 55,
  "noteName": "G3",
  "velocity": 79,
  "dtick": 48,
  "ins": 0
 },
 {
  "track": 3,
  "delta": 0,
  "tick": 16800,
  "byteIndex": 9767,
  "name": "Note on",
  "channel": 1,
  "noteNumber": 48,
  "noteName": "C3",
  "velocity": 79,
  "dtick": 48,
  "ins": 0
 },
 {
  "track": 3,
  "delta": 0,
  "tick": 16800,
  "byteIndex": 9771,
  "name": "Note on",
  "channel": 1,
  "noteNumber": 59,
  "noteName": "B3",
  "velocity": 79,
  "dtick": 48,
  "ins": 0
 },
 {
  "track": 3,
  "delta": 0,
  "tick": 16848,
  "byteIndex": 9795,
  "name": "Note on",
  "channel": 1,
  "noteNumber": 76,
  "noteName": "E5",
  "velocity": 79,
  "dtick": 48,
  "ins": 0
 },
 {
  "track": 3,
  "delta": 0,
  "tick": 16848,
  "byteIndex": 9799,
  "name": "Note on",
  "channel": 1,
  "noteNumber": 88,
  "noteName": "E6",
  "velocity": 79,
  "dtick": 48,
  "ins": 0
 },
 {
  "track": 3,
  "delta": 0,
  "tick": 16848,
  "byteIndex": 9803,
  "name": "Note on",
  "channel": 1,
  "noteNumber": 48,
  "noteName": "C3",
  "velocity": 79,
  "dtick": 48,
  "ins": 0
 },
 {
  "track": 3,
  "delta": 0,
  "tick": 16848,
  "byteIndex": 9807,
  "name": "Note on",
  "channel": 1,
  "noteNumber": 55,
  "noteName": "G3",
  "velocity": 79,
  "dtick": 48,
  "ins": 0
 },
 {
  "track": 3,
  "delta": 0,
  "tick": 16848,
  "byteIndex": 9811,
  "name": "Note on",
  "channel": 1,
  "noteNumber": 59,
  "noteName": "B3",
  "velocity": 79,
  "dtick": 48,
  "ins": 0
 },
 {
  "track": 3,
  "delta": 0,
  "tick": 16896,
  "byteIndex": 9835,
  "name": "Note on",
  "channel": 1,
  "noteNumber": 57,
  "noteName": "A3",
  "velocity": 79,
  "dtick": 48,
  "ins": 0
 },
 {
  "track": 3,
  "delta": 0,
  "tick": 16896,
  "byteIndex": 9839,
  "name": "Note on",
  "channel": 1,
  "noteNumber": 45,
  "noteName": "A2",
  "velocity": 79,
  "dtick": 48,
  "ins": 0
 },
 {
  "track": 3,
  "delta": 0,
  "tick": 16896,
  "byteIndex": 9843,
  "name": "Note on",
  "channel": 1,
  "noteNumber": 52,
  "noteName": "E3",
  "velocity": 79,
  "dtick": 48,
  "ins": 0
 },
 {
  "track": 3,
  "delta": 0,
  "tick": 16896,
  "byteIndex": 9847,
  "name": "Note on",
  "channel": 1,
  "noteNumber": 79,
  "noteName": "G5",
  "velocity": 79,
  "dtick": 48,
  "ins": 0
 },
 {
  "track": 3,
  "delta": 0,
  "tick": 16896,
  "byteIndex": 9851,
  "name": "Note on",
  "channel": 1,
  "noteNumber": 91,
  "noteName": "G6",
  "velocity": 79,
  "dtick": 48,
  "ins": 0
 },
 {
  "track": 3,
  "delta": 0,
  "tick": 16944,
  "byteIndex": 9875,
  "name": "Note on",
  "channel": 1,
  "noteNumber": 45,
  "noteName": "A2",
  "velocity": 79,
  "dtick": 48,
  "ins": 0
 },
 {
  "track": 3,
  "delta": 0,
  "tick": 16944,
  "byteIndex": 9879,
  "name": "Note on",
  "channel": 1,
  "noteNumber": 52,
  "noteName": "E3",
  "velocity": 79,
  "dtick": 48,
  "ins": 0
 },
 {
  "track": 3,
  "delta": 0,
  "tick": 16944,
  "byteIndex": 9883,
  "name": "Note on",
  "channel": 1,
  "noteNumber": 57,
  "noteName": "A3",
  "velocity": 79,
  "dtick": 48,
  "ins": 0
 },
 {
  "track": 3,
  "delta": 0,
  "tick": 16944,
  "byteIndex": 9887,
  "name": "Note on",
  "channel": 1,
  "noteNumber": 76,
  "noteName": "E5",
  "velocity": 79,
  "dtick": 48,
  "ins": 0
 },
 {
  "track": 3,
  "delta": 0,
  "tick": 16944,
  "byteIndex": 9891,
  "name": "Note on",
  "channel": 1,
  "noteNumber": 88,
  "noteName": "E6",
  "velocity": 79,
  "dtick": 48,
  "ins": 0
 },
 {
  "track": 3,
  "delta": 0,
  "tick": 16992,
  "byteIndex": 9915,
  "name": "Note on",
  "channel": 1,
  "noteNumber": 45,
  "noteName": "A2",
  "velocity": 79,
  "dtick": 48,
  "ins": 0
 },
 {
  "track": 3,
  "delta": 0,
  "tick": 16992,
  "byteIndex": 9919,
  "name": "Note on",
  "channel": 1,
  "noteNumber": 52,
  "noteName": "E3",
  "velocity": 79,
  "dtick": 48,
  "ins": 0
 },
 {
  "track": 3,
  "delta": 0,
  "tick": 16992,
  "byteIndex": 9923,
  "name": "Note on",
  "channel": 1,
  "noteNumber": 57,
  "noteName": "A3",
  "velocity": 79,
  "dtick": 48,
  "ins": 0
 },
 {
  "track": 3,
  "delta": 0,
  "tick": 16992,
  "byteIndex": 9927,
  "name": "Note on",
  "channel": 1,
  "noteNumber": 72,
  "noteName": "C5",
  "velocity": 79,
  "dtick": 48,
  "ins": 0
 },
 {
  "track": 3,
  "delta": 0,
  "tick": 16992,
  "byteIndex": 9931,
  "name": "Note on",
  "channel": 1,
  "noteNumber": 84,
  "noteName": "C6",
  "velocity": 79,
  "dtick": 48,
  "ins": 0
 },
 {
  "track": 3,
  "delta": 0,
  "tick": 17040,
  "byteIndex": 9955,
  "name": "Note on",
  "channel": 1,
  "noteNumber": 52,
  "noteName": "E3",
  "velocity": 79,
  "dtick": 48,
  "ins": 0
 },
 {
  "track": 3,
  "delta": 0,
  "tick": 17040,
  "byteIndex": 9959,
  "name": "Note on",
  "channel": 1,
  "noteNumber": 57,
  "noteName": "A3",
  "velocity": 79,
  "dtick": 48,
  "ins": 0
 },
 {
  "track": 3,
  "delta": 0,
  "tick": 17040,
  "byteIndex": 9963,
  "name": "Note on",
  "channel": 1,
  "noteNumber": 45,
  "noteName": "A2",
  "velocity": 79,
  "dtick": 48,
  "ins": 0
 },
 {
  "track": 3,
  "delta": 0,
  "tick": 17040,
  "byteIndex": 9967,
  "name": "Note on",
  "channel": 1,
  "noteNumber": 91,
  "noteName": "G6",
  "velocity": 79,
  "dtick": 48,
  "ins": 0
 },
 {
  "track": 3,
  "delta": 0,
  "tick": 17040,
  "byteIndex": 9971,
  "name": "Note on",
  "channel": 1,
  "noteNumber": 79,
  "noteName": "G5",
  "velocity": 79,
  "dtick": 48,
  "ins": 0
 },
 {
  "track": 3,
  "delta": 0,
  "tick": 17088,
  "byteIndex": 9995,
  "name": "Note on",
  "channel": 1,
  "noteNumber": 52,
  "noteName": "E3",
  "velocity": 79,
  "dtick": 48,
  "ins": 0
 },
 {
  "track": 3,
  "delta": 0,
  "tick": 17088,
  "byteIndex": 9999,
  "name": "Note on",
  "channel": 1,
  "noteNumber": 57,
  "noteName": "A3",
  "velocity": 79,
  "dtick": 48,
  "ins": 0
 },
 {
  "track": 3,
  "delta": 0,
  "tick": 17088,
  "byteIndex": 10003,
  "name": "Note on",
  "channel": 1,
  "noteNumber": 45,
  "noteName": "A2",
  "velocity": 79,
  "dtick": 48,
  "ins": 0
 },
 {
  "track": 3,
  "delta": 0,
  "tick": 17088,
  "byteIndex": 10007,
  "name": "Note on",
  "channel": 1,
  "noteNumber": 88,
  "noteName": "E6",
  "velocity": 79,
  "dtick": 48,
  "ins": 0
 },
 {
  "track": 3,
  "delta": 0,
  "tick": 17088,
  "byteIndex": 10011,
  "name": "Note on",
  "channel": 1,
  "noteNumber": 76,
  "noteName": "E5",
  "velocity": 79,
  "dtick": 48,
  "ins": 0
 },
 {
  "track": 3,
  "delta": 0,
  "tick": 17136,
  "byteIndex": 10035,
  "name": "Note on",
  "channel": 1,
  "noteNumber": 57,
  "noteName": "A3",
  "velocity": 79,
  "dtick": 48,
  "ins": 0
 },
 {
  "track": 3,
  "delta": 0,
  "tick": 17136,
  "byteIndex": 10039,
  "name": "Note on",
  "channel": 1,
  "noteNumber": 52,
  "noteName": "E3",
  "velocity": 79,
  "dtick": 48,
  "ins": 0
 },
 {
  "track": 3,
  "delta": 0,
  "tick": 17136,
  "byteIndex": 10043,
  "name": "Note on",
  "channel": 1,
  "noteNumber": 45,
  "noteName": "A2",
  "velocity": 79,
  "dtick": 48,
  "ins": 0
 },
 {
  "track": 3,
  "delta": 0,
  "tick": 17136,
  "byteIndex": 10047,
  "name": "Note on",
  "channel": 1,
  "noteNumber": 72,
  "noteName": "C5",
  "velocity": 79,
  "dtick": 48,
  "ins": 0
 },
 {
  "track": 3,
  "delta": 0,
  "tick": 17136,
  "byteIndex": 10051,
  "name": "Note on",
  "channel": 1,
  "noteNumber": 84,
  "noteName": "C6",
  "velocity": 79,
  "dtick": 48,
  "ins": 0
 },
 {
  "track": 3,
  "delta": 0,
  "tick": 17184,
  "byteIndex": 10075,
  "name": "Note on",
  "channel": 1,
  "noteNumber": 52,
  "noteName": "E3",
  "velocity": 79,
  "dtick": 48,
  "ins": 0
 },
 {
  "track": 3,
  "delta": 0,
  "tick": 17184,
  "byteIndex": 10079,
  "name": "Note on",
  "channel": 1,
  "noteNumber": 57,
  "noteName": "A3",
  "velocity": 79,
  "dtick": 48,
  "ins": 0
 },
 {
  "track": 3,
  "delta": 0,
  "tick": 17184,
  "byteIndex": 10083,
  "name": "Note on",
  "channel": 1,
  "noteNumber": 45,
  "noteName": "A2",
  "velocity": 79,
  "dtick": 48,
  "ins": 0
 },
 {
  "track": 3,
  "delta": 0,
  "tick": 17184,
  "byteIndex": 10087,
  "name": "Note on",
  "channel": 1,
  "noteNumber": 79,
  "noteName": "G5",
  "velocity": 79,
  "dtick": 48,
  "ins": 0
 },
 {
  "track": 3,
  "delta": 0,
  "tick": 17184,
  "byteIndex": 10091,
  "name": "Note on",
  "channel": 1,
  "noteNumber": 91,
  "noteName": "G6",
  "velocity": 79,
  "dtick": 48,
  "ins": 0
 },
 {
  "track": 3,
  "delta": 0,
  "tick": 17232,
  "byteIndex": 10115,
  "name": "Note on",
  "channel": 1,
  "noteNumber": 45,
  "noteName": "A2",
  "velocity": 79,
  "dtick": 48,
  "ins": 0
 },
 {
  "track": 3,
  "delta": 0,
  "tick": 17232,
  "byteIndex": 10119,
  "name": "Note on",
  "channel": 1,
  "noteNumber": 52,
  "noteName": "E3",
  "velocity": 79,
  "dtick": 48,
  "ins": 0
 },
 {
  "track": 3,
  "delta": 0,
  "tick": 17232,
  "byteIndex": 10123,
  "name": "Note on",
  "channel": 1,
  "noteNumber": 57,
  "noteName": "A3",
  "velocity": 79,
  "dtick": 48,
  "ins": 0
 },
 {
  "track": 3,
  "delta": 0,
  "tick": 17232,
  "byteIndex": 10127,
  "name": "Note on",
  "channel": 1,
  "noteNumber": 88,
  "noteName": "E6",
  "velocity": 79,
  "dtick": 48,
  "ins": 0
 },
 {
  "track": 3,
  "delta": 0,
  "tick": 17232,
  "byteIndex": 10131,
  "name": "Note on",
  "channel": 1,
  "noteNumber": 76,
  "noteName": "E5",
  "velocity": 79,
  "dtick": 48,
  "ins": 0
 },
 {
  "track": 3,
  "delta": 0,
  "tick": 17280,
  "byteIndex": 10155,
  "name": "Note on",
  "channel": 1,
  "noteNumber": 41,
  "noteName": "F2",
  "velocity": 79,
  "dtick": 48,
  "ins": 0
 },
 {
  "track": 3,
  "delta": 0,
  "tick": 17280,
  "byteIndex": 10159,
  "name": "Note on",
  "channel": 1,
  "noteNumber": 53,
  "noteName": "F3",
  "velocity": 79,
  "dtick": 48,
  "ins": 0
 },
 {
  "track": 3,
  "delta": 0,
  "tick": 17280,
  "byteIndex": 10163,
  "name": "Note on",
  "channel": 1,
  "noteNumber": 48,
  "noteName": "C3",
  "velocity": 79,
  "dtick": 48,
  "ins": 0
 },
 {
  "track": 3,
  "delta": 0,
  "tick": 17280,
  "byteIndex": 10167,
  "name": "Note on",
  "channel": 1,
  "noteNumber": 89,
  "noteName": "F6",
  "velocity": 79,
  "dtick": 48,
  "ins": 0
 },
 {
  "track": 3,
  "delta": 0,
  "tick": 17280,
  "byteIndex": 10171,
  "name": "Note on",
  "channel": 1,
  "noteNumber": 77,
  "noteName": "F5",
  "velocity": 79,
  "dtick": 48,
  "ins": 0
 },
 {
  "track": 3,
  "delta": 0,
  "tick": 17328,
  "byteIndex": 10195,
  "name": "Note on",
  "channel": 1,
  "noteNumber": 41,
  "noteName": "F2",
  "velocity": 79,
  "dtick": 48,
  "ins": 0
 },
 {
  "track": 3,
  "delta": 0,
  "tick": 17328,
  "byteIndex": 10199,
  "name": "Note on",
  "channel": 1,
  "noteNumber": 48,
  "noteName": "C3",
  "velocity": 79,
  "dtick": 48,
  "ins": 0
 },
 {
  "track": 3,
  "delta": 0,
  "tick": 17328,
  "byteIndex": 10203,
  "name": "Note on",
  "channel": 1,
  "noteNumber": 53,
  "noteName": "F3",
  "velocity": 79,
  "dtick": 48,
  "ins": 0
 },
 {
  "track": 3,
  "delta": 0,
  "tick": 17328,
  "byteIndex": 10207,
  "name": "Note on",
  "channel": 1,
  "noteNumber": 88,
  "noteName": "E6",
  "velocity": 79,
  "dtick": 48,
  "ins": 0
 },
 {
  "track": 3,
  "delta": 0,
  "tick": 17328,
  "byteIndex": 10211,
  "name": "Note on",
  "channel": 1,
  "noteNumber": 76,
  "noteName": "E5",
  "velocity": 79,
  "dtick": 48,
  "ins": 0
 },
 {
  "track": 3,
  "delta": 0,
  "tick": 17376,
  "byteIndex": 10235,
  "name": "Note on",
  "channel": 1,
  "noteNumber": 53,
  "noteName": "F3",
  "velocity": 79,
  "dtick": 48,
  "ins": 0
 },
 {
  "track": 3,
  "delta": 0,
  "tick": 17376,
  "byteIndex": 10239,
  "name": "Note on",
  "channel": 1,
  "noteNumber": 48,
  "noteName": "C3",
  "velocity": 79,
  "dtick": 48,
  "ins": 0
 },
 {
  "track": 3,
  "delta": 0,
  "tick": 17376,
  "byteIndex": 10243,
  "name": "Note on",
  "channel": 1,
  "noteNumber": 41,
  "noteName": "F2",
  "velocity": 79,
  "dtick": 48,
  "ins": 0
 },
 {
  "track": 3,
  "delta": 0,
  "tick": 17376,
  "byteIndex": 10247,
  "name": "Note on",
  "channel": 1,
  "noteNumber": 84,
  "noteName": "C6",
  "velocity": 79,
  "dtick": 48,
  "ins": 0
 },
 {
  "track": 3,
  "delta": 0,
  "tick": 17376,
  "byteIndex": 10251,
  "name": "Note on",
  "channel": 1,
  "noteNumber": 72,
  "noteName": "C5",
  "velocity": 79,
  "dtick": 48,
  "ins": 0
 },
 {
  "track": 3,
  "delta": 0,
  "tick": 17424,
  "byteIndex": 10275,
  "name": "Note on",
  "channel": 1,
  "noteNumber": 48,
  "noteName": "C3",
  "velocity": 79,
  "dtick": 48,
  "ins": 0
 },
 {
  "track": 3,
  "delta": 0,
  "tick": 17424,
  "byteIndex": 10279,
  "name": "Note on",
  "channel": 1,
  "noteNumber": 53,
  "noteName": "F3",
  "velocity": 79,
  "dtick": 48,
  "ins": 0
 },
 {
  "track": 3,
  "delta": 0,
  "tick": 17424,
  "byteIndex": 10283,
  "name": "Note on",
  "channel": 1,
  "noteNumber": 41,
  "noteName": "F2",
  "velocity": 79,
  "dtick": 48,
  "ins": 0
 },
 {
  "track": 3,
  "delta": 0,
  "tick": 17424,
  "byteIndex": 10287,
  "name": "Note on",
  "channel": 1,
  "noteNumber": 77,
  "noteName": "F5",
  "velocity": 79,
  "dtick": 48,
  "ins": 0
 },
 {
  "track": 3,
  "delta": 0,
  "tick": 17424,
  "byteIndex": 10291,
  "name": "Note on",
  "channel": 1,
  "noteNumber": 89,
  "noteName": "F6",
  "velocity": 79,
  "dtick": 48,
  "ins": 0
 },
 {
  "track": 3,
  "delta": 0,
  "tick": 17472,
  "byteIndex": 10315,
  "name": "Note on",
  "channel": 1,
  "noteNumber": 48,
  "noteName": "C3",
  "velocity": 79,
  "dtick": 48,
  "ins": 0
 },
 {
  "track": 3,
  "delta": 0,
  "tick": 17472,
  "byteIndex": 10319,
  "name": "Note on",
  "channel": 1,
  "noteNumber": 53,
  "noteName": "F3",
  "velocity": 79,
  "dtick": 48,
  "ins": 0
 },
 {
  "track": 3,
  "delta": 0,
  "tick": 17472,
  "byteIndex": 10323,
  "name": "Note on",
  "channel": 1,
  "noteNumber": 41,
  "noteName": "F2",
  "velocity": 79,
  "dtick": 48,
  "ins": 0
 },
 {
  "track": 3,
  "delta": 0,
  "tick": 17472,
  "byteIndex": 10327,
  "name": "Note on",
  "channel": 1,
  "noteNumber": 76,
  "noteName": "E5",
  "velocity": 79,
  "dtick": 48,
  "ins": 0
 },
 {
  "track": 3,
  "delta": 0,
  "tick": 17472,
  "byteIndex": 10331,
  "name": "Note on",
  "channel": 1,
  "noteNumber": 88,
  "noteName": "E6",
  "velocity": 79,
  "dtick": 48,
  "ins": 0
 },
 {
  "track": 3,
  "delta": 0,
  "tick": 17520,
  "byteIndex": 10355,
  "name": "Note on",
  "channel": 1,
  "noteNumber": 41,
  "noteName": "F2",
  "velocity": 79,
  "dtick": 48,
  "ins": 0
 },
 {
  "track": 3,
  "delta": 0,
  "tick": 17520,
  "byteIndex": 10359,
  "name": "Note on",
  "channel": 1,
  "noteNumber": 48,
  "noteName": "C3",
  "velocity": 79,
  "dtick": 48,
  "ins": 0
 },
 {
  "track": 3,
  "delta": 0,
  "tick": 17520,
  "byteIndex": 10363,
  "name": "Note on",
  "channel": 1,
  "noteNumber": 53,
  "noteName": "F3",
  "velocity": 79,
  "dtick": 48,
  "ins": 0
 },
 {
  "track": 3,
  "delta": 0,
  "tick": 17520,
  "byteIndex": 10367,
  "name": "Note on",
  "channel": 1,
  "noteNumber": 84,
  "noteName": "C6",
  "velocity": 79,
  "dtick": 48,
  "ins": 0
 },
 {
  "track": 3,
  "delta": 0,
  "tick": 17520,
  "byteIndex": 10371,
  "name": "Note on",
  "channel": 1,
  "noteNumber": 72,
  "noteName": "C5",
  "velocity": 79,
  "dtick": 48,
  "ins": 0
 },
 {
  "track": 3,
  "delta": 0,
  "tick": 17568,
  "byteIndex": 10395,
  "name": "Note on",
  "channel": 1,
  "noteNumber": 48,
  "noteName": "C3",
  "velocity": 79,
  "dtick": 48,
  "ins": 0
 },
 {
  "track": 3,
  "delta": 0,
  "tick": 17568,
  "byteIndex": 10399,
  "name": "Note on",
  "channel": 1,
  "noteNumber": 53,
  "noteName": "F3",
  "velocity": 79,
  "dtick": 48,
  "ins": 0
 },
 {
  "track": 3,
  "delta": 0,
  "tick": 17568,
  "byteIndex": 10403,
  "name": "Note on",
  "channel": 1,
  "noteNumber": 41,
  "noteName": "F2",
  "velocity": 79,
  "dtick": 48,
  "ins": 0
 },
 {
  "track": 3,
  "delta": 0,
  "tick": 17568,
  "byteIndex": 10407,
  "name": "Note on",
  "channel": 1,
  "noteNumber": 89,
  "noteName": "F6",
  "velocity": 79,
  "dtick": 48,
  "ins": 0
 },
 {
  "track": 3,
  "delta": 0,
  "tick": 17568,
  "byteIndex": 10411,
  "name": "Note on",
  "channel": 1,
  "noteNumber": 77,
  "noteName": "F5",
  "velocity": 79,
  "dtick": 48,
  "ins": 0
 },
 {
  "track": 3,
  "delta": 0,
  "tick": 17616,
  "byteIndex": 10435,
  "name": "Note on",
  "channel": 1,
  "noteNumber": 41,
  "noteName": "F2",
  "velocity": 79,
  "dtick": 48,
  "ins": 0
 },
 {
  "track": 3,
  "delta": 0,
  "tick": 17616,
  "byteIndex": 10439,
  "name": "Note on",
  "channel": 1,
  "noteNumber": 48,
  "noteName": "C3",
  "velocity": 79,
  "dtick": 48,
  "ins": 0
 },
 {
  "track": 3,
  "delta": 0,
  "tick": 17616,
  "byteIndex": 10443,
  "name": "Note on",
  "channel": 1,
  "noteNumber": 53,
  "noteName": "F3",
  "velocity": 79,
  "dtick": 48,
  "ins": 0
 },
 {
  "track": 3,
  "delta": 0,
  "tick": 17616,
  "byteIndex": 10447,
  "name": "Note on",
  "channel": 1,
  "noteNumber": 88,
  "noteName": "E6",
  "velocity": 79,
  "dtick": 48,
  "ins": 0
 },
 {
  "track": 3,
  "delta": 0,
  "tick": 17616,
  "byteIndex": 10451,
  "name": "Note on",
  "channel": 1,
  "noteNumber": 76,
  "noteName": "E5",
  "velocity": 79,
  "dtick": 48,
  "ins": 0
 },
 {
  "track": 3,
  "delta": 0,
  "tick": 17664,
  "byteIndex": 10475,
  "name": "Note on",
  "channel": 1,
  "noteNumber": 55,
  "noteName": "G3",
  "velocity": 79,
  "dtick": 48,
  "ins": 0
 },
 {
  "track": 3,
  "delta": 0,
  "tick": 17664,
  "byteIndex": 10479,
  "name": "Note on",
  "channel": 1,
  "noteNumber": 60,
  "noteName": "C4",
  "velocity": 79,
  "dtick": 48,
  "ins": 0
 },
 {
  "track": 3,
  "delta": 0,
  "tick": 17664,
  "byteIndex": 10483,
  "name": "Note on",
  "channel": 1,
  "noteNumber": 48,
  "noteName": "C3",
  "velocity": 79,
  "dtick": 48,
  "ins": 0
 },
 {
  "track": 3,
  "delta": 0,
  "tick": 17664,
  "byteIndex": 10487,
  "name": "Note on",
  "channel": 1,
  "noteNumber": 88,
  "noteName": "E6",
  "velocity": 79,
  "dtick": 48,
  "ins": 0
 },
 {
  "track": 3,
  "delta": 0,
  "tick": 17664,
  "byteIndex": 10491,
  "name": "Note on",
  "channel": 1,
  "noteNumber": 76,
  "noteName": "E5",
  "velocity": 79,
  "dtick": 48,
  "ins": 0
 },
 {
  "track": 3,
  "delta": 0,
  "tick": 17712,
  "byteIndex": 10515,
  "name": "Note on",
  "channel": 1,
  "noteNumber": 48,
  "noteName": "C3",
  "velocity": 79,
  "dtick": 48,
  "ins": 0
 },
 {
  "track": 3,
  "delta": 0,
  "tick": 17712,
  "byteIndex": 10519,
  "name": "Note on",
  "channel": 1,
  "noteNumber": 55,
  "noteName": "G3",
  "velocity": 79,
  "dtick": 48,
  "ins": 0
 },
 {
  "track": 3,
  "delta": 0,
  "tick": 17712,
  "byteIndex": 10523,
  "name": "Note on",
  "channel": 1,
  "noteNumber": 60,
  "noteName": "C4",
  "velocity": 79,
  "dtick": 48,
  "ins": 0
 },
 {
  "track": 3,
  "delta": 0,
  "tick": 17712,
  "byteIndex": 10527,
  "name": "Note on",
  "channel": 1,
  "noteNumber": 72,
  "noteName": "C5",
  "velocity": 79,
  "dtick": 48,
  "ins": 0
 },
 {
  "track": 3,
  "delta": 0,
  "tick": 17712,
  "byteIndex": 10531,
  "name": "Note on",
  "channel": 1,
  "noteNumber": 84,
  "noteName": "C6",
  "velocity": 79,
  "dtick": 48,
  "ins": 0
 },
 {
  "track": 3,
  "delta": 0,
  "tick": 17760,
  "byteIndex": 10555,
  "name": "Note on",
  "channel": 1,
  "noteNumber": 60,
  "noteName": "C4",
  "velocity": 79,
  "dtick": 48,
  "ins": 0
 },
 {
  "track": 3,
  "delta": 0,
  "tick": 17760,
  "byteIndex": 10559,
  "name": "Note on",
  "channel": 1,
  "noteNumber": 55,
  "noteName": "G3",
  "velocity": 79,
  "dtick": 48,
  "ins": 0
 },
 {
  "track": 3,
  "delta": 0,
  "tick": 17760,
  "byteIndex": 10563,
  "name": "Note on",
  "channel": 1,
  "noteNumber": 48,
  "noteName": "C3",
  "velocity": 79,
  "dtick": 48,
  "ins": 0
 },
 {
  "track": 3,
  "delta": 0,
  "tick": 17760,
  "byteIndex": 10567,
  "name": "Note on",
  "channel": 1,
  "noteNumber": 67,
  "noteName": "G4",
  "velocity": 79,
  "dtick": 48,
  "ins": 0
 },
 {
  "track": 3,
  "delta": 0,
  "tick": 17760,
  "byteIndex": 10571,
  "name": "Note on",
  "channel": 1,
  "noteNumber": 79,
  "noteName": "G5",
  "velocity": 79,
  "dtick": 48,
  "ins": 0
 },
 {
  "track": 3,
  "delta": 0,
  "tick": 17808,
  "byteIndex": 10595,
  "name": "Note on",
  "channel": 1,
  "noteNumber": 60,
  "noteName": "C4",
  "velocity": 79,
  "dtick": 48,
  "ins": 0
 },
 {
  "track": 3,
  "delta": 0,
  "tick": 17808,
  "byteIndex": 10599,
  "name": "Note on",
  "channel": 1,
  "noteNumber": 55,
  "noteName": "G3",
  "velocity": 79,
  "dtick": 48,
  "ins": 0
 },
 {
  "track": 3,
  "delta": 0,
  "tick": 17808,
  "byteIndex": 10603,
  "name": "Note on",
  "channel": 1,
  "noteNumber": 48,
  "noteName": "C3",
  "velocity": 79,
  "dtick": 48,
  "ins": 0
 },
 {
  "track": 3,
  "delta": 0,
  "tick": 17808,
  "byteIndex": 10607,
  "name": "Note on",
  "channel": 1,
  "noteNumber": 88,
  "noteName": "E6",
  "velocity": 79,
  "dtick": 48,
  "ins": 0
 },
 {
  "track": 3,
  "delta": 0,
  "tick": 17808,
  "byteIndex": 10611,
  "name": "Note on",
  "channel": 1,
  "noteNumber": 76,
  "noteName": "E5",
  "velocity": 79,
  "dtick": 48,
  "ins": 0
 },
 {
  "track": 3,
  "delta": 0,
  "tick": 17856,
  "byteIndex": 10635,
  "name": "Note on",
  "channel": 1,
  "noteNumber": 55,
  "noteName": "G3",
  "velocity": 79,
  "dtick": 48,
  "ins": 0
 },
 {
  "track": 3,
  "delta": 0,
  "tick": 17856,
  "byteIndex": 10639,
  "name": "Note on",
  "channel": 1,
  "noteNumber": 60,
  "noteName": "C4",
  "velocity": 79,
  "dtick": 48,
  "ins": 0
 },
 {
  "track": 3,
  "delta": 0,
  "tick": 17856,
  "byteIndex": 10643,
  "name": "Note on",
  "channel": 1,
  "noteNumber": 48,
  "noteName": "C3",
  "velocity": 79,
  "dtick": 48,
  "ins": 0
 },
 {
  "track": 3,
  "delta": 0,
  "tick": 17856,
  "byteIndex": 10647,
  "name": "Note on",
  "channel": 1,
  "noteNumber": 84,
  "noteName": "C6",
  "velocity": 79,
  "dtick": 48,
  "ins": 0
 },
 {
  "track": 3,
  "delta": 0,
  "tick": 17856,
  "byteIndex": 10651,
  "name": "Note on",
  "channel": 1,
  "noteNumber": 72,
  "noteName": "C5",
  "velocity": 79,
  "dtick": 48,
  "ins": 0
 },
 {
  "track": 3,
  "delta": 0,
  "tick": 17904,
  "byteIndex": 10675,
  "name": "Note on",
  "channel": 1,
  "noteNumber": 48,
  "noteName": "C3",
  "velocity": 79,
  "dtick": 48,
  "ins": 0
 },
 {
  "track": 3,
  "delta": 0,
  "tick": 17904,
  "byteIndex": 10679,
  "name": "Note on",
  "channel": 1,
  "noteNumber": 55,
  "noteName": "G3",
  "velocity": 79,
  "dtick": 48,
  "ins": 0
 },
 {
  "track": 3,
  "delta": 0,
  "tick": 17904,
  "byteIndex": 10683,
  "name": "Note on",
  "channel": 1,
  "noteNumber": 60,
  "noteName": "C4",
  "velocity": 79,
  "dtick": 48,
  "ins": 0
 },
 {
  "track": 3,
  "delta": 0,
  "tick": 17904,
  "byteIndex": 10687,
  "name": "Note on",
  "channel": 1,
  "noteNumber": 67,
  "noteName": "G4",
  "velocity": 79,
  "dtick": 48,
  "ins": 0
 },
 {
  "track": 3,
  "delta": 0,
  "tick": 17904,
  "byteIndex": 10691,
  "name": "Note on",
  "channel": 1,
  "noteNumber": 79,
  "noteName": "G5",
  "velocity": 79,
  "dtick": 48,
  "ins": 0
 },
 {
  "track": 3,
  "delta": 0,
  "tick": 17952,
  "byteIndex": 10715,
  "name": "Note on",
  "channel": 1,
  "noteNumber": 48,
  "noteName": "C3",
  "velocity": 79,
  "dtick": 48,
  "ins": 0
 },
 {
  "track": 3,
  "delta": 0,
  "tick": 17952,
  "byteIndex": 10719,
  "name": "Note on",
  "channel": 1,
  "noteNumber": 60,
  "noteName": "C4",
  "velocity": 79,
  "dtick": 48,
  "ins": 0
 },
 {
  "track": 3,
  "delta": 0,
  "tick": 17952,
  "byteIndex": 10723,
  "name": "Note on",
  "channel": 1,
  "noteNumber": 55,
  "noteName": "G3",
  "velocity": 79,
  "dtick": 48,
  "ins": 0
 },
 {
  "track": 3,
  "delta": 0,
  "tick": 17952,
  "byteIndex": 10727,
  "name": "Note on",
  "channel": 1,
  "noteNumber": 88,
  "noteName": "E6",
  "velocity": 79,
  "dtick": 48,
  "ins": 0
 },
 {
  "track": 3,
  "delta": 0,
  "tick": 17952,
  "byteIndex": 10731,
  "name": "Note on",
  "channel": 1,
  "noteNumber": 76,
  "noteName": "E5",
  "velocity": 79,
  "dtick": 48,
  "ins": 0
 },
 {
  "track": 3,
  "delta": 0,
  "tick": 18000,
  "byteIndex": 10755,
  "name": "Note on",
  "channel": 1,
  "noteNumber": 48,
  "noteName": "C3",
  "velocity": 79,
  "dtick": 48,
  "ins": 0
 },
 {
  "track": 3,
  "delta": 0,
  "tick": 18000,
  "byteIndex": 10759,
  "name": "Note on",
  "channel": 1,
  "noteNumber": 55,
  "noteName": "G3",
  "velocity": 79,
  "dtick": 48,
  "ins": 0
 },
 {
  "track": 3,
  "delta": 0,
  "tick": 18000,
  "byteIndex": 10763,
  "name": "Note on",
  "channel": 1,
  "noteNumber": 60,
  "noteName": "C4",
  "velocity": 79,
  "dtick": 48,
  "ins": 0
 },
 {
  "track": 3,
  "delta": 0,
  "tick": 18000,
  "byteIndex": 10767,
  "name": "Note on",
  "channel": 1,
  "noteNumber": 84,
  "noteName": "C6",
  "velocity": 79,
  "dtick": 48,
  "ins": 0
 },
 {
  "track": 3,
  "delta": 0,
  "tick": 18000,
  "byteIndex": 10771,
  "name": "Note on",
  "channel": 1,
  "noteNumber": 72,
  "noteName": "C5",
  "velocity": 79,
  "dtick": 48,
  "ins": 0
 },
 {
  "track": 3,
  "delta": 0,
  "tick": 18048,
  "byteIndex": 10795,
  "name": "Note on",
  "channel": 1,
  "noteNumber": 48,
  "noteName": "C3",
  "velocity": 79,
  "dtick": 48,
  "ins": 0
 },
 {
  "track": 3,
  "delta": 0,
  "tick": 18048,
  "byteIndex": 10799,
  "name": "Note on",
  "channel": 1,
  "noteNumber": 55,
  "noteName": "G3",
  "velocity": 79,
  "dtick": 48,
  "ins": 0
 },
 {
  "track": 3,
  "delta": 0,
  "tick": 18048,
  "byteIndex": 10803,
  "name": "Note on",
  "channel": 1,
  "noteNumber": 59,
  "noteName": "B3",
  "velocity": 79,
  "dtick": 48,
  "ins": 0
 },
 {
  "track": 3,
  "delta": 0,
  "tick": 18048,
  "byteIndex": 10807,
  "name": "Note on",
  "channel": 1,
  "noteNumber": 88,
  "noteName": "E6",
  "velocity": 79,
  "dtick": 48,
  "ins": 0
 },
 {
  "track": 3,
  "delta": 0,
  "tick": 18048,
  "byteIndex": 10811,
  "name": "Note on",
  "channel": 1,
  "noteNumber": 76,
  "noteName": "E5",
  "velocity": 79,
  "dtick": 48,
  "ins": 0
 },
 {
  "track": 3,
  "delta": 0,
  "tick": 18096,
  "byteIndex": 10835,
  "name": "Note on",
  "channel": 1,
  "noteNumber": 59,
  "noteName": "B3",
  "velocity": 79,
  "dtick": 48,
  "ins": 0
 },
 {
  "track": 3,
  "delta": 0,
  "tick": 18096,
  "byteIndex": 10839,
  "name": "Note on",
  "channel": 1,
  "noteNumber": 48,
  "noteName": "C3",
  "velocity": 79,
  "dtick": 48,
  "ins": 0
 },
 {
  "track": 3,
  "delta": 0,
  "tick": 18096,
  "byteIndex": 10843,
  "name": "Note on",
  "channel": 1,
  "noteNumber": 55,
  "noteName": "G3",
  "velocity": 79,
  "dtick": 48,
  "ins": 0
 },
 {
  "track": 3,
  "delta": 0,
  "tick": 18096,
  "byteIndex": 10847,
  "name": "Note on",
  "channel": 1,
  "noteNumber": 74,
  "noteName": "D5",
  "velocity": 79,
  "dtick": 48,
  "ins": 0
 },
 {
  "track": 3,
  "delta": 0,
  "tick": 18096,
  "byteIndex": 10851,
  "name": "Note on",
  "channel": 1,
  "noteNumber": 86,
  "noteName": "D6",
  "velocity": 79,
  "dtick": 48,
  "ins": 0
 },
 {
  "track": 3,
  "delta": 0,
  "tick": 18144,
  "byteIndex": 10875,
  "name": "Note on",
  "channel": 1,
  "noteNumber": 59,
  "noteName": "B3",
  "velocity": 79,
  "dtick": 48,
  "ins": 0
 },
 {
  "track": 3,
  "delta": 0,
  "tick": 18144,
  "byteIndex": 10879,
  "name": "Note on",
  "channel": 1,
  "noteNumber": 55,
  "noteName": "G3",
  "velocity": 79,
  "dtick": 48,
  "ins": 0
 },
 {
  "track": 3,
  "delta": 0,
  "tick": 18144,
  "byteIndex": 10883,
  "name": "Note on",
  "channel": 1,
  "noteNumber": 48,
  "noteName": "C3",
  "velocity": 79,
  "dtick": 48,
  "ins": 0
 },
 {
  "track": 3,
  "delta": 0,
  "tick": 18144,
  "byteIndex": 10887,
  "name": "Note on",
  "channel": 1,
  "noteNumber": 84,
  "noteName": "C6",
  "velocity": 79,
  "dtick": 48,
  "ins": 0
 },
 {
  "track": 3,
  "delta": 0,
  "tick": 18144,
  "byteIndex": 10891,
  "name": "Note on",
  "channel": 1,
  "noteNumber": 72,
  "noteName": "C5",
  "velocity": 79,
  "dtick": 48,
  "ins": 0
 },
 {
  "track": 3,
  "delta": 0,
  "tick": 18192,
  "byteIndex": 10915,
  "name": "Note on",
  "channel": 1,
  "noteNumber": 59,
  "noteName": "B3",
  "velocity": 79,
  "dtick": 48,
  "ins": 0
 },
 {
  "track": 3,
  "delta": 0,
  "tick": 18192,
  "byteIndex": 10919,
  "name": "Note on",
  "channel": 1,
  "noteNumber": 55,
  "noteName": "G3",
  "velocity": 79,
  "dtick": 48,
  "ins": 0
 },
 {
  "track": 3,
  "delta": 0,
  "tick": 18192,
  "byteIndex": 10923,
  "name": "Note on",
  "channel": 1,
  "noteNumber": 48,
  "noteName": "C3",
  "velocity": 79,
  "dtick": 48,
  "ins": 0
 },
 {
  "track": 3,
  "delta": 0,
  "tick": 18192,
  "byteIndex": 10927,
  "name": "Note on",
  "channel": 1,
  "noteNumber": 76,
  "noteName": "E5",
  "velocity": 79,
  "dtick": 48,
  "ins": 0
 },
 {
  "track": 3,
  "delta": 0,
  "tick": 18192,
  "byteIndex": 10931,
  "name": "Note on",
  "channel": 1,
  "noteNumber": 88,
  "noteName": "E6",
  "velocity": 79,
  "dtick": 48,
  "ins": 0
 },
 {
  "track": 3,
  "delta": 0,
  "tick": 18240,
  "byteIndex": 10955,
  "name": "Note on",
  "channel": 1,
  "noteNumber": 55,
  "noteName": "G3",
  "velocity": 79,
  "dtick": 48,
  "ins": 0
 },
 {
  "track": 3,
  "delta": 0,
  "tick": 18240,
  "byteIndex": 10959,
  "name": "Note on",
  "channel": 1,
  "noteNumber": 48,
  "noteName": "C3",
  "velocity": 79,
  "dtick": 48,
  "ins": 0
 },
 {
  "track": 3,
  "delta": 0,
  "tick": 18240,
  "byteIndex": 10963,
  "name": "Note on",
  "channel": 1,
  "noteNumber": 59,
  "noteName": "B3",
  "velocity": 79,
  "dtick": 48,
  "ins": 0
 },
 {
  "track": 3,
  "delta": 0,
  "tick": 18240,
  "byteIndex": 10967,
  "name": "Note on",
  "channel": 1,
  "noteNumber": 96,
  "noteName": "C7",
  "velocity": 79,
  "dtick": 48,
  "ins": 0
 },
 {
  "track": 3,
  "delta": 0,
  "tick": 18240,
  "byteIndex": 10971,
  "name": "Note on",
  "channel": 1,
  "noteNumber": 84,
  "noteName": "C6",
  "velocity": 79,
  "dtick": 48,
  "ins": 0
 },
 {
  "track": 3,
  "delta": 0,
  "tick": 18288,
  "byteIndex": 10995,
  "name": "Note on",
  "channel": 1,
  "noteNumber": 55,
  "noteName": "G3",
  "velocity": 79,
  "dtick": 48,
  "ins": 0
 },
 {
  "track": 3,
  "delta": 0,
  "tick": 18288,
  "byteIndex": 10999,
  "name": "Note on",
  "channel": 1,
  "noteNumber": 48,
  "noteName": "C3",
  "velocity": 79,
  "dtick": 48,
  "ins": 0
 },
 {
  "track": 3,
  "delta": 0,
  "tick": 18288,
  "byteIndex": 11003,
  "name": "Note on",
  "channel": 1,
  "noteNumber": 59,
  "noteName": "B3",
  "velocity": 79,
  "dtick": 48,
  "ins": 0
 },
 {
  "track": 3,
  "delta": 0,
  "tick": 18288,
  "byteIndex": 11007,
  "name": "Note on",
  "channel": 1,
  "noteNumber": 83,
  "noteName": "B5",
  "velocity": 79,
  "dtick": 48,
  "ins": 0
 },
 {
  "track": 3,
  "delta": 0,
  "tick": 18288,
  "byteIndex": 11011,
  "name": "Note on",
  "channel": 1,
  "noteNumber": 95,
  "noteName": "B6",
  "velocity": 79,
  "dtick": 48,
  "ins": 0
 },
 {
  "track": 3,
  "delta": 0,
  "tick": 18336,
  "byteIndex": 11035,
  "name": "Note on",
  "channel": 1,
  "noteNumber": 55,
  "noteName": "G3",
  "velocity": 79,
  "dtick": 48,
  "ins": 0
 },
 {
  "track": 3,
  "delta": 0,
  "tick": 18336,
  "byteIndex": 11039,
  "name": "Note on",
  "channel": 1,
  "noteNumber": 48,
  "noteName": "C3",
  "velocity": 79,
  "dtick": 48,
  "ins": 0
 },
 {
  "track": 3,
  "delta": 0,
  "tick": 18336,
  "byteIndex": 11043,
  "name": "Note on",
  "channel": 1,
  "noteNumber": 59,
  "noteName": "B3",
  "velocity": 79,
  "dtick": 48,
  "ins": 0
 },
 {
  "track": 3,
  "delta": 0,
  "tick": 18336,
  "byteIndex": 11047,
  "name": "Note on",
  "channel": 1,
  "noteNumber": 93,
  "noteName": "A6",
  "velocity": 79,
  "dtick": 48,
  "ins": 0
 },
 {
  "track": 3,
  "delta": 0,
  "tick": 18336,
  "byteIndex": 11051,
  "name": "Note on",
  "channel": 1,
  "noteNumber": 81,
  "noteName": "A5",
  "velocity": 79,
  "dtick": 48,
  "ins": 0
 },
 {
  "track": 3,
  "delta": 0,
  "tick": 18384,
  "byteIndex": 11075,
  "name": "Note on",
  "channel": 1,
  "noteNumber": 48,
  "noteName": "C3",
  "velocity": 79,
  "dtick": 48,
  "ins": 0
 },
 {
  "track": 3,
  "delta": 0,
  "tick": 18384,
  "byteIndex": 11079,
  "name": "Note on",
  "channel": 1,
  "noteNumber": 55,
  "noteName": "G3",
  "velocity": 79,
  "dtick": 48,
  "ins": 0
 },
 {
  "track": 3,
  "delta": 0,
  "tick": 18384,
  "byteIndex": 11083,
  "name": "Note on",
  "channel": 1,
  "noteNumber": 59,
  "noteName": "B3",
  "velocity": 79,
  "dtick": 48,
  "ins": 0
 },
 {
  "track": 3,
  "delta": 0,
  "tick": 18384,
  "byteIndex": 11087,
  "name": "Note on",
  "channel": 1,
  "noteNumber": 76,
  "noteName": "E5",
  "velocity": 79,
  "dtick": 48,
  "ins": 0
 },
 {
  "track": 3,
  "delta": 0,
  "tick": 18384,
  "byteIndex": 11091,
  "name": "Note on",
  "channel": 1,
  "noteNumber": 88,
  "noteName": "E6",
  "velocity": 79,
  "dtick": 48,
  "ins": 0
 },
 {
  "track": 3,
  "delta": 0,
  "tick": 18432,
  "byteIndex": 11115,
  "name": "Note on",
  "channel": 1,
  "noteNumber": 79,
  "noteName": "G5",
  "velocity": 79,
  "dtick": 48,
  "ins": 0
 },
 {
  "track": 3,
  "delta": 0,
  "tick": 18432,
  "byteIndex": 11119,
  "name": "Note on",
  "channel": 1,
  "noteNumber": 91,
  "noteName": "G6",
  "velocity": 79,
  "dtick": 48,
  "ins": 0
 },
 {
  "track": 3,
  "delta": 0,
  "tick": 18432,
  "byteIndex": 11123,
  "name": "Note on",
  "channel": 1,
  "noteNumber": 57,
  "noteName": "A3",
  "velocity": 79,
  "dtick": 48,
  "ins": 0
 },
 {
  "track": 3,
  "delta": 0,
  "tick": 18432,
  "byteIndex": 11127,
  "name": "Note on",
  "channel": 1,
  "noteNumber": 45,
  "noteName": "A2",
  "velocity": 79,
  "dtick": 48,
  "ins": 0
 },
 {
  "track": 3,
  "delta": 0,
  "tick": 18432,
  "byteIndex": 11131,
  "name": "Note on",
  "channel": 1,
  "noteNumber": 52,
  "noteName": "E3",
  "velocity": 79,
  "dtick": 48,
  "ins": 0
 },
 {
  "track": 3,
  "delta": 0,
  "tick": 18480,
  "byteIndex": 11155,
  "name": "Note on",
  "channel": 1,
  "noteNumber": 76,
  "noteName": "E5",
  "velocity": 79,
  "dtick": 48,
  "ins": 0
 },
 {
  "track": 3,
  "delta": 0,
  "tick": 18480,
  "byteIndex": 11159,
  "name": "Note on",
  "channel": 1,
  "noteNumber": 88,
  "noteName": "E6",
  "velocity": 79,
  "dtick": 48,
  "ins": 0
 },
 {
  "track": 3,
  "delta": 0,
  "tick": 18480,
  "byteIndex": 11163,
  "name": "Note on",
  "channel": 1,
  "noteNumber": 57,
  "noteName": "A3",
  "velocity": 79,
  "dtick": 48,
  "ins": 0
 },
 {
  "track": 3,
  "delta": 0,
  "tick": 18480,
  "byteIndex": 11167,
  "name": "Note on",
  "channel": 1,
  "noteNumber": 52,
  "noteName": "E3",
  "velocity": 79,
  "dtick": 48,
  "ins": 0
 },
 {
  "track": 3,
  "delta": 0,
  "tick": 18480,
  "byteIndex": 11171,
  "name": "Note on",
  "channel": 1,
  "noteNumber": 45,
  "noteName": "A2",
  "velocity": 79,
  "dtick": 48,
  "ins": 0
 },
 {
  "track": 3,
  "delta": 0,
  "tick": 18528,
  "byteIndex": 11195,
  "name": "Note on",
  "channel": 1,
  "noteNumber": 72,
  "noteName": "C5",
  "velocity": 79,
  "dtick": 48,
  "ins": 0
 },
 {
  "track": 3,
  "delta": 0,
  "tick": 18528,
  "byteIndex": 11199,
  "name": "Note on",
  "channel": 1,
  "noteNumber": 84,
  "noteName": "C6",
  "velocity": 79,
  "dtick": 48,
  "ins": 0
 },
 {
  "track": 3,
  "delta": 0,
  "tick": 18528,
  "byteIndex": 11203,
  "name": "Note on",
  "channel": 1,
  "noteNumber": 57,
  "noteName": "A3",
  "velocity": 79,
  "dtick": 48,
  "ins": 0
 },
 {
  "track": 3,
  "delta": 0,
  "tick": 18528,
  "byteIndex": 11207,
  "name": "Note on",
  "channel": 1,
  "noteNumber": 52,
  "noteName": "E3",
  "velocity": 79,
  "dtick": 48,
  "ins": 0
 },
 {
  "track": 3,
  "delta": 0,
  "tick": 18528,
  "byteIndex": 11211,
  "name": "Note on",
  "channel": 1,
  "noteNumber": 45,
  "noteName": "A2",
  "velocity": 79,
  "dtick": 48,
  "ins": 0
 },
 {
  "track": 3,
  "delta": 0,
  "tick": 18576,
  "byteIndex": 11235,
  "name": "Note on",
  "channel": 1,
  "noteNumber": 79,
  "noteName": "G5",
  "velocity": 79,
  "dtick": 48,
  "ins": 0
 },
 {
  "track": 3,
  "delta": 0,
  "tick": 18576,
  "byteIndex": 11239,
  "name": "Note on",
  "channel": 1,
  "noteNumber": 91,
  "noteName": "G6",
  "velocity": 79,
  "dtick": 48,
  "ins": 0
 },
 {
  "track": 3,
  "delta": 0,
  "tick": 18576,
  "byteIndex": 11243,
  "name": "Note on",
  "channel": 1,
  "noteNumber": 52,
  "noteName": "E3",
  "velocity": 79,
  "dtick": 48,
  "ins": 0
 },
 {
  "track": 3,
  "delta": 0,
  "tick": 18576,
  "byteIndex": 11247,
  "name": "Note on",
  "channel": 1,
  "noteNumber": 57,
  "noteName": "A3",
  "velocity": 79,
  "dtick": 48,
  "ins": 0
 },
 {
  "track": 3,
  "delta": 0,
  "tick": 18576,
  "byteIndex": 11251,
  "name": "Note on",
  "channel": 1,
  "noteNumber": 45,
  "noteName": "A2",
  "velocity": 79,
  "dtick": 48,
  "ins": 0
 },
 {
  "track": 3,
  "delta": 0,
  "tick": 18624,
  "byteIndex": 11275,
  "name": "Note on",
  "channel": 1,
  "noteNumber": 76,
  "noteName": "E5",
  "velocity": 79,
  "dtick": 48,
  "ins": 0
 },
 {
  "track": 3,
  "delta": 0,
  "tick": 18624,
  "byteIndex": 11279,
  "name": "Note on",
  "channel": 1,
  "noteNumber": 88,
  "noteName": "E6",
  "velocity": 79,
  "dtick": 48,
  "ins": 0
 },
 {
  "track": 3,
  "delta": 0,
  "tick": 18624,
  "byteIndex": 11283,
  "name": "Note on",
  "channel": 1,
  "noteNumber": 52,
  "noteName": "E3",
  "velocity": 79,
  "dtick": 48,
  "ins": 0
 },
 {
  "track": 3,
  "delta": 0,
  "tick": 18624,
  "byteIndex": 11287,
  "name": "Note on",
  "channel": 1,
  "noteNumber": 57,
  "noteName": "A3",
  "velocity": 79,
  "dtick": 48,
  "ins": 0
 },
 {
  "track": 3,
  "delta": 0,
  "tick": 18624,
  "byteIndex": 11291,
  "name": "Note on",
  "channel": 1,
  "noteNumber": 45,
  "noteName": "A2",
  "velocity": 79,
  "dtick": 48,
  "ins": 0
 },
 {
  "track": 3,
  "delta": 0,
  "tick": 18672,
  "byteIndex": 11315,
  "name": "Note on",
  "channel": 1,
  "noteNumber": 72,
  "noteName": "C5",
  "velocity": 79,
  "dtick": 48,
  "ins": 0
 },
 {
  "track": 3,
  "delta": 0,
  "tick": 18672,
  "byteIndex": 11319,
  "name": "Note on",
  "channel": 1,
  "noteNumber": 84,
  "noteName": "C6",
  "velocity": 79,
  "dtick": 48,
  "ins": 0
 },
 {
  "track": 3,
  "delta": 0,
  "tick": 18672,
  "byteIndex": 11323,
  "name": "Note on",
  "channel": 1,
  "noteNumber": 45,
  "noteName": "A2",
  "velocity": 79,
  "dtick": 48,
  "ins": 0
 },
 {
  "track": 3,
  "delta": 0,
  "tick": 18672,
  "byteIndex": 11327,
  "name": "Note on",
  "channel": 1,
  "noteNumber": 52,
  "noteName": "E3",
  "velocity": 79,
  "dtick": 48,
  "ins": 0
 },
 {
  "track": 3,
  "delta": 0,
  "tick": 18672,
  "byteIndex": 11331,
  "name": "Note on",
  "channel": 1,
  "noteNumber": 57,
  "noteName": "A3",
  "velocity": 79,
  "dtick": 48,
  "ins": 0
 },
 {
  "track": 3,
  "delta": 0,
  "tick": 18720,
  "byteIndex": 11355,
  "name": "Note on",
  "channel": 1,
  "noteNumber": 79,
  "noteName": "G5",
  "velocity": 79,
  "dtick": 48,
  "ins": 0
 },
 {
  "track": 3,
  "delta": 0,
  "tick": 18720,
  "byteIndex": 11359,
  "name": "Note on",
  "channel": 1,
  "noteNumber": 91,
  "noteName": "G6",
  "velocity": 79,
  "dtick": 48,
  "ins": 0
 },
 {
  "track": 3,
  "delta": 0,
  "tick": 18720,
  "byteIndex": 11363,
  "name": "Note on",
  "channel": 1,
  "noteNumber": 45,
  "noteName": "A2",
  "velocity": 79,
  "dtick": 48,
  "ins": 0
 },
 {
  "track": 3,
  "delta": 0,
  "tick": 18720,
  "byteIndex": 11367,
  "name": "Note on",
  "channel": 1,
  "noteNumber": 57,
  "noteName": "A3",
  "velocity": 79,
  "dtick": 48,
  "ins": 0
 },
 {
  "track": 3,
  "delta": 0,
  "tick": 18720,
  "byteIndex": 11371,
  "name": "Note on",
  "channel": 1,
  "noteNumber": 52,
  "noteName": "E3",
  "velocity": 79,
  "dtick": 48,
  "ins": 0
 },
 {
  "track": 3,
  "delta": 0,
  "tick": 18768,
  "byteIndex": 11395,
  "name": "Note on",
  "channel": 1,
  "noteNumber": 76,
  "noteName": "E5",
  "velocity": 79,
  "dtick": 48,
  "ins": 0
 },
 {
  "track": 3,
  "delta": 0,
  "tick": 18768,
  "byteIndex": 11399,
  "name": "Note on",
  "channel": 1,
  "noteNumber": 88,
  "noteName": "E6",
  "velocity": 79,
  "dtick": 48,
  "ins": 0
 },
 {
  "track": 3,
  "delta": 0,
  "tick": 18768,
  "byteIndex": 11403,
  "name": "Note on",
  "channel": 1,
  "noteNumber": 45,
  "noteName": "A2",
  "velocity": 79,
  "dtick": 48,
  "ins": 0
 },
 {
  "track": 3,
  "delta": 0,
  "tick": 18768,
  "byteIndex": 11407,
  "name": "Note on",
  "channel": 1,
  "noteNumber": 52,
  "noteName": "E3",
  "velocity": 79,
  "dtick": 48,
  "ins": 0
 },
 {
  "track": 3,
  "delta": 0,
  "tick": 18768,
  "byteIndex": 11411,
  "name": "Note on",
  "channel": 1,
  "noteNumber": 57,
  "noteName": "A3",
  "velocity": 79,
  "dtick": 48,
  "ins": 0
 },
 {
  "track": 3,
  "delta": 0,
  "tick": 18816,
  "byteIndex": 11435,
  "name": "Note on",
  "channel": 1,
  "noteNumber": 77,
  "noteName": "F5",
  "velocity": 79,
  "dtick": 48,
  "ins": 0
 },
 {
  "track": 3,
  "delta": 0,
  "tick": 18816,
  "byteIndex": 11439,
  "name": "Note on",
  "channel": 1,
  "noteNumber": 89,
  "noteName": "F6",
  "velocity": 79,
  "dtick": 48,
  "ins": 0
 },
 {
  "track": 3,
  "delta": 0,
  "tick": 18816,
  "byteIndex": 11443,
  "name": "Note on",
  "channel": 1,
  "noteNumber": 41,
  "noteName": "F2",
  "velocity": 79,
  "dtick": 48,
  "ins": 0
 },
 {
  "track": 3,
  "delta": 0,
  "tick": 18816,
  "byteIndex": 11447,
  "name": "Note on",
  "channel": 1,
  "noteNumber": 53,
  "noteName": "F3",
  "velocity": 79,
  "dtick": 48,
  "ins": 0
 },
 {
  "track": 3,
  "delta": 0,
  "tick": 18816,
  "byteIndex": 11451,
  "name": "Note on",
  "channel": 1,
  "noteNumber": 48,
  "noteName": "C3",
  "velocity": 79,
  "dtick": 48,
  "ins": 0
 },
 {
  "track": 3,
  "delta": 0,
  "tick": 18864,
  "byteIndex": 11475,
  "name": "Note on",
  "channel": 1,
  "noteNumber": 76,
  "noteName": "E5",
  "velocity": 79,
  "dtick": 48,
  "ins": 0
 },
 {
  "track": 3,
  "delta": 0,
  "tick": 18864,
  "byteIndex": 11479,
  "name": "Note on",
  "channel": 1,
  "noteNumber": 88,
  "noteName": "E6",
  "velocity": 79,
  "dtick": 48,
  "ins": 0
 },
 {
  "track": 3,
  "delta": 0,
  "tick": 18864,
  "byteIndex": 11483,
  "name": "Note on",
  "channel": 1,
  "noteNumber": 41,
  "noteName": "F2",
  "velocity": 79,
  "dtick": 48,
  "ins": 0
 },
 {
  "track": 3,
  "delta": 0,
  "tick": 18864,
  "byteIndex": 11487,
  "name": "Note on",
  "channel": 1,
  "noteNumber": 48,
  "noteName": "C3",
  "velocity": 79,
  "dtick": 48,
  "ins": 0
 },
 {
  "track": 3,
  "delta": 0,
  "tick": 18864,
  "byteIndex": 11491,
  "name": "Note on",
  "channel": 1,
  "noteNumber": 53,
  "noteName": "F3",
  "velocity": 79,
  "dtick": 48,
  "ins": 0
 },
 {
  "track": 3,
  "delta": 0,
  "tick": 18912,
  "byteIndex": 11515,
  "name": "Note on",
  "channel": 1,
  "noteNumber": 72,
  "noteName": "C5",
  "velocity": 79,
  "dtick": 48,
  "ins": 0
 },
 {
  "track": 3,
  "delta": 0,
  "tick": 18912,
  "byteIndex": 11519,
  "name": "Note on",
  "channel": 1,
  "noteNumber": 84,
  "noteName": "C6",
  "velocity": 79,
  "dtick": 48,
  "ins": 0
 },
 {
  "track": 3,
  "delta": 0,
  "tick": 18912,
  "byteIndex": 11523,
  "name": "Note on",
  "channel": 1,
  "noteNumber": 53,
  "noteName": "F3",
  "velocity": 79,
  "dtick": 48,
  "ins": 0
 },
 {
  "track": 3,
  "delta": 0,
  "tick": 18912,
  "byteIndex": 11527,
  "name": "Note on",
  "channel": 1,
  "noteNumber": 48,
  "noteName": "C3",
  "velocity": 79,
  "dtick": 48,
  "ins": 0
 },
 {
  "track": 3,
  "delta": 0,
  "tick": 18912,
  "byteIndex": 11531,
  "name": "Note on",
  "channel": 1,
  "noteNumber": 41,
  "noteName": "F2",
  "velocity": 79,
  "dtick": 48,
  "ins": 0
 },
 {
  "track": 3,
  "delta": 0,
  "tick": 18960,
  "byteIndex": 11555,
  "name": "Note on",
  "channel": 1,
  "noteNumber": 77,
  "noteName": "F5",
  "velocity": 79,
  "dtick": 48,
  "ins": 0
 },
 {
  "track": 3,
  "delta": 0,
  "tick": 18960,
  "byteIndex": 11559,
  "name": "Note on",
  "channel": 1,
  "noteNumber": 89,
  "noteName": "F6",
  "velocity": 79,
  "dtick": 48,
  "ins": 0
 },
 {
  "track": 3,
  "delta": 0,
  "tick": 18960,
  "byteIndex": 11563,
  "name": "Note on",
  "channel": 1,
  "noteNumber": 48,
  "noteName": "C3",
  "velocity": 79,
  "dtick": 48,
  "ins": 0
 },
 {
  "track": 3,
  "delta": 0,
  "tick": 18960,
  "byteIndex": 11567,
  "name": "Note on",
  "channel": 1,
  "noteNumber": 53,
  "noteName": "F3",
  "velocity": 79,
  "dtick": 48,
  "ins": 0
 },
 {
  "track": 3,
  "delta": 0,
  "tick": 18960,
  "byteIndex": 11571,
  "name": "Note on",
  "channel": 1,
  "noteNumber": 41,
  "noteName": "F2",
  "velocity": 79,
  "dtick": 48,
  "ins": 0
 },
 {
  "track": 3,
  "delta": 0,
  "tick": 19008,
  "byteIndex": 11595,
  "name": "Note on",
  "channel": 1,
  "noteNumber": 76,
  "noteName": "E5",
  "velocity": 79,
  "dtick": 48,
  "ins": 0
 },
 {
  "track": 3,
  "delta": 0,
  "tick": 19008,
  "byteIndex": 11599,
  "name": "Note on",
  "channel": 1,
  "noteNumber": 88,
  "noteName": "E6",
  "velocity": 79,
  "dtick": 48,
  "ins": 0
 },
 {
  "track": 3,
  "delta": 0,
  "tick": 19008,
  "byteIndex": 11603,
  "name": "Note on",
  "channel": 1,
  "noteNumber": 41,
  "noteName": "F2",
  "velocity": 79,
  "dtick": 48,
  "ins": 0
 },
 {
  "track": 3,
  "delta": 0,
  "tick": 19008,
  "byteIndex": 11607,
  "name": "Note on",
  "channel": 1,
  "noteNumber": 53,
  "noteName": "F3",
  "velocity": 79,
  "dtick": 48,
  "ins": 0
 },
 {
  "track": 3,
  "delta": 0,
  "tick": 19008,
  "byteIndex": 11611,
  "name": "Note on",
  "channel": 1,
  "noteNumber": 48,
  "noteName": "C3",
  "velocity": 79,
  "dtick": 48,
  "ins": 0
 },
 {
  "track": 3,
  "delta": 0,
  "tick": 19056,
  "byteIndex": 11635,
  "name": "Note on",
  "channel": 1,
  "noteNumber": 72,
  "noteName": "C5",
  "velocity": 79,
  "dtick": 48,
  "ins": 0
 },
 {
  "track": 3,
  "delta": 0,
  "tick": 19056,
  "byteIndex": 11639,
  "name": "Note on",
  "channel": 1,
  "noteNumber": 84,
  "noteName": "C6",
  "velocity": 79,
  "dtick": 48,
  "ins": 0
 },
 {
  "track": 3,
  "delta": 0,
  "tick": 19056,
  "byteIndex": 11643,
  "name": "Note on",
  "channel": 1,
  "noteNumber": 53,
  "noteName": "F3",
  "velocity": 79,
  "dtick": 48,
  "ins": 0
 },
 {
  "track": 3,
  "delta": 0,
  "tick": 19056,
  "byteIndex": 11647,
  "name": "Note on",
  "channel": 1,
  "noteNumber": 48,
  "noteName": "C3",
  "velocity": 79,
  "dtick": 48,
  "ins": 0
 },
 {
  "track": 3,
  "delta": 0,
  "tick": 19056,
  "byteIndex": 11651,
  "name": "Note on",
  "channel": 1,
  "noteNumber": 41,
  "noteName": "F2",
  "velocity": 79,
  "dtick": 48,
  "ins": 0
 },
 {
  "track": 3,
  "delta": 0,
  "tick": 19104,
  "byteIndex": 11675,
  "name": "Note on",
  "channel": 1,
  "noteNumber": 77,
  "noteName": "F5",
  "velocity": 79,
  "dtick": 48,
  "ins": 0
 },
 {
  "track": 3,
  "delta": 0,
  "tick": 19104,
  "byteIndex": 11679,
  "name": "Note on",
  "channel": 1,
  "noteNumber": 89,
  "noteName": "F6",
  "velocity": 79,
  "dtick": 48,
  "ins": 0
 },
 {
  "track": 3,
  "delta": 0,
  "tick": 19104,
  "byteIndex": 11683,
  "name": "Note on",
  "channel": 1,
  "noteNumber": 41,
  "noteName": "F2",
  "velocity": 79,
  "dtick": 48,
  "ins": 0
 },
 {
  "track": 3,
  "delta": 0,
  "tick": 19104,
  "byteIndex": 11687,
  "name": "Note on",
  "channel": 1,
  "noteNumber": 53,
  "noteName": "F3",
  "velocity": 79,
  "dtick": 48,
  "ins": 0
 },
 {
  "track": 3,
  "delta": 0,
  "tick": 19104,
  "byteIndex": 11691,
  "name": "Note on",
  "channel": 1,
  "noteNumber": 48,
  "noteName": "C3",
  "velocity": 79,
  "dtick": 48,
  "ins": 0
 },
 {
  "track": 3,
  "delta": 0,
  "tick": 19152,
  "byteIndex": 11715,
  "name": "Note on",
  "channel": 1,
  "noteNumber": 76,
  "noteName": "E5",
  "velocity": 79,
  "dtick": 48,
  "ins": 0
 },
 {
  "track": 3,
  "delta": 0,
  "tick": 19152,
  "byteIndex": 11719,
  "name": "Note on",
  "channel": 1,
  "noteNumber": 88,
  "noteName": "E6",
  "velocity": 79,
  "dtick": 48,
  "ins": 0
 },
 {
  "track": 3,
  "delta": 0,
  "tick": 19152,
  "byteIndex": 11723,
  "name": "Note on",
  "channel": 1,
  "noteNumber": 53,
  "noteName": "F3",
  "velocity": 79,
  "dtick": 48,
  "ins": 0
 },
 {
  "track": 3,
  "delta": 0,
  "tick": 19152,
  "byteIndex": 11727,
  "name": "Note on",
  "channel": 1,
  "noteNumber": 48,
  "noteName": "C3",
  "velocity": 79,
  "dtick": 48,
  "ins": 0
 },
 {
  "track": 3,
  "delta": 0,
  "tick": 19152,
  "byteIndex": 11731,
  "name": "Note on",
  "channel": 1,
  "noteNumber": 41,
  "noteName": "F2",
  "velocity": 79,
  "dtick": 48,
  "ins": 0
 },
 {
  "track": 3,
  "delta": 0,
  "tick": 19200,
  "byteIndex": 11755,
  "name": "Note on",
  "channel": 1,
  "noteNumber": 76,
  "noteName": "E5",
  "velocity": 79,
  "dtick": 48,
  "ins": 0
 },
 {
  "track": 3,
  "delta": 0,
  "tick": 19200,
  "byteIndex": 11759,
  "name": "Note on",
  "channel": 1,
  "noteNumber": 88,
  "noteName": "E6",
  "velocity": 79,
  "dtick": 48,
  "ins": 0
 },
 {
  "track": 3,
  "delta": 0,
  "tick": 19200,
  "byteIndex": 11763,
  "name": "Note on",
  "channel": 1,
  "noteNumber": 55,
  "noteName": "G3",
  "velocity": 79,
  "dtick": 48,
  "ins": 0
 },
 {
  "track": 3,
  "delta": 0,
  "tick": 19200,
  "byteIndex": 11767,
  "name": "Note on",
  "channel": 1,
  "noteNumber": 60,
  "noteName": "C4",
  "velocity": 79,
  "dtick": 48,
  "ins": 0
 },
 {
  "track": 3,
  "delta": 0,
  "tick": 19200,
  "byteIndex": 11771,
  "name": "Note on",
  "channel": 1,
  "noteNumber": 48,
  "noteName": "C3",
  "velocity": 79,
  "dtick": 48,
  "ins": 0
 },
 {
  "track": 3,
  "delta": 0,
  "tick": 19248,
  "byteIndex": 11795,
  "name": "Note on",
  "channel": 1,
  "noteNumber": 72,
  "noteName": "C5",
  "velocity": 79,
  "dtick": 48,
  "ins": 0
 },
 {
  "track": 3,
  "delta": 0,
  "tick": 19248,
  "byteIndex": 11799,
  "name": "Note on",
  "channel": 1,
  "noteNumber": 84,
  "noteName": "C6",
  "velocity": 79,
  "dtick": 48,
  "ins": 0
 },
 {
  "track": 3,
  "delta": 0,
  "tick": 19248,
  "byteIndex": 11803,
  "name": "Note on",
  "channel": 1,
  "noteNumber": 48,
  "noteName": "C3",
  "velocity": 79,
  "dtick": 48,
  "ins": 0
 },
 {
  "track": 3,
  "delta": 0,
  "tick": 19248,
  "byteIndex": 11807,
  "name": "Note on",
  "channel": 1,
  "noteNumber": 55,
  "noteName": "G3",
  "velocity": 79,
  "dtick": 48,
  "ins": 0
 },
 {
  "track": 3,
  "delta": 0,
  "tick": 19248,
  "byteIndex": 11811,
  "name": "Note on",
  "channel": 1,
  "noteNumber": 60,
  "noteName": "C4",
  "velocity": 79,
  "dtick": 48,
  "ins": 0
 },
 {
  "track": 3,
  "delta": 0,
  "tick": 19296,
  "byteIndex": 11835,
  "name": "Note on",
  "channel": 1,
  "noteNumber": 67,
  "noteName": "G4",
  "velocity": 79,
  "dtick": 48,
  "ins": 0
 },
 {
  "track": 3,
  "delta": 0,
  "tick": 19296,
  "byteIndex": 11839,
  "name": "Note on",
  "channel": 1,
  "noteNumber": 79,
  "noteName": "G5",
  "velocity": 79,
  "dtick": 48,
  "ins": 0
 },
 {
  "track": 3,
  "delta": 0,
  "tick": 19296,
  "byteIndex": 11843,
  "name": "Note on",
  "channel": 1,
  "noteNumber": 60,
  "noteName": "C4",
  "velocity": 79,
  "dtick": 48,
  "ins": 0
 },
 {
  "track": 3,
  "delta": 0,
  "tick": 19296,
  "byteIndex": 11847,
  "name": "Note on",
  "channel": 1,
  "noteNumber": 55,
  "noteName": "G3",
  "velocity": 79,
  "dtick": 48,
  "ins": 0
 },
 {
  "track": 3,
  "delta": 0,
  "tick": 19296,
  "byteIndex": 11851,
  "name": "Note on",
  "channel": 1,
  "noteNumber": 48,
  "noteName": "C3",
  "velocity": 79,
  "dtick": 48,
  "ins": 0
 },
 {
  "track": 3,
  "delta": 0,
  "tick": 19344,
  "byteIndex": 11875,
  "name": "Note on",
  "channel": 1,
  "noteNumber": 76,
  "noteName": "E5",
  "velocity": 79,
  "dtick": 48,
  "ins": 0
 },
 {
  "track": 3,
  "delta": 0,
  "tick": 19344,
  "byteIndex": 11879,
  "name": "Note on",
  "channel": 1,
  "noteNumber": 88,
  "noteName": "E6",
  "velocity": 79,
  "dtick": 48,
  "ins": 0
 },
 {
  "track": 3,
  "delta": 0,
  "tick": 19344,
  "byteIndex": 11883,
  "name": "Note on",
  "channel": 1,
  "noteNumber": 60,
  "noteName": "C4",
  "velocity": 79,
  "dtick": 48,
  "ins": 0
 },
 {
  "track": 3,
  "delta": 0,
  "tick": 19344,
  "byteIndex": 11887,
  "name": "Note on",
  "channel": 1,
  "noteNumber": 55,
  "noteName": "G3",
  "velocity": 79,
  "dtick": 48,
  "ins": 0
 },
 {
  "track": 3,
  "delta": 0,
  "tick": 19344,
  "byteIndex": 11891,
  "name": "Note on",
  "channel": 1,
  "noteNumber": 48,
  "noteName": "C3",
  "velocity": 79,
  "dtick": 48,
  "ins": 0
 },
 {
  "track": 3,
  "delta": 0,
  "tick": 19392,
  "byteIndex": 11915,
  "name": "Note on",
  "channel": 1,
  "noteNumber": 72,
  "noteName": "C5",
  "velocity": 79,
  "dtick": 48,
  "ins": 0
 },
 {
  "track": 3,
  "delta": 0,
  "tick": 19392,
  "byteIndex": 11919,
  "name": "Note on",
  "channel": 1,
  "noteNumber": 84,
  "noteName": "C6",
  "velocity": 79,
  "dtick": 48,
  "ins": 0
 },
 {
  "track": 3,
  "delta": 0,
  "tick": 19392,
  "byteIndex": 11923,
  "name": "Note on",
  "channel": 1,
  "noteNumber": 48,
  "noteName": "C3",
  "velocity": 79,
  "dtick": 48,
  "ins": 0
 },
 {
  "track": 3,
  "delta": 0,
  "tick": 19392,
  "byteIndex": 11927,
  "name": "Note on",
  "channel": 1,
  "noteNumber": 60,
  "noteName": "C4",
  "velocity": 79,
  "dtick": 48,
  "ins": 0
 },
 {
  "track": 3,
  "delta": 0,
  "tick": 19392,
  "byteIndex": 11931,
  "name": "Note on",
  "channel": 1,
  "noteNumber": 55,
  "noteName": "G3",
  "velocity": 79,
  "dtick": 48,
  "ins": 0
 },
 {
  "track": 3,
  "delta": 0,
  "tick": 19440,
  "byteIndex": 11955,
  "name": "Note on",
  "channel": 1,
  "noteNumber": 67,
  "noteName": "G4",
  "velocity": 79,
  "dtick": 48,
  "ins": 0
 },
 {
  "track": 3,
  "delta": 0,
  "tick": 19440,
  "byteIndex": 11959,
  "name": "Note on",
  "channel": 1,
  "noteNumber": 79,
  "noteName": "G5",
  "velocity": 79,
  "dtick": 48,
  "ins": 0
 },
 {
  "track": 3,
  "delta": 0,
  "tick": 19440,
  "byteIndex": 11963,
  "name": "Note on",
  "channel": 1,
  "noteNumber": 60,
  "noteName": "C4",
  "velocity": 79,
  "dtick": 48,
  "ins": 0
 },
 {
  "track": 3,
  "delta": 0,
  "tick": 19440,
  "byteIndex": 11967,
  "name": "Note on",
  "channel": 1,
  "noteNumber": 55,
  "noteName": "G3",
  "velocity": 79,
  "dtick": 48,
  "ins": 0
 },
 {
  "track": 3,
  "delta": 0,
  "tick": 19440,
  "byteIndex": 11971,
  "name": "Note on",
  "channel": 1,
  "noteNumber": 48,
  "noteName": "C3",
  "velocity": 79,
  "dtick": 48,
  "ins": 0
 },
 {
  "track": 3,
  "delta": 0,
  "tick": 19488,
  "byteIndex": 11995,
  "name": "Note on",
  "channel": 1,
  "noteNumber": 88,
  "noteName": "E6",
  "velocity": 79,
  "dtick": 48,
  "ins": 0
 },
 {
  "track": 3,
  "delta": 0,
  "tick": 19488,
  "byteIndex": 11999,
  "name": "Note on",
  "channel": 1,
  "noteNumber": 76,
  "noteName": "E5",
  "velocity": 79,
  "dtick": 48,
  "ins": 0
 },
 {
  "track": 3,
  "delta": 0,
  "tick": 19488,
  "byteIndex": 12003,
  "name": "Note on",
  "channel": 1,
  "noteNumber": 55,
  "noteName": "G3",
  "velocity": 79,
  "dtick": 48,
  "ins": 0
 },
 {
  "track": 3,
  "delta": 0,
  "tick": 19488,
  "byteIndex": 12007,
  "name": "Note on",
  "channel": 1,
  "noteNumber": 60,
  "noteName": "C4",
  "velocity": 79,
  "dtick": 48,
  "ins": 0
 },
 {
  "track": 3,
  "delta": 0,
  "tick": 19488,
  "byteIndex": 12011,
  "name": "Note on",
  "channel": 1,
  "noteNumber": 48,
  "noteName": "C3",
  "velocity": 79,
  "dtick": 48,
  "ins": 0
 },
 {
  "track": 3,
  "delta": 0,
  "tick": 19536,
  "byteIndex": 12035,
  "name": "Note on",
  "channel": 1,
  "noteNumber": 84,
  "noteName": "C6",
  "velocity": 79,
  "dtick": 48,
  "ins": 0
 },
 {
  "track": 3,
  "delta": 0,
  "tick": 19536,
  "byteIndex": 12039,
  "name": "Note on",
  "channel": 1,
  "noteNumber": 72,
  "noteName": "C5",
  "velocity": 79,
  "dtick": 48,
  "ins": 0
 },
 {
  "track": 3,
  "delta": 0,
  "tick": 19536,
  "byteIndex": 12043,
  "name": "Note on",
  "channel": 1,
  "noteNumber": 48,
  "noteName": "C3",
  "velocity": 79,
  "dtick": 48,
  "ins": 0
 },
 {
  "track": 3,
  "delta": 0,
  "tick": 19536,
  "byteIndex": 12047,
  "name": "Note on",
  "channel": 1,
  "noteNumber": 55,
  "noteName": "G3",
  "velocity": 79,
  "dtick": 48,
  "ins": 0
 },
 {
  "track": 3,
  "delta": 0,
  "tick": 19536,
  "byteIndex": 12051,
  "name": "Note on",
  "channel": 1,
  "noteNumber": 60,
  "noteName": "C4",
  "velocity": 79,
  "dtick": 48,
  "ins": 0
 },
 {
  "track": 3,
  "delta": 0,
  "tick": 19584,
  "byteIndex": 12075,
  "name": "Note on",
  "channel": 1,
  "noteNumber": 86,
  "noteName": "D6",
  "velocity": 79,
  "dtick": 48,
  "ins": 0
 },
 {
  "track": 3,
  "delta": 0,
  "tick": 19584,
  "byteIndex": 12079,
  "name": "Note on",
  "channel": 1,
  "noteNumber": 74,
  "noteName": "D5",
  "velocity": 79,
  "dtick": 48,
  "ins": 0
 },
 {
  "track": 3,
  "delta": 0,
  "tick": 19584,
  "byteIndex": 12083,
  "name": "Note on",
  "channel": 1,
  "noteNumber": 59,
  "noteName": "B3",
  "velocity": 79,
  "dtick": 48,
  "ins": 0
 },
 {
  "track": 3,
  "delta": 0,
  "tick": 19584,
  "byteIndex": 12087,
  "name": "Note on",
  "channel": 1,
  "noteNumber": 55,
  "noteName": "G3",
  "velocity": 79,
  "dtick": 48,
  "ins": 0
 },
 {
  "track": 3,
  "delta": 0,
  "tick": 19584,
  "byteIndex": 12091,
  "name": "Note on",
  "channel": 1,
  "noteNumber": 48,
  "noteName": "C3",
  "velocity": 79,
  "dtick": 48,
  "ins": 0
 },
 {
  "track": 3,
  "delta": 0,
  "tick": 19632,
  "byteIndex": 12115,
  "name": "Note on",
  "channel": 1,
  "noteNumber": 84,
  "noteName": "C6",
  "velocity": 79,
  "dtick": 48,
  "ins": 0
 },
 {
  "track": 3,
  "delta": 0,
  "tick": 19632,
  "byteIndex": 12119,
  "name": "Note on",
  "channel": 1,
  "noteNumber": 72,
  "noteName": "C5",
  "velocity": 79,
  "dtick": 48,
  "ins": 0
 },
 {
  "track": 3,
  "delta": 0,
  "tick": 19632,
  "byteIndex": 12123,
  "name": "Note on",
  "channel": 1,
  "noteNumber": 59,
  "noteName": "B3",
  "velocity": 79,
  "dtick": 48,
  "ins": 0
 },
 {
  "track": 3,
  "delta": 0,
  "tick": 19632,
  "byteIndex": 12127,
  "name": "Note on",
  "channel": 1,
  "noteNumber": 48,
  "noteName": "C3",
  "velocity": 79,
  "dtick": 48,
  "ins": 0
 },
 {
  "track": 3,
  "delta": 0,
  "tick": 19632,
  "byteIndex": 12131,
  "name": "Note on",
  "channel": 1,
  "noteNumber": 55,
  "noteName": "G3",
  "velocity": 79,
  "dtick": 48,
  "ins": 0
 },
 {
  "track": 3,
  "delta": 0,
  "tick": 19680,
  "byteIndex": 12155,
  "name": "Note on",
  "channel": 1,
  "noteNumber": 79,
  "noteName": "G5",
  "velocity": 79,
  "dtick": 48,
  "ins": 0
 },
 {
  "track": 3,
  "delta": 0,
  "tick": 19680,
  "byteIndex": 12159,
  "name": "Note on",
  "channel": 1,
  "noteNumber": 67,
  "noteName": "G4",
  "velocity": 79,
  "dtick": 48,
  "ins": 0
 },
 {
  "track": 3,
  "delta": 0,
  "tick": 19680,
  "byteIndex": 12163,
  "name": "Note on",
  "channel": 1,
  "noteNumber": 59,
  "noteName": "B3",
  "velocity": 79,
  "dtick": 48,
  "ins": 0
 },
 {
  "track": 3,
  "delta": 0,
  "tick": 19680,
  "byteIndex": 12167,
  "name": "Note on",
  "channel": 1,
  "noteNumber": 59,
  "noteName": "B3",
  "velocity": 79,
  "dtick": 48,
  "ins": 0
 },
 {
  "track": 3,
  "delta": 0,
  "tick": 19680,
  "byteIndex": 12171,
  "name": "Note on",
  "channel": 1,
  "noteNumber": 59,
  "noteName": "B3",
  "velocity": 79,
  "dtick": 48,
  "ins": 0
 },
 {
  "track": 3,
  "delta": 0,
  "tick": 19680,
  "byteIndex": 12175,
  "name": "Note on",
  "channel": 1,
  "noteNumber": 55,
  "noteName": "G3",
  "velocity": 79,
  "dtick": 48,
  "ins": 0
 },
 {
  "track": 3,
  "delta": 0,
  "tick": 19680,
  "byteIndex": 12179,
  "name": "Note on",
  "channel": 1,
  "noteNumber": 48,
  "noteName": "C3",
  "velocity": 79,
  "dtick": 48,
  "ins": 0
 },
 {
  "track": 3,
  "delta": 0,
  "tick": 19728,
  "byteIndex": 12211,
  "name": "Note on",
  "channel": 1,
  "noteNumber": 86,
  "noteName": "D6",
  "velocity": 79,
  "dtick": 48,
  "ins": 0
 },
 {
  "track": 3,
  "delta": 0,
  "tick": 19728,
  "byteIndex": 12215,
  "name": "Note on",
  "channel": 1,
  "noteNumber": 74,
  "noteName": "D5",
  "velocity": 79,
  "dtick": 48,
  "ins": 0
 },
 {
  "track": 3,
  "delta": 0,
  "tick": 19728,
  "byteIndex": 12219,
  "name": "Note on",
  "channel": 1,
  "noteNumber": 48,
  "noteName": "C3",
  "velocity": 79,
  "dtick": 48,
  "ins": 0
 },
 {
  "track": 3,
  "delta": 0,
  "tick": 19728,
  "byteIndex": 12223,
  "name": "Note on",
  "channel": 1,
  "noteNumber": 55,
  "noteName": "G3",
  "velocity": 79,
  "dtick": 48,
  "ins": 0
 },
 {
  "track": 3,
  "delta": 0,
  "tick": 19728,
  "byteIndex": 12227,
  "name": "Note on",
  "channel": 1,
  "noteNumber": 59,
  "noteName": "B3",
  "velocity": 79,
  "dtick": 48,
  "ins": 0
 },
 {
  "track": 3,
  "delta": 0,
  "tick": 19776,
  "byteIndex": 12251,
  "name": "Note on",
  "channel": 1,
  "noteNumber": 84,
  "noteName": "C6",
  "velocity": 79,
  "dtick": 48,
  "ins": 0
 },
 {
  "track": 3,
  "delta": 0,
  "tick": 19776,
  "byteIndex": 12255,
  "name": "Note on",
  "channel": 1,
  "noteNumber": 72,
  "noteName": "C5",
  "velocity": 79,
  "dtick": 48,
  "ins": 0
 },
 {
  "track": 3,
  "delta": 0,
  "tick": 19776,
  "byteIndex": 12259,
  "name": "Note on",
  "channel": 1,
  "noteNumber": 59,
  "noteName": "B3",
  "velocity": 79,
  "dtick": 48,
  "ins": 0
 },
 {
  "track": 3,
  "delta": 0,
  "tick": 19776,
  "byteIndex": 12263,
  "name": "Note on",
  "channel": 1,
  "noteNumber": 48,
  "noteName": "C3",
  "velocity": 79,
  "dtick": 48,
  "ins": 0
 },
 {
  "track": 3,
  "delta": 0,
  "tick": 19776,
  "byteIndex": 12267,
  "name": "Note on",
  "channel": 1,
  "noteNumber": 55,
  "noteName": "G3",
  "velocity": 79,
  "dtick": 48,
  "ins": 0
 },
 {
  "track": 3,
  "delta": 0,
  "tick": 19824,
  "byteIndex": 12291,
  "name": "Note on",
  "channel": 1,
  "noteNumber": 67,
  "noteName": "G4",
  "velocity": 79,
  "dtick": 48,
  "ins": 0
 },
 {
  "track": 3,
  "delta": 0,
  "tick": 19824,
  "byteIndex": 12295,
  "name": "Note on",
  "channel": 1,
  "noteNumber": 79,
  "noteName": "G5",
  "velocity": 79,
  "dtick": 48,
  "ins": 0
 },
 {
  "track": 3,
  "delta": 0,
  "tick": 19824,
  "byteIndex": 12299,
  "name": "Note on",
  "channel": 1,
  "noteNumber": 59,
  "noteName": "B3",
  "velocity": 79,
  "dtick": 48,
  "ins": 0
 },
 {
  "track": 3,
  "delta": 0,
  "tick": 19824,
  "byteIndex": 12303,
  "name": "Note on",
  "channel": 1,
  "noteNumber": 48,
  "noteName": "C3",
  "velocity": 79,
  "dtick": 48,
  "ins": 0
 },
 {
  "track": 3,
  "delta": 0,
  "tick": 19824,
  "byteIndex": 12307,
  "name": "Note on",
  "channel": 1,
  "noteNumber": 55,
  "noteName": "G3",
  "velocity": 79,
  "dtick": 48,
  "ins": 0
 },
 {
  "track": 3,
  "delta": 0,
  "tick": 19872,
  "byteIndex": 12331,
  "name": "Note on",
  "channel": 1,
  "noteNumber": 74,
  "noteName": "D5",
  "velocity": 79,
  "dtick": 48,
  "ins": 0
 },
 {
  "track": 3,
  "delta": 0,
  "tick": 19872,
  "byteIndex": 12335,
  "name": "Note on",
  "channel": 1,
  "noteNumber": 86,
  "noteName": "D6",
  "velocity": 79,
  "dtick": 48,
  "ins": 0
 },
 {
  "track": 3,
  "delta": 0,
  "tick": 19872,
  "byteIndex": 12339,
  "name": "Note on",
  "channel": 1,
  "noteNumber": 55,
  "noteName": "G3",
  "velocity": 79,
  "dtick": 48,
  "ins": 0
 },
 {
  "track": 3,
  "delta": 0,
  "tick": 19872,
  "byteIndex": 12343,
  "name": "Note on",
  "channel": 1,
  "noteNumber": 48,
  "noteName": "C3",
  "velocity": 79,
  "dtick": 48,
  "ins": 0
 },
 {
  "track": 3,
  "delta": 0,
  "tick": 19872,
  "byteIndex": 12347,
  "name": "Note on",
  "channel": 1,
  "noteNumber": 59,
  "noteName": "B3",
  "velocity": 79,
  "dtick": 48,
  "ins": 0
 },
 {
  "track": 3,
  "delta": 0,
  "tick": 19920,
  "byteIndex": 12371,
  "name": "Note on",
  "channel": 1,
  "noteNumber": 76,
  "noteName": "E5",
  "velocity": 79,
  "dtick": 48,
  "ins": 0
 },
 {
  "track": 3,
  "delta": 0,
  "tick": 19920,
  "byteIndex": 12375,
  "name": "Note on",
  "channel": 1,
  "noteNumber": 88,
  "noteName": "E6",
  "velocity": 79,
  "dtick": 48,
  "ins": 0
 },
 {
  "track": 3,
  "delta": 0,
  "tick": 19920,
  "byteIndex": 12379,
  "name": "Note on",
  "channel": 1,
  "noteNumber": 48,
  "noteName": "C3",
  "velocity": 79,
  "dtick": 48,
  "ins": 0
 },
 {
  "track": 3,
  "delta": 0,
  "tick": 19920,
  "byteIndex": 12383,
  "name": "Note on",
  "channel": 1,
  "noteNumber": 55,
  "noteName": "G3",
  "velocity": 79,
  "dtick": 48,
  "ins": 0
 },
 {
  "track": 3,
  "delta": 0,
  "tick": 19920,
  "byteIndex": 12387,
  "name": "Note on",
  "channel": 1,
  "noteNumber": 59,
  "noteName": "B3",
  "velocity": 79,
  "dtick": 48,
  "ins": 0
 },
 {
  "track": 3,
  "delta": 0,
  "tick": 19968,
  "byteIndex": 12411,
  "name": "Note on",
  "channel": 1,
  "noteNumber": 57,
  "noteName": "A3",
  "velocity": 79,
  "dtick": 48,
  "ins": 0
 },
 {
  "track": 3,
  "delta": 0,
  "tick": 19968,
  "byteIndex": 12415,
  "name": "Note on",
  "channel": 1,
  "noteNumber": 45,
  "noteName": "A2",
  "velocity": 79,
  "dtick": 48,
  "ins": 0
 },
 {
  "track": 3,
  "delta": 0,
  "tick": 19968,
  "byteIndex": 12419,
  "name": "Note on",
  "channel": 1,
  "noteNumber": 52,
  "noteName": "E3",
  "velocity": 79,
  "dtick": 48,
  "ins": 0
 },
 {
  "track": 3,
  "delta": 0,
  "tick": 19968,
  "byteIndex": 12423,
  "name": "Note on",
  "channel": 1,
  "noteNumber": 79,
  "noteName": "G5",
  "velocity": 79,
  "dtick": 48,
  "ins": 0
 },
 {
  "track": 3,
  "delta": 0,
  "tick": 19968,
  "byteIndex": 12427,
  "name": "Note on",
  "channel": 1,
  "noteNumber": 91,
  "noteName": "G6",
  "velocity": 79,
  "dtick": 48,
  "ins": 0
 },
 {
  "track": 3,
  "delta": 0,
  "tick": 20016,
  "byteIndex": 12451,
  "name": "Note on",
  "channel": 1,
  "noteNumber": 45,
  "noteName": "A2",
  "velocity": 79,
  "dtick": 48,
  "ins": 0
 },
 {
  "track": 3,
  "delta": 0,
  "tick": 20016,
  "byteIndex": 12455,
  "name": "Note on",
  "channel": 1,
  "noteNumber": 52,
  "noteName": "E3",
  "velocity": 79,
  "dtick": 48,
  "ins": 0
 },
 {
  "track": 3,
  "delta": 0,
  "tick": 20016,
  "byteIndex": 12459,
  "name": "Note on",
  "channel": 1,
  "noteNumber": 57,
  "noteName": "A3",
  "velocity": 79,
  "dtick": 48,
  "ins": 0
 },
 {
  "track": 3,
  "delta": 0,
  "tick": 20016,
  "byteIndex": 12463,
  "name": "Note on",
  "channel": 1,
  "noteNumber": 76,
  "noteName": "E5",
  "velocity": 79,
  "dtick": 48,
  "ins": 0
 },
 {
  "track": 3,
  "delta": 0,
  "tick": 20016,
  "byteIndex": 12467,
  "name": "Note on",
  "channel": 1,
  "noteNumber": 88,
  "noteName": "E6",
  "velocity": 79,
  "dtick": 48,
  "ins": 0
 },
 {
  "track": 3,
  "delta": 0,
  "tick": 20064,
  "byteIndex": 12491,
  "name": "Note on",
  "channel": 1,
  "noteNumber": 45,
  "noteName": "A2",
  "velocity": 79,
  "dtick": 48,
  "ins": 0
 },
 {
  "track": 3,
  "delta": 0,
  "tick": 20064,
  "byteIndex": 12495,
  "name": "Note on",
  "channel": 1,
  "noteNumber": 52,
  "noteName": "E3",
  "velocity": 79,
  "dtick": 48,
  "ins": 0
 },
 {
  "track": 3,
  "delta": 0,
  "tick": 20064,
  "byteIndex": 12499,
  "name": "Note on",
  "channel": 1,
  "noteNumber": 57,
  "noteName": "A3",
  "velocity": 79,
  "dtick": 48,
  "ins": 0
 },
 {
  "track": 3,
  "delta": 0,
  "tick": 20064,
  "byteIndex": 12503,
  "name": "Note on",
  "channel": 1,
  "noteNumber": 72,
  "noteName": "C5",
  "velocity": 79,
  "dtick": 48,
  "ins": 0
 },
 {
  "track": 3,
  "delta": 0,
  "tick": 20064,
  "byteIndex": 12507,
  "name": "Note on",
  "channel": 1,
  "noteNumber": 84,
  "noteName": "C6",
  "velocity": 79,
  "dtick": 48,
  "ins": 0
 },
 {
  "track": 3,
  "delta": 0,
  "tick": 20112,
  "byteIndex": 12531,
  "name": "Note on",
  "channel": 1,
  "noteNumber": 52,
  "noteName": "E3",
  "velocity": 79,
  "dtick": 48,
  "ins": 0
 },
 {
  "track": 3,
  "delta": 0,
  "tick": 20112,
  "byteIndex": 12535,
  "name": "Note on",
  "channel": 1,
  "noteNumber": 57,
  "noteName": "A3",
  "velocity": 79,
  "dtick": 48,
  "ins": 0
 },
 {
  "track": 3,
  "delta": 0,
  "tick": 20112,
  "byteIndex": 12539,
  "name": "Note on",
  "channel": 1,
  "noteNumber": 45,
  "noteName": "A2",
  "velocity": 79,
  "dtick": 48,
  "ins": 0
 },
 {
  "track": 3,
  "delta": 0,
  "tick": 20112,
  "byteIndex": 12543,
  "name": "Note on",
  "channel": 1,
  "noteNumber": 91,
  "noteName": "G6",
  "velocity": 79,
  "dtick": 48,
  "ins": 0
 },
 {
  "track": 3,
  "delta": 0,
  "tick": 20112,
  "byteIndex": 12547,
  "name": "Note on",
  "channel": 1,
  "noteNumber": 79,
  "noteName": "G5",
  "velocity": 79,
  "dtick": 48,
  "ins": 0
 },
 {
  "track": 3,
  "delta": 0,
  "tick": 20160,
  "byteIndex": 12571,
  "name": "Note on",
  "channel": 1,
  "noteNumber": 52,
  "noteName": "E3",
  "velocity": 79,
  "dtick": 48,
  "ins": 0
 },
 {
  "track": 3,
  "delta": 0,
  "tick": 20160,
  "byteIndex": 12575,
  "name": "Note on",
  "channel": 1,
  "noteNumber": 57,
  "noteName": "A3",
  "velocity": 79,
  "dtick": 48,
  "ins": 0
 },
 {
  "track": 3,
  "delta": 0,
  "tick": 20160,
  "byteIndex": 12579,
  "name": "Note on",
  "channel": 1,
  "noteNumber": 45,
  "noteName": "A2",
  "velocity": 79,
  "dtick": 48,
  "ins": 0
 },
 {
  "track": 3,
  "delta": 0,
  "tick": 20160,
  "byteIndex": 12583,
  "name": "Note on",
  "channel": 1,
  "noteNumber": 88,
  "noteName": "E6",
  "velocity": 79,
  "dtick": 48,
  "ins": 0
 },
 {
  "track": 3,
  "delta": 0,
  "tick": 20160,
  "byteIndex": 12587,
  "name": "Note on",
  "channel": 1,
  "noteNumber": 76,
  "noteName": "E5",
  "velocity": 79,
  "dtick": 48,
  "ins": 0
 },
 {
  "track": 3,
  "delta": 0,
  "tick": 20208,
  "byteIndex": 12611,
  "name": "Note on",
  "channel": 1,
  "noteNumber": 57,
  "noteName": "A3",
  "velocity": 79,
  "dtick": 48,
  "ins": 0
 },
 {
  "track": 3,
  "delta": 0,
  "tick": 20208,
  "byteIndex": 12615,
  "name": "Note on",
  "channel": 1,
  "noteNumber": 52,
  "noteName": "E3",
  "velocity": 79,
  "dtick": 48,
  "ins": 0
 },
 {
  "track": 3,
  "delta": 0,
  "tick": 20208,
  "byteIndex": 12619,
  "name": "Note on",
  "channel": 1,
  "noteNumber": 45,
  "noteName": "A2",
  "velocity": 79,
  "dtick": 48,
  "ins": 0
 },
 {
  "track": 3,
  "delta": 0,
  "tick": 20208,
  "byteIndex": 12623,
  "name": "Note on",
  "channel": 1,
  "noteNumber": 72,
  "noteName": "C5",
  "velocity": 79,
  "dtick": 48,
  "ins": 0
 },
 {
  "track": 3,
  "delta": 0,
  "tick": 20208,
  "byteIndex": 12627,
  "name": "Note on",
  "channel": 1,
  "noteNumber": 84,
  "noteName": "C6",
  "velocity": 79,
  "dtick": 48,
  "ins": 0
 },
 {
  "track": 3,
  "delta": 0,
  "tick": 20256,
  "byteIndex": 12651,
  "name": "Note on",
  "channel": 1,
  "noteNumber": 52,
  "noteName": "E3",
  "velocity": 79,
  "dtick": 48,
  "ins": 0
 },
 {
  "track": 3,
  "delta": 0,
  "tick": 20256,
  "byteIndex": 12655,
  "name": "Note on",
  "channel": 1,
  "noteNumber": 57,
  "noteName": "A3",
  "velocity": 79,
  "dtick": 48,
  "ins": 0
 },
 {
  "track": 3,
  "delta": 0,
  "tick": 20256,
  "byteIndex": 12659,
  "name": "Note on",
  "channel": 1,
  "noteNumber": 45,
  "noteName": "A2",
  "velocity": 79,
  "dtick": 48,
  "ins": 0
 },
 {
  "track": 3,
  "delta": 0,
  "tick": 20256,
  "byteIndex": 12663,
  "name": "Note on",
  "channel": 1,
  "noteNumber": 79,
  "noteName": "G5",
  "velocity": 79,
  "dtick": 48,
  "ins": 0
 },
 {
  "track": 3,
  "delta": 0,
  "tick": 20256,
  "byteIndex": 12667,
  "name": "Note on",
  "channel": 1,
  "noteNumber": 91,
  "noteName": "G6",
  "velocity": 79,
  "dtick": 48,
  "ins": 0
 },
 {
  "track": 3,
  "delta": 0,
  "tick": 20304,
  "byteIndex": 12691,
  "name": "Note on",
  "channel": 1,
  "noteNumber": 45,
  "noteName": "A2",
  "velocity": 79,
  "dtick": 48,
  "ins": 0
 },
 {
  "track": 3,
  "delta": 0,
  "tick": 20304,
  "byteIndex": 12695,
  "name": "Note on",
  "channel": 1,
  "noteNumber": 52,
  "noteName": "E3",
  "velocity": 79,
  "dtick": 48,
  "ins": 0
 },
 {
  "track": 3,
  "delta": 0,
  "tick": 20304,
  "byteIndex": 12699,
  "name": "Note on",
  "channel": 1,
  "noteNumber": 57,
  "noteName": "A3",
  "velocity": 79,
  "dtick": 48,
  "ins": 0
 },
 {
  "track": 3,
  "delta": 0,
  "tick": 20304,
  "byteIndex": 12703,
  "name": "Note on",
  "channel": 1,
  "noteNumber": 88,
  "noteName": "E6",
  "velocity": 79,
  "dtick": 48,
  "ins": 0
 },
 {
  "track": 3,
  "delta": 0,
  "tick": 20304,
  "byteIndex": 12707,
  "name": "Note on",
  "channel": 1,
  "noteNumber": 76,
  "noteName": "E5",
  "velocity": 79,
  "dtick": 48,
  "ins": 0
 },
 {
  "track": 3,
  "delta": 0,
  "tick": 20352,
  "byteIndex": 12731,
  "name": "Note on",
  "channel": 1,
  "noteNumber": 41,
  "noteName": "F2",
  "velocity": 79,
  "dtick": 48,
  "ins": 0
 },
 {
  "track": 3,
  "delta": 0,
  "tick": 20352,
  "byteIndex": 12735,
  "name": "Note on",
  "channel": 1,
  "noteNumber": 53,
  "noteName": "F3",
  "velocity": 79,
  "dtick": 48,
  "ins": 0
 },
 {
  "track": 3,
  "delta": 0,
  "tick": 20352,
  "byteIndex": 12739,
  "name": "Note on",
  "channel": 1,
  "noteNumber": 48,
  "noteName": "C3",
  "velocity": 79,
  "dtick": 48,
  "ins": 0
 },
 {
  "track": 3,
  "delta": 0,
  "tick": 20352,
  "byteIndex": 12743,
  "name": "Note on",
  "channel": 1,
  "noteNumber": 89,
  "noteName": "F6",
  "velocity": 79,
  "dtick": 48,
  "ins": 0
 },
 {
  "track": 3,
  "delta": 0,
  "tick": 20352,
  "byteIndex": 12747,
  "name": "Note on",
  "channel": 1,
  "noteNumber": 77,
  "noteName": "F5",
  "velocity": 79,
  "dtick": 48,
  "ins": 0
 },
 {
  "track": 3,
  "delta": 0,
  "tick": 20400,
  "byteIndex": 12771,
  "name": "Note on",
  "channel": 1,
  "noteNumber": 41,
  "noteName": "F2",
  "velocity": 79,
  "dtick": 48,
  "ins": 0
 },
 {
  "track": 3,
  "delta": 0,
  "tick": 20400,
  "byteIndex": 12775,
  "name": "Note on",
  "channel": 1,
  "noteNumber": 48,
  "noteName": "C3",
  "velocity": 79,
  "dtick": 48,
  "ins": 0
 },
 {
  "track": 3,
  "delta": 0,
  "tick": 20400,
  "byteIndex": 12779,
  "name": "Note on",
  "channel": 1,
  "noteNumber": 53,
  "noteName": "F3",
  "velocity": 79,
  "dtick": 48,
  "ins": 0
 },
 {
  "track": 3,
  "delta": 0,
  "tick": 20400,
  "byteIndex": 12783,
  "name": "Note on",
  "channel": 1,
  "noteNumber": 88,
  "noteName": "E6",
  "velocity": 79,
  "dtick": 48,
  "ins": 0
 },
 {
  "track": 3,
  "delta": 0,
  "tick": 20400,
  "byteIndex": 12787,
  "name": "Note on",
  "channel": 1,
  "noteNumber": 76,
  "noteName": "E5",
  "velocity": 79,
  "dtick": 48,
  "ins": 0
 },
 {
  "track": 3,
  "delta": 0,
  "tick": 20448,
  "byteIndex": 12811,
  "name": "Note on",
  "channel": 1,
  "noteNumber": 53,
  "noteName": "F3",
  "velocity": 79,
  "dtick": 48,
  "ins": 0
 },
 {
  "track": 3,
  "delta": 0,
  "tick": 20448,
  "byteIndex": 12815,
  "name": "Note on",
  "channel": 1,
  "noteNumber": 48,
  "noteName": "C3",
  "velocity": 79,
  "dtick": 48,
  "ins": 0
 },
 {
  "track": 3,
  "delta": 0,
  "tick": 20448,
  "byteIndex": 12819,
  "name": "Note on",
  "channel": 1,
  "noteNumber": 41,
  "noteName": "F2",
  "velocity": 79,
  "dtick": 48,
  "ins": 0
 },
 {
  "track": 3,
  "delta": 0,
  "tick": 20448,
  "byteIndex": 12823,
  "name": "Note on",
  "channel": 1,
  "noteNumber": 84,
  "noteName": "C6",
  "velocity": 79,
  "dtick": 48,
  "ins": 0
 },
 {
  "track": 3,
  "delta": 0,
  "tick": 20448,
  "byteIndex": 12827,
  "name": "Note on",
  "channel": 1,
  "noteNumber": 72,
  "noteName": "C5",
  "velocity": 79,
  "dtick": 48,
  "ins": 0
 },
 {
  "track": 3,
  "delta": 0,
  "tick": 20496,
  "byteIndex": 12851,
  "name": "Note on",
  "channel": 1,
  "noteNumber": 48,
  "noteName": "C3",
  "velocity": 79,
  "dtick": 48,
  "ins": 0
 },
 {
  "track": 3,
  "delta": 0,
  "tick": 20496,
  "byteIndex": 12855,
  "name": "Note on",
  "channel": 1,
  "noteNumber": 53,
  "noteName": "F3",
  "velocity": 79,
  "dtick": 48,
  "ins": 0
 },
 {
  "track": 3,
  "delta": 0,
  "tick": 20496,
  "byteIndex": 12859,
  "name": "Note on",
  "channel": 1,
  "noteNumber": 41,
  "noteName": "F2",
  "velocity": 79,
  "dtick": 48,
  "ins": 0
 },
 {
  "track": 3,
  "delta": 0,
  "tick": 20496,
  "byteIndex": 12863,
  "name": "Note on",
  "channel": 1,
  "noteNumber": 77,
  "noteName": "F5",
  "velocity": 79,
  "dtick": 48,
  "ins": 0
 },
 {
  "track": 3,
  "delta": 0,
  "tick": 20496,
  "byteIndex": 12867,
  "name": "Note on",
  "channel": 1,
  "noteNumber": 89,
  "noteName": "F6",
  "velocity": 79,
  "dtick": 48,
  "ins": 0
 },
 {
  "track": 3,
  "delta": 0,
  "tick": 20544,
  "byteIndex": 12891,
  "name": "Note on",
  "channel": 1,
  "noteNumber": 48,
  "noteName": "C3",
  "velocity": 79,
  "dtick": 48,
  "ins": 0
 },
 {
  "track": 3,
  "delta": 0,
  "tick": 20544,
  "byteIndex": 12895,
  "name": "Note on",
  "channel": 1,
  "noteNumber": 53,
  "noteName": "F3",
  "velocity": 79,
  "dtick": 48,
  "ins": 0
 },
 {
  "track": 3,
  "delta": 0,
  "tick": 20544,
  "byteIndex": 12899,
  "name": "Note on",
  "channel": 1,
  "noteNumber": 41,
  "noteName": "F2",
  "velocity": 79,
  "dtick": 48,
  "ins": 0
 },
 {
  "track": 3,
  "delta": 0,
  "tick": 20544,
  "byteIndex": 12903,
  "name": "Note on",
  "channel": 1,
  "noteNumber": 76,
  "noteName": "E5",
  "velocity": 79,
  "dtick": 48,
  "ins": 0
 },
 {
  "track": 3,
  "delta": 0,
  "tick": 20544,
  "byteIndex": 12907,
  "name": "Note on",
  "channel": 1,
  "noteNumber": 88,
  "noteName": "E6",
  "velocity": 79,
  "dtick": 48,
  "ins": 0
 },
 {
  "track": 3,
  "delta": 0,
  "tick": 20592,
  "byteIndex": 12931,
  "name": "Note on",
  "channel": 1,
  "noteNumber": 41,
  "noteName": "F2",
  "velocity": 79,
  "dtick": 48,
  "ins": 0
 },
 {
  "track": 3,
  "delta": 0,
  "tick": 20592,
  "byteIndex": 12935,
  "name": "Note on",
  "channel": 1,
  "noteNumber": 48,
  "noteName": "C3",
  "velocity": 79,
  "dtick": 48,
  "ins": 0
 },
 {
  "track": 3,
  "delta": 0,
  "tick": 20592,
  "byteIndex": 12939,
  "name": "Note on",
  "channel": 1,
  "noteNumber": 53,
  "noteName": "F3",
  "velocity": 79,
  "dtick": 48,
  "ins": 0
 },
 {
  "track": 3,
  "delta": 0,
  "tick": 20592,
  "byteIndex": 12943,
  "name": "Note on",
  "channel": 1,
  "noteNumber": 84,
  "noteName": "C6",
  "velocity": 79,
  "dtick": 48,
  "ins": 0
 },
 {
  "track": 3,
  "delta": 0,
  "tick": 20592,
  "byteIndex": 12947,
  "name": "Note on",
  "channel": 1,
  "noteNumber": 72,
  "noteName": "C5",
  "velocity": 79,
  "dtick": 48,
  "ins": 0
 },
 {
  "track": 3,
  "delta": 0,
  "tick": 20640,
  "byteIndex": 12971,
  "name": "Note on",
  "channel": 1,
  "noteNumber": 48,
  "noteName": "C3",
  "velocity": 79,
  "dtick": 48,
  "ins": 0
 },
 {
  "track": 3,
  "delta": 0,
  "tick": 20640,
  "byteIndex": 12975,
  "name": "Note on",
  "channel": 1,
  "noteNumber": 53,
  "noteName": "F3",
  "velocity": 79,
  "dtick": 48,
  "ins": 0
 },
 {
  "track": 3,
  "delta": 0,
  "tick": 20640,
  "byteIndex": 12979,
  "name": "Note on",
  "channel": 1,
  "noteNumber": 41,
  "noteName": "F2",
  "velocity": 79,
  "dtick": 48,
  "ins": 0
 },
 {
  "track": 3,
  "delta": 0,
  "tick": 20640,
  "byteIndex": 12983,
  "name": "Note on",
  "channel": 1,
  "noteNumber": 89,
  "noteName": "F6",
  "velocity": 79,
  "dtick": 48,
  "ins": 0
 },
 {
  "track": 3,
  "delta": 0,
  "tick": 20640,
  "byteIndex": 12987,
  "name": "Note on",
  "channel": 1,
  "noteNumber": 77,
  "noteName": "F5",
  "velocity": 79,
  "dtick": 48,
  "ins": 0
 },
 {
  "track": 3,
  "delta": 0,
  "tick": 20688,
  "byteIndex": 13011,
  "name": "Note on",
  "channel": 1,
  "noteNumber": 41,
  "noteName": "F2",
  "velocity": 79,
  "dtick": 48,
  "ins": 0
 },
 {
  "track": 3,
  "delta": 0,
  "tick": 20688,
  "byteIndex": 13015,
  "name": "Note on",
  "channel": 1,
  "noteNumber": 48,
  "noteName": "C3",
  "velocity": 79,
  "dtick": 48,
  "ins": 0
 },
 {
  "track": 3,
  "delta": 0,
  "tick": 20688,
  "byteIndex": 13019,
  "name": "Note on",
  "channel": 1,
  "noteNumber": 53,
  "noteName": "F3",
  "velocity": 79,
  "dtick": 48,
  "ins": 0
 },
 {
  "track": 3,
  "delta": 0,
  "tick": 20688,
  "byteIndex": 13023,
  "name": "Note on",
  "channel": 1,
  "noteNumber": 88,
  "noteName": "E6",
  "velocity": 79,
  "dtick": 48,
  "ins": 0
 },
 {
  "track": 3,
  "delta": 0,
  "tick": 20688,
  "byteIndex": 13027,
  "name": "Note on",
  "channel": 1,
  "noteNumber": 76,
  "noteName": "E5",
  "velocity": 79,
  "dtick": 48,
  "ins": 0
 },
 {
  "track": 3,
  "delta": 0,
  "tick": 20736,
  "byteIndex": 13051,
  "name": "Note on",
  "channel": 1,
  "noteNumber": 55,
  "noteName": "G3",
  "velocity": 79,
  "dtick": 48,
  "ins": 0
 },
 {
  "track": 3,
  "delta": 0,
  "tick": 20736,
  "byteIndex": 13055,
  "name": "Note on",
  "channel": 1,
  "noteNumber": 60,
  "noteName": "C4",
  "velocity": 79,
  "dtick": 48,
  "ins": 0
 },
 {
  "track": 3,
  "delta": 0,
  "tick": 20736,
  "byteIndex": 13059,
  "name": "Note on",
  "channel": 1,
  "noteNumber": 48,
  "noteName": "C3",
  "velocity": 79,
  "dtick": 48,
  "ins": 0
 },
 {
  "track": 3,
  "delta": 0,
  "tick": 20736,
  "byteIndex": 13063,
  "name": "Note on",
  "channel": 1,
  "noteNumber": 88,
  "noteName": "E6",
  "velocity": 79,
  "dtick": 48,
  "ins": 0
 },
 {
  "track": 3,
  "delta": 0,
  "tick": 20736,
  "byteIndex": 13067,
  "name": "Note on",
  "channel": 1,
  "noteNumber": 76,
  "noteName": "E5",
  "velocity": 79,
  "dtick": 48,
  "ins": 0
 },
 {
  "track": 3,
  "delta": 0,
  "tick": 20784,
  "byteIndex": 13091,
  "name": "Note on",
  "channel": 1,
  "noteNumber": 48,
  "noteName": "C3",
  "velocity": 79,
  "dtick": 48,
  "ins": 0
 },
 {
  "track": 3,
  "delta": 0,
  "tick": 20784,
  "byteIndex": 13095,
  "name": "Note on",
  "channel": 1,
  "noteNumber": 55,
  "noteName": "G3",
  "velocity": 79,
  "dtick": 48,
  "ins": 0
 },
 {
  "track": 3,
  "delta": 0,
  "tick": 20784,
  "byteIndex": 13099,
  "name": "Note on",
  "channel": 1,
  "noteNumber": 60,
  "noteName": "C4",
  "velocity": 79,
  "dtick": 48,
  "ins": 0
 },
 {
  "track": 3,
  "delta": 0,
  "tick": 20784,
  "byteIndex": 13103,
  "name": "Note on",
  "channel": 1,
  "noteNumber": 84,
  "noteName": "C6",
  "velocity": 79,
  "dtick": 48,
  "ins": 0
 },
 {
  "track": 3,
  "delta": 0,
  "tick": 20784,
  "byteIndex": 13107,
  "name": "Note on",
  "channel": 1,
  "noteNumber": 72,
  "noteName": "C5",
  "velocity": 79,
  "dtick": 48,
  "ins": 0
 },
 {
  "track": 3,
  "delta": 0,
  "tick": 20832,
  "byteIndex": 13131,
  "name": "Note on",
  "channel": 1,
  "noteNumber": 60,
  "noteName": "C4",
  "velocity": 79,
  "dtick": 48,
  "ins": 0
 },
 {
  "track": 3,
  "delta": 0,
  "tick": 20832,
  "byteIndex": 13135,
  "name": "Note on",
  "channel": 1,
  "noteNumber": 55,
  "noteName": "G3",
  "velocity": 79,
  "dtick": 48,
  "ins": 0
 },
 {
  "track": 3,
  "delta": 0,
  "tick": 20832,
  "byteIndex": 13139,
  "name": "Note on",
  "channel": 1,
  "noteNumber": 48,
  "noteName": "C3",
  "velocity": 79,
  "dtick": 48,
  "ins": 0
 },
 {
  "track": 3,
  "delta": 0,
  "tick": 20832,
  "byteIndex": 13143,
  "name": "Note on",
  "channel": 1,
  "noteNumber": 67,
  "noteName": "G4",
  "velocity": 79,
  "dtick": 48,
  "ins": 0
 },
 {
  "track": 3,
  "delta": 0,
  "tick": 20832,
  "byteIndex": 13147,
  "name": "Note on",
  "channel": 1,
  "noteNumber": 79,
  "noteName": "G5",
  "velocity": 79,
  "dtick": 48,
  "ins": 0
 },
 {
  "track": 3,
  "delta": 0,
  "tick": 20880,
  "byteIndex": 13171,
  "name": "Note on",
  "channel": 1,
  "noteNumber": 60,
  "noteName": "C4",
  "velocity": 79,
  "dtick": 48,
  "ins": 0
 },
 {
  "track": 3,
  "delta": 0,
  "tick": 20880,
  "byteIndex": 13175,
  "name": "Note on",
  "channel": 1,
  "noteNumber": 55,
  "noteName": "G3",
  "velocity": 79,
  "dtick": 48,
  "ins": 0
 },
 {
  "track": 3,
  "delta": 0,
  "tick": 20880,
  "byteIndex": 13179,
  "name": "Note on",
  "channel": 1,
  "noteNumber": 48,
  "noteName": "C3",
  "velocity": 79,
  "dtick": 48,
  "ins": 0
 },
 {
  "track": 3,
  "delta": 0,
  "tick": 20880,
  "byteIndex": 13183,
  "name": "Note on",
  "channel": 1,
  "noteNumber": 76,
  "noteName": "E5",
  "velocity": 79,
  "dtick": 48,
  "ins": 0
 },
 {
  "track": 3,
  "delta": 0,
  "tick": 20880,
  "byteIndex": 13187,
  "name": "Note on",
  "channel": 1,
  "noteNumber": 88,
  "noteName": "E6",
  "velocity": 79,
  "dtick": 48,
  "ins": 0
 },
 {
  "track": 3,
  "delta": 0,
  "tick": 20928,
  "byteIndex": 13211,
  "name": "Note on",
  "channel": 1,
  "noteNumber": 55,
  "noteName": "G3",
  "velocity": 79,
  "dtick": 48,
  "ins": 0
 },
 {
  "track": 3,
  "delta": 0,
  "tick": 20928,
  "byteIndex": 13215,
  "name": "Note on",
  "channel": 1,
  "noteNumber": 60,
  "noteName": "C4",
  "velocity": 79,
  "dtick": 48,
  "ins": 0
 },
 {
  "track": 3,
  "delta": 0,
  "tick": 20928,
  "byteIndex": 13219,
  "name": "Note on",
  "channel": 1,
  "noteNumber": 48,
  "noteName": "C3",
  "velocity": 79,
  "dtick": 48,
  "ins": 0
 },
 {
  "track": 3,
  "delta": 0,
  "tick": 20928,
  "byteIndex": 13223,
  "name": "Note on",
  "channel": 1,
  "noteNumber": 84,
  "noteName": "C6",
  "velocity": 79,
  "dtick": 48,
  "ins": 0
 },
 {
  "track": 3,
  "delta": 0,
  "tick": 20928,
  "byteIndex": 13227,
  "name": "Note on",
  "channel": 1,
  "noteNumber": 72,
  "noteName": "C5",
  "velocity": 79,
  "dtick": 48,
  "ins": 0
 },
 {
  "track": 3,
  "delta": 0,
  "tick": 20976,
  "byteIndex": 13251,
  "name": "Note on",
  "channel": 1,
  "noteNumber": 48,
  "noteName": "C3",
  "velocity": 79,
  "dtick": 48,
  "ins": 0
 },
 {
  "track": 3,
  "delta": 0,
  "tick": 20976,
  "byteIndex": 13255,
  "name": "Note on",
  "channel": 1,
  "noteNumber": 55,
  "noteName": "G3",
  "velocity": 79,
  "dtick": 48,
  "ins": 0
 },
 {
  "track": 3,
  "delta": 0,
  "tick": 20976,
  "byteIndex": 13259,
  "name": "Note on",
  "channel": 1,
  "noteNumber": 60,
  "noteName": "C4",
  "velocity": 79,
  "dtick": 48,
  "ins": 0
 },
 {
  "track": 3,
  "delta": 0,
  "tick": 20976,
  "byteIndex": 13263,
  "name": "Note on",
  "channel": 1,
  "noteNumber": 67,
  "noteName": "G4",
  "velocity": 79,
  "dtick": 48,
  "ins": 0
 },
 {
  "track": 3,
  "delta": 0,
  "tick": 20976,
  "byteIndex": 13267,
  "name": "Note on",
  "channel": 1,
  "noteNumber": 79,
  "noteName": "G5",
  "velocity": 79,
  "dtick": 48,
  "ins": 0
 },
 {
  "track": 3,
  "delta": 0,
  "tick": 21024,
  "byteIndex": 13291,
  "name": "Note on",
  "channel": 1,
  "noteNumber": 48,
  "noteName": "C3",
  "velocity": 79,
  "dtick": 48,
  "ins": 0
 },
 {
  "track": 3,
  "delta": 0,
  "tick": 21024,
  "byteIndex": 13295,
  "name": "Note on",
  "channel": 1,
  "noteNumber": 60,
  "noteName": "C4",
  "velocity": 79,
  "dtick": 48,
  "ins": 0
 },
 {
  "track": 3,
  "delta": 0,
  "tick": 21024,
  "byteIndex": 13299,
  "name": "Note on",
  "channel": 1,
  "noteNumber": 55,
  "noteName": "G3",
  "velocity": 79,
  "dtick": 48,
  "ins": 0
 },
 {
  "track": 3,
  "delta": 0,
  "tick": 21024,
  "byteIndex": 13303,
  "name": "Note on",
  "channel": 1,
  "noteNumber": 88,
  "noteName": "E6",
  "velocity": 79,
  "dtick": 48,
  "ins": 0
 },
 {
  "track": 3,
  "delta": 0,
  "tick": 21024,
  "byteIndex": 13307,
  "name": "Note on",
  "channel": 1,
  "noteNumber": 76,
  "noteName": "E5",
  "velocity": 79,
  "dtick": 48,
  "ins": 0
 },
 {
  "track": 3,
  "delta": 0,
  "tick": 21072,
  "byteIndex": 13331,
  "name": "Note on",
  "channel": 1,
  "noteNumber": 48,
  "noteName": "C3",
  "velocity": 79,
  "dtick": 48,
  "ins": 0
 },
 {
  "track": 3,
  "delta": 0,
  "tick": 21072,
  "byteIndex": 13335,
  "name": "Note on",
  "channel": 1,
  "noteNumber": 55,
  "noteName": "G3",
  "velocity": 79,
  "dtick": 48,
  "ins": 0
 },
 {
  "track": 3,
  "delta": 0,
  "tick": 21072,
  "byteIndex": 13339,
  "name": "Note on",
  "channel": 1,
  "noteNumber": 60,
  "noteName": "C4",
  "velocity": 79,
  "dtick": 48,
  "ins": 0
 },
 {
  "track": 3,
  "delta": 0,
  "tick": 21072,
  "byteIndex": 13343,
  "name": "Note on",
  "channel": 1,
  "noteNumber": 72,
  "noteName": "C5",
  "velocity": 79,
  "dtick": 48,
  "ins": 0
 },
 {
  "track": 3,
  "delta": 0,
  "tick": 21072,
  "byteIndex": 13347,
  "name": "Note on",
  "channel": 1,
  "noteNumber": 84,
  "noteName": "C6",
  "velocity": 79,
  "dtick": 48,
  "ins": 0
 },
 {
  "track": 3,
  "delta": 45,
  "tick": 21117,
  "byteIndex": 13351,
  "name": "Note on",
  "channel": 1,
  "noteNumber": 88,
  "noteName": "E6",
  "velocity": 79,
  "dtick": 48,
  "ins": 0
 },
 {
  "track": 3,
  "delta": 0,
  "tick": 21117,
  "byteIndex": 13355,
  "name": "Note on",
  "channel": 1,
  "noteNumber": 76,
  "noteName": "E5",
  "velocity": 79,
  "dtick": 48,
  "ins": 0
 },
 {
  "track": 3,
  "delta": 0,
  "tick": 21120,
  "byteIndex": 13379,
  "name": "Note on",
  "channel": 1,
  "noteNumber": 48,
  "noteName": "C3",
  "velocity": 79,
  "dtick": 48,
  "ins": 0
 },
 {
  "track": 3,
  "delta": 0,
  "tick": 21120,
  "byteIndex": 13383,
  "name": "Note on",
  "channel": 1,
  "noteNumber": 55,
  "noteName": "G3",
  "velocity": 79,
  "dtick": 48,
  "ins": 0
 },
 {
  "track": 3,
  "delta": 0,
  "tick": 21120,
  "byteIndex": 13387,
  "name": "Note on",
  "channel": 1,
  "noteNumber": 59,
  "noteName": "B3",
  "velocity": 79,
  "dtick": 48,
  "ins": 0
 },
 {
  "track": 3,
  "delta": 0,
  "tick": 21165,
  "byteIndex": 13399,
  "name": "Note on",
  "channel": 1,
  "noteNumber": 72,
  "noteName": "C5",
  "velocity": 79,
  "dtick": 48,
  "ins": 0
 },
 {
  "track": 3,
  "delta": 0,
  "tick": 21165,
  "byteIndex": 13403,
  "name": "Note on",
  "channel": 1,
  "noteNumber": 84,
  "noteName": "C6",
  "velocity": 79,
  "dtick": 48,
  "ins": 0
 },
 {
  "track": 3,
  "delta": 0,
  "tick": 21168,
  "byteIndex": 13419,
  "name": "Note on",
  "channel": 1,
  "noteNumber": 59,
  "noteName": "B3",
  "velocity": 79,
  "dtick": 48,
  "ins": 0
 },
 {
  "track": 3,
  "delta": 0,
  "tick": 21168,
  "byteIndex": 13423,
  "name": "Note on",
  "channel": 1,
  "noteNumber": 48,
  "noteName": "C3",
  "velocity": 79,
  "dtick": 48,
  "ins": 0
 },
 {
  "track": 3,
  "delta": 0,
  "tick": 21168,
  "byteIndex": 13427,
  "name": "Note on",
  "channel": 1,
  "noteNumber": 55,
  "noteName": "G3",
  "velocity": 79,
  "dtick": 48,
  "ins": 0
 },
 {
  "track": 3,
  "delta": 0,
  "tick": 21213,
  "byteIndex": 13439,
  "name": "Note on",
  "channel": 1,
  "noteNumber": 67,
  "noteName": "G4",
  "velocity": 79,
  "dtick": 48,
  "ins": 0
 },
 {
  "track": 3,
  "delta": 0,
  "tick": 21213,
  "byteIndex": 13443,
  "name": "Note on",
  "channel": 1,
  "noteNumber": 79,
  "noteName": "G5",
  "velocity": 79,
  "dtick": 48,
  "ins": 0
 },
 {
  "track": 3,
  "delta": 0,
  "tick": 21216,
  "byteIndex": 13459,
  "name": "Note on",
  "channel": 1,
  "noteNumber": 59,
  "noteName": "B3",
  "velocity": 79,
  "dtick": 48,
  "ins": 0
 },
 {
  "track": 3,
  "delta": 0,
  "tick": 21216,
  "byteIndex": 13463,
  "name": "Note on",
  "channel": 1,
  "noteNumber": 55,
  "noteName": "G3",
  "velocity": 79,
  "dtick": 48,
  "ins": 0
 },
 {
  "track": 3,
  "delta": 0,
  "tick": 21216,
  "byteIndex": 13467,
  "name": "Note on",
  "channel": 1,
  "noteNumber": 48,
  "noteName": "C3",
  "velocity": 79,
  "dtick": 48,
  "ins": 0
 },
 {
  "track": 3,
  "delta": 0,
  "tick": 21261,
  "byteIndex": 13479,
  "name": "Note on",
  "channel": 1,
  "noteNumber": 88,
  "noteName": "E6",
  "velocity": 79,
  "dtick": 48,
  "ins": 0
 },
 {
  "track": 3,
  "delta": 0,
  "tick": 21261,
  "byteIndex": 13483,
  "name": "Note on",
  "channel": 1,
  "noteNumber": 76,
  "noteName": "E5",
  "velocity": 79,
  "dtick": 48,
  "ins": 0
 },
 {
  "track": 3,
  "delta": 0,
  "tick": 21264,
  "byteIndex": 13499,
  "name": "Note on",
  "channel": 1,
  "noteNumber": 59,
  "noteName": "B3",
  "velocity": 79,
  "dtick": 48,
  "ins": 0
 },
 {
  "track": 3,
  "delta": 0,
  "tick": 21264,
  "byteIndex": 13503,
  "name": "Note on",
  "channel": 1,
  "noteNumber": 55,
  "noteName": "G3",
  "velocity": 79,
  "dtick": 48,
  "ins": 0
 },
 {
  "track": 3,
  "delta": 0,
  "tick": 21264,
  "byteIndex": 13507,
  "name": "Note on",
  "channel": 1,
  "noteNumber": 48,
  "noteName": "C3",
  "velocity": 79,
  "dtick": 48,
  "ins": 0
 },
 {
  "track": 3,
  "delta": 0,
  "tick": 21309,
  "byteIndex": 13519,
  "name": "Note on",
  "channel": 1,
  "noteNumber": 84,
  "noteName": "C6",
  "velocity": 79,
  "dtick": 48,
  "ins": 0
 },
 {
  "track": 3,
  "delta": 0,
  "tick": 21309,
  "byteIndex": 13523,
  "name": "Note on",
  "channel": 1,
  "noteNumber": 72,
  "noteName": "C5",
  "velocity": 79,
  "dtick": 48,
  "ins": 0
 },
 {
  "track": 3,
  "delta": 0,
  "tick": 21312,
  "byteIndex": 13539,
  "name": "Note on",
  "channel": 1,
  "noteNumber": 55,
  "noteName": "G3",
  "velocity": 79,
  "dtick": 48,
  "ins": 0
 },
 {
  "track": 3,
  "delta": 0,
  "tick": 21312,
  "byteIndex": 13543,
  "name": "Note on",
  "channel": 1,
  "noteNumber": 48,
  "noteName": "C3",
  "velocity": 79,
  "dtick": 48,
  "ins": 0
 },
 {
  "track": 3,
  "delta": 0,
  "tick": 21312,
  "byteIndex": 13547,
  "name": "Note on",
  "channel": 1,
  "noteNumber": 59,
  "noteName": "B3",
  "velocity": 79,
  "dtick": 48,
  "ins": 0
 },
 {
  "track": 3,
  "delta": 0,
  "tick": 21357,
  "byteIndex": 13559,
  "name": "Note on",
  "channel": 1,
  "noteNumber": 79,
  "noteName": "G5",
  "velocity": 79,
  "dtick": 48,
  "ins": 0
 },
 {
  "track": 3,
  "delta": 0,
  "tick": 21357,
  "byteIndex": 13563,
  "name": "Note on",
  "channel": 1,
  "noteNumber": 67,
  "noteName": "G4",
  "velocity": 79,
  "dtick": 48,
  "ins": 0
 },
 {
  "track": 3,
  "delta": 0,
  "tick": 21360,
  "byteIndex": 13579,
  "name": "Note on",
  "channel": 1,
  "noteNumber": 55,
  "noteName": "G3",
  "velocity": 79,
  "dtick": 48,
  "ins": 0
 },
 {
  "track": 3,
  "delta": 0,
  "tick": 21360,
  "byteIndex": 13583,
  "name": "Note on",
  "channel": 1,
  "noteNumber": 48,
  "noteName": "C3",
  "velocity": 79,
  "dtick": 48,
  "ins": 0
 },
 {
  "track": 3,
  "delta": 0,
  "tick": 21360,
  "byteIndex": 13587,
  "name": "Note on",
  "channel": 1,
  "noteNumber": 59,
  "noteName": "B3",
  "velocity": 79,
  "dtick": 48,
  "ins": 0
 },
 {
  "track": 3,
  "delta": 0,
  "tick": 21405,
  "byteIndex": 13599,
  "name": "Note on",
  "channel": 1,
  "noteNumber": 88,
  "noteName": "E6",
  "velocity": 79,
  "dtick": 48,
  "ins": 0
 },
 {
  "track": 3,
  "delta": 0,
  "tick": 21405,
  "byteIndex": 13603,
  "name": "Note on",
  "channel": 1,
  "noteNumber": 76,
  "noteName": "E5",
  "velocity": 79,
  "dtick": 48,
  "ins": 0
 },
 {
  "track": 3,
  "delta": 0,
  "tick": 21408,
  "byteIndex": 13619,
  "name": "Note on",
  "channel": 1,
  "noteNumber": 55,
  "noteName": "G3",
  "velocity": 79,
  "dtick": 48,
  "ins": 0
 },
 {
  "track": 3,
  "delta": 0,
  "tick": 21408,
  "byteIndex": 13623,
  "name": "Note on",
  "channel": 1,
  "noteNumber": 48,
  "noteName": "C3",
  "velocity": 79,
  "dtick": 48,
  "ins": 0
 },
 {
  "track": 3,
  "delta": 0,
  "tick": 21408,
  "byteIndex": 13627,
  "name": "Note on",
  "channel": 1,
  "noteNumber": 59,
  "noteName": "B3",
  "velocity": 79,
  "dtick": 48,
  "ins": 0
 },
 {
  "track": 3,
  "delta": 0,
  "tick": 21453,
  "byteIndex": 13639,
  "name": "Note on",
  "channel": 1,
  "noteNumber": 84,
  "noteName": "C6",
  "velocity": 79,
  "dtick": 48,
  "ins": 0
 },
 {
  "track": 3,
  "delta": 0,
  "tick": 21453,
  "byteIndex": 13643,
  "name": "Note on",
  "channel": 1,
  "noteNumber": 72,
  "noteName": "C5",
  "velocity": 79,
  "dtick": 48,
  "ins": 0
 },
 {
  "track": 3,
  "delta": 0,
  "tick": 21456,
  "byteIndex": 13659,
  "name": "Note on",
  "channel": 1,
  "noteNumber": 48,
  "noteName": "C3",
  "velocity": 79,
  "dtick": 48,
  "ins": 0
 },
 {
  "track": 3,
  "delta": 0,
  "tick": 21456,
  "byteIndex": 13663,
  "name": "Note on",
  "channel": 1,
  "noteNumber": 55,
  "noteName": "G3",
  "velocity": 79,
  "dtick": 48,
  "ins": 0
 },
 {
  "track": 3,
  "delta": 0,
  "tick": 21456,
  "byteIndex": 13667,
  "name": "Note on",
  "channel": 1,
  "noteNumber": 59,
  "noteName": "B3",
  "velocity": 79,
  "dtick": 48,
  "ins": 0
 },
 {
  "track": 3,
  "delta": 0,
  "tick": 21504,
  "byteIndex": 13691,
  "name": "Note on",
  "channel": 1,
  "noteNumber": 76,
  "noteName": "E5",
  "velocity": 79,
  "dtick": 22,
  "ins": 0
 },
 {
  "track": 3,
  "delta": 0,
  "tick": 21526,
  "byteIndex": 13699,
  "name": "Note on",
  "channel": 1,
  "noteNumber": 67,
  "noteName": "G4",
  "velocity": 79,
  "dtick": 24,
  "ins": 0
 },
 {
  "track": 3,
  "delta": 0,
  "tick": 21550,
  "byteIndex": 13707,
  "name": "Note on",
  "channel": 1,
  "noteNumber": 72,
  "noteName": "C5",
  "velocity": 79,
  "dtick": 24,
  "ins": 0
 },
 {
  "track": 3,
  "delta": 0,
  "tick": 21574,
  "byteIndex": 13715,
  "name": "Note on",
  "channel": 1,
  "noteNumber": 74,
  "noteName": "D5",
  "velocity": 79,
  "dtick": 24,
  "ins": 0
 },
 {
  "track": 3,
  "delta": 0,
  "tick": 21598,
  "byteIndex": 13723,
  "name": "Note on",
  "channel": 1,
  "noteNumber": 76,
  "noteName": "E5",
  "velocity": 79,
  "dtick": 24,
  "ins": 0
 },
 {
  "track": 3,
  "delta": 0,
  "tick": 21622,
  "byteIndex": 13731,
  "name": "Note on",
  "channel": 1,
  "noteNumber": 79,
  "noteName": "G5",
  "velocity": 79,
  "dtick": 24,
  "ins": 0
 },
 {
  "track": 3,
  "delta": 0,
  "tick": 21646,
  "byteIndex": 13739,
  "name": "Note on",
  "channel": 1,
  "noteNumber": 76,
  "noteName": "E5",
  "velocity": 79,
  "dtick": 24,
  "ins": 0
 },
 {
  "track": 3,
  "delta": 0,
  "tick": 21670,
  "byteIndex": 13747,
  "name": "Note on",
  "channel": 1,
  "noteNumber": 72,
  "noteName": "C5",
  "velocity": 79,
  "dtick": 24,
  "ins": 0
 },
 {
  "track": 3,
  "delta": 0,
  "tick": 21694,
  "byteIndex": 13755,
  "name": "Note on",
  "channel": 1,
  "noteNumber": 69,
  "noteName": "A4",
  "velocity": 79,
  "dtick": 24,
  "ins": 0
 },
 {
  "track": 3,
  "delta": 0,
  "tick": 21718,
  "byteIndex": 13763,
  "name": "Note on",
  "channel": 1,
  "noteNumber": 67,
  "noteName": "G4",
  "velocity": 79,
  "dtick": 24,
  "ins": 0
 },
 {
  "track": 3,
  "delta": 0,
  "tick": 21742,
  "byteIndex": 13771,
  "name": "Note on",
  "channel": 1,
  "noteNumber": 72,
  "noteName": "C5",
  "velocity": 79,
  "dtick": 24,
  "ins": 0
 },
 {
  "track": 3,
  "delta": 0,
  "tick": 21766,
  "byteIndex": 13779,
  "name": "Note on",
  "channel": 1,
  "noteNumber": 74,
  "noteName": "D5",
  "velocity": 79,
  "dtick": 24,
  "ins": 0
 },
 {
  "track": 3,
  "delta": 0,
  "tick": 21790,
  "byteIndex": 13787,
  "name": "Note on",
  "channel": 1,
  "noteNumber": 72,
  "noteName": "C5",
  "velocity": 79,
  "dtick": 24,
  "ins": 0
 },
 {
  "track": 3,
  "delta": 0,
  "tick": 21814,
  "byteIndex": 13795,
  "name": "Note on",
  "channel": 1,
  "noteNumber": 79,
  "noteName": "G5",
  "velocity": 79,
  "dtick": 24,
  "ins": 0
 },
 {
  "track": 3,
  "delta": 0,
  "tick": 21838,
  "byteIndex": 13803,
  "name": "Note on",
  "channel": 1,
  "noteNumber": 76,
  "noteName": "E5",
  "velocity": 79,
  "dtick": 24,
  "ins": 0
 },
 {
  "track": 3,
  "delta": 0,
  "tick": 21862,
  "byteIndex": 13811,
  "name": "Note on",
  "channel": 1,
  "noteNumber": 72,
  "noteName": "C5",
  "velocity": 79,
  "dtick": 24,
  "ins": 0
 },
 {
  "track": 3,
  "delta": 0,
  "tick": 21886,
  "byteIndex": 13819,
  "name": "Note on",
  "channel": 1,
  "noteNumber": 76,
  "noteName": "E5",
  "velocity": 79,
  "dtick": 24,
  "ins": 0
 },
 {
  "track": 3,
  "delta": 0,
  "tick": 21910,
  "byteIndex": 13827,
  "name": "Note on",
  "channel": 1,
  "noteNumber": 69,
  "noteName": "A4",
  "velocity": 79,
  "dtick": 24,
  "ins": 0
 },
 {
  "track": 3,
  "delta": 0,
  "tick": 21934,
  "byteIndex": 13835,
  "name": "Note on",
  "channel": 1,
  "noteNumber": 72,
  "noteName": "C5",
  "velocity": 79,
  "dtick": 24,
  "ins": 0
 },
 {
  "track": 3,
  "delta": 0,
  "tick": 21958,
  "byteIndex": 13843,
  "name": "Note on",
  "channel": 1,
  "noteNumber": 74,
  "noteName": "D5",
  "velocity": 79,
  "dtick": 24,
  "ins": 0
 },
 {
  "track": 3,
  "delta": 0,
  "tick": 21982,
  "byteIndex": 13851,
  "name": "Note on",
  "channel": 1,
  "noteNumber": 76,
  "noteName": "E5",
  "velocity": 79,
  "dtick": 24,
  "ins": 0
 },
 {
  "track": 3,
  "delta": 0,
  "tick": 22006,
  "byteIndex": 13859,
  "name": "Note on",
  "channel": 1,
  "noteNumber": 79,
  "noteName": "G5",
  "velocity": 79,
  "dtick": 24,
  "ins": 0
 },
 {
  "track": 3,
  "delta": 0,
  "tick": 22030,
  "byteIndex": 13867,
  "name": "Note on",
  "channel": 1,
  "noteNumber": 76,
  "noteName": "E5",
  "velocity": 79,
  "dtick": 24,
  "ins": 0
 },
 {
  "track": 3,
  "delta": 0,
  "tick": 22054,
  "byteIndex": 13875,
  "name": "Note on",
  "channel": 1,
  "noteNumber": 72,
  "noteName": "C5",
  "velocity": 79,
  "dtick": 24,
  "ins": 0
 },
 {
  "track": 3,
  "delta": 0,
  "tick": 22078,
  "byteIndex": 13883,
  "name": "Note on",
  "channel": 1,
  "noteNumber": 69,
  "noteName": "A4",
  "velocity": 79,
  "dtick": 24,
  "ins": 0
 },
 {
  "track": 3,
  "delta": 0,
  "tick": 22102,
  "byteIndex": 13891,
  "name": "Note on",
  "channel": 1,
  "noteNumber": 67,
  "noteName": "G4",
  "velocity": 79,
  "dtick": 24,
  "ins": 0
 },
 {
  "track": 3,
  "delta": 0,
  "tick": 22126,
  "byteIndex": 13899,
  "name": "Note on",
  "channel": 1,
  "noteNumber": 72,
  "noteName": "C5",
  "velocity": 79,
  "dtick": 24,
  "ins": 0
 },
 {
  "track": 3,
  "delta": 0,
  "tick": 22150,
  "byteIndex": 13907,
  "name": "Note on",
  "channel": 1,
  "noteNumber": 74,
  "noteName": "D5",
  "velocity": 79,
  "dtick": 24,
  "ins": 0
 },
 {
  "track": 3,
  "delta": 0,
  "tick": 22174,
  "byteIndex": 13915,
  "name": "Note on",
  "channel": 1,
  "noteNumber": 72,
  "noteName": "C5",
  "velocity": 79,
  "dtick": 24,
  "ins": 0
 },
 {
  "track": 3,
  "delta": 0,
  "tick": 22198,
  "byteIndex": 13923,
  "name": "Note on",
  "channel": 1,
  "noteNumber": 69,
  "noteName": "A4",
  "velocity": 79,
  "dtick": 24,
  "ins": 0
 },
 {
  "track": 3,
  "delta": 0,
  "tick": 22222,
  "byteIndex": 13931,
  "name": "Note on",
  "channel": 1,
  "noteNumber": 67,
  "noteName": "G4",
  "velocity": 79,
  "dtick": 24,
  "ins": 0
 },
 {
  "track": 3,
  "delta": 0,
  "tick": 22246,
  "byteIndex": 13939,
  "name": "Note on",
  "channel": 1,
  "noteNumber": 64,
  "noteName": "E4",
  "velocity": 79,
  "dtick": 24,
  "ins": 0
 },
 {
  "track": 3,
  "delta": 2,
  "tick": 22272,
  "byteIndex": 13947,
  "name": "Note on",
  "channel": 1,
  "noteNumber": 45,
  "noteName": "A2",
  "velocity": 79,
  "dtick": 384,
  "ins": 0
 },
 {
  "track": 3,
  "delta": 0,
  "tick": 22272,
  "byteIndex": 13951,
  "name": "Note on",
  "channel": 1,
  "noteNumber": 52,
  "noteName": "E3",
  "velocity": 79,
  "dtick": 384,
  "ins": 0
 },
 {
  "track": 3,
  "delta": 0,
  "tick": 22272,
  "byteIndex": 13955,
  "name": "Note on",
  "channel": 1,
  "noteNumber": 57,
  "noteName": "A3",
  "velocity": 79,
  "dtick": 384,
  "ins": 0
 },
 {
  "track": 3,
  "delta": 1,
  "tick": 22273,
  "byteIndex": 13959,
  "name": "Note on",
  "channel": 1,
  "noteNumber": 76,
  "noteName": "E5",
  "velocity": 79,
  "dtick": 24,
  "ins": 0
 },
 {
  "track": 3,
  "delta": 0,
  "tick": 22297,
  "byteIndex": 13967,
  "name": "Note on",
  "channel": 1,
  "noteNumber": 67,
  "noteName": "G4",
  "velocity": 79,
  "dtick": 24,
  "ins": 0
 },
 {
  "track": 3,
  "delta": 0,
  "tick": 22321,
  "byteIndex": 13975,
  "name": "Note on",
  "channel": 1,
  "noteNumber": 72,
  "noteName": "C5",
  "velocity": 79,
  "dtick": 24,
  "ins": 0
 },
 {
  "track": 3,
  "delta": 0,
  "tick": 22345,
  "byteIndex": 13983,
  "name": "Note on",
  "channel": 1,
  "noteNumber": 74,
  "noteName": "D5",
  "velocity": 79,
  "dtick": 24,
  "ins": 0
 },
 {
  "track": 3,
  "delta": 0,
  "tick": 22369,
  "byteIndex": 13991,
  "name": "Note on",
  "channel": 1,
  "noteNumber": 76,
  "noteName": "E5",
  "velocity": 79,
  "dtick": 24,
  "ins": 0
 },
 {
  "track": 3,
  "delta": 0,
  "tick": 22393,
  "byteIndex": 13999,
  "name": "Note on",
  "channel": 1,
  "noteNumber": 79,
  "noteName": "G5",
  "velocity": 79,
  "dtick": 24,
  "ins": 0
 },
 {
  "track": 3,
  "delta": 0,
  "tick": 22417,
  "byteIndex": 14007,
  "name": "Note on",
  "channel": 1,
  "noteNumber": 76,
  "noteName": "E5",
  "velocity": 79,
  "dtick": 24,
  "ins": 0
 },
 {
  "track": 3,
  "delta": 0,
  "tick": 22441,
  "byteIndex": 14015,
  "name": "Note on",
  "channel": 1,
  "noteNumber": 72,
  "noteName": "C5",
  "velocity": 79,
  "dtick": 24,
  "ins": 0
 },
 {
  "track": 3,
  "delta": 0,
  "tick": 22465,
  "byteIndex": 14023,
  "name": "Note on",
  "channel": 1,
  "noteNumber": 69,
  "noteName": "A4",
  "velocity": 79,
  "dtick": 24,
  "ins": 0
 },
 {
  "track": 3,
  "delta": 0,
  "tick": 22489,
  "byteIndex": 14031,
  "name": "Note on",
  "channel": 1,
  "noteNumber": 67,
  "noteName": "G4",
  "velocity": 79,
  "dtick": 24,
  "ins": 0
 },
 {
  "track": 3,
  "delta": 0,
  "tick": 22513,
  "byteIndex": 14039,
  "name": "Note on",
  "channel": 1,
  "noteNumber": 72,
  "noteName": "C5",
  "velocity": 79,
  "dtick": 24,
  "ins": 0
 },
 {
  "track": 3,
  "delta": 0,
  "tick": 22537,
  "byteIndex": 14047,
  "name": "Note on",
  "channel": 1,
  "noteNumber": 74,
  "noteName": "D5",
  "velocity": 79,
  "dtick": 24,
  "ins": 0
 },
 {
  "track": 3,
  "delta": 0,
  "tick": 22561,
  "byteIndex": 14055,
  "name": "Note on",
  "channel": 1,
  "noteNumber": 72,
  "noteName": "C5",
  "velocity": 79,
  "dtick": 24,
  "ins": 0
 },
 {
  "track": 3,
  "delta": 0,
  "tick": 22585,
  "byteIndex": 14063,
  "name": "Note on",
  "channel": 1,
  "noteNumber": 79,
  "noteName": "G5",
  "velocity": 79,
  "dtick": 24,
  "ins": 0
 },
 {
  "track": 3,
  "delta": 0,
  "tick": 22609,
  "byteIndex": 14071,
  "name": "Note on",
  "channel": 1,
  "noteNumber": 76,
  "noteName": "E5",
  "velocity": 79,
  "dtick": 24,
  "ins": 0
 },
 {
  "track": 3,
  "delta": 0,
  "tick": 22633,
  "byteIndex": 14079,
  "name": "Note on",
  "channel": 1,
  "noteNumber": 72,
  "noteName": "C5",
  "velocity": 79,
  "dtick": 24,
  "ins": 0
 },
 {
  "track": 3,
  "delta": 0,
  "tick": 22656,
  "byteIndex": 14095,
  "name": "Note on",
  "channel": 1,
  "noteNumber": 45,
  "noteName": "A2",
  "velocity": 79,
  "dtick": 384,
  "ins": 0
 },
 {
  "track": 3,
  "delta": 0,
  "tick": 22656,
  "byteIndex": 14099,
  "name": "Note on",
  "channel": 1,
  "noteNumber": 52,
  "noteName": "E3",
  "velocity": 79,
  "dtick": 384,
  "ins": 0
 },
 {
  "track": 3,
  "delta": 0,
  "tick": 22656,
  "byteIndex": 14103,
  "name": "Note on",
  "channel": 1,
  "noteNumber": 57,
  "noteName": "A3",
  "velocity": 79,
  "dtick": 384,
  "ins": 0
 },
 {
  "track": 3,
  "delta": 0,
  "tick": 22657,
  "byteIndex": 14111,
  "name": "Note on",
  "channel": 1,
  "noteNumber": 76,
  "noteName": "E5",
  "velocity": 79,
  "dtick": 24,
  "ins": 0
 },
 {
  "track": 3,
  "delta": 0,
  "tick": 22681,
  "byteIndex": 14119,
  "name": "Note on",
  "channel": 1,
  "noteNumber": 69,
  "noteName": "A4",
  "velocity": 79,
  "dtick": 24,
  "ins": 0
 },
 {
  "track": 3,
  "delta": 0,
  "tick": 22705,
  "byteIndex": 14127,
  "name": "Note on",
  "channel": 1,
  "noteNumber": 72,
  "noteName": "C5",
  "velocity": 79,
  "dtick": 24,
  "ins": 0
 },
 {
  "track": 3,
  "delta": 0,
  "tick": 22729,
  "byteIndex": 14135,
  "name": "Note on",
  "channel": 1,
  "noteNumber": 74,
  "noteName": "D5",
  "velocity": 79,
  "dtick": 24,
  "ins": 0
 },
 {
  "track": 3,
  "delta": 0,
  "tick": 22753,
  "byteIndex": 14143,
  "name": "Note on",
  "channel": 1,
  "noteNumber": 76,
  "noteName": "E5",
  "velocity": 79,
  "dtick": 24,
  "ins": 0
 },
 {
  "track": 3,
  "delta": 0,
  "tick": 22777,
  "byteIndex": 14151,
  "name": "Note on",
  "channel": 1,
  "noteNumber": 79,
  "noteName": "G5",
  "velocity": 79,
  "dtick": 24,
  "ins": 0
 },
 {
  "track": 3,
  "delta": 0,
  "tick": 22801,
  "byteIndex": 14159,
  "name": "Note on",
  "channel": 1,
  "noteNumber": 76,
  "noteName": "E5",
  "velocity": 79,
  "dtick": 24,
  "ins": 0
 },
 {
  "track": 3,
  "delta": 0,
  "tick": 22825,
  "byteIndex": 14167,
  "name": "Note on",
  "channel": 1,
  "noteNumber": 72,
  "noteName": "C5",
  "velocity": 79,
  "dtick": 24,
  "ins": 0
 },
 {
  "track": 3,
  "delta": 0,
  "tick": 22849,
  "byteIndex": 14175,
  "name": "Note on",
  "channel": 1,
  "noteNumber": 69,
  "noteName": "A4",
  "velocity": 79,
  "dtick": 24,
  "ins": 0
 },
 {
  "track": 3,
  "delta": 0,
  "tick": 22873,
  "byteIndex": 14183,
  "name": "Note on",
  "channel": 1,
  "noteNumber": 67,
  "noteName": "G4",
  "velocity": 79,
  "dtick": 24,
  "ins": 0
 },
 {
  "track": 3,
  "delta": 0,
  "tick": 22897,
  "byteIndex": 14191,
  "name": "Note on",
  "channel": 1,
  "noteNumber": 72,
  "noteName": "C5",
  "velocity": 79,
  "dtick": 24,
  "ins": 0
 },
 {
  "track": 3,
  "delta": 0,
  "tick": 22921,
  "byteIndex": 14199,
  "name": "Note on",
  "channel": 1,
  "noteNumber": 74,
  "noteName": "D5",
  "velocity": 79,
  "dtick": 24,
  "ins": 0
 },
 {
  "track": 3,
  "delta": 0,
  "tick": 22945,
  "byteIndex": 14207,
  "name": "Note on",
  "channel": 1,
  "noteNumber": 72,
  "noteName": "C5",
  "velocity": 79,
  "dtick": 24,
  "ins": 0
 },
 {
  "track": 3,
  "delta": 0,
  "tick": 22969,
  "byteIndex": 14215,
  "name": "Note on",
  "channel": 1,
  "noteNumber": 69,
  "noteName": "A4",
  "velocity": 79,
  "dtick": 24,
  "ins": 0
 },
 {
  "track": 3,
  "delta": 0,
  "tick": 22993,
  "byteIndex": 14223,
  "name": "Note on",
  "channel": 1,
  "noteNumber": 67,
  "noteName": "G4",
  "velocity": 79,
  "dtick": 24,
  "ins": 0
 },
 {
  "track": 3,
  "delta": 0,
  "tick": 23017,
  "byteIndex": 14231,
  "name": "Note on",
  "channel": 1,
  "noteNumber": 64,
  "noteName": "E4",
  "velocity": 79,
  "dtick": 23,
  "ins": 0
 },
 {
  "track": 3,
  "delta": 0,
  "tick": 23040,
  "byteIndex": 14251,
  "name": "Note on",
  "channel": 1,
  "noteNumber": 72,
  "noteName": "C5",
  "velocity": 79,
  "dtick": 384,
  "ins": 0
 },
 {
  "track": 3,
  "delta": 0,
  "tick": 23040,
  "byteIndex": 14255,
  "name": "Note on",
  "channel": 1,
  "noteNumber": 69,
  "noteName": "A4",
  "velocity": 79,
  "dtick": 384,
  "ins": 0
 },
 {
  "track": 3,
  "delta": 0,
  "tick": 23040,
  "byteIndex": 14259,
  "name": "Note on",
  "channel": 1,
  "noteNumber": 79,
  "noteName": "G5",
  "velocity": 79,
  "dtick": 96,
  "ins": 0
 },
 {
  "track": 3,
  "delta": 0,
  "tick": 23040,
  "byteIndex": 14263,
  "name": "Note on",
  "channel": 1,
  "noteNumber": 57,
  "noteName": "A3",
  "velocity": 79,
  "dtick": 384,
  "ins": 0
 },
 {
  "track": 3,
  "delta": 0,
  "tick": 23040,
  "byteIndex": 14267,
  "name": "Note on",
  "channel": 1,
  "noteNumber": 64,
  "noteName": "E4",
  "velocity": 79,
  "dtick": 384,
  "ins": 0
 },
 {
  "track": 3,
  "delta": 48,
  "tick": 23088,
  "byteIndex": 14271,
  "name": "Note on",
  "channel": 1,
  "noteNumber": 81,
  "noteName": "A5",
  "velocity": 79,
  "dtick": 96,
  "ins": 0
 },
 {
  "track": 3,
  "delta": 0,
  "tick": 23136,
  "byteIndex": 14279,
  "name": "Note on",
  "channel": 1,
  "noteNumber": 84,
  "noteName": "C6",
  "velocity": 79,
  "dtick": 96,
  "ins": 0
 },
 {
  "track": 3,
  "delta": 0,
  "tick": 23184,
  "byteIndex": 14287,
  "name": "Note on",
  "channel": 1,
  "noteNumber": 86,
  "noteName": "D6",
  "velocity": 79,
  "dtick": 96,
  "ins": 0
 },
 {
  "track": 3,
  "delta": 0,
  "tick": 23232,
  "byteIndex": 14295,
  "name": "Note on",
  "channel": 1,
  "noteNumber": 88,
  "noteName": "E6",
  "velocity": 79,
  "dtick": 96,
  "ins": 0
 },
 {
  "track": 3,
  "delta": 0,
  "tick": 23424,
  "byteIndex": 14323,
  "name": "Note on",
  "channel": 1,
  "noteNumber": 69,
  "noteName": "A4",
  "velocity": 79,
  "dtick": 384,
  "ins": 0
 },
 {
  "track": 3,
  "delta": 0,
  "tick": 23424,
  "byteIndex": 14327,
  "name": "Note on",
  "channel": 1,
  "noteNumber": 65,
  "noteName": "F4",
  "velocity": 79,
  "dtick": 384,
  "ins": 0
 },
 {
  "track": 3,
  "delta": 0,
  "tick": 23424,
  "byteIndex": 14331,
  "name": "Note on",
  "channel": 1,
  "noteNumber": 77,
  "noteName": "F5",
  "velocity": 79,
  "dtick": 96,
  "ins": 0
 },
 {
  "track": 3,
  "delta": 0,
  "tick": 23424,
  "byteIndex": 14335,
  "name": "Note on",
  "channel": 1,
  "noteNumber": 53,
  "noteName": "F3",
  "velocity": 79,
  "dtick": 384,
  "ins": 0
 },
 {
  "track": 3,
  "delta": 0,
  "tick": 23424,
  "byteIndex": 14339,
  "name": "Note on",
  "channel": 1,
  "noteNumber": 60,
  "noteName": "C4",
  "velocity": 79,
  "dtick": 384,
  "ins": 0
 },
 {
  "track": 3,
  "delta": 48,
  "tick": 23472,
  "byteIndex": 14343,
  "name": "Note on",
  "channel": 1,
  "noteNumber": 81,
  "noteName": "A5",
  "velocity": 79,
  "dtick": 96,
  "ins": 0
 },
 {
  "track": 3,
  "delta": 0,
  "tick": 23520,
  "byteIndex": 14351,
  "name": "Note on",
  "channel": 1,
  "noteNumber": 84,
  "noteName": "C6",
  "velocity": 79,
  "dtick": 96,
  "ins": 0
 },
 {
  "track": 3,
  "delta": 0,
  "tick": 23568,
  "byteIndex": 14359,
  "name": "Note on",
  "channel": 1,
  "noteNumber": 86,
  "noteName": "D6",
  "velocity": 79,
  "dtick": 96,
  "ins": 0
 },
 {
  "track": 3,
  "delta": 0,
  "tick": 23616,
  "byteIndex": 14367,
  "name": "Note on",
  "channel": 1,
  "noteNumber": 84,
  "noteName": "C6",
  "velocity": 79,
  "dtick": 96,
  "ins": 0
 },
 {
  "track": 3,
  "delta": 0,
  "tick": 23808,
  "byteIndex": 14395,
  "name": "Note on",
  "channel": 1,
  "noteNumber": 76,
  "noteName": "E5",
  "velocity": 79,
  "dtick": 384,
  "ins": 0
 },
 {
  "track": 3,
  "delta": 0,
  "tick": 23808,
  "byteIndex": 14399,
  "name": "Note on",
  "channel": 1,
  "noteNumber": 72,
  "noteName": "C5",
  "velocity": 79,
  "dtick": 384,
  "ins": 0
 },
 {
  "track": 3,
  "delta": 0,
  "tick": 23808,
  "byteIndex": 14403,
  "name": "Note on",
  "channel": 1,
  "noteNumber": 60,
  "noteName": "C4",
  "velocity": 79,
  "dtick": 384,
  "ins": 0
 },
 {
  "track": 3,
  "delta": 0,
  "tick": 23808,
  "byteIndex": 14407,
  "name": "Note on",
  "channel": 1,
  "noteNumber": 67,
  "noteName": "G4",
  "velocity": 79,
  "dtick": 384,
  "ins": 0
 },
 {
  "track": 3,
  "delta": 48,
  "tick": 23856,
  "byteIndex": 14411,
  "name": "Note on",
  "channel": 1,
  "noteNumber": 79,
  "noteName": "G5",
  "velocity": 79,
  "dtick": 96,
  "ins": 0
 },
 {
  "track": 3,
  "delta": 48,
  "tick": 23904,
  "byteIndex": 14415,
  "name": "Note on",
  "channel": 1,
  "noteNumber": 84,
  "noteName": "C6",
  "velocity": 79,
  "dtick": 96,
  "ins": 0
 },
 {
  "track": 3,
  "delta": 0,
  "tick": 23952,
  "byteIndex": 14423,
  "name": "Note on",
  "channel": 1,
  "noteNumber": 79,
  "noteName": "G5",
  "velocity": 79,
  "dtick": 96,
  "ins": 0
 },
 {
  "track": 3,
  "delta": 0,
  "tick": 24000,
  "byteIndex": 14431,
  "name": "Note on",
  "channel": 1,
  "noteNumber": 88,
  "noteName": "E6",
  "velocity": 79,
  "dtick": 96,
  "ins": 0
 },
 {
  "track": 3,
  "delta": 0,
  "tick": 24192,
  "byteIndex": 14459,
  "name": "Note on",
  "channel": 1,
  "noteNumber": 71,
  "noteName": "B4",
  "velocity": 79,
  "dtick": 384,
  "ins": 0
 },
 {
  "track": 3,
  "delta": 0,
  "tick": 24192,
  "byteIndex": 14463,
  "name": "Note on",
  "channel": 1,
  "noteNumber": 67,
  "noteName": "G4",
  "velocity": 79,
  "dtick": 384,
  "ins": 0
 },
 {
  "track": 3,
  "delta": 0,
  "tick": 24192,
  "byteIndex": 14467,
  "name": "Note on",
  "channel": 1,
  "noteNumber": 62,
  "noteName": "D4",
  "velocity": 79,
  "dtick": 384,
  "ins": 0
 },
 {
  "track": 3,
  "delta": 0,
  "tick": 24192,
  "byteIndex": 14471,
  "name": "Note on",
  "channel": 1,
  "noteNumber": 55,
  "noteName": "G3",
  "velocity": 79,
  "dtick": 384,
  "ins": 0
 },
 {
  "track": 3,
  "delta": 48,
  "tick": 24240,
  "byteIndex": 14475,
  "name": "Note on",
  "channel": 1,
  "noteNumber": 79,
  "noteName": "G5",
  "velocity": 79,
  "dtick": 96,
  "ins": 0
 },
 {
  "track": 3,
  "delta": 48,
  "tick": 24288,
  "byteIndex": 14479,
  "name": "Note on",
  "channel": 1,
  "noteNumber": 81,
  "noteName": "A5",
  "velocity": 79,
  "dtick": 96,
  "ins": 0
 },
 {
  "track": 3,
  "delta": 0,
  "tick": 24336,
  "byteIndex": 14487,
  "name": "Note on",
  "channel": 1,
  "noteNumber": 84,
  "noteName": "C6",
  "velocity": 79,
  "dtick": 96,
  "ins": 0
 },
 {
  "track": 3,
  "delta": 0,
  "tick": 24384,
  "byteIndex": 14495,
  "name": "Note on",
  "channel": 1,
  "noteNumber": 86,
  "noteName": "D6",
  "velocity": 79,
  "dtick": 96,
  "ins": 0
 },
 {
  "track": 3,
  "delta": 0,
  "tick": 24576,
  "byteIndex": 14523,
  "name": "Note on",
  "channel": 1,
  "noteNumber": 72,
  "noteName": "C5",
  "velocity": 79,
  "dtick": 384,
  "ins": 0
 },
 {
  "track": 3,
  "delta": 0,
  "tick": 24576,
  "byteIndex": 14527,
  "name": "Note on",
  "channel": 1,
  "noteNumber": 69,
  "noteName": "A4",
  "velocity": 79,
  "dtick": 384,
  "ins": 0
 },
 {
  "track": 3,
  "delta": 0,
  "tick": 24576,
  "byteIndex": 14531,
  "name": "Note on",
  "channel": 1,
  "noteNumber": 79,
  "noteName": "G5",
  "velocity": 79,
  "dtick": 96,
  "ins": 0
 },
 {
  "track": 3,
  "delta": 0,
  "tick": 24576,
  "byteIndex": 14535,
  "name": "Note on",
  "channel": 1,
  "noteNumber": 57,
  "noteName": "A3",
  "velocity": 79,
  "dtick": 384,
  "ins": 0
 },
 {
  "track": 3,
  "delta": 0,
  "tick": 24576,
  "byteIndex": 14539,
  "name": "Note on",
  "channel": 1,
  "noteNumber": 64,
  "noteName": "E4",
  "velocity": 79,
  "dtick": 384,
  "ins": 0
 },
 {
  "track": 3,
  "delta": 48,
  "tick": 24624,
  "byteIndex": 14543,
  "name": "Note on",
  "channel": 1,
  "noteNumber": 81,
  "noteName": "A5",
  "velocity": 79,
  "dtick": 96,
  "ins": 0
 },
 {
  "track": 3,
  "delta": 0,
  "tick": 24672,
  "byteIndex": 14551,
  "name": "Note on",
  "channel": 1,
  "noteNumber": 84,
  "noteName": "C6",
  "velocity": 79,
  "dtick": 96,
  "ins": 0
 },
 {
  "track": 3,
  "delta": 0,
  "tick": 24720,
  "byteIndex": 14559,
  "name": "Note on",
  "channel": 1,
  "noteNumber": 86,
  "noteName": "D6",
  "velocity": 79,
  "dtick": 96,
  "ins": 0
 },
 {
  "track": 3,
  "delta": 0,
  "tick": 24768,
  "byteIndex": 14567,
  "name": "Note on",
  "channel": 1,
  "noteNumber": 88,
  "noteName": "E6",
  "velocity": 79,
  "dtick": 96,
  "ins": 0
 },
 {
  "track": 3,
  "delta": 0,
  "tick": 24960,
  "byteIndex": 14595,
  "name": "Note on",
  "channel": 1,
  "noteNumber": 69,
  "noteName": "A4",
  "velocity": 79,
  "dtick": 384,
  "ins": 0
 },
 {
  "track": 3,
  "delta": 0,
  "tick": 24960,
  "byteIndex": 14599,
  "name": "Note on",
  "channel": 1,
  "noteNumber": 65,
  "noteName": "F4",
  "velocity": 79,
  "dtick": 384,
  "ins": 0
 },
 {
  "track": 3,
  "delta": 0,
  "tick": 24960,
  "byteIndex": 14603,
  "name": "Note on",
  "channel": 1,
  "noteNumber": 77,
  "noteName": "F5",
  "velocity": 79,
  "dtick": 96,
  "ins": 0
 },
 {
  "track": 3,
  "delta": 0,
  "tick": 24960,
  "byteIndex": 14607,
  "name": "Note on",
  "channel": 1,
  "noteNumber": 53,
  "noteName": "F3",
  "velocity": 79,
  "dtick": 384,
  "ins": 0
 },
 {
  "track": 3,
  "delta": 0,
  "tick": 24960,
  "byteIndex": 14611,
  "name": "Note on",
  "channel": 1,
  "noteNumber": 60,
  "noteName": "C4",
  "velocity": 79,
  "dtick": 384,
  "ins": 0
 },
 {
  "track": 3,
  "delta": 48,
  "tick": 25008,
  "byteIndex": 14615,
  "name": "Note on",
  "channel": 1,
  "noteNumber": 81,
  "noteName": "A5",
  "velocity": 79,
  "dtick": 96,
  "ins": 0
 },
 {
  "track": 3,
  "delta": 0,
  "tick": 25056,
  "byteIndex": 14623,
  "name": "Note on",
  "channel": 1,
  "noteNumber": 84,
  "noteName": "C6",
  "velocity": 79,
  "dtick": 96,
  "ins": 0
 },
 {
  "track": 3,
  "delta": 0,
  "tick": 25104,
  "byteIndex": 14631,
  "name": "Note on",
  "channel": 1,
  "noteNumber": 86,
  "noteName": "D6",
  "velocity": 79,
  "dtick": 96,
  "ins": 0
 },
 {
  "track": 3,
  "delta": 0,
  "tick": 25152,
  "byteIndex": 14639,
  "name": "Note on",
  "channel": 1,
  "noteNumber": 84,
  "noteName": "C6",
  "velocity": 79,
  "dtick": 96,
  "ins": 0
 },
 {
  "track": 3,
  "delta": 0,
  "tick": 25344,
  "byteIndex": 14667,
  "name": "Note on",
  "channel": 1,
  "noteNumber": 76,
  "noteName": "E5",
  "velocity": 79,
  "dtick": 384,
  "ins": 0
 },
 {
  "track": 3,
  "delta": 0,
  "tick": 25344,
  "byteIndex": 14671,
  "name": "Note on",
  "channel": 1,
  "noteNumber": 72,
  "noteName": "C5",
  "velocity": 79,
  "dtick": 384,
  "ins": 0
 },
 {
  "track": 3,
  "delta": 0,
  "tick": 25344,
  "byteIndex": 14675,
  "name": "Note on",
  "channel": 1,
  "noteNumber": 60,
  "noteName": "C4",
  "velocity": 79,
  "dtick": 384,
  "ins": 0
 },
 {
  "track": 3,
  "delta": 0,
  "tick": 25344,
  "byteIndex": 14679,
  "name": "Note on",
  "channel": 1,
  "noteNumber": 67,
  "noteName": "G4",
  "velocity": 79,
  "dtick": 384,
  "ins": 0
 },
 {
  "track": 3,
  "delta": 48,
  "tick": 25392,
  "byteIndex": 14683,
  "name": "Note on",
  "channel": 1,
  "noteNumber": 79,
  "noteName": "G5",
  "velocity": 79,
  "dtick": 96,
  "ins": 0
 },
 {
  "track": 3,
  "delta": 48,
  "tick": 25440,
  "byteIndex": 14687,
  "name": "Note on",
  "channel": 1,
  "noteNumber": 84,
  "noteName": "C6",
  "velocity": 79,
  "dtick": 96,
  "ins": 0
 },
 {
  "track": 3,
  "delta": 0,
  "tick": 25488,
  "byteIndex": 14695,
  "name": "Note on",
  "channel": 1,
  "noteNumber": 79,
  "noteName": "G5",
  "velocity": 79,
  "dtick": 96,
  "ins": 0
 },
 {
  "track": 3,
  "delta": 0,
  "tick": 25536,
  "byteIndex": 14703,
  "name": "Note on",
  "channel": 1,
  "noteNumber": 88,
  "noteName": "E6",
  "velocity": 79,
  "dtick": 96,
  "ins": 0
 },
 {
  "track": 3,
  "delta": 0,
  "tick": 25728,
  "byteIndex": 14731,
  "name": "Note on",
  "channel": 1,
  "noteNumber": 71,
  "noteName": "B4",
  "velocity": 79,
  "dtick": 384,
  "ins": 0
 },
 {
  "track": 3,
  "delta": 0,
  "tick": 25728,
  "byteIndex": 14735,
  "name": "Note on",
  "channel": 1,
  "noteNumber": 67,
  "noteName": "G4",
  "velocity": 79,
  "dtick": 384,
  "ins": 0
 },
 {
  "track": 3,
  "delta": 0,
  "tick": 25728,
  "byteIndex": 14739,
  "name": "Note on",
  "channel": 1,
  "noteNumber": 62,
  "noteName": "D4",
  "velocity": 79,
  "dtick": 384,
  "ins": 0
 },
 {
  "track": 3,
  "delta": 0,
  "tick": 25728,
  "byteIndex": 14743,
  "name": "Note on",
  "channel": 1,
  "noteNumber": 55,
  "noteName": "G3",
  "velocity": 79,
  "dtick": 384,
  "ins": 0
 },
 {
  "track": 3,
  "delta": 48,
  "tick": 25776,
  "byteIndex": 14747,
  "name": "Note on",
  "channel": 1,
  "noteNumber": 79,
  "noteName": "G5",
  "velocity": 79,
  "dtick": 96,
  "ins": 0
 },
 {
  "track": 3,
  "delta": 48,
  "tick": 25824,
  "byteIndex": 14751,
  "name": "Note on",
  "channel": 1,
  "noteNumber": 81,
  "noteName": "A5",
  "velocity": 79,
  "dtick": 96,
  "ins": 0
 },
 {
  "track": 3,
  "delta": 0,
  "tick": 25872,
  "byteIndex": 14759,
  "name": "Note on",
  "channel": 1,
  "noteNumber": 84,
  "noteName": "C6",
  "velocity": 79,
  "dtick": 96,
  "ins": 0
 },
 {
  "track": 3,
  "delta": 0,
  "tick": 25920,
  "byteIndex": 14767,
  "name": "Note on",
  "channel": 1,
  "noteNumber": 86,
  "noteName": "D6",
  "velocity": 79,
  "dtick": 96,
  "ins": 0
 },
 {
  "track": 3,
  "delta": 0,
  "tick": 26112,
  "byteIndex": 14795,
  "name": "Note on",
  "channel": 1,
  "noteNumber": 45,
  "noteName": "A2",
  "velocity": 79,
  "dtick": 384,
  "ins": 0
 },
 {
  "track": 3,
  "delta": 0,
  "tick": 26112,
  "byteIndex": 14799,
  "name": "Note on",
  "channel": 1,
  "noteNumber": 52,
  "noteName": "E3",
  "velocity": 79,
  "dtick": 384,
  "ins": 0
 },
 {
  "track": 3,
  "delta": 0,
  "tick": 26112,
  "byteIndex": 14803,
  "name": "Note on",
  "channel": 1,
  "noteNumber": 57,
  "noteName": "A3",
  "velocity": 79,
  "dtick": 384,
  "ins": 0
 },
 {
  "track": 3,
  "delta": 0,
  "tick": 26112,
  "byteIndex": 14807,
  "name": "Note on",
  "channel": 1,
  "noteNumber": 76,
  "noteName": "E5",
  "velocity": 79,
  "dtick": 24,
  "ins": 0
 },
 {
  "track": 3,
  "delta": 0,
  "tick": 26136,
  "byteIndex": 14815,
  "name": "Note on",
  "channel": 1,
  "noteNumber": 67,
  "noteName": "G4",
  "velocity": 79,
  "dtick": 24,
  "ins": 0
 },
 {
  "track": 3,
  "delta": 0,
  "tick": 26160,
  "byteIndex": 14823,
  "name": "Note on",
  "channel": 1,
  "noteNumber": 72,
  "noteName": "C5",
  "velocity": 79,
  "dtick": 24,
  "ins": 0
 },
 {
  "track": 3,
  "delta": 0,
  "tick": 26184,
  "byteIndex": 14831,
  "name": "Note on",
  "channel": 1,
  "noteNumber": 74,
  "noteName": "D5",
  "velocity": 79,
  "dtick": 24,
  "ins": 0
 },
 {
  "track": 3,
  "delta": 0,
  "tick": 26208,
  "byteIndex": 14839,
  "name": "Note on",
  "channel": 1,
  "noteNumber": 76,
  "noteName": "E5",
  "velocity": 79,
  "dtick": 24,
  "ins": 0
 },
 {
  "track": 3,
  "delta": 0,
  "tick": 26232,
  "byteIndex": 14847,
  "name": "Note on",
  "channel": 1,
  "noteNumber": 79,
  "noteName": "G5",
  "velocity": 79,
  "dtick": 24,
  "ins": 0
 },
 {
  "track": 3,
  "delta": 0,
  "tick": 26256,
  "byteIndex": 14855,
  "name": "Note on",
  "channel": 1,
  "noteNumber": 76,
  "noteName": "E5",
  "velocity": 79,
  "dtick": 24,
  "ins": 0
 },
 {
  "track": 3,
  "delta": 0,
  "tick": 26280,
  "byteIndex": 14863,
  "name": "Note on",
  "channel": 1,
  "noteNumber": 72,
  "noteName": "C5",
  "velocity": 79,
  "dtick": 24,
  "ins": 0
 },
 {
  "track": 3,
  "delta": 0,
  "tick": 26304,
  "byteIndex": 14871,
  "name": "Note on",
  "channel": 1,
  "noteNumber": 69,
  "noteName": "A4",
  "velocity": 79,
  "dtick": 24,
  "ins": 0
 },
 {
  "track": 3,
  "delta": 0,
  "tick": 26328,
  "byteIndex": 14879,
  "name": "Note on",
  "channel": 1,
  "noteNumber": 67,
  "noteName": "G4",
  "velocity": 79,
  "dtick": 24,
  "ins": 0
 },
 {
  "track": 3,
  "delta": 0,
  "tick": 26352,
  "byteIndex": 14887,
  "name": "Note on",
  "channel": 1,
  "noteNumber": 72,
  "noteName": "C5",
  "velocity": 79,
  "dtick": 24,
  "ins": 0
 },
 {
  "track": 3,
  "delta": 0,
  "tick": 26376,
  "byteIndex": 14895,
  "name": "Note on",
  "channel": 1,
  "noteNumber": 74,
  "noteName": "D5",
  "velocity": 79,
  "dtick": 24,
  "ins": 0
 },
 {
  "track": 3,
  "delta": 0,
  "tick": 26400,
  "byteIndex": 14903,
  "name": "Note on",
  "channel": 1,
  "noteNumber": 72,
  "noteName": "C5",
  "velocity": 79,
  "dtick": 24,
  "ins": 0
 },
 {
  "track": 3,
  "delta": 0,
  "tick": 26424,
  "byteIndex": 14911,
  "name": "Note on",
  "channel": 1,
  "noteNumber": 79,
  "noteName": "G5",
  "velocity": 79,
  "dtick": 24,
  "ins": 0
 },
 {
  "track": 3,
  "delta": 0,
  "tick": 26448,
  "byteIndex": 14919,
  "name": "Note on",
  "channel": 1,
  "noteNumber": 76,
  "noteName": "E5",
  "velocity": 79,
  "dtick": 24,
  "ins": 0
 },
 {
  "track": 3,
  "delta": 0,
  "tick": 26472,
  "byteIndex": 14927,
  "name": "Note on",
  "channel": 1,
  "noteNumber": 72,
  "noteName": "C5",
  "velocity": 79,
  "dtick": 24,
  "ins": 0
 },
 {
  "track": 3,
  "delta": 0,
  "tick": 26496,
  "byteIndex": 14947,
  "name": "Note on",
  "channel": 1,
  "noteNumber": 76,
  "noteName": "E5",
  "velocity": 79,
  "dtick": 24,
  "ins": 0
 },
 {
  "track": 3,
  "delta": 0,
  "tick": 26496,
  "byteIndex": 14951,
  "name": "Note on",
  "channel": 1,
  "noteNumber": 45,
  "noteName": "A2",
  "velocity": 79,
  "dtick": 384,
  "ins": 0
 },
 {
  "track": 3,
  "delta": 0,
  "tick": 26496,
  "byteIndex": 14955,
  "name": "Note on",
  "channel": 1,
  "noteNumber": 52,
  "noteName": "E3",
  "velocity": 79,
  "dtick": 384,
  "ins": 0
 },
 {
  "track": 3,
  "delta": 0,
  "tick": 26496,
  "byteIndex": 14959,
  "name": "Note on",
  "channel": 1,
  "noteNumber": 57,
  "noteName": "A3",
  "velocity": 79,
  "dtick": 384,
  "ins": 0
 },
 {
  "track": 3,
  "delta": 0,
  "tick": 26520,
  "byteIndex": 14967,
  "name": "Note on",
  "channel": 1,
  "noteNumber": 69,
  "noteName": "A4",
  "velocity": 79,
  "dtick": 24,
  "ins": 0
 },
 {
  "track": 3,
  "delta": 0,
  "tick": 26544,
  "byteIndex": 14975,
  "name": "Note on",
  "channel": 1,
  "noteNumber": 72,
  "noteName": "C5",
  "velocity": 79,
  "dtick": 24,
  "ins": 0
 },
 {
  "track": 3,
  "delta": 0,
  "tick": 26568,
  "byteIndex": 14983,
  "name": "Note on",
  "channel": 1,
  "noteNumber": 74,
  "noteName": "D5",
  "velocity": 79,
  "dtick": 24,
  "ins": 0
 },
 {
  "track": 3,
  "delta": 0,
  "tick": 26592,
  "byteIndex": 14991,
  "name": "Note on",
  "channel": 1,
  "noteNumber": 76,
  "noteName": "E5",
  "velocity": 79,
  "dtick": 24,
  "ins": 0
 },
 {
  "track": 3,
  "delta": 0,
  "tick": 26616,
  "byteIndex": 14999,
  "name": "Note on",
  "channel": 1,
  "noteNumber": 79,
  "noteName": "G5",
  "velocity": 79,
  "dtick": 24,
  "ins": 0
 },
 {
  "track": 3,
  "delta": 0,
  "tick": 26640,
  "byteIndex": 15007,
  "name": "Note on",
  "channel": 1,
  "noteNumber": 76,
  "noteName": "E5",
  "velocity": 79,
  "dtick": 24,
  "ins": 0
 },
 {
  "track": 3,
  "delta": 0,
  "tick": 26664,
  "byteIndex": 15015,
  "name": "Note on",
  "channel": 1,
  "noteNumber": 72,
  "noteName": "C5",
  "velocity": 79,
  "dtick": 24,
  "ins": 0
 },
 {
  "track": 3,
  "delta": 0,
  "tick": 26688,
  "byteIndex": 15023,
  "name": "Note on",
  "channel": 1,
  "noteNumber": 69,
  "noteName": "A4",
  "velocity": 79,
  "dtick": 24,
  "ins": 0
 },
 {
  "track": 3,
  "delta": 0,
  "tick": 26712,
  "byteIndex": 15031,
  "name": "Note on",
  "channel": 1,
  "noteNumber": 67,
  "noteName": "G4",
  "velocity": 79,
  "dtick": 24,
  "ins": 0
 },
 {
  "track": 3,
  "delta": 0,
  "tick": 26736,
  "byteIndex": 15039,
  "name": "Note on",
  "channel": 1,
  "noteNumber": 72,
  "noteName": "C5",
  "velocity": 79,
  "dtick": 24,
  "ins": 0
 },
 {
  "track": 3,
  "delta": 0,
  "tick": 26760,
  "byteIndex": 15047,
  "name": "Note on",
  "channel": 1,
  "noteNumber": 74,
  "noteName": "D5",
  "velocity": 79,
  "dtick": 24,
  "ins": 0
 },
 {
  "track": 3,
  "delta": 0,
  "tick": 26784,
  "byteIndex": 15055,
  "name": "Note on",
  "channel": 1,
  "noteNumber": 72,
  "noteName": "C5",
  "velocity": 79,
  "dtick": 24,
  "ins": 0
 },
 {
  "track": 3,
  "delta": 0,
  "tick": 26808,
  "byteIndex": 15063,
  "name": "Note on",
  "channel": 1,
  "noteNumber": 69,
  "noteName": "A4",
  "velocity": 79,
  "dtick": 24,
  "ins": 0
 },
 {
  "track": 3,
  "delta": 0,
  "tick": 26832,
  "byteIndex": 15071,
  "name": "Note on",
  "channel": 1,
  "noteNumber": 67,
  "noteName": "G4",
  "velocity": 79,
  "dtick": 24,
  "ins": 0
 },
 {
  "track": 3,
  "delta": 0,
  "tick": 26856,
  "byteIndex": 15079,
  "name": "Note on",
  "channel": 1,
  "noteNumber": 64,
  "noteName": "E4",
  "velocity": 79,
  "dtick": 23,
  "ins": 0
 },
 {
  "track": 3,
  "delta": 0,
  "tick": 26880,
  "byteIndex": 15099,
  "name": "Note on",
  "channel": 1,
  "noteNumber": 76,
  "noteName": "E5",
  "velocity": 79,
  "dtick": 24,
  "ins": 0
 },
 {
  "track": 3,
  "delta": 0,
  "tick": 26880,
  "byteIndex": 15103,
  "name": "Note on",
  "channel": 1,
  "noteNumber": 45,
  "noteName": "A2",
  "velocity": 79,
  "dtick": 384,
  "ins": 0
 },
 {
  "track": 3,
  "delta": 0,
  "tick": 26880,
  "byteIndex": 15107,
  "name": "Note on",
  "channel": 1,
  "noteNumber": 52,
  "noteName": "E3",
  "velocity": 79,
  "dtick": 384,
  "ins": 0
 },
 {
  "track": 3,
  "delta": 0,
  "tick": 26880,
  "byteIndex": 15111,
  "name": "Note on",
  "channel": 1,
  "noteNumber": 57,
  "noteName": "A3",
  "velocity": 79,
  "dtick": 384,
  "ins": 0
 },
 {
  "track": 3,
  "delta": 0,
  "tick": 26904,
  "byteIndex": 15119,
  "name": "Note on",
  "channel": 1,
  "noteNumber": 67,
  "noteName": "G4",
  "velocity": 79,
  "dtick": 24,
  "ins": 0
 },
 {
  "track": 3,
  "delta": 0,
  "tick": 26928,
  "byteIndex": 15127,
  "name": "Note on",
  "channel": 1,
  "noteNumber": 72,
  "noteName": "C5",
  "velocity": 79,
  "dtick": 24,
  "ins": 0
 },
 {
  "track": 3,
  "delta": 0,
  "tick": 26952,
  "byteIndex": 15135,
  "name": "Note on",
  "channel": 1,
  "noteNumber": 74,
  "noteName": "D5",
  "velocity": 79,
  "dtick": 24,
  "ins": 0
 },
 {
  "track": 3,
  "delta": 0,
  "tick": 26976,
  "byteIndex": 15143,
  "name": "Note on",
  "channel": 1,
  "noteNumber": 76,
  "noteName": "E5",
  "velocity": 79,
  "dtick": 24,
  "ins": 0
 },
 {
  "track": 3,
  "delta": 0,
  "tick": 27000,
  "byteIndex": 15151,
  "name": "Note on",
  "channel": 1,
  "noteNumber": 79,
  "noteName": "G5",
  "velocity": 79,
  "dtick": 24,
  "ins": 0
 },
 {
  "track": 3,
  "delta": 0,
  "tick": 27024,
  "byteIndex": 15159,
  "name": "Note on",
  "channel": 1,
  "noteNumber": 76,
  "noteName": "E5",
  "velocity": 79,
  "dtick": 24,
  "ins": 0
 },
 {
  "track": 3,
  "delta": 0,
  "tick": 27048,
  "byteIndex": 15167,
  "name": "Note on",
  "channel": 1,
  "noteNumber": 72,
  "noteName": "C5",
  "velocity": 79,
  "dtick": 24,
  "ins": 0
 },
 {
  "track": 3,
  "delta": 0,
  "tick": 27072,
  "byteIndex": 15175,
  "name": "Note on",
  "channel": 1,
  "noteNumber": 69,
  "noteName": "A4",
  "velocity": 79,
  "dtick": 24,
  "ins": 0
 },
 {
  "track": 3,
  "delta": 0,
  "tick": 27096,
  "byteIndex": 15183,
  "name": "Note on",
  "channel": 1,
  "noteNumber": 67,
  "noteName": "G4",
  "velocity": 79,
  "dtick": 24,
  "ins": 0
 },
 {
  "track": 3,
  "delta": 0,
  "tick": 27120,
  "byteIndex": 15191,
  "name": "Note on",
  "channel": 1,
  "noteNumber": 72,
  "noteName": "C5",
  "velocity": 79,
  "dtick": 24,
  "ins": 0
 },
 {
  "track": 3,
  "delta": 0,
  "tick": 27144,
  "byteIndex": 15199,
  "name": "Note on",
  "channel": 1,
  "noteNumber": 74,
  "noteName": "D5",
  "velocity": 79,
  "dtick": 24,
  "ins": 0
 },
 {
  "track": 3,
  "delta": 0,
  "tick": 27168,
  "byteIndex": 15207,
  "name": "Note on",
  "channel": 1,
  "noteNumber": 72,
  "noteName": "C5",
  "velocity": 79,
  "dtick": 24,
  "ins": 0
 },
 {
  "track": 3,
  "delta": 0,
  "tick": 27192,
  "byteIndex": 15215,
  "name": "Note on",
  "channel": 1,
  "noteNumber": 79,
  "noteName": "G5",
  "velocity": 79,
  "dtick": 24,
  "ins": 0
 },
 {
  "track": 3,
  "delta": 0,
  "tick": 27216,
  "byteIndex": 15223,
  "name": "Note on",
  "channel": 1,
  "noteNumber": 76,
  "noteName": "E5",
  "velocity": 79,
  "dtick": 24,
  "ins": 0
 },
 {
  "track": 3,
  "delta": 0,
  "tick": 27240,
  "byteIndex": 15231,
  "name": "Note on",
  "channel": 1,
  "noteNumber": 72,
  "noteName": "C5",
  "velocity": 79,
  "dtick": 24,
  "ins": 0
 },
 {
  "track": 3,
  "delta": 0,
  "tick": 27264,
  "byteIndex": 15251,
  "name": "Note on",
  "channel": 1,
  "noteNumber": 76,
  "noteName": "E5",
  "velocity": 79,
  "dtick": 24,
  "ins": 0
 },
 {
  "track": 3,
  "delta": 0,
  "tick": 27264,
  "byteIndex": 15255,
  "name": "Note on",
  "channel": 1,
  "noteNumber": 45,
  "noteName": "A2",
  "velocity": 79,
  "dtick": 384,
  "ins": 0
 },
 {
  "track": 3,
  "delta": 0,
  "tick": 27264,
  "byteIndex": 15259,
  "name": "Note on",
  "channel": 1,
  "noteNumber": 52,
  "noteName": "E3",
  "velocity": 79,
  "dtick": 384,
  "ins": 0
 },
 {
  "track": 3,
  "delta": 0,
  "tick": 27264,
  "byteIndex": 15263,
  "name": "Note on",
  "channel": 1,
  "noteNumber": 57,
  "noteName": "A3",
  "velocity": 79,
  "dtick": 384,
  "ins": 0
 },
 {
  "track": 3,
  "delta": 0,
  "tick": 27288,
  "byteIndex": 15271,
  "name": "Note on",
  "channel": 1,
  "noteNumber": 69,
  "noteName": "A4",
  "velocity": 79,
  "dtick": 24,
  "ins": 0
 },
 {
  "track": 3,
  "delta": 0,
  "tick": 27312,
  "byteIndex": 15279,
  "name": "Note on",
  "channel": 1,
  "noteNumber": 72,
  "noteName": "C5",
  "velocity": 79,
  "dtick": 24,
  "ins": 0
 },
 {
  "track": 3,
  "delta": 0,
  "tick": 27336,
  "byteIndex": 15287,
  "name": "Note on",
  "channel": 1,
  "noteNumber": 74,
  "noteName": "D5",
  "velocity": 79,
  "dtick": 24,
  "ins": 0
 },
 {
  "track": 3,
  "delta": 0,
  "tick": 27360,
  "byteIndex": 15295,
  "name": "Note on",
  "channel": 1,
  "noteNumber": 76,
  "noteName": "E5",
  "velocity": 79,
  "dtick": 24,
  "ins": 0
 },
 {
  "track": 3,
  "delta": 0,
  "tick": 27384,
  "byteIndex": 15303,
  "name": "Note on",
  "channel": 1,
  "noteNumber": 79,
  "noteName": "G5",
  "velocity": 79,
  "dtick": 24,
  "ins": 0
 },
 {
  "track": 3,
  "delta": 0,
  "tick": 27408,
  "byteIndex": 15311,
  "name": "Note on",
  "channel": 1,
  "noteNumber": 76,
  "noteName": "E5",
  "velocity": 79,
  "dtick": 24,
  "ins": 0
 },
 {
  "track": 3,
  "delta": 0,
  "tick": 27432,
  "byteIndex": 15319,
  "name": "Note on",
  "channel": 1,
  "noteNumber": 72,
  "noteName": "C5",
  "velocity": 79,
  "dtick": 24,
  "ins": 0
 },
 {
  "track": 3,
  "delta": 0,
  "tick": 27456,
  "byteIndex": 15327,
  "name": "Note on",
  "channel": 1,
  "noteNumber": 69,
  "noteName": "A4",
  "velocity": 79,
  "dtick": 24,
  "ins": 0
 },
 {
  "track": 3,
  "delta": 0,
  "tick": 27480,
  "byteIndex": 15335,
  "name": "Note on",
  "channel": 1,
  "noteNumber": 67,
  "noteName": "G4",
  "velocity": 79,
  "dtick": 24,
  "ins": 0
 },
 {
  "track": 3,
  "delta": 0,
  "tick": 27504,
  "byteIndex": 15343,
  "name": "Note on",
  "channel": 1,
  "noteNumber": 72,
  "noteName": "C5",
  "velocity": 79,
  "dtick": 24,
  "ins": 0
 },
 {
  "track": 3,
  "delta": 0,
  "tick": 27528,
  "byteIndex": 15351,
  "name": "Note on",
  "channel": 1,
  "noteNumber": 74,
  "noteName": "D5",
  "velocity": 79,
  "dtick": 24,
  "ins": 0
 },
 {
  "track": 3,
  "delta": 0,
  "tick": 27552,
  "byteIndex": 15359,
  "name": "Note on",
  "channel": 1,
  "noteNumber": 72,
  "noteName": "C5",
  "velocity": 79,
  "dtick": 24,
  "ins": 0
 },
 {
  "track": 3,
  "delta": 0,
  "tick": 27576,
  "byteIndex": 15367,
  "name": "Note on",
  "channel": 1,
  "noteNumber": 69,
  "noteName": "A4",
  "velocity": 79,
  "dtick": 24,
  "ins": 0
 },
 {
  "track": 3,
  "delta": 0,
  "tick": 27600,
  "byteIndex": 15375,
  "name": "Note on",
  "channel": 1,
  "noteNumber": 67,
  "noteName": "G4",
  "velocity": 79,
  "dtick": 24,
  "ins": 0
 },
 {
  "track": 3,
  "delta": 0,
  "tick": 27624,
  "byteIndex": 15383,
  "name": "Note on",
  "channel": 1,
  "noteNumber": 64,
  "noteName": "E4",
  "velocity": 79,
  "dtick": 23,
  "ins": 0
 },
 {
  "track": 3,
  "delta": 0,
  "tick": 27648,
  "byteIndex": 15403,
  "name": "Note on",
  "channel": 1,
  "noteNumber": 57,
  "noteName": "A3",
  "velocity": 79,
  "dtick": 384,
  "ins": 0
 },
 {
  "track": 3,
  "delta": 0,
  "tick": 27648,
  "byteIndex": 15407,
  "name": "Note on",
  "channel": 1,
  "noteNumber": 45,
  "noteName": "A2",
  "velocity": 79,
  "dtick": 384,
  "ins": 0
 },
 {
  "track": 3,
  "delta": 0,
  "tick": 27648,
  "byteIndex": 15411,
  "name": "Note on",
  "channel": 1,
  "noteNumber": 52,
  "noteName": "E3",
  "velocity": 79,
  "dtick": 384,
  "ins": 0
 },
 {
  "track": 3,
  "delta": 0,
  "tick": 27648,
  "byteIndex": 15415,
  "name": "Note on",
  "channel": 1,
  "noteNumber": 79,
  "noteName": "G5",
  "velocity": 79,
  "dtick": 48,
  "ins": 0
 },
 {
  "track": 3,
  "delta": 0,
  "tick": 27696,
  "byteIndex": 15423,
  "name": "Note on",
  "channel": 1,
  "noteNumber": 76,
  "noteName": "E5",
  "velocity": 79,
  "dtick": 48,
  "ins": 0
 },
 {
  "track": 3,
  "delta": 0,
  "tick": 27744,
  "byteIndex": 15431,
  "name": "Note on",
  "channel": 1,
  "noteNumber": 72,
  "noteName": "C5",
  "velocity": 79,
  "dtick": 48,
  "ins": 0
 },
 {
  "track": 3,
  "delta": 0,
  "tick": 27792,
  "byteIndex": 15439,
  "name": "Note on",
  "channel": 1,
  "noteNumber": 79,
  "noteName": "G5",
  "velocity": 79,
  "dtick": 48,
  "ins": 0
 },
 {
  "track": 3,
  "delta": 0,
  "tick": 27840,
  "byteIndex": 15447,
  "name": "Note on",
  "channel": 1,
  "noteNumber": 76,
  "noteName": "E5",
  "velocity": 79,
  "dtick": 48,
  "ins": 0
 },
 {
  "track": 3,
  "delta": 0,
  "tick": 27888,
  "byteIndex": 15455,
  "name": "Note on",
  "channel": 1,
  "noteNumber": 72,
  "noteName": "C5",
  "velocity": 79,
  "dtick": 48,
  "ins": 0
 },
 {
  "track": 3,
  "delta": 0,
  "tick": 27936,
  "byteIndex": 15463,
  "name": "Note on",
  "channel": 1,
  "noteNumber": 79,
  "noteName": "G5",
  "velocity": 79,
  "dtick": 48,
  "ins": 0
 },
 {
  "track": 3,
  "delta": 0,
  "tick": 27984,
  "byteIndex": 15471,
  "name": "Note on",
  "channel": 1,
  "noteNumber": 76,
  "noteName": "E5",
  "velocity": 79,
  "dtick": 48,
  "ins": 0
 },
 {
  "track": 3,
  "delta": 0,
  "tick": 28032,
  "byteIndex": 15491,
  "name": "Note on",
  "channel": 1,
  "noteNumber": 48,
  "noteName": "C3",
  "velocity": 79,
  "dtick": 384,
  "ins": 0
 },
 {
  "track": 3,
  "delta": 0,
  "tick": 28032,
  "byteIndex": 15495,
  "name": "Note on",
  "channel": 1,
  "noteNumber": 53,
  "noteName": "F3",
  "velocity": 79,
  "dtick": 384,
  "ins": 0
 },
 {
  "track": 3,
  "delta": 0,
  "tick": 28032,
  "byteIndex": 15499,
  "name": "Note on",
  "channel": 1,
  "noteNumber": 41,
  "noteName": "F2",
  "velocity": 79,
  "dtick": 384,
  "ins": 0
 },
 {
  "track": 3,
  "delta": 0,
  "tick": 28032,
  "byteIndex": 15503,
  "name": "Note on",
  "channel": 1,
  "noteNumber": 77,
  "noteName": "F5",
  "velocity": 79,
  "dtick": 48,
  "ins": 0
 },
 {
  "track": 3,
  "delta": 0,
  "tick": 28080,
  "byteIndex": 15511,
  "name": "Note on",
  "channel": 1,
  "noteNumber": 76,
  "noteName": "E5",
  "velocity": 79,
  "dtick": 48,
  "ins": 0
 },
 {
  "track": 3,
  "delta": 0,
  "tick": 28128,
  "byteIndex": 15519,
  "name": "Note on",
  "channel": 1,
  "noteNumber": 72,
  "noteName": "C5",
  "velocity": 79,
  "dtick": 48,
  "ins": 0
 },
 {
  "track": 3,
  "delta": 0,
  "tick": 28176,
  "byteIndex": 15527,
  "name": "Note on",
  "channel": 1,
  "noteNumber": 77,
  "noteName": "F5",
  "velocity": 79,
  "dtick": 48,
  "ins": 0
 },
 {
  "track": 3,
  "delta": 0,
  "tick": 28224,
  "byteIndex": 15535,
  "name": "Note on",
  "channel": 1,
  "noteNumber": 76,
  "noteName": "E5",
  "velocity": 79,
  "dtick": 48,
  "ins": 0
 },
 {
  "track": 3,
  "delta": 0,
  "tick": 28272,
  "byteIndex": 15543,
  "name": "Note on",
  "channel": 1,
  "noteNumber": 72,
  "noteName": "C5",
  "velocity": 79,
  "dtick": 48,
  "ins": 0
 },
 {
  "track": 3,
  "delta": 0,
  "tick": 28320,
  "byteIndex": 15551,
  "name": "Note on",
  "channel": 1,
  "noteNumber": 77,
  "noteName": "F5",
  "velocity": 79,
  "dtick": 48,
  "ins": 0
 },
 {
  "track": 3,
  "delta": 0,
  "tick": 28368,
  "byteIndex": 15559,
  "name": "Note on",
  "channel": 1,
  "noteNumber": 76,
  "noteName": "E5",
  "velocity": 79,
  "dtick": 48,
  "ins": 0
 },
 {
  "track": 3,
  "delta": 0,
  "tick": 28416,
  "byteIndex": 15579,
  "name": "Note on",
  "channel": 1,
  "noteNumber": 55,
  "noteName": "G3",
  "velocity": 79,
  "dtick": 384,
  "ins": 0
 },
 {
  "track": 3,
  "delta": 0,
  "tick": 28416,
  "byteIndex": 15583,
  "name": "Note on",
  "channel": 1,
  "noteNumber": 60,
  "noteName": "C4",
  "velocity": 79,
  "dtick": 384,
  "ins": 0
 },
 {
  "track": 3,
  "delta": 0,
  "tick": 28416,
  "byteIndex": 15587,
  "name": "Note on",
  "channel": 1,
  "noteNumber": 48,
  "noteName": "C3",
  "velocity": 79,
  "dtick": 384,
  "ins": 0
 },
 {
  "track": 3,
  "delta": 0,
  "tick": 28416,
  "byteIndex": 15591,
  "name": "Note on",
  "channel": 1,
  "noteNumber": 76,
  "noteName": "E5",
  "velocity": 79,
  "dtick": 48,
  "ins": 0
 },
 {
  "track": 3,
  "delta": 0,
  "tick": 28464,
  "byteIndex": 15599,
  "name": "Note on",
  "channel": 1,
  "noteNumber": 72,
  "noteName": "C5",
  "velocity": 79,
  "dtick": 48,
  "ins": 0
 },
 {
  "track": 3,
  "delta": 0,
  "tick": 28512,
  "byteIndex": 15607,
  "name": "Note on",
  "channel": 1,
  "noteNumber": 67,
  "noteName": "G4",
  "velocity": 79,
  "dtick": 48,
  "ins": 0
 },
 {
  "track": 3,
  "delta": 0,
  "tick": 28560,
  "byteIndex": 15615,
  "name": "Note on",
  "channel": 1,
  "noteNumber": 76,
  "noteName": "E5",
  "velocity": 79,
  "dtick": 48,
  "ins": 0
 },
 {
  "track": 3,
  "delta": 0,
  "tick": 28608,
  "byteIndex": 15623,
  "name": "Note on",
  "channel": 1,
  "noteNumber": 72,
  "noteName": "C5",
  "velocity": 79,
  "dtick": 48,
  "ins": 0
 },
 {
  "track": 3,
  "delta": 0,
  "tick": 28656,
  "byteIndex": 15631,
  "name": "Note on",
  "channel": 1,
  "noteNumber": 67,
  "noteName": "G4",
  "velocity": 79,
  "dtick": 48,
  "ins": 0
 },
 {
  "track": 3,
  "delta": 0,
  "tick": 28704,
  "byteIndex": 15639,
  "name": "Note on",
  "channel": 1,
  "noteNumber": 76,
  "noteName": "E5",
  "velocity": 79,
  "dtick": 48,
  "ins": 0
 },
 {
  "track": 3,
  "delta": 0,
  "tick": 28752,
  "byteIndex": 15647,
  "name": "Note on",
  "channel": 1,
  "noteNumber": 72,
  "noteName": "C5",
  "velocity": 79,
  "dtick": 48,
  "ins": 0
 },
 {
  "track": 3,
  "delta": 0,
  "tick": 28800,
  "byteIndex": 15667,
  "name": "Note on",
  "channel": 1,
  "noteNumber": 48,
  "noteName": "C3",
  "velocity": 79,
  "dtick": 384,
  "ins": 0
 },
 {
  "track": 3,
  "delta": 0,
  "tick": 28800,
  "byteIndex": 15671,
  "name": "Note on",
  "channel": 1,
  "noteNumber": 55,
  "noteName": "G3",
  "velocity": 79,
  "dtick": 384,
  "ins": 0
 },
 {
  "track": 3,
  "delta": 0,
  "tick": 28800,
  "byteIndex": 15675,
  "name": "Note on",
  "channel": 1,
  "noteNumber": 59,
  "noteName": "B3",
  "velocity": 79,
  "dtick": 384,
  "ins": 0
 },
 {
  "track": 3,
  "delta": 0,
  "tick": 28800,
  "byteIndex": 15679,
  "name": "Note on",
  "channel": 1,
  "noteNumber": 74,
  "noteName": "D5",
  "velocity": 79,
  "dtick": 48,
  "ins": 0
 },
 {
  "track": 3,
  "delta": 0,
  "tick": 28848,
  "byteIndex": 15687,
  "name": "Note on",
  "channel": 1,
  "noteNumber": 72,
  "noteName": "C5",
  "velocity": 79,
  "dtick": 48,
  "ins": 0
 },
 {
  "track": 3,
  "delta": 0,
  "tick": 28896,
  "byteIndex": 15695,
  "name": "Note on",
  "channel": 1,
  "noteNumber": 67,
  "noteName": "G4",
  "velocity": 79,
  "dtick": 48,
  "ins": 0
 },
 {
  "track": 3,
  "delta": 0,
  "tick": 28944,
  "byteIndex": 15703,
  "name": "Note on",
  "channel": 1,
  "noteNumber": 74,
  "noteName": "D5",
  "velocity": 79,
  "dtick": 48,
  "ins": 0
 },
 {
  "track": 3,
  "delta": 0,
  "tick": 28992,
  "byteIndex": 15711,
  "name": "Note on",
  "channel": 1,
  "noteNumber": 72,
  "noteName": "C5",
  "velocity": 79,
  "dtick": 48,
  "ins": 0
 },
 {
  "track": 3,
  "delta": 0,
  "tick": 29040,
  "byteIndex": 15719,
  "name": "Note on",
  "channel": 1,
  "noteNumber": 67,
  "noteName": "G4",
  "velocity": 79,
  "dtick": 48,
  "ins": 0
 },
 {
  "track": 3,
  "delta": 0,
  "tick": 29088,
  "byteIndex": 15727,
  "name": "Note on",
  "channel": 1,
  "noteNumber": 74,
  "noteName": "D5",
  "velocity": 79,
  "dtick": 48,
  "ins": 0
 },
 {
  "track": 3,
  "delta": 0,
  "tick": 29136,
  "byteIndex": 15735,
  "name": "Note on",
  "channel": 1,
  "noteNumber": 76,
  "noteName": "E5",
  "velocity": 79,
  "dtick": 48,
  "ins": 0
 },
 {
  "track": 3,
  "delta": 0,
  "tick": 29184,
  "byteIndex": 15755,
  "name": "Note on",
  "channel": 1,
  "noteNumber": 57,
  "noteName": "A3",
  "velocity": 79,
  "dtick": 144,
  "ins": 0
 },
 {
  "track": 3,
  "delta": 0,
  "tick": 29184,
  "byteIndex": 15759,
  "name": "Note on",
  "channel": 1,
  "noteNumber": 45,
  "noteName": "A2",
  "velocity": 79,
  "dtick": 144,
  "ins": 0
 },
 {
  "track": 3,
  "delta": 0,
  "tick": 29184,
  "byteIndex": 15763,
  "name": "Note on",
  "channel": 1,
  "noteNumber": 52,
  "noteName": "E3",
  "velocity": 79,
  "dtick": 144,
  "ins": 0
 },
 {
  "track": 3,
  "delta": 0,
  "tick": 29184,
  "byteIndex": 15767,
  "name": "Note on",
  "channel": 1,
  "noteNumber": 79,
  "noteName": "G5",
  "velocity": 79,
  "dtick": 48,
  "ins": 0
 },
 {
  "track": 3,
  "delta": 0,
  "tick": 29232,
  "byteIndex": 15775,
  "name": "Note on",
  "channel": 1,
  "noteNumber": 76,
  "noteName": "E5",
  "velocity": 79,
  "dtick": 48,
  "ins": 0
 },
 {
  "track": 3,
  "delta": 0,
  "tick": 29280,
  "byteIndex": 15783,
  "name": "Note on",
  "channel": 1,
  "noteNumber": 72,
  "noteName": "C5",
  "velocity": 79,
  "dtick": 48,
  "ins": 0
 },
 {
  "track": 3,
  "delta": 0,
  "tick": 29328,
  "byteIndex": 15803,
  "name": "Note on",
  "channel": 1,
  "noteNumber": 57,
  "noteName": "A3",
  "velocity": 79,
  "dtick": 144,
  "ins": 0
 },
 {
  "track": 3,
  "delta": 0,
  "tick": 29328,
  "byteIndex": 15807,
  "name": "Note on",
  "channel": 1,
  "noteNumber": 45,
  "noteName": "A2",
  "velocity": 79,
  "dtick": 144,
  "ins": 0
 },
 {
  "track": 3,
  "delta": 0,
  "tick": 29328,
  "byteIndex": 15811,
  "name": "Note on",
  "channel": 1,
  "noteNumber": 52,
  "noteName": "E3",
  "velocity": 79,
  "dtick": 144,
  "ins": 0
 },
 {
  "track": 3,
  "delta": 0,
  "tick": 29328,
  "byteIndex": 15815,
  "name": "Note on",
  "channel": 1,
  "noteNumber": 79,
  "noteName": "G5",
  "velocity": 79,
  "dtick": 48,
  "ins": 0
 },
 {
  "track": 3,
  "delta": 0,
  "tick": 29376,
  "byteIndex": 15823,
  "name": "Note on",
  "channel": 1,
  "noteNumber": 76,
  "noteName": "E5",
  "velocity": 79,
  "dtick": 48,
  "ins": 0
 },
 {
  "track": 3,
  "delta": 0,
  "tick": 29424,
  "byteIndex": 15831,
  "name": "Note on",
  "channel": 1,
  "noteNumber": 72,
  "noteName": "C5",
  "velocity": 79,
  "dtick": 48,
  "ins": 0
 },
 {
  "track": 3,
  "delta": 0,
  "tick": 29472,
  "byteIndex": 15851,
  "name": "Note on",
  "channel": 1,
  "noteNumber": 57,
  "noteName": "A3",
  "velocity": 79,
  "dtick": 96,
  "ins": 0
 },
 {
  "track": 3,
  "delta": 0,
  "tick": 29472,
  "byteIndex": 15855,
  "name": "Note on",
  "channel": 1,
  "noteNumber": 45,
  "noteName": "A2",
  "velocity": 79,
  "dtick": 96,
  "ins": 0
 },
 {
  "track": 3,
  "delta": 0,
  "tick": 29472,
  "byteIndex": 15859,
  "name": "Note on",
  "channel": 1,
  "noteNumber": 52,
  "noteName": "E3",
  "velocity": 79,
  "dtick": 96,
  "ins": 0
 },
 {
  "track": 3,
  "delta": 0,
  "tick": 29472,
  "byteIndex": 15863,
  "name": "Note on",
  "channel": 1,
  "noteNumber": 79,
  "noteName": "G5",
  "velocity": 79,
  "dtick": 48,
  "ins": 0
 },
 {
  "track": 3,
  "delta": 0,
  "tick": 29520,
  "byteIndex": 15871,
  "name": "Note on",
  "channel": 1,
  "noteNumber": 76,
  "noteName": "E5",
  "velocity": 79,
  "dtick": 48,
  "ins": 0
 },
 {
  "track": 3,
  "delta": 0,
  "tick": 29568,
  "byteIndex": 15891,
  "name": "Note on",
  "channel": 1,
  "noteNumber": 41,
  "noteName": "F2",
  "velocity": 79,
  "dtick": 144,
  "ins": 0
 },
 {
  "track": 3,
  "delta": 0,
  "tick": 29568,
  "byteIndex": 15895,
  "name": "Note on",
  "channel": 1,
  "noteNumber": 53,
  "noteName": "F3",
  "velocity": 79,
  "dtick": 144,
  "ins": 0
 },
 {
  "track": 3,
  "delta": 0,
  "tick": 29568,
  "byteIndex": 15899,
  "name": "Note on",
  "channel": 1,
  "noteNumber": 48,
  "noteName": "C3",
  "velocity": 79,
  "dtick": 144,
  "ins": 0
 },
 {
  "track": 3,
  "delta": 0,
  "tick": 29568,
  "byteIndex": 15903,
  "name": "Note on",
  "channel": 1,
  "noteNumber": 77,
  "noteName": "F5",
  "velocity": 79,
  "dtick": 48,
  "ins": 0
 },
 {
  "track": 3,
  "delta": 0,
  "tick": 29616,
  "byteIndex": 15911,
  "name": "Note on",
  "channel": 1,
  "noteNumber": 76,
  "noteName": "E5",
  "velocity": 79,
  "dtick": 48,
  "ins": 0
 },
 {
  "track": 3,
  "delta": 0,
  "tick": 29664,
  "byteIndex": 15919,
  "name": "Note on",
  "channel": 1,
  "noteNumber": 72,
  "noteName": "C5",
  "velocity": 79,
  "dtick": 48,
  "ins": 0
 },
 {
  "track": 3,
  "delta": 0,
  "tick": 29712,
  "byteIndex": 15939,
  "name": "Note on",
  "channel": 1,
  "noteNumber": 41,
  "noteName": "F2",
  "velocity": 79,
  "dtick": 144,
  "ins": 0
 },
 {
  "track": 3,
  "delta": 0,
  "tick": 29712,
  "byteIndex": 15943,
  "name": "Note on",
  "channel": 1,
  "noteNumber": 53,
  "noteName": "F3",
  "velocity": 79,
  "dtick": 144,
  "ins": 0
 },
 {
  "track": 3,
  "delta": 0,
  "tick": 29712,
  "byteIndex": 15947,
  "name": "Note on",
  "channel": 1,
  "noteNumber": 48,
  "noteName": "C3",
  "velocity": 79,
  "dtick": 144,
  "ins": 0
 },
 {
  "track": 3,
  "delta": 0,
  "tick": 29712,
  "byteIndex": 15951,
  "name": "Note on",
  "channel": 1,
  "noteNumber": 77,
  "noteName": "F5",
  "velocity": 79,
  "dtick": 48,
  "ins": 0
 },
 {
  "track": 3,
  "delta": 0,
  "tick": 29760,
  "byteIndex": 15959,
  "name": "Note on",
  "channel": 1,
  "noteNumber": 76,
  "noteName": "E5",
  "velocity": 79,
  "dtick": 48,
  "ins": 0
 },
 {
  "track": 3,
  "delta": 0,
  "tick": 29808,
  "byteIndex": 15967,
  "name": "Note on",
  "channel": 1,
  "noteNumber": 72,
  "noteName": "C5",
  "velocity": 79,
  "dtick": 48,
  "ins": 0
 },
 {
  "track": 3,
  "delta": 0,
  "tick": 29856,
  "byteIndex": 15987,
  "name": "Note on",
  "channel": 1,
  "noteNumber": 41,
  "noteName": "F2",
  "velocity": 79,
  "dtick": 96,
  "ins": 0
 },
 {
  "track": 3,
  "delta": 0,
  "tick": 29856,
  "byteIndex": 15991,
  "name": "Note on",
  "channel": 1,
  "noteNumber": 53,
  "noteName": "F3",
  "velocity": 79,
  "dtick": 96,
  "ins": 0
 },
 {
  "track": 3,
  "delta": 0,
  "tick": 29856,
  "byteIndex": 15995,
  "name": "Note on",
  "channel": 1,
  "noteNumber": 48,
  "noteName": "C3",
  "velocity": 79,
  "dtick": 96,
  "ins": 0
 },
 {
  "track": 3,
  "delta": 0,
  "tick": 29856,
  "byteIndex": 15999,
  "name": "Note on",
  "channel": 1,
  "noteNumber": 77,
  "noteName": "F5",
  "velocity": 79,
  "dtick": 48,
  "ins": 0
 },
 {
  "track": 3,
  "delta": 0,
  "tick": 29904,
  "byteIndex": 16007,
  "name": "Note on",
  "channel": 1,
  "noteNumber": 76,
  "noteName": "E5",
  "velocity": 79,
  "dtick": 48,
  "ins": 0
 },
 {
  "track": 3,
  "delta": 0,
  "tick": 29952,
  "byteIndex": 16027,
  "name": "Note on",
  "channel": 1,
  "noteNumber": 55,
  "noteName": "G3",
  "velocity": 79,
  "dtick": 144,
  "ins": 0
 },
 {
  "track": 3,
  "delta": 0,
  "tick": 29952,
  "byteIndex": 16031,
  "name": "Note on",
  "channel": 1,
  "noteNumber": 60,
  "noteName": "C4",
  "velocity": 79,
  "dtick": 144,
  "ins": 0
 },
 {
  "track": 3,
  "delta": 0,
  "tick": 29952,
  "byteIndex": 16035,
  "name": "Note on",
  "channel": 1,
  "noteNumber": 48,
  "noteName": "C3",
  "velocity": 79,
  "dtick": 144,
  "ins": 0
 },
 {
  "track": 3,
  "delta": 0,
  "tick": 29952,
  "byteIndex": 16039,
  "name": "Note on",
  "channel": 1,
  "noteNumber": 76,
  "noteName": "E5",
  "velocity": 79,
  "dtick": 48,
  "ins": 0
 },
 {
  "track": 3,
  "delta": 0,
  "tick": 30000,
  "byteIndex": 16047,
  "name": "Note on",
  "channel": 1,
  "noteNumber": 72,
  "noteName": "C5",
  "velocity": 79,
  "dtick": 48,
  "ins": 0
 },
 {
  "track": 3,
  "delta": 0,
  "tick": 30048,
  "byteIndex": 16055,
  "name": "Note on",
  "channel": 1,
  "noteNumber": 67,
  "noteName": "G4",
  "velocity": 79,
  "dtick": 48,
  "ins": 0
 },
 {
  "track": 3,
  "delta": 0,
  "tick": 30096,
  "byteIndex": 16075,
  "name": "Note on",
  "channel": 1,
  "noteNumber": 55,
  "noteName": "G3",
  "velocity": 79,
  "dtick": 144,
  "ins": 0
 },
 {
  "track": 3,
  "delta": 0,
  "tick": 30096,
  "byteIndex": 16079,
  "name": "Note on",
  "channel": 1,
  "noteNumber": 60,
  "noteName": "C4",
  "velocity": 79,
  "dtick": 144,
  "ins": 0
 },
 {
  "track": 3,
  "delta": 0,
  "tick": 30096,
  "byteIndex": 16083,
  "name": "Note on",
  "channel": 1,
  "noteNumber": 48,
  "noteName": "C3",
  "velocity": 79,
  "dtick": 144,
  "ins": 0
 },
 {
  "track": 3,
  "delta": 0,
  "tick": 30096,
  "byteIndex": 16087,
  "name": "Note on",
  "channel": 1,
  "noteNumber": 76,
  "noteName": "E5",
  "velocity": 79,
  "dtick": 48,
  "ins": 0
 },
 {
  "track": 3,
  "delta": 0,
  "tick": 30144,
  "byteIndex": 16095,
  "name": "Note on",
  "channel": 1,
  "noteNumber": 72,
  "noteName": "C5",
  "velocity": 79,
  "dtick": 48,
  "ins": 0
 },
 {
  "track": 3,
  "delta": 0,
  "tick": 30192,
  "byteIndex": 16103,
  "name": "Note on",
  "channel": 1,
  "noteNumber": 67,
  "noteName": "G4",
  "velocity": 79,
  "dtick": 48,
  "ins": 0
 },
 {
  "track": 3,
  "delta": 0,
  "tick": 30240,
  "byteIndex": 16123,
  "name": "Note on",
  "channel": 1,
  "noteNumber": 55,
  "noteName": "G3",
  "velocity": 79,
  "dtick": 96,
  "ins": 0
 },
 {
  "track": 3,
  "delta": 0,
  "tick": 30240,
  "byteIndex": 16127,
  "name": "Note on",
  "channel": 1,
  "noteNumber": 60,
  "noteName": "C4",
  "velocity": 79,
  "dtick": 96,
  "ins": 0
 },
 {
  "track": 3,
  "delta": 0,
  "tick": 30240,
  "byteIndex": 16131,
  "name": "Note on",
  "channel": 1,
  "noteNumber": 48,
  "noteName": "C3",
  "velocity": 79,
  "dtick": 96,
  "ins": 0
 },
 {
  "track": 3,
  "delta": 0,
  "tick": 30240,
  "byteIndex": 16135,
  "name": "Note on",
  "channel": 1,
  "noteNumber": 76,
  "noteName": "E5",
  "velocity": 79,
  "dtick": 48,
  "ins": 0
 },
 {
  "track": 3,
  "delta": 0,
  "tick": 30288,
  "byteIndex": 16143,
  "name": "Note on",
  "channel": 1,
  "noteNumber": 72,
  "noteName": "C5",
  "velocity": 79,
  "dtick": 48,
  "ins": 0
 },
 {
  "track": 3,
  "delta": 0,
  "tick": 30336,
  "byteIndex": 16163,
  "name": "Note on",
  "channel": 1,
  "noteNumber": 59,
  "noteName": "B3",
  "velocity": 79,
  "dtick": 288,
  "ins": 0
 },
 {
  "track": 3,
  "delta": 0,
  "tick": 30336,
  "byteIndex": 16167,
  "name": "Note on",
  "channel": 1,
  "noteNumber": 55,
  "noteName": "G3",
  "velocity": 79,
  "dtick": 288,
  "ins": 0
 },
 {
  "track": 3,
  "delta": 0,
  "tick": 30336,
  "byteIndex": 16171,
  "name": "Note on",
  "channel": 1,
  "noteNumber": 48,
  "noteName": "C3",
  "velocity": 79,
  "dtick": 288,
  "ins": 0
 },
 {
  "track": 3,
  "delta": 0,
  "tick": 30336,
  "byteIndex": 16175,
  "name": "Note on",
  "channel": 1,
  "noteNumber": 74,
  "noteName": "D5",
  "velocity": 79,
  "dtick": 48,
  "ins": 0
 },
 {
  "track": 3,
  "delta": 0,
  "tick": 30384,
  "byteIndex": 16183,
  "name": "Note on",
  "channel": 1,
  "noteNumber": 72,
  "noteName": "C5",
  "velocity": 79,
  "dtick": 48,
  "ins": 0
 },
 {
  "track": 3,
  "delta": 0,
  "tick": 30432,
  "byteIndex": 16191,
  "name": "Note on",
  "channel": 1,
  "noteNumber": 67,
  "noteName": "G4",
  "velocity": 79,
  "dtick": 48,
  "ins": 0
 },
 {
  "track": 3,
  "delta": 0,
  "tick": 30480,
  "byteIndex": 16199,
  "name": "Note on",
  "channel": 1,
  "noteNumber": 74,
  "noteName": "D5",
  "velocity": 79,
  "dtick": 48,
  "ins": 0
 },
 {
  "track": 3,
  "delta": 0,
  "tick": 30528,
  "byteIndex": 16207,
  "name": "Note on",
  "channel": 1,
  "noteNumber": 72,
  "noteName": "C5",
  "velocity": 79,
  "dtick": 48,
  "ins": 0
 },
 {
  "track": 3,
  "delta": 0,
  "tick": 30576,
  "byteIndex": 16215,
  "name": "Note on",
  "channel": 1,
  "noteNumber": 67,
  "noteName": "G4",
  "velocity": 79,
  "dtick": 48,
  "ins": 0
 },
 {
  "track": 3,
  "delta": 96,
  "tick": 30720,
  "byteIndex": 16235,
  "name": "Note on",
  "channel": 1,
  "noteNumber": 57,
  "noteName": "A3",
  "velocity": 79,
  "dtick": 48,
  "ins": 0
 },
 {
  "track": 3,
  "delta": 0,
  "tick": 30720,
  "byteIndex": 16239,
  "name": "Note on",
  "channel": 1,
  "noteNumber": 45,
  "noteName": "A2",
  "velocity": 79,
  "dtick": 48,
  "ins": 0
 },
 {
  "track": 3,
  "delta": 0,
  "tick": 30720,
  "byteIndex": 16243,
  "name": "Note on",
  "channel": 1,
  "noteNumber": 52,
  "noteName": "E3",
  "velocity": 79,
  "dtick": 48,
  "ins": 0
 },
 {
  "track": 3,
  "delta": 0,
  "tick": 30720,
  "byteIndex": 16247,
  "name": "Note on",
  "channel": 1,
  "noteNumber": 79,
  "noteName": "G5",
  "velocity": 79,
  "dtick": 48,
  "ins": 0
 },
 {
  "track": 3,
  "delta": 0,
  "tick": 30720,
  "byteIndex": 16251,
  "name": "Note on",
  "channel": 1,
  "noteNumber": 91,
  "noteName": "G6",
  "velocity": 79,
  "dtick": 48,
  "ins": 0
 },
 {
  "track": 3,
  "delta": 0,
  "tick": 30768,
  "byteIndex": 16275,
  "name": "Note on",
  "channel": 1,
  "noteNumber": 57,
  "noteName": "A3",
  "velocity": 79,
  "dtick": 48,
  "ins": 0
 },
 {
  "track": 3,
  "delta": 0,
  "tick": 30768,
  "byteIndex": 16279,
  "name": "Note on",
  "channel": 1,
  "noteNumber": 52,
  "noteName": "E3",
  "velocity": 79,
  "dtick": 48,
  "ins": 0
 },
 {
  "track": 3,
  "delta": 0,
  "tick": 30768,
  "byteIndex": 16283,
  "name": "Note on",
  "channel": 1,
  "noteNumber": 45,
  "noteName": "A2",
  "velocity": 79,
  "dtick": 48,
  "ins": 0
 },
 {
  "track": 3,
  "delta": 0,
  "tick": 30768,
  "byteIndex": 16287,
  "name": "Note on",
  "channel": 1,
  "noteNumber": 76,
  "noteName": "E5",
  "velocity": 79,
  "dtick": 48,
  "ins": 0
 },
 {
  "track": 3,
  "delta": 0,
  "tick": 30768,
  "byteIndex": 16291,
  "name": "Note on",
  "channel": 1,
  "noteNumber": 88,
  "noteName": "E6",
  "velocity": 79,
  "dtick": 48,
  "ins": 0
 },
 {
  "track": 3,
  "delta": 0,
  "tick": 30816,
  "byteIndex": 16315,
  "name": "Note on",
  "channel": 1,
  "noteNumber": 57,
  "noteName": "A3",
  "velocity": 79,
  "dtick": 48,
  "ins": 0
 },
 {
  "track": 3,
  "delta": 0,
  "tick": 30816,
  "byteIndex": 16319,
  "name": "Note on",
  "channel": 1,
  "noteNumber": 52,
  "noteName": "E3",
  "velocity": 79,
  "dtick": 48,
  "ins": 0
 },
 {
  "track": 3,
  "delta": 0,
  "tick": 30816,
  "byteIndex": 16323,
  "name": "Note on",
  "channel": 1,
  "noteNumber": 45,
  "noteName": "A2",
  "velocity": 79,
  "dtick": 48,
  "ins": 0
 },
 {
  "track": 3,
  "delta": 0,
  "tick": 30816,
  "byteIndex": 16327,
  "name": "Note on",
  "channel": 1,
  "noteNumber": 72,
  "noteName": "C5",
  "velocity": 79,
  "dtick": 48,
  "ins": 0
 },
 {
  "track": 3,
  "delta": 0,
  "tick": 30816,
  "byteIndex": 16331,
  "name": "Note on",
  "channel": 1,
  "noteNumber": 84,
  "noteName": "C6",
  "velocity": 79,
  "dtick": 48,
  "ins": 0
 },
 {
  "track": 3,
  "delta": 0,
  "tick": 30864,
  "byteIndex": 16355,
  "name": "Note on",
  "channel": 1,
  "noteNumber": 52,
  "noteName": "E3",
  "velocity": 79,
  "dtick": 48,
  "ins": 0
 },
 {
  "track": 3,
  "delta": 0,
  "tick": 30864,
  "byteIndex": 16359,
  "name": "Note on",
  "channel": 1,
  "noteNumber": 57,
  "noteName": "A3",
  "velocity": 79,
  "dtick": 48,
  "ins": 0
 },
 {
  "track": 3,
  "delta": 0,
  "tick": 30864,
  "byteIndex": 16363,
  "name": "Note on",
  "channel": 1,
  "noteNumber": 45,
  "noteName": "A2",
  "velocity": 79,
  "dtick": 48,
  "ins": 0
 },
 {
  "track": 3,
  "delta": 0,
  "tick": 30864,
  "byteIndex": 16367,
  "name": "Note on",
  "channel": 1,
  "noteNumber": 79,
  "noteName": "G5",
  "velocity": 79,
  "dtick": 48,
  "ins": 0
 },
 {
  "track": 3,
  "delta": 0,
  "tick": 30864,
  "byteIndex": 16371,
  "name": "Note on",
  "channel": 1,
  "noteNumber": 91,
  "noteName": "G6",
  "velocity": 79,
  "dtick": 48,
  "ins": 0
 },
 {
  "track": 3,
  "delta": 0,
  "tick": 30912,
  "byteIndex": 16395,
  "name": "Note on",
  "channel": 1,
  "noteNumber": 52,
  "noteName": "E3",
  "velocity": 79,
  "dtick": 48,
  "ins": 0
 },
 {
  "track": 3,
  "delta": 0,
  "tick": 30912,
  "byteIndex": 16399,
  "name": "Note on",
  "channel": 1,
  "noteNumber": 57,
  "noteName": "A3",
  "velocity": 79,
  "dtick": 48,
  "ins": 0
 },
 {
  "track": 3,
  "delta": 0,
  "tick": 30912,
  "byteIndex": 16403,
  "name": "Note on",
  "channel": 1,
  "noteNumber": 45,
  "noteName": "A2",
  "velocity": 79,
  "dtick": 48,
  "ins": 0
 },
 {
  "track": 3,
  "delta": 0,
  "tick": 30912,
  "byteIndex": 16407,
  "name": "Note on",
  "channel": 1,
  "noteNumber": 76,
  "noteName": "E5",
  "velocity": 79,
  "dtick": 48,
  "ins": 0
 },
 {
  "track": 3,
  "delta": 0,
  "tick": 30912,
  "byteIndex": 16411,
  "name": "Note on",
  "channel": 1,
  "noteNumber": 88,
  "noteName": "E6",
  "velocity": 79,
  "dtick": 48,
  "ins": 0
 },
 {
  "track": 3,
  "delta": 0,
  "tick": 30960,
  "byteIndex": 16435,
  "name": "Note on",
  "channel": 1,
  "noteNumber": 45,
  "noteName": "A2",
  "velocity": 79,
  "dtick": 48,
  "ins": 0
 },
 {
  "track": 3,
  "delta": 0,
  "tick": 30960,
  "byteIndex": 16439,
  "name": "Note on",
  "channel": 1,
  "noteNumber": 52,
  "noteName": "E3",
  "velocity": 79,
  "dtick": 48,
  "ins": 0
 },
 {
  "track": 3,
  "delta": 0,
  "tick": 30960,
  "byteIndex": 16443,
  "name": "Note on",
  "channel": 1,
  "noteNumber": 57,
  "noteName": "A3",
  "velocity": 79,
  "dtick": 48,
  "ins": 0
 },
 {
  "track": 3,
  "delta": 0,
  "tick": 30960,
  "byteIndex": 16447,
  "name": "Note on",
  "channel": 1,
  "noteNumber": 72,
  "noteName": "C5",
  "velocity": 79,
  "dtick": 48,
  "ins": 0
 },
 {
  "track": 3,
  "delta": 0,
  "tick": 30960,
  "byteIndex": 16451,
  "name": "Note on",
  "channel": 1,
  "noteNumber": 84,
  "noteName": "C6",
  "velocity": 79,
  "dtick": 48,
  "ins": 0
 },
 {
  "track": 3,
  "delta": 0,
  "tick": 31008,
  "byteIndex": 16475,
  "name": "Note on",
  "channel": 1,
  "noteNumber": 45,
  "noteName": "A2",
  "velocity": 79,
  "dtick": 48,
  "ins": 0
 },
 {
  "track": 3,
  "delta": 0,
  "tick": 31008,
  "byteIndex": 16479,
  "name": "Note on",
  "channel": 1,
  "noteNumber": 57,
  "noteName": "A3",
  "velocity": 79,
  "dtick": 48,
  "ins": 0
 },
 {
  "track": 3,
  "delta": 0,
  "tick": 31008,
  "byteIndex": 16483,
  "name": "Note on",
  "channel": 1,
  "noteNumber": 52,
  "noteName": "E3",
  "velocity": 79,
  "dtick": 48,
  "ins": 0
 },
 {
  "track": 3,
  "delta": 0,
  "tick": 31008,
  "byteIndex": 16487,
  "name": "Note on",
  "channel": 1,
  "noteNumber": 79,
  "noteName": "G5",
  "velocity": 79,
  "dtick": 48,
  "ins": 0
 },
 {
  "track": 3,
  "delta": 0,
  "tick": 31008,
  "byteIndex": 16491,
  "name": "Note on",
  "channel": 1,
  "noteNumber": 91,
  "noteName": "G6",
  "velocity": 79,
  "dtick": 48,
  "ins": 0
 },
 {
  "track": 3,
  "delta": 0,
  "tick": 31056,
  "byteIndex": 16515,
  "name": "Note on",
  "channel": 1,
  "noteNumber": 45,
  "noteName": "A2",
  "velocity": 79,
  "dtick": 48,
  "ins": 0
 },
 {
  "track": 3,
  "delta": 0,
  "tick": 31056,
  "byteIndex": 16519,
  "name": "Note on",
  "channel": 1,
  "noteNumber": 52,
  "noteName": "E3",
  "velocity": 79,
  "dtick": 48,
  "ins": 0
 },
 {
  "track": 3,
  "delta": 0,
  "tick": 31056,
  "byteIndex": 16523,
  "name": "Note on",
  "channel": 1,
  "noteNumber": 57,
  "noteName": "A3",
  "velocity": 79,
  "dtick": 48,
  "ins": 0
 },
 {
  "track": 3,
  "delta": 0,
  "tick": 31056,
  "byteIndex": 16527,
  "name": "Note on",
  "channel": 1,
  "noteNumber": 76,
  "noteName": "E5",
  "velocity": 79,
  "dtick": 48,
  "ins": 0
 },
 {
  "track": 3,
  "delta": 0,
  "tick": 31056,
  "byteIndex": 16531,
  "name": "Note on",
  "channel": 1,
  "noteNumber": 88,
  "noteName": "E6",
  "velocity": 79,
  "dtick": 48,
  "ins": 0
 },
 {
  "track": 3,
  "delta": 0,
  "tick": 31104,
  "byteIndex": 16555,
  "name": "Note on",
  "channel": 1,
  "noteNumber": 41,
  "noteName": "F2",
  "velocity": 79,
  "dtick": 48,
  "ins": 0
 },
 {
  "track": 3,
  "delta": 0,
  "tick": 31104,
  "byteIndex": 16559,
  "name": "Note on",
  "channel": 1,
  "noteNumber": 53,
  "noteName": "F3",
  "velocity": 79,
  "dtick": 48,
  "ins": 0
 },
 {
  "track": 3,
  "delta": 0,
  "tick": 31104,
  "byteIndex": 16563,
  "name": "Note on",
  "channel": 1,
  "noteNumber": 48,
  "noteName": "C3",
  "velocity": 79,
  "dtick": 48,
  "ins": 0
 },
 {
  "track": 3,
  "delta": 0,
  "tick": 31104,
  "byteIndex": 16567,
  "name": "Note on",
  "channel": 1,
  "noteNumber": 77,
  "noteName": "F5",
  "velocity": 79,
  "dtick": 48,
  "ins": 0
 },
 {
  "track": 3,
  "delta": 0,
  "tick": 31104,
  "byteIndex": 16571,
  "name": "Note on",
  "channel": 1,
  "noteNumber": 89,
  "noteName": "F6",
  "velocity": 79,
  "dtick": 48,
  "ins": 0
 },
 {
  "track": 3,
  "delta": 0,
  "tick": 31152,
  "byteIndex": 16595,
  "name": "Note on",
  "channel": 1,
  "noteNumber": 41,
  "noteName": "F2",
  "velocity": 79,
  "dtick": 48,
  "ins": 0
 },
 {
  "track": 3,
  "delta": 0,
  "tick": 31152,
  "byteIndex": 16599,
  "name": "Note on",
  "channel": 1,
  "noteNumber": 48,
  "noteName": "C3",
  "velocity": 79,
  "dtick": 48,
  "ins": 0
 },
 {
  "track": 3,
  "delta": 0,
  "tick": 31152,
  "byteIndex": 16603,
  "name": "Note on",
  "channel": 1,
  "noteNumber": 53,
  "noteName": "F3",
  "velocity": 79,
  "dtick": 48,
  "ins": 0
 },
 {
  "track": 3,
  "delta": 0,
  "tick": 31152,
  "byteIndex": 16607,
  "name": "Note on",
  "channel": 1,
  "noteNumber": 76,
  "noteName": "E5",
  "velocity": 79,
  "dtick": 48,
  "ins": 0
 },
 {
  "track": 3,
  "delta": 0,
  "tick": 31152,
  "byteIndex": 16611,
  "name": "Note on",
  "channel": 1,
  "noteNumber": 88,
  "noteName": "E6",
  "velocity": 79,
  "dtick": 48,
  "ins": 0
 },
 {
  "track": 3,
  "delta": 0,
  "tick": 31200,
  "byteIndex": 16635,
  "name": "Note on",
  "channel": 1,
  "noteNumber": 53,
  "noteName": "F3",
  "velocity": 79,
  "dtick": 48,
  "ins": 0
 },
 {
  "track": 3,
  "delta": 0,
  "tick": 31200,
  "byteIndex": 16639,
  "name": "Note on",
  "channel": 1,
  "noteNumber": 48,
  "noteName": "C3",
  "velocity": 79,
  "dtick": 48,
  "ins": 0
 },
 {
  "track": 3,
  "delta": 0,
  "tick": 31200,
  "byteIndex": 16643,
  "name": "Note on",
  "channel": 1,
  "noteNumber": 41,
  "noteName": "F2",
  "velocity": 79,
  "dtick": 48,
  "ins": 0
 },
 {
  "track": 3,
  "delta": 0,
  "tick": 31200,
  "byteIndex": 16647,
  "name": "Note on",
  "channel": 1,
  "noteNumber": 72,
  "noteName": "C5",
  "velocity": 79,
  "dtick": 48,
  "ins": 0
 },
 {
  "track": 3,
  "delta": 0,
  "tick": 31200,
  "byteIndex": 16651,
  "name": "Note on",
  "channel": 1,
  "noteNumber": 84,
  "noteName": "C6",
  "velocity": 79,
  "dtick": 48,
  "ins": 0
 },
 {
  "track": 3,
  "delta": 0,
  "tick": 31248,
  "byteIndex": 16675,
  "name": "Note on",
  "channel": 1,
  "noteNumber": 48,
  "noteName": "C3",
  "velocity": 79,
  "dtick": 48,
  "ins": 0
 },
 {
  "track": 3,
  "delta": 0,
  "tick": 31248,
  "byteIndex": 16679,
  "name": "Note on",
  "channel": 1,
  "noteNumber": 53,
  "noteName": "F3",
  "velocity": 79,
  "dtick": 48,
  "ins": 0
 },
 {
  "track": 3,
  "delta": 0,
  "tick": 31248,
  "byteIndex": 16683,
  "name": "Note on",
  "channel": 1,
  "noteNumber": 41,
  "noteName": "F2",
  "velocity": 79,
  "dtick": 48,
  "ins": 0
 },
 {
  "track": 3,
  "delta": 0,
  "tick": 31248,
  "byteIndex": 16687,
  "name": "Note on",
  "channel": 1,
  "noteNumber": 77,
  "noteName": "F5",
  "velocity": 79,
  "dtick": 48,
  "ins": 0
 },
 {
  "track": 3,
  "delta": 0,
  "tick": 31248,
  "byteIndex": 16691,
  "name": "Note on",
  "channel": 1,
  "noteNumber": 89,
  "noteName": "F6",
  "velocity": 79,
  "dtick": 48,
  "ins": 0
 },
 {
  "track": 3,
  "delta": 0,
  "tick": 31296,
  "byteIndex": 16715,
  "name": "Note on",
  "channel": 1,
  "noteNumber": 41,
  "noteName": "F2",
  "velocity": 79,
  "dtick": 48,
  "ins": 0
 },
 {
  "track": 3,
  "delta": 0,
  "tick": 31296,
  "byteIndex": 16719,
  "name": "Note on",
  "channel": 1,
  "noteNumber": 53,
  "noteName": "F3",
  "velocity": 79,
  "dtick": 48,
  "ins": 0
 },
 {
  "track": 3,
  "delta": 0,
  "tick": 31296,
  "byteIndex": 16723,
  "name": "Note on",
  "channel": 1,
  "noteNumber": 48,
  "noteName": "C3",
  "velocity": 79,
  "dtick": 48,
  "ins": 0
 },
 {
  "track": 3,
  "delta": 0,
  "tick": 31296,
  "byteIndex": 16727,
  "name": "Note on",
  "channel": 1,
  "noteNumber": 76,
  "noteName": "E5",
  "velocity": 79,
  "dtick": 48,
  "ins": 0
 },
 {
  "track": 3,
  "delta": 0,
  "tick": 31296,
  "byteIndex": 16731,
  "name": "Note on",
  "channel": 1,
  "noteNumber": 88,
  "noteName": "E6",
  "velocity": 79,
  "dtick": 48,
  "ins": 0
 },
 {
  "track": 3,
  "delta": 0,
  "tick": 31344,
  "byteIndex": 16755,
  "name": "Note on",
  "channel": 1,
  "noteNumber": 53,
  "noteName": "F3",
  "velocity": 79,
  "dtick": 48,
  "ins": 0
 },
 {
  "track": 3,
  "delta": 0,
  "tick": 31344,
  "byteIndex": 16759,
  "name": "Note on",
  "channel": 1,
  "noteNumber": 48,
  "noteName": "C3",
  "velocity": 79,
  "dtick": 48,
  "ins": 0
 },
 {
  "track": 3,
  "delta": 0,
  "tick": 31344,
  "byteIndex": 16763,
  "name": "Note on",
  "channel": 1,
  "noteNumber": 41,
  "noteName": "F2",
  "velocity": 79,
  "dtick": 48,
  "ins": 0
 },
 {
  "track": 3,
  "delta": 0,
  "tick": 31344,
  "byteIndex": 16767,
  "name": "Note on",
  "channel": 1,
  "noteNumber": 72,
  "noteName": "C5",
  "velocity": 79,
  "dtick": 48,
  "ins": 0
 },
 {
  "track": 3,
  "delta": 0,
  "tick": 31344,
  "byteIndex": 16771,
  "name": "Note on",
  "channel": 1,
  "noteNumber": 84,
  "noteName": "C6",
  "velocity": 79,
  "dtick": 48,
  "ins": 0
 },
 {
  "track": 3,
  "delta": 0,
  "tick": 31392,
  "byteIndex": 16795,
  "name": "Note on",
  "channel": 1,
  "noteNumber": 41,
  "noteName": "F2",
  "velocity": 79,
  "dtick": 48,
  "ins": 0
 },
 {
  "track": 3,
  "delta": 0,
  "tick": 31392,
  "byteIndex": 16799,
  "name": "Note on",
  "channel": 1,
  "noteNumber": 53,
  "noteName": "F3",
  "velocity": 79,
  "dtick": 48,
  "ins": 0
 },
 {
  "track": 3,
  "delta": 0,
  "tick": 31392,
  "byteIndex": 16803,
  "name": "Note on",
  "channel": 1,
  "noteNumber": 48,
  "noteName": "C3",
  "velocity": 79,
  "dtick": 48,
  "ins": 0
 },
 {
  "track": 3,
  "delta": 0,
  "tick": 31392,
  "byteIndex": 16807,
  "name": "Note on",
  "channel": 1,
  "noteNumber": 77,
  "noteName": "F5",
  "velocity": 79,
  "dtick": 48,
  "ins": 0
 },
 {
  "track": 3,
  "delta": 0,
  "tick": 31392,
  "byteIndex": 16811,
  "name": "Note on",
  "channel": 1,
  "noteNumber": 89,
  "noteName": "F6",
  "velocity": 79,
  "dtick": 48,
  "ins": 0
 },
 {
  "track": 3,
  "delta": 0,
  "tick": 31440,
  "byteIndex": 16835,
  "name": "Note on",
  "channel": 1,
  "noteNumber": 53,
  "noteName": "F3",
  "velocity": 79,
  "dtick": 48,
  "ins": 0
 },
 {
  "track": 3,
  "delta": 0,
  "tick": 31440,
  "byteIndex": 16839,
  "name": "Note on",
  "channel": 1,
  "noteNumber": 48,
  "noteName": "C3",
  "velocity": 79,
  "dtick": 48,
  "ins": 0
 },
 {
  "track": 3,
  "delta": 0,
  "tick": 31440,
  "byteIndex": 16843,
  "name": "Note on",
  "channel": 1,
  "noteNumber": 41,
  "noteName": "F2",
  "velocity": 79,
  "dtick": 48,
  "ins": 0
 },
 {
  "track": 3,
  "delta": 0,
  "tick": 31440,
  "byteIndex": 16847,
  "name": "Note on",
  "channel": 1,
  "noteNumber": 76,
  "noteName": "E5",
  "velocity": 79,
  "dtick": 48,
  "ins": 0
 },
 {
  "track": 3,
  "delta": 0,
  "tick": 31440,
  "byteIndex": 16851,
  "name": "Note on",
  "channel": 1,
  "noteNumber": 88,
  "noteName": "E6",
  "velocity": 79,
  "dtick": 48,
  "ins": 0
 },
 {
  "track": 3,
  "delta": 0,
  "tick": 31488,
  "byteIndex": 16875,
  "name": "Note on",
  "channel": 1,
  "noteNumber": 55,
  "noteName": "G3",
  "velocity": 79,
  "dtick": 48,
  "ins": 0
 },
 {
  "track": 3,
  "delta": 0,
  "tick": 31488,
  "byteIndex": 16879,
  "name": "Note on",
  "channel": 1,
  "noteNumber": 60,
  "noteName": "C4",
  "velocity": 79,
  "dtick": 48,
  "ins": 0
 },
 {
  "track": 3,
  "delta": 0,
  "tick": 31488,
  "byteIndex": 16883,
  "name": "Note on",
  "channel": 1,
  "noteNumber": 48,
  "noteName": "C3",
  "velocity": 79,
  "dtick": 48,
  "ins": 0
 },
 {
  "track": 3,
  "delta": 0,
  "tick": 31488,
  "byteIndex": 16887,
  "name": "Note on",
  "channel": 1,
  "noteNumber": 76,
  "noteName": "E5",
  "velocity": 79,
  "dtick": 48,
  "ins": 0
 },
 {
  "track": 3,
  "delta": 0,
  "tick": 31488,
  "byteIndex": 16891,
  "name": "Note on",
  "channel": 1,
  "noteNumber": 88,
  "noteName": "E6",
  "velocity": 79,
  "dtick": 48,
  "ins": 0
 },
 {
  "track": 3,
  "delta": 0,
  "tick": 31536,
  "byteIndex": 16915,
  "name": "Note on",
  "channel": 1,
  "noteNumber": 48,
  "noteName": "C3",
  "velocity": 79,
  "dtick": 48,
  "ins": 0
 },
 {
  "track": 3,
  "delta": 0,
  "tick": 31536,
  "byteIndex": 16919,
  "name": "Note on",
  "channel": 1,
  "noteNumber": 55,
  "noteName": "G3",
  "velocity": 79,
  "dtick": 48,
  "ins": 0
 },
 {
  "track": 3,
  "delta": 0,
  "tick": 31536,
  "byteIndex": 16923,
  "name": "Note on",
  "channel": 1,
  "noteNumber": 60,
  "noteName": "C4",
  "velocity": 79,
  "dtick": 48,
  "ins": 0
 },
 {
  "track": 3,
  "delta": 0,
  "tick": 31536,
  "byteIndex": 16927,
  "name": "Note on",
  "channel": 1,
  "noteNumber": 72,
  "noteName": "C5",
  "velocity": 79,
  "dtick": 48,
  "ins": 0
 },
 {
  "track": 3,
  "delta": 0,
  "tick": 31536,
  "byteIndex": 16931,
  "name": "Note on",
  "channel": 1,
  "noteNumber": 84,
  "noteName": "C6",
  "velocity": 79,
  "dtick": 48,
  "ins": 0
 },
 {
  "track": 3,
  "delta": 0,
  "tick": 31584,
  "byteIndex": 16955,
  "name": "Note on",
  "channel": 1,
  "noteNumber": 60,
  "noteName": "C4",
  "velocity": 79,
  "dtick": 48,
  "ins": 0
 },
 {
  "track": 3,
  "delta": 0,
  "tick": 31584,
  "byteIndex": 16959,
  "name": "Note on",
  "channel": 1,
  "noteNumber": 55,
  "noteName": "G3",
  "velocity": 79,
  "dtick": 48,
  "ins": 0
 },
 {
  "track": 3,
  "delta": 0,
  "tick": 31584,
  "byteIndex": 16963,
  "name": "Note on",
  "channel": 1,
  "noteNumber": 48,
  "noteName": "C3",
  "velocity": 79,
  "dtick": 48,
  "ins": 0
 },
 {
  "track": 3,
  "delta": 0,
  "tick": 31584,
  "byteIndex": 16967,
  "name": "Note on",
  "channel": 1,
  "noteNumber": 67,
  "noteName": "G4",
  "velocity": 79,
  "dtick": 48,
  "ins": 0
 },
 {
  "track": 3,
  "delta": 0,
  "tick": 31584,
  "byteIndex": 16971,
  "name": "Note on",
  "channel": 1,
  "noteNumber": 79,
  "noteName": "G5",
  "velocity": 79,
  "dtick": 48,
  "ins": 0
 },
 {
  "track": 3,
  "delta": 0,
  "tick": 31632,
  "byteIndex": 16995,
  "name": "Note on",
  "channel": 1,
  "noteNumber": 60,
  "noteName": "C4",
  "velocity": 79,
  "dtick": 48,
  "ins": 0
 },
 {
  "track": 3,
  "delta": 0,
  "tick": 31632,
  "byteIndex": 16999,
  "name": "Note on",
  "channel": 1,
  "noteNumber": 55,
  "noteName": "G3",
  "velocity": 79,
  "dtick": 48,
  "ins": 0
 },
 {
  "track": 3,
  "delta": 0,
  "tick": 31632,
  "byteIndex": 17003,
  "name": "Note on",
  "channel": 1,
  "noteNumber": 48,
  "noteName": "C3",
  "velocity": 79,
  "dtick": 48,
  "ins": 0
 },
 {
  "track": 3,
  "delta": 0,
  "tick": 31632,
  "byteIndex": 17007,
  "name": "Note on",
  "channel": 1,
  "noteNumber": 76,
  "noteName": "E5",
  "velocity": 79,
  "dtick": 48,
  "ins": 0
 },
 {
  "track": 3,
  "delta": 0,
  "tick": 31632,
  "byteIndex": 17011,
  "name": "Note on",
  "channel": 1,
  "noteNumber": 88,
  "noteName": "E6",
  "velocity": 79,
  "dtick": 48,
  "ins": 0
 },
 {
  "track": 3,
  "delta": 0,
  "tick": 31680,
  "byteIndex": 17035,
  "name": "Note on",
  "channel": 1,
  "noteNumber": 48,
  "noteName": "C3",
  "velocity": 79,
  "dtick": 48,
  "ins": 0
 },
 {
  "track": 3,
  "delta": 0,
  "tick": 31680,
  "byteIndex": 17039,
  "name": "Note on",
  "channel": 1,
  "noteNumber": 60,
  "noteName": "C4",
  "velocity": 79,
  "dtick": 48,
  "ins": 0
 },
 {
  "track": 3,
  "delta": 0,
  "tick": 31680,
  "byteIndex": 17043,
  "name": "Note on",
  "channel": 1,
  "noteNumber": 55,
  "noteName": "G3",
  "velocity": 79,
  "dtick": 48,
  "ins": 0
 },
 {
  "track": 3,
  "delta": 0,
  "tick": 31680,
  "byteIndex": 17047,
  "name": "Note on",
  "channel": 1,
  "noteNumber": 72,
  "noteName": "C5",
  "velocity": 79,
  "dtick": 48,
  "ins": 0
 },
 {
  "track": 3,
  "delta": 0,
  "tick": 31680,
  "byteIndex": 17051,
  "name": "Note on",
  "channel": 1,
  "noteNumber": 84,
  "noteName": "C6",
  "velocity": 79,
  "dtick": 48,
  "ins": 0
 },
 {
  "track": 3,
  "delta": 0,
  "tick": 31728,
  "byteIndex": 17075,
  "name": "Note on",
  "channel": 1,
  "noteNumber": 60,
  "noteName": "C4",
  "velocity": 79,
  "dtick": 48,
  "ins": 0
 },
 {
  "track": 3,
  "delta": 0,
  "tick": 31728,
  "byteIndex": 17079,
  "name": "Note on",
  "channel": 1,
  "noteNumber": 55,
  "noteName": "G3",
  "velocity": 79,
  "dtick": 48,
  "ins": 0
 },
 {
  "track": 3,
  "delta": 0,
  "tick": 31728,
  "byteIndex": 17083,
  "name": "Note on",
  "channel": 1,
  "noteNumber": 48,
  "noteName": "C3",
  "velocity": 79,
  "dtick": 48,
  "ins": 0
 },
 {
  "track": 3,
  "delta": 0,
  "tick": 31728,
  "byteIndex": 17087,
  "name": "Note on",
  "channel": 1,
  "noteNumber": 67,
  "noteName": "G4",
  "velocity": 79,
  "dtick": 48,
  "ins": 0
 },
 {
  "track": 3,
  "delta": 0,
  "tick": 31728,
  "byteIndex": 17091,
  "name": "Note on",
  "channel": 1,
  "noteNumber": 79,
  "noteName": "G5",
  "velocity": 79,
  "dtick": 48,
  "ins": 0
 },
 {
  "track": 3,
  "delta": 0,
  "tick": 31776,
  "byteIndex": 17115,
  "name": "Note on",
  "channel": 1,
  "noteNumber": 55,
  "noteName": "G3",
  "velocity": 79,
  "dtick": 48,
  "ins": 0
 },
 {
  "track": 3,
  "delta": 0,
  "tick": 31776,
  "byteIndex": 17119,
  "name": "Note on",
  "channel": 1,
  "noteNumber": 60,
  "noteName": "C4",
  "velocity": 79,
  "dtick": 48,
  "ins": 0
 },
 {
  "track": 3,
  "delta": 0,
  "tick": 31776,
  "byteIndex": 17123,
  "name": "Note on",
  "channel": 1,
  "noteNumber": 48,
  "noteName": "C3",
  "velocity": 79,
  "dtick": 48,
  "ins": 0
 },
 {
  "track": 3,
  "delta": 0,
  "tick": 31776,
  "byteIndex": 17127,
  "name": "Note on",
  "channel": 1,
  "noteNumber": 88,
  "noteName": "E6",
  "velocity": 79,
  "dtick": 48,
  "ins": 0
 },
 {
  "track": 3,
  "delta": 0,
  "tick": 31776,
  "byteIndex": 17131,
  "name": "Note on",
  "channel": 1,
  "noteNumber": 76,
  "noteName": "E5",
  "velocity": 79,
  "dtick": 48,
  "ins": 0
 },
 {
  "track": 3,
  "delta": 0,
  "tick": 31824,
  "byteIndex": 17155,
  "name": "Note on",
  "channel": 1,
  "noteNumber": 48,
  "noteName": "C3",
  "velocity": 79,
  "dtick": 48,
  "ins": 0
 },
 {
  "track": 3,
  "delta": 0,
  "tick": 31824,
  "byteIndex": 17159,
  "name": "Note on",
  "channel": 1,
  "noteNumber": 55,
  "noteName": "G3",
  "velocity": 79,
  "dtick": 48,
  "ins": 0
 },
 {
  "track": 3,
  "delta": 0,
  "tick": 31824,
  "byteIndex": 17163,
  "name": "Note on",
  "channel": 1,
  "noteNumber": 60,
  "noteName": "C4",
  "velocity": 79,
  "dtick": 48,
  "ins": 0
 },
 {
  "track": 3,
  "delta": 0,
  "tick": 31824,
  "byteIndex": 17167,
  "name": "Note on",
  "channel": 1,
  "noteNumber": 84,
  "noteName": "C6",
  "velocity": 79,
  "dtick": 48,
  "ins": 0
 },
 {
  "track": 3,
  "delta": 0,
  "tick": 31824,
  "byteIndex": 17171,
  "name": "Note on",
  "channel": 1,
  "noteNumber": 72,
  "noteName": "C5",
  "velocity": 79,
  "dtick": 48,
  "ins": 0
 },
 {
  "track": 3,
  "delta": 0,
  "tick": 31872,
  "byteIndex": 17195,
  "name": "Note on",
  "channel": 1,
  "noteNumber": 59,
  "noteName": "B3",
  "velocity": 79,
  "dtick": 48,
  "ins": 0
 },
 {
  "track": 3,
  "delta": 0,
  "tick": 31872,
  "byteIndex": 17199,
  "name": "Note on",
  "channel": 1,
  "noteNumber": 55,
  "noteName": "G3",
  "velocity": 79,
  "dtick": 48,
  "ins": 0
 },
 {
  "track": 3,
  "delta": 0,
  "tick": 31872,
  "byteIndex": 17203,
  "name": "Note on",
  "channel": 1,
  "noteNumber": 48,
  "noteName": "C3",
  "velocity": 79,
  "dtick": 48,
  "ins": 0
 },
 {
  "track": 3,
  "delta": 0,
  "tick": 31872,
  "byteIndex": 17207,
  "name": "Note on",
  "channel": 1,
  "noteNumber": 86,
  "noteName": "D6",
  "velocity": 79,
  "dtick": 48,
  "ins": 0
 },
 {
  "track": 3,
  "delta": 0,
  "tick": 31872,
  "byteIndex": 17211,
  "name": "Note on",
  "channel": 1,
  "noteNumber": 74,
  "noteName": "D5",
  "velocity": 79,
  "dtick": 48,
  "ins": 0
 },
 {
  "track": 3,
  "delta": 0,
  "tick": 31920,
  "byteIndex": 17235,
  "name": "Note on",
  "channel": 1,
  "noteNumber": 59,
  "noteName": "B3",
  "velocity": 79,
  "dtick": 48,
  "ins": 0
 },
 {
  "track": 3,
  "delta": 0,
  "tick": 31920,
  "byteIndex": 17239,
  "name": "Note on",
  "channel": 1,
  "noteNumber": 48,
  "noteName": "C3",
  "velocity": 79,
  "dtick": 48,
  "ins": 0
 },
 {
  "track": 3,
  "delta": 0,
  "tick": 31920,
  "byteIndex": 17243,
  "name": "Note on",
  "channel": 1,
  "noteNumber": 55,
  "noteName": "G3",
  "velocity": 79,
  "dtick": 48,
  "ins": 0
 },
 {
  "track": 3,
  "delta": 0,
  "tick": 31920,
  "byteIndex": 17247,
  "name": "Note on",
  "channel": 1,
  "noteNumber": 84,
  "noteName": "C6",
  "velocity": 79,
  "dtick": 48,
  "ins": 0
 },
 {
  "track": 3,
  "delta": 0,
  "tick": 31920,
  "byteIndex": 17251,
  "name": "Note on",
  "channel": 1,
  "noteNumber": 72,
  "noteName": "C5",
  "velocity": 79,
  "dtick": 48,
  "ins": 0
 },
 {
  "track": 3,
  "delta": 0,
  "tick": 31968,
  "byteIndex": 17275,
  "name": "Note on",
  "channel": 1,
  "noteNumber": 59,
  "noteName": "B3",
  "velocity": 79,
  "dtick": 48,
  "ins": 0
 },
 {
  "track": 3,
  "delta": 0,
  "tick": 31968,
  "byteIndex": 17279,
  "name": "Note on",
  "channel": 1,
  "noteNumber": 59,
  "noteName": "B3",
  "velocity": 79,
  "dtick": 48,
  "ins": 0
 },
 {
  "track": 3,
  "delta": 0,
  "tick": 31968,
  "byteIndex": 17283,
  "name": "Note on",
  "channel": 1,
  "noteNumber": 59,
  "noteName": "B3",
  "velocity": 79,
  "dtick": 48,
  "ins": 0
 },
 {
  "track": 3,
  "delta": 0,
  "tick": 31968,
  "byteIndex": 17287,
  "name": "Note on",
  "channel": 1,
  "noteNumber": 55,
  "noteName": "G3",
  "velocity": 79,
  "dtick": 48,
  "ins": 0
 },
 {
  "track": 3,
  "delta": 0,
  "tick": 31968,
  "byteIndex": 17291,
  "name": "Note on",
  "channel": 1,
  "noteNumber": 48,
  "noteName": "C3",
  "velocity": 79,
  "dtick": 48,
  "ins": 0
 },
 {
  "track": 3,
  "delta": 0,
  "tick": 31968,
  "byteIndex": 17295,
  "name": "Note on",
  "channel": 1,
  "noteNumber": 79,
  "noteName": "G5",
  "velocity": 79,
  "dtick": 48,
  "ins": 0
 },
 {
  "track": 3,
  "delta": 0,
  "tick": 31968,
  "byteIndex": 17299,
  "name": "Note on",
  "channel": 1,
  "noteNumber": 67,
  "noteName": "G4",
  "velocity": 79,
  "dtick": 48,
  "ins": 0
 },
 {
  "track": 3,
  "delta": 0,
  "tick": 32016,
  "byteIndex": 17331,
  "name": "Note on",
  "channel": 1,
  "noteNumber": 48,
  "noteName": "C3",
  "velocity": 79,
  "dtick": 48,
  "ins": 0
 },
 {
  "track": 3,
  "delta": 0,
  "tick": 32016,
  "byteIndex": 17335,
  "name": "Note on",
  "channel": 1,
  "noteNumber": 55,
  "noteName": "G3",
  "velocity": 79,
  "dtick": 48,
  "ins": 0
 },
 {
  "track": 3,
  "delta": 0,
  "tick": 32016,
  "byteIndex": 17339,
  "name": "Note on",
  "channel": 1,
  "noteNumber": 59,
  "noteName": "B3",
  "velocity": 79,
  "dtick": 48,
  "ins": 0
 },
 {
  "track": 3,
  "delta": 0,
  "tick": 32016,
  "byteIndex": 17343,
  "name": "Note on",
  "channel": 1,
  "noteNumber": 86,
  "noteName": "D6",
  "velocity": 79,
  "dtick": 48,
  "ins": 0
 },
 {
  "track": 3,
  "delta": 0,
  "tick": 32016,
  "byteIndex": 17347,
  "name": "Note on",
  "channel": 1,
  "noteNumber": 74,
  "noteName": "D5",
  "velocity": 79,
  "dtick": 48,
  "ins": 0
 },
 {
  "track": 3,
  "delta": 0,
  "tick": 32064,
  "byteIndex": 17371,
  "name": "Note on",
  "channel": 1,
  "noteNumber": 59,
  "noteName": "B3",
  "velocity": 79,
  "dtick": 48,
  "ins": 0
 },
 {
  "track": 3,
  "delta": 0,
  "tick": 32064,
  "byteIndex": 17375,
  "name": "Note on",
  "channel": 1,
  "noteNumber": 48,
  "noteName": "C3",
  "velocity": 79,
  "dtick": 48,
  "ins": 0
 },
 {
  "track": 3,
  "delta": 0,
  "tick": 32064,
  "byteIndex": 17379,
  "name": "Note on",
  "channel": 1,
  "noteNumber": 55,
  "noteName": "G3",
  "velocity": 79,
  "dtick": 48,
  "ins": 0
 },
 {
  "track": 3,
  "delta": 0,
  "tick": 32064,
  "byteIndex": 17383,
  "name": "Note on",
  "channel": 1,
  "noteNumber": 84,
  "noteName": "C6",
  "velocity": 79,
  "dtick": 48,
  "ins": 0
 },
 {
  "track": 3,
  "delta": 0,
  "tick": 32064,
  "byteIndex": 17387,
  "name": "Note on",
  "channel": 1,
  "noteNumber": 72,
  "noteName": "C5",
  "velocity": 79,
  "dtick": 48,
  "ins": 0
 },
 {
  "track": 3,
  "delta": 0,
  "tick": 32112,
  "byteIndex": 17411,
  "name": "Note on",
  "channel": 1,
  "noteNumber": 59,
  "noteName": "B3",
  "velocity": 79,
  "dtick": 48,
  "ins": 0
 },
 {
  "track": 3,
  "delta": 0,
  "tick": 32112,
  "byteIndex": 17415,
  "name": "Note on",
  "channel": 1,
  "noteNumber": 48,
  "noteName": "C3",
  "velocity": 79,
  "dtick": 48,
  "ins": 0
 },
 {
  "track": 3,
  "delta": 0,
  "tick": 32112,
  "byteIndex": 17419,
  "name": "Note on",
  "channel": 1,
  "noteNumber": 55,
  "noteName": "G3",
  "velocity": 79,
  "dtick": 48,
  "ins": 0
 },
 {
  "track": 3,
  "delta": 0,
  "tick": 32112,
  "byteIndex": 17423,
  "name": "Note on",
  "channel": 1,
  "noteNumber": 67,
  "noteName": "G4",
  "velocity": 79,
  "dtick": 48,
  "ins": 0
 },
 {
  "track": 3,
  "delta": 0,
  "tick": 32112,
  "byteIndex": 17427,
  "name": "Note on",
  "channel": 1,
  "noteNumber": 79,
  "noteName": "G5",
  "velocity": 79,
  "dtick": 48,
  "ins": 0
 },
 {
  "track": 3,
  "delta": 0,
  "tick": 32160,
  "byteIndex": 17451,
  "name": "Note on",
  "channel": 1,
  "noteNumber": 55,
  "noteName": "G3",
  "velocity": 79,
  "dtick": 48,
  "ins": 0
 },
 {
  "track": 3,
  "delta": 0,
  "tick": 32160,
  "byteIndex": 17455,
  "name": "Note on",
  "channel": 1,
  "noteNumber": 48,
  "noteName": "C3",
  "velocity": 79,
  "dtick": 48,
  "ins": 0
 },
 {
  "track": 3,
  "delta": 0,
  "tick": 32160,
  "byteIndex": 17459,
  "name": "Note on",
  "channel": 1,
  "noteNumber": 59,
  "noteName": "B3",
  "velocity": 79,
  "dtick": 48,
  "ins": 0
 },
 {
  "track": 3,
  "delta": 0,
  "tick": 32160,
  "byteIndex": 17463,
  "name": "Note on",
  "channel": 1,
  "noteNumber": 74,
  "noteName": "D5",
  "velocity": 79,
  "dtick": 48,
  "ins": 0
 },
 {
  "track": 3,
  "delta": 0,
  "tick": 32160,
  "byteIndex": 17467,
  "name": "Note on",
  "channel": 1,
  "noteNumber": 86,
  "noteName": "D6",
  "velocity": 79,
  "dtick": 48,
  "ins": 0
 },
 {
  "track": 3,
  "delta": 0,
  "tick": 32208,
  "byteIndex": 17491,
  "name": "Note on",
  "channel": 1,
  "noteNumber": 48,
  "noteName": "C3",
  "velocity": 79,
  "dtick": 48,
  "ins": 0
 },
 {
  "track": 3,
  "delta": 0,
  "tick": 32208,
  "byteIndex": 17495,
  "name": "Note on",
  "channel": 1,
  "noteNumber": 55,
  "noteName": "G3",
  "velocity": 79,
  "dtick": 48,
  "ins": 0
 },
 {
  "track": 3,
  "delta": 0,
  "tick": 32208,
  "byteIndex": 17499,
  "name": "Note on",
  "channel": 1,
  "noteNumber": 59,
  "noteName": "B3",
  "velocity": 79,
  "dtick": 48,
  "ins": 0
 },
 {
  "track": 3,
  "delta": 0,
  "tick": 32208,
  "byteIndex": 17503,
  "name": "Note on",
  "channel": 1,
  "noteNumber": 76,
  "noteName": "E5",
  "velocity": 79,
  "dtick": 48,
  "ins": 0
 },
 {
  "track": 3,
  "delta": 0,
  "tick": 32208,
  "byteIndex": 17507,
  "name": "Note on",
  "channel": 1,
  "noteNumber": 88,
  "noteName": "E6",
  "velocity": 79,
  "dtick": 48,
  "ins": 0
 },
 {
  "track": 3,
  "delta": 0,
  "tick": 32256,
  "byteIndex": 17531,
  "name": "Note on",
  "channel": 1,
  "noteNumber": 57,
  "noteName": "A3",
  "velocity": 79,
  "dtick": 48,
  "ins": 0
 },
 {
  "track": 3,
  "delta": 0,
  "tick": 32256,
  "byteIndex": 17535,
  "name": "Note on",
  "channel": 1,
  "noteNumber": 45,
  "noteName": "A2",
  "velocity": 79,
  "dtick": 48,
  "ins": 0
 },
 {
  "track": 3,
  "delta": 0,
  "tick": 32256,
  "byteIndex": 17539,
  "name": "Note on",
  "channel": 1,
  "noteNumber": 52,
  "noteName": "E3",
  "velocity": 79,
  "dtick": 48,
  "ins": 0
 },
 {
  "track": 3,
  "delta": 0,
  "tick": 32256,
  "byteIndex": 17543,
  "name": "Note on",
  "channel": 1,
  "noteNumber": 79,
  "noteName": "G5",
  "velocity": 79,
  "dtick": 48,
  "ins": 0
 },
 {
  "track": 3,
  "delta": 0,
  "tick": 32256,
  "byteIndex": 17547,
  "name": "Note on",
  "channel": 1,
  "noteNumber": 91,
  "noteName": "G6",
  "velocity": 79,
  "dtick": 48,
  "ins": 0
 },
 {
  "track": 3,
  "delta": 0,
  "tick": 32304,
  "byteIndex": 17571,
  "name": "Note on",
  "channel": 1,
  "noteNumber": 45,
  "noteName": "A2",
  "velocity": 79,
  "dtick": 48,
  "ins": 0
 },
 {
  "track": 3,
  "delta": 0,
  "tick": 32304,
  "byteIndex": 17575,
  "name": "Note on",
  "channel": 1,
  "noteNumber": 52,
  "noteName": "E3",
  "velocity": 79,
  "dtick": 48,
  "ins": 0
 },
 {
  "track": 3,
  "delta": 0,
  "tick": 32304,
  "byteIndex": 17579,
  "name": "Note on",
  "channel": 1,
  "noteNumber": 57,
  "noteName": "A3",
  "velocity": 79,
  "dtick": 48,
  "ins": 0
 },
 {
  "track": 3,
  "delta": 0,
  "tick": 32304,
  "byteIndex": 17583,
  "name": "Note on",
  "channel": 1,
  "noteNumber": 76,
  "noteName": "E5",
  "velocity": 79,
  "dtick": 48,
  "ins": 0
 },
 {
  "track": 3,
  "delta": 0,
  "tick": 32304,
  "byteIndex": 17587,
  "name": "Note on",
  "channel": 1,
  "noteNumber": 88,
  "noteName": "E6",
  "velocity": 79,
  "dtick": 48,
  "ins": 0
 },
 {
  "track": 3,
  "delta": 0,
  "tick": 32352,
  "byteIndex": 17611,
  "name": "Note on",
  "channel": 1,
  "noteNumber": 45,
  "noteName": "A2",
  "velocity": 79,
  "dtick": 48,
  "ins": 0
 },
 {
  "track": 3,
  "delta": 0,
  "tick": 32352,
  "byteIndex": 17615,
  "name": "Note on",
  "channel": 1,
  "noteNumber": 52,
  "noteName": "E3",
  "velocity": 79,
  "dtick": 48,
  "ins": 0
 },
 {
  "track": 3,
  "delta": 0,
  "tick": 32352,
  "byteIndex": 17619,
  "name": "Note on",
  "channel": 1,
  "noteNumber": 57,
  "noteName": "A3",
  "velocity": 79,
  "dtick": 48,
  "ins": 0
 },
 {
  "track": 3,
  "delta": 0,
  "tick": 32352,
  "byteIndex": 17623,
  "name": "Note on",
  "channel": 1,
  "noteNumber": 72,
  "noteName": "C5",
  "velocity": 79,
  "dtick": 48,
  "ins": 0
 },
 {
  "track": 3,
  "delta": 0,
  "tick": 32352,
  "byteIndex": 17627,
  "name": "Note on",
  "channel": 1,
  "noteNumber": 84,
  "noteName": "C6",
  "velocity": 79,
  "dtick": 48,
  "ins": 0
 },
 {
  "track": 3,
  "delta": 0,
  "tick": 32400,
  "byteIndex": 17651,
  "name": "Note on",
  "channel": 1,
  "noteNumber": 52,
  "noteName": "E3",
  "velocity": 79,
  "dtick": 48,
  "ins": 0
 },
 {
  "track": 3,
  "delta": 0,
  "tick": 32400,
  "byteIndex": 17655,
  "name": "Note on",
  "channel": 1,
  "noteNumber": 57,
  "noteName": "A3",
  "velocity": 79,
  "dtick": 48,
  "ins": 0
 },
 {
  "track": 3,
  "delta": 0,
  "tick": 32400,
  "byteIndex": 17659,
  "name": "Note on",
  "channel": 1,
  "noteNumber": 45,
  "noteName": "A2",
  "velocity": 79,
  "dtick": 48,
  "ins": 0
 },
 {
  "track": 3,
  "delta": 0,
  "tick": 32400,
  "byteIndex": 17663,
  "name": "Note on",
  "channel": 1,
  "noteNumber": 79,
  "noteName": "G5",
  "velocity": 79,
  "dtick": 48,
  "ins": 0
 },
 {
  "track": 3,
  "delta": 0,
  "tick": 32400,
  "byteIndex": 17667,
  "name": "Note on",
  "channel": 1,
  "noteNumber": 91,
  "noteName": "G6",
  "velocity": 79,
  "dtick": 48,
  "ins": 0
 },
 {
  "track": 3,
  "delta": 0,
  "tick": 32448,
  "byteIndex": 17691,
  "name": "Note on",
  "channel": 1,
  "noteNumber": 52,
  "noteName": "E3",
  "velocity": 79,
  "dtick": 48,
  "ins": 0
 },
 {
  "track": 3,
  "delta": 0,
  "tick": 32448,
  "byteIndex": 17695,
  "name": "Note on",
  "channel": 1,
  "noteNumber": 57,
  "noteName": "A3",
  "velocity": 79,
  "dtick": 48,
  "ins": 0
 },
 {
  "track": 3,
  "delta": 0,
  "tick": 32448,
  "byteIndex": 17699,
  "name": "Note on",
  "channel": 1,
  "noteNumber": 45,
  "noteName": "A2",
  "velocity": 79,
  "dtick": 48,
  "ins": 0
 },
 {
  "track": 3,
  "delta": 0,
  "tick": 32448,
  "byteIndex": 17703,
  "name": "Note on",
  "channel": 1,
  "noteNumber": 76,
  "noteName": "E5",
  "velocity": 79,
  "dtick": 48,
  "ins": 0
 },
 {
  "track": 3,
  "delta": 0,
  "tick": 32448,
  "byteIndex": 17707,
  "name": "Note on",
  "channel": 1,
  "noteNumber": 88,
  "noteName": "E6",
  "velocity": 79,
  "dtick": 48,
  "ins": 0
 },
 {
  "track": 3,
  "delta": 0,
  "tick": 32496,
  "byteIndex": 17731,
  "name": "Note on",
  "channel": 1,
  "noteNumber": 57,
  "noteName": "A3",
  "velocity": 79,
  "dtick": 48,
  "ins": 0
 },
 {
  "track": 3,
  "delta": 0,
  "tick": 32496,
  "byteIndex": 17735,
  "name": "Note on",
  "channel": 1,
  "noteNumber": 52,
  "noteName": "E3",
  "velocity": 79,
  "dtick": 48,
  "ins": 0
 },
 {
  "track": 3,
  "delta": 0,
  "tick": 32496,
  "byteIndex": 17739,
  "name": "Note on",
  "channel": 1,
  "noteNumber": 45,
  "noteName": "A2",
  "velocity": 79,
  "dtick": 48,
  "ins": 0
 },
 {
  "track": 3,
  "delta": 0,
  "tick": 32496,
  "byteIndex": 17743,
  "name": "Note on",
  "channel": 1,
  "noteNumber": 72,
  "noteName": "C5",
  "velocity": 79,
  "dtick": 48,
  "ins": 0
 },
 {
  "track": 3,
  "delta": 0,
  "tick": 32496,
  "byteIndex": 17747,
  "name": "Note on",
  "channel": 1,
  "noteNumber": 84,
  "noteName": "C6",
  "velocity": 79,
  "dtick": 48,
  "ins": 0
 },
 {
  "track": 3,
  "delta": 0,
  "tick": 32544,
  "byteIndex": 17771,
  "name": "Note on",
  "channel": 1,
  "noteNumber": 52,
  "noteName": "E3",
  "velocity": 79,
  "dtick": 48,
  "ins": 0
 },
 {
  "track": 3,
  "delta": 0,
  "tick": 32544,
  "byteIndex": 17775,
  "name": "Note on",
  "channel": 1,
  "noteNumber": 57,
  "noteName": "A3",
  "velocity": 79,
  "dtick": 48,
  "ins": 0
 },
 {
  "track": 3,
  "delta": 0,
  "tick": 32544,
  "byteIndex": 17779,
  "name": "Note on",
  "channel": 1,
  "noteNumber": 45,
  "noteName": "A2",
  "velocity": 79,
  "dtick": 48,
  "ins": 0
 },
 {
  "track": 3,
  "delta": 0,
  "tick": 32544,
  "byteIndex": 17783,
  "name": "Note on",
  "channel": 1,
  "noteNumber": 79,
  "noteName": "G5",
  "velocity": 79,
  "dtick": 48,
  "ins": 0
 },
 {
  "track": 3,
  "delta": 0,
  "tick": 32544,
  "byteIndex": 17787,
  "name": "Note on",
  "channel": 1,
  "noteNumber": 91,
  "noteName": "G6",
  "velocity": 79,
  "dtick": 48,
  "ins": 0
 },
 {
  "track": 3,
  "delta": 0,
  "tick": 32592,
  "byteIndex": 17811,
  "name": "Note on",
  "channel": 1,
  "noteNumber": 45,
  "noteName": "A2",
  "velocity": 79,
  "dtick": 48,
  "ins": 0
 },
 {
  "track": 3,
  "delta": 0,
  "tick": 32592,
  "byteIndex": 17815,
  "name": "Note on",
  "channel": 1,
  "noteNumber": 52,
  "noteName": "E3",
  "velocity": 79,
  "dtick": 48,
  "ins": 0
 },
 {
  "track": 3,
  "delta": 0,
  "tick": 32592,
  "byteIndex": 17819,
  "name": "Note on",
  "channel": 1,
  "noteNumber": 57,
  "noteName": "A3",
  "velocity": 79,
  "dtick": 48,
  "ins": 0
 },
 {
  "track": 3,
  "delta": 0,
  "tick": 32592,
  "byteIndex": 17823,
  "name": "Note on",
  "channel": 1,
  "noteNumber": 76,
  "noteName": "E5",
  "velocity": 79,
  "dtick": 48,
  "ins": 0
 },
 {
  "track": 3,
  "delta": 0,
  "tick": 32592,
  "byteIndex": 17827,
  "name": "Note on",
  "channel": 1,
  "noteNumber": 88,
  "noteName": "E6",
  "velocity": 79,
  "dtick": 48,
  "ins": 0
 },
 {
  "track": 3,
  "delta": 0,
  "tick": 32640,
  "byteIndex": 17851,
  "name": "Note on",
  "channel": 1,
  "noteNumber": 41,
  "noteName": "F2",
  "velocity": 79,
  "dtick": 48,
  "ins": 0
 },
 {
  "track": 3,
  "delta": 0,
  "tick": 32640,
  "byteIndex": 17855,
  "name": "Note on",
  "channel": 1,
  "noteNumber": 53,
  "noteName": "F3",
  "velocity": 79,
  "dtick": 48,
  "ins": 0
 },
 {
  "track": 3,
  "delta": 0,
  "tick": 32640,
  "byteIndex": 17859,
  "name": "Note on",
  "channel": 1,
  "noteNumber": 48,
  "noteName": "C3",
  "velocity": 79,
  "dtick": 48,
  "ins": 0
 },
 {
  "track": 3,
  "delta": 0,
  "tick": 32640,
  "byteIndex": 17863,
  "name": "Note on",
  "channel": 1,
  "noteNumber": 77,
  "noteName": "F5",
  "velocity": 79,
  "dtick": 48,
  "ins": 0
 },
 {
  "track": 3,
  "delta": 0,
  "tick": 32640,
  "byteIndex": 17867,
  "name": "Note on",
  "channel": 1,
  "noteNumber": 89,
  "noteName": "F6",
  "velocity": 79,
  "dtick": 48,
  "ins": 0
 },
 {
  "track": 3,
  "delta": 0,
  "tick": 32688,
  "byteIndex": 17891,
  "name": "Note on",
  "channel": 1,
  "noteNumber": 41,
  "noteName": "F2",
  "velocity": 79,
  "dtick": 48,
  "ins": 0
 },
 {
  "track": 3,
  "delta": 0,
  "tick": 32688,
  "byteIndex": 17895,
  "name": "Note on",
  "channel": 1,
  "noteNumber": 48,
  "noteName": "C3",
  "velocity": 79,
  "dtick": 48,
  "ins": 0
 },
 {
  "track": 3,
  "delta": 0,
  "tick": 32688,
  "byteIndex": 17899,
  "name": "Note on",
  "channel": 1,
  "noteNumber": 53,
  "noteName": "F3",
  "velocity": 79,
  "dtick": 48,
  "ins": 0
 },
 {
  "track": 3,
  "delta": 0,
  "tick": 32688,
  "byteIndex": 17903,
  "name": "Note on",
  "channel": 1,
  "noteNumber": 76,
  "noteName": "E5",
  "velocity": 79,
  "dtick": 48,
  "ins": 0
 },
 {
  "track": 3,
  "delta": 0,
  "tick": 32688,
  "byteIndex": 17907,
  "name": "Note on",
  "channel": 1,
  "noteNumber": 88,
  "noteName": "E6",
  "velocity": 79,
  "dtick": 48,
  "ins": 0
 },
 {
  "track": 3,
  "delta": 0,
  "tick": 32736,
  "byteIndex": 17931,
  "name": "Note on",
  "channel": 1,
  "noteNumber": 53,
  "noteName": "F3",
  "velocity": 79,
  "dtick": 48,
  "ins": 0
 },
 {
  "track": 3,
  "delta": 0,
  "tick": 32736,
  "byteIndex": 17935,
  "name": "Note on",
  "channel": 1,
  "noteNumber": 48,
  "noteName": "C3",
  "velocity": 79,
  "dtick": 48,
  "ins": 0
 },
 {
  "track": 3,
  "delta": 0,
  "tick": 32736,
  "byteIndex": 17939,
  "name": "Note on",
  "channel": 1,
  "noteNumber": 41,
  "noteName": "F2",
  "velocity": 79,
  "dtick": 48,
  "ins": 0
 },
 {
  "track": 3,
  "delta": 0,
  "tick": 32736,
  "byteIndex": 17943,
  "name": "Note on",
  "channel": 1,
  "noteNumber": 72,
  "noteName": "C5",
  "velocity": 79,
  "dtick": 48,
  "ins": 0
 },
 {
  "track": 3,
  "delta": 0,
  "tick": 32736,
  "byteIndex": 17947,
  "name": "Note on",
  "channel": 1,
  "noteNumber": 84,
  "noteName": "C6",
  "velocity": 79,
  "dtick": 48,
  "ins": 0
 },
 {
  "track": 3,
  "delta": 0,
  "tick": 32784,
  "byteIndex": 17971,
  "name": "Note on",
  "channel": 1,
  "noteNumber": 48,
  "noteName": "C3",
  "velocity": 79,
  "dtick": 48,
  "ins": 0
 },
 {
  "track": 3,
  "delta": 0,
  "tick": 32784,
  "byteIndex": 17975,
  "name": "Note on",
  "channel": 1,
  "noteNumber": 53,
  "noteName": "F3",
  "velocity": 79,
  "dtick": 48,
  "ins": 0
 },
 {
  "track": 3,
  "delta": 0,
  "tick": 32784,
  "byteIndex": 17979,
  "name": "Note on",
  "channel": 1,
  "noteNumber": 41,
  "noteName": "F2",
  "velocity": 79,
  "dtick": 48,
  "ins": 0
 },
 {
  "track": 3,
  "delta": 0,
  "tick": 32784,
  "byteIndex": 17983,
  "name": "Note on",
  "channel": 1,
  "noteNumber": 77,
  "noteName": "F5",
  "velocity": 79,
  "dtick": 48,
  "ins": 0
 },
 {
  "track": 3,
  "delta": 0,
  "tick": 32784,
  "byteIndex": 17987,
  "name": "Note on",
  "channel": 1,
  "noteNumber": 89,
  "noteName": "F6",
  "velocity": 79,
  "dtick": 48,
  "ins": 0
 },
 {
  "track": 3,
  "delta": 0,
  "tick": 32832,
  "byteIndex": 18011,
  "name": "Note on",
  "channel": 1,
  "noteNumber": 48,
  "noteName": "C3",
  "velocity": 79,
  "dtick": 48,
  "ins": 0
 },
 {
  "track": 3,
  "delta": 0,
  "tick": 32832,
  "byteIndex": 18015,
  "name": "Note on",
  "channel": 1,
  "noteNumber": 53,
  "noteName": "F3",
  "velocity": 79,
  "dtick": 48,
  "ins": 0
 },
 {
  "track": 3,
  "delta": 0,
  "tick": 32832,
  "byteIndex": 18019,
  "name": "Note on",
  "channel": 1,
  "noteNumber": 41,
  "noteName": "F2",
  "velocity": 79,
  "dtick": 48,
  "ins": 0
 },
 {
  "track": 3,
  "delta": 0,
  "tick": 32832,
  "byteIndex": 18023,
  "name": "Note on",
  "channel": 1,
  "noteNumber": 76,
  "noteName": "E5",
  "velocity": 79,
  "dtick": 48,
  "ins": 0
 },
 {
  "track": 3,
  "delta": 0,
  "tick": 32832,
  "byteIndex": 18027,
  "name": "Note on",
  "channel": 1,
  "noteNumber": 88,
  "noteName": "E6",
  "velocity": 79,
  "dtick": 48,
  "ins": 0
 },
 {
  "track": 3,
  "delta": 0,
  "tick": 32880,
  "byteIndex": 18051,
  "name": "Note on",
  "channel": 1,
  "noteNumber": 41,
  "noteName": "F2",
  "velocity": 79,
  "dtick": 48,
  "ins": 0
 },
 {
  "track": 3,
  "delta": 0,
  "tick": 32880,
  "byteIndex": 18055,
  "name": "Note on",
  "channel": 1,
  "noteNumber": 48,
  "noteName": "C3",
  "velocity": 79,
  "dtick": 48,
  "ins": 0
 },
 {
  "track": 3,
  "delta": 0,
  "tick": 32880,
  "byteIndex": 18059,
  "name": "Note on",
  "channel": 1,
  "noteNumber": 53,
  "noteName": "F3",
  "velocity": 79,
  "dtick": 48,
  "ins": 0
 },
 {
  "track": 3,
  "delta": 0,
  "tick": 32880,
  "byteIndex": 18063,
  "name": "Note on",
  "channel": 1,
  "noteNumber": 72,
  "noteName": "C5",
  "velocity": 79,
  "dtick": 48,
  "ins": 0
 },
 {
  "track": 3,
  "delta": 0,
  "tick": 32880,
  "byteIndex": 18067,
  "name": "Note on",
  "channel": 1,
  "noteNumber": 84,
  "noteName": "C6",
  "velocity": 79,
  "dtick": 48,
  "ins": 0
 },
 {
  "track": 3,
  "delta": 0,
  "tick": 32928,
  "byteIndex": 18091,
  "name": "Note on",
  "channel": 1,
  "noteNumber": 48,
  "noteName": "C3",
  "velocity": 79,
  "dtick": 48,
  "ins": 0
 },
 {
  "track": 3,
  "delta": 0,
  "tick": 32928,
  "byteIndex": 18095,
  "name": "Note on",
  "channel": 1,
  "noteNumber": 53,
  "noteName": "F3",
  "velocity": 79,
  "dtick": 48,
  "ins": 0
 },
 {
  "track": 3,
  "delta": 0,
  "tick": 32928,
  "byteIndex": 18099,
  "name": "Note on",
  "channel": 1,
  "noteNumber": 41,
  "noteName": "F2",
  "velocity": 79,
  "dtick": 48,
  "ins": 0
 },
 {
  "track": 3,
  "delta": 0,
  "tick": 32928,
  "byteIndex": 18103,
  "name": "Note on",
  "channel": 1,
  "noteNumber": 77,
  "noteName": "F5",
  "velocity": 79,
  "dtick": 48,
  "ins": 0
 },
 {
  "track": 3,
  "delta": 0,
  "tick": 32928,
  "byteIndex": 18107,
  "name": "Note on",
  "channel": 1,
  "noteNumber": 89,
  "noteName": "F6",
  "velocity": 79,
  "dtick": 48,
  "ins": 0
 },
 {
  "track": 3,
  "delta": 0,
  "tick": 32976,
  "byteIndex": 18131,
  "name": "Note on",
  "channel": 1,
  "noteNumber": 41,
  "noteName": "F2",
  "velocity": 79,
  "dtick": 48,
  "ins": 0
 },
 {
  "track": 3,
  "delta": 0,
  "tick": 32976,
  "byteIndex": 18135,
  "name": "Note on",
  "channel": 1,
  "noteNumber": 48,
  "noteName": "C3",
  "velocity": 79,
  "dtick": 48,
  "ins": 0
 },
 {
  "track": 3,
  "delta": 0,
  "tick": 32976,
  "byteIndex": 18139,
  "name": "Note on",
  "channel": 1,
  "noteNumber": 53,
  "noteName": "F3",
  "velocity": 79,
  "dtick": 48,
  "ins": 0
 },
 {
  "track": 3,
  "delta": 0,
  "tick": 32976,
  "byteIndex": 18143,
  "name": "Note on",
  "channel": 1,
  "noteNumber": 76,
  "noteName": "E5",
  "velocity": 79,
  "dtick": 48,
  "ins": 0
 },
 {
  "track": 3,
  "delta": 0,
  "tick": 32976,
  "byteIndex": 18147,
  "name": "Note on",
  "channel": 1,
  "noteNumber": 88,
  "noteName": "E6",
  "velocity": 79,
  "dtick": 48,
  "ins": 0
 },
 {
  "track": 3,
  "delta": 0,
  "tick": 33024,
  "byteIndex": 18171,
  "name": "Note on",
  "channel": 1,
  "noteNumber": 55,
  "noteName": "G3",
  "velocity": 79,
  "dtick": 48,
  "ins": 0
 },
 {
  "track": 3,
  "delta": 0,
  "tick": 33024,
  "byteIndex": 18175,
  "name": "Note on",
  "channel": 1,
  "noteNumber": 60,
  "noteName": "C4",
  "velocity": 79,
  "dtick": 48,
  "ins": 0
 },
 {
  "track": 3,
  "delta": 0,
  "tick": 33024,
  "byteIndex": 18179,
  "name": "Note on",
  "channel": 1,
  "noteNumber": 48,
  "noteName": "C3",
  "velocity": 79,
  "dtick": 48,
  "ins": 0
 },
 {
  "track": 3,
  "delta": 0,
  "tick": 33024,
  "byteIndex": 18183,
  "name": "Note on",
  "channel": 1,
  "noteNumber": 76,
  "noteName": "E5",
  "velocity": 79,
  "dtick": 48,
  "ins": 0
 },
 {
  "track": 3,
  "delta": 0,
  "tick": 33024,
  "byteIndex": 18187,
  "name": "Note on",
  "channel": 1,
  "noteNumber": 88,
  "noteName": "E6",
  "velocity": 79,
  "dtick": 48,
  "ins": 0
 },
 {
  "track": 3,
  "delta": 0,
  "tick": 33072,
  "byteIndex": 18211,
  "name": "Note on",
  "channel": 1,
  "noteNumber": 48,
  "noteName": "C3",
  "velocity": 79,
  "dtick": 48,
  "ins": 0
 },
 {
  "track": 3,
  "delta": 0,
  "tick": 33072,
  "byteIndex": 18215,
  "name": "Note on",
  "channel": 1,
  "noteNumber": 55,
  "noteName": "G3",
  "velocity": 79,
  "dtick": 48,
  "ins": 0
 },
 {
  "track": 3,
  "delta": 0,
  "tick": 33072,
  "byteIndex": 18219,
  "name": "Note on",
  "channel": 1,
  "noteNumber": 60,
  "noteName": "C4",
  "velocity": 79,
  "dtick": 48,
  "ins": 0
 },
 {
  "track": 3,
  "delta": 0,
  "tick": 33072,
  "byteIndex": 18223,
  "name": "Note on",
  "channel": 1,
  "noteNumber": 72,
  "noteName": "C5",
  "velocity": 79,
  "dtick": 48,
  "ins": 0
 },
 {
  "track": 3,
  "delta": 0,
  "tick": 33072,
  "byteIndex": 18227,
  "name": "Note on",
  "channel": 1,
  "noteNumber": 84,
  "noteName": "C6",
  "velocity": 79,
  "dtick": 48,
  "ins": 0
 },
 {
  "track": 3,
  "delta": 0,
  "tick": 33120,
  "byteIndex": 18251,
  "name": "Note on",
  "channel": 1,
  "noteNumber": 60,
  "noteName": "C4",
  "velocity": 79,
  "dtick": 48,
  "ins": 0
 },
 {
  "track": 3,
  "delta": 0,
  "tick": 33120,
  "byteIndex": 18255,
  "name": "Note on",
  "channel": 1,
  "noteNumber": 55,
  "noteName": "G3",
  "velocity": 79,
  "dtick": 48,
  "ins": 0
 },
 {
  "track": 3,
  "delta": 0,
  "tick": 33120,
  "byteIndex": 18259,
  "name": "Note on",
  "channel": 1,
  "noteNumber": 48,
  "noteName": "C3",
  "velocity": 79,
  "dtick": 48,
  "ins": 0
 },
 {
  "track": 3,
  "delta": 0,
  "tick": 33120,
  "byteIndex": 18263,
  "name": "Note on",
  "channel": 1,
  "noteNumber": 67,
  "noteName": "G4",
  "velocity": 79,
  "dtick": 48,
  "ins": 0
 },
 {
  "track": 3,
  "delta": 0,
  "tick": 33120,
  "byteIndex": 18267,
  "name": "Note on",
  "channel": 1,
  "noteNumber": 79,
  "noteName": "G5",
  "velocity": 79,
  "dtick": 48,
  "ins": 0
 },
 {
  "track": 3,
  "delta": 0,
  "tick": 33168,
  "byteIndex": 18291,
  "name": "Note on",
  "channel": 1,
  "noteNumber": 60,
  "noteName": "C4",
  "velocity": 79,
  "dtick": 48,
  "ins": 0
 },
 {
  "track": 3,
  "delta": 0,
  "tick": 33168,
  "byteIndex": 18295,
  "name": "Note on",
  "channel": 1,
  "noteNumber": 55,
  "noteName": "G3",
  "velocity": 79,
  "dtick": 48,
  "ins": 0
 },
 {
  "track": 3,
  "delta": 0,
  "tick": 33168,
  "byteIndex": 18299,
  "name": "Note on",
  "channel": 1,
  "noteNumber": 48,
  "noteName": "C3",
  "velocity": 79,
  "dtick": 48,
  "ins": 0
 },
 {
  "track": 3,
  "delta": 0,
  "tick": 33168,
  "byteIndex": 18303,
  "name": "Note on",
  "channel": 1,
  "noteNumber": 76,
  "noteName": "E5",
  "velocity": 79,
  "dtick": 48,
  "ins": 0
 },
 {
  "track": 3,
  "delta": 0,
  "tick": 33168,
  "byteIndex": 18307,
  "name": "Note on",
  "channel": 1,
  "noteNumber": 88,
  "noteName": "E6",
  "velocity": 79,
  "dtick": 48,
  "ins": 0
 },
 {
  "track": 3,
  "delta": 0,
  "tick": 33216,
  "byteIndex": 18331,
  "name": "Note on",
  "channel": 1,
  "noteNumber": 55,
  "noteName": "G3",
  "velocity": 79,
  "dtick": 48,
  "ins": 0
 },
 {
  "track": 3,
  "delta": 0,
  "tick": 33216,
  "byteIndex": 18335,
  "name": "Note on",
  "channel": 1,
  "noteNumber": 60,
  "noteName": "C4",
  "velocity": 79,
  "dtick": 48,
  "ins": 0
 },
 {
  "track": 3,
  "delta": 0,
  "tick": 33216,
  "byteIndex": 18339,
  "name": "Note on",
  "channel": 1,
  "noteNumber": 48,
  "noteName": "C3",
  "velocity": 79,
  "dtick": 48,
  "ins": 0
 },
 {
  "track": 3,
  "delta": 0,
  "tick": 33216,
  "byteIndex": 18343,
  "name": "Note on",
  "channel": 1,
  "noteNumber": 72,
  "noteName": "C5",
  "velocity": 79,
  "dtick": 48,
  "ins": 0
 },
 {
  "track": 3,
  "delta": 0,
  "tick": 33216,
  "byteIndex": 18347,
  "name": "Note on",
  "channel": 1,
  "noteNumber": 84,
  "noteName": "C6",
  "velocity": 79,
  "dtick": 48,
  "ins": 0
 },
 {
  "track": 3,
  "delta": 0,
  "tick": 33264,
  "byteIndex": 18371,
  "name": "Note on",
  "channel": 1,
  "noteNumber": 48,
  "noteName": "C3",
  "velocity": 79,
  "dtick": 48,
  "ins": 0
 },
 {
  "track": 3,
  "delta": 0,
  "tick": 33264,
  "byteIndex": 18375,
  "name": "Note on",
  "channel": 1,
  "noteNumber": 55,
  "noteName": "G3",
  "velocity": 79,
  "dtick": 48,
  "ins": 0
 },
 {
  "track": 3,
  "delta": 0,
  "tick": 33264,
  "byteIndex": 18379,
  "name": "Note on",
  "channel": 1,
  "noteNumber": 60,
  "noteName": "C4",
  "velocity": 79,
  "dtick": 48,
  "ins": 0
 },
 {
  "track": 3,
  "delta": 0,
  "tick": 33264,
  "byteIndex": 18383,
  "name": "Note on",
  "channel": 1,
  "noteNumber": 67,
  "noteName": "G4",
  "velocity": 79,
  "dtick": 48,
  "ins": 0
 },
 {
  "track": 3,
  "delta": 0,
  "tick": 33264,
  "byteIndex": 18387,
  "name": "Note on",
  "channel": 1,
  "noteNumber": 79,
  "noteName": "G5",
  "velocity": 79,
  "dtick": 48,
  "ins": 0
 },
 {
  "track": 3,
  "delta": 0,
  "tick": 33312,
  "byteIndex": 18411,
  "name": "Note on",
  "channel": 1,
  "noteNumber": 48,
  "noteName": "C3",
  "velocity": 79,
  "dtick": 48,
  "ins": 0
 },
 {
  "track": 3,
  "delta": 0,
  "tick": 33312,
  "byteIndex": 18415,
  "name": "Note on",
  "channel": 1,
  "noteNumber": 60,
  "noteName": "C4",
  "velocity": 79,
  "dtick": 48,
  "ins": 0
 },
 {
  "track": 3,
  "delta": 0,
  "tick": 33312,
  "byteIndex": 18419,
  "name": "Note on",
  "channel": 1,
  "noteNumber": 55,
  "noteName": "G3",
  "velocity": 79,
  "dtick": 48,
  "ins": 0
 },
 {
  "track": 3,
  "delta": 0,
  "tick": 33312,
  "byteIndex": 18423,
  "name": "Note on",
  "channel": 1,
  "noteNumber": 88,
  "noteName": "E6",
  "velocity": 79,
  "dtick": 48,
  "ins": 0
 },
 {
  "track": 3,
  "delta": 0,
  "tick": 33312,
  "byteIndex": 18427,
  "name": "Note on",
  "channel": 1,
  "noteNumber": 76,
  "noteName": "E5",
  "velocity": 79,
  "dtick": 48,
  "ins": 0
 },
 {
  "track": 3,
  "delta": 0,
  "tick": 33360,
  "byteIndex": 18451,
  "name": "Note on",
  "channel": 1,
  "noteNumber": 48,
  "noteName": "C3",
  "velocity": 79,
  "dtick": 48,
  "ins": 0
 },
 {
  "track": 3,
  "delta": 0,
  "tick": 33360,
  "byteIndex": 18455,
  "name": "Note on",
  "channel": 1,
  "noteNumber": 55,
  "noteName": "G3",
  "velocity": 79,
  "dtick": 48,
  "ins": 0
 },
 {
  "track": 3,
  "delta": 0,
  "tick": 33360,
  "byteIndex": 18459,
  "name": "Note on",
  "channel": 1,
  "noteNumber": 60,
  "noteName": "C4",
  "velocity": 79,
  "dtick": 48,
  "ins": 0
 },
 {
  "track": 3,
  "delta": 0,
  "tick": 33360,
  "byteIndex": 18463,
  "name": "Note on",
  "channel": 1,
  "noteNumber": 84,
  "noteName": "C6",
  "velocity": 79,
  "dtick": 48,
  "ins": 0
 },
 {
  "track": 3,
  "delta": 0,
  "tick": 33360,
  "byteIndex": 18467,
  "name": "Note on",
  "channel": 1,
  "noteNumber": 72,
  "noteName": "C5",
  "velocity": 79,
  "dtick": 48,
  "ins": 0
 },
 {
  "track": 3,
  "delta": 0,
  "tick": 33408,
  "byteIndex": 18491,
  "name": "Note on",
  "channel": 1,
  "noteNumber": 48,
  "noteName": "C3",
  "velocity": 79,
  "dtick": 48,
  "ins": 0
 },
 {
  "track": 3,
  "delta": 0,
  "tick": 33408,
  "byteIndex": 18495,
  "name": "Note on",
  "channel": 1,
  "noteNumber": 55,
  "noteName": "G3",
  "velocity": 79,
  "dtick": 48,
  "ins": 0
 },
 {
  "track": 3,
  "delta": 0,
  "tick": 33408,
  "byteIndex": 18499,
  "name": "Note on",
  "channel": 1,
  "noteNumber": 59,
  "noteName": "B3",
  "velocity": 79,
  "dtick": 48,
  "ins": 0
 },
 {
  "track": 3,
  "delta": 0,
  "tick": 33408,
  "byteIndex": 18503,
  "name": "Note on",
  "channel": 1,
  "noteNumber": 86,
  "noteName": "D6",
  "velocity": 79,
  "dtick": 48,
  "ins": 0
 },
 {
  "track": 3,
  "delta": 0,
  "tick": 33408,
  "byteIndex": 18507,
  "name": "Note on",
  "channel": 1,
  "noteNumber": 74,
  "noteName": "D5",
  "velocity": 79,
  "dtick": 48,
  "ins": 0
 },
 {
  "track": 3,
  "delta": 0,
  "tick": 33456,
  "byteIndex": 18531,
  "name": "Note on",
  "channel": 1,
  "noteNumber": 59,
  "noteName": "B3",
  "velocity": 79,
  "dtick": 48,
  "ins": 0
 },
 {
  "track": 3,
  "delta": 0,
  "tick": 33456,
  "byteIndex": 18535,
  "name": "Note on",
  "channel": 1,
  "noteNumber": 48,
  "noteName": "C3",
  "velocity": 79,
  "dtick": 48,
  "ins": 0
 },
 {
  "track": 3,
  "delta": 0,
  "tick": 33456,
  "byteIndex": 18539,
  "name": "Note on",
  "channel": 1,
  "noteNumber": 55,
  "noteName": "G3",
  "velocity": 79,
  "dtick": 48,
  "ins": 0
 },
 {
  "track": 3,
  "delta": 0,
  "tick": 33456,
  "byteIndex": 18543,
  "name": "Note on",
  "channel": 1,
  "noteNumber": 84,
  "noteName": "C6",
  "velocity": 79,
  "dtick": 48,
  "ins": 0
 },
 {
  "track": 3,
  "delta": 0,
  "tick": 33456,
  "byteIndex": 18547,
  "name": "Note on",
  "channel": 1,
  "noteNumber": 72,
  "noteName": "C5",
  "velocity": 79,
  "dtick": 48,
  "ins": 0
 },
 {
  "track": 3,
  "delta": 0,
  "tick": 33504,
  "byteIndex": 18571,
  "name": "Note on",
  "channel": 1,
  "noteNumber": 59,
  "noteName": "B3",
  "velocity": 79,
  "dtick": 48,
  "ins": 0
 },
 {
  "track": 3,
  "delta": 0,
  "tick": 33504,
  "byteIndex": 18575,
  "name": "Note on",
  "channel": 1,
  "noteNumber": 55,
  "noteName": "G3",
  "velocity": 79,
  "dtick": 48,
  "ins": 0
 },
 {
  "track": 3,
  "delta": 0,
  "tick": 33504,
  "byteIndex": 18579,
  "name": "Note on",
  "channel": 1,
  "noteNumber": 48,
  "noteName": "C3",
  "velocity": 79,
  "dtick": 48,
  "ins": 0
 },
 {
  "track": 3,
  "delta": 0,
  "tick": 33504,
  "byteIndex": 18583,
  "name": "Note on",
  "channel": 1,
  "noteNumber": 79,
  "noteName": "G5",
  "velocity": 79,
  "dtick": 48,
  "ins": 0
 },
 {
  "track": 3,
  "delta": 0,
  "tick": 33504,
  "byteIndex": 18587,
  "name": "Note on",
  "channel": 1,
  "noteNumber": 67,
  "noteName": "G4",
  "velocity": 79,
  "dtick": 48,
  "ins": 0
 },
 {
  "track": 3,
  "delta": 0,
  "tick": 33552,
  "byteIndex": 18611,
  "name": "Note on",
  "channel": 1,
  "noteNumber": 59,
  "noteName": "B3",
  "velocity": 79,
  "dtick": 48,
  "ins": 0
 },
 {
  "track": 3,
  "delta": 0,
  "tick": 33552,
  "byteIndex": 18615,
  "name": "Note on",
  "channel": 1,
  "noteNumber": 55,
  "noteName": "G3",
  "velocity": 79,
  "dtick": 48,
  "ins": 0
 },
 {
  "track": 3,
  "delta": 0,
  "tick": 33552,
  "byteIndex": 18619,
  "name": "Note on",
  "channel": 1,
  "noteNumber": 48,
  "noteName": "C3",
  "velocity": 79,
  "dtick": 48,
  "ins": 0
 },
 {
  "track": 3,
  "delta": 0,
  "tick": 33552,
  "byteIndex": 18623,
  "name": "Note on",
  "channel": 1,
  "noteNumber": 86,
  "noteName": "D6",
  "velocity": 79,
  "dtick": 48,
  "ins": 0
 },
 {
  "track": 3,
  "delta": 0,
  "tick": 33552,
  "byteIndex": 18627,
  "name": "Note on",
  "channel": 1,
  "noteNumber": 74,
  "noteName": "D5",
  "velocity": 79,
  "dtick": 48,
  "ins": 0
 },
 {
  "track": 3,
  "delta": 0,
  "tick": 33600,
  "byteIndex": 18651,
  "name": "Note on",
  "channel": 1,
  "noteNumber": 55,
  "noteName": "G3",
  "velocity": 79,
  "dtick": 48,
  "ins": 0
 },
 {
  "track": 3,
  "delta": 0,
  "tick": 33600,
  "byteIndex": 18655,
  "name": "Note on",
  "channel": 1,
  "noteNumber": 48,
  "noteName": "C3",
  "velocity": 79,
  "dtick": 48,
  "ins": 0
 },
 {
  "track": 3,
  "delta": 0,
  "tick": 33600,
  "byteIndex": 18659,
  "name": "Note on",
  "channel": 1,
  "noteNumber": 59,
  "noteName": "B3",
  "velocity": 79,
  "dtick": 48,
  "ins": 0
 },
 {
  "track": 3,
  "delta": 0,
  "tick": 33600,
  "byteIndex": 18663,
  "name": "Note on",
  "channel": 1,
  "noteNumber": 84,
  "noteName": "C6",
  "velocity": 79,
  "dtick": 48,
  "ins": 0
 },
 {
  "track": 3,
  "delta": 0,
  "tick": 33600,
  "byteIndex": 18667,
  "name": "Note on",
  "channel": 1,
  "noteNumber": 72,
  "noteName": "C5",
  "velocity": 79,
  "dtick": 48,
  "ins": 0
 },
 {
  "track": 3,
  "delta": 0,
  "tick": 33648,
  "byteIndex": 18691,
  "name": "Note on",
  "channel": 1,
  "noteNumber": 55,
  "noteName": "G3",
  "velocity": 79,
  "dtick": 48,
  "ins": 0
 },
 {
  "track": 3,
  "delta": 0,
  "tick": 33648,
  "byteIndex": 18695,
  "name": "Note on",
  "channel": 1,
  "noteNumber": 48,
  "noteName": "C3",
  "velocity": 79,
  "dtick": 48,
  "ins": 0
 },
 {
  "track": 3,
  "delta": 0,
  "tick": 33648,
  "byteIndex": 18699,
  "name": "Note on",
  "channel": 1,
  "noteNumber": 59,
  "noteName": "B3",
  "velocity": 79,
  "dtick": 48,
  "ins": 0
 },
 {
  "track": 3,
  "delta": 0,
  "tick": 33648,
  "byteIndex": 18703,
  "name": "Note on",
  "channel": 1,
  "noteNumber": 67,
  "noteName": "G4",
  "velocity": 79,
  "dtick": 48,
  "ins": 0
 },
 {
  "track": 3,
  "delta": 0,
  "tick": 33648,
  "byteIndex": 18707,
  "name": "Note on",
  "channel": 1,
  "noteNumber": 79,
  "noteName": "G5",
  "velocity": 79,
  "dtick": 48,
  "ins": 0
 },
 {
  "track": 3,
  "delta": 0,
  "tick": 33696,
  "byteIndex": 18731,
  "name": "Note on",
  "channel": 1,
  "noteNumber": 55,
  "noteName": "G3",
  "velocity": 79,
  "dtick": 48,
  "ins": 0
 },
 {
  "track": 3,
  "delta": 0,
  "tick": 33696,
  "byteIndex": 18735,
  "name": "Note on",
  "channel": 1,
  "noteNumber": 48,
  "noteName": "C3",
  "velocity": 79,
  "dtick": 48,
  "ins": 0
 },
 {
  "track": 3,
  "delta": 0,
  "tick": 33696,
  "byteIndex": 18739,
  "name": "Note on",
  "channel": 1,
  "noteNumber": 59,
  "noteName": "B3",
  "velocity": 79,
  "dtick": 48,
  "ins": 0
 },
 {
  "track": 3,
  "delta": 0,
  "tick": 33696,
  "byteIndex": 18743,
  "name": "Note on",
  "channel": 1,
  "noteNumber": 74,
  "noteName": "D5",
  "velocity": 79,
  "dtick": 48,
  "ins": 0
 },
 {
  "track": 3,
  "delta": 0,
  "tick": 33696,
  "byteIndex": 18747,
  "name": "Note on",
  "channel": 1,
  "noteNumber": 86,
  "noteName": "D6",
  "velocity": 79,
  "dtick": 48,
  "ins": 0
 },
 {
  "track": 3,
  "delta": 0,
  "tick": 33744,
  "byteIndex": 18771,
  "name": "Note on",
  "channel": 1,
  "noteNumber": 48,
  "noteName": "C3",
  "velocity": 79,
  "dtick": 48,
  "ins": 0
 },
 {
  "track": 3,
  "delta": 0,
  "tick": 33744,
  "byteIndex": 18775,
  "name": "Note on",
  "channel": 1,
  "noteNumber": 55,
  "noteName": "G3",
  "velocity": 79,
  "dtick": 48,
  "ins": 0
 },
 {
  "track": 3,
  "delta": 0,
  "tick": 33744,
  "byteIndex": 18779,
  "name": "Note on",
  "channel": 1,
  "noteNumber": 59,
  "noteName": "B3",
  "velocity": 79,
  "dtick": 48,
  "ins": 0
 },
 {
  "track": 3,
  "delta": 0,
  "tick": 33744,
  "byteIndex": 18783,
  "name": "Note on",
  "channel": 1,
  "noteNumber": 76,
  "noteName": "E5",
  "velocity": 79,
  "dtick": 48,
  "ins": 0
 },
 {
  "track": 3,
  "delta": 0,
  "tick": 33744,
  "byteIndex": 18787,
  "name": "Note on",
  "channel": 1,
  "noteNumber": 88,
  "noteName": "E6",
  "velocity": 79,
  "dtick": 48,
  "ins": 0
 },
 {
  "track": 3,
  "delta": 0,
  "tick": 33792,
  "byteIndex": 18811,
  "name": "Note on",
  "channel": 1,
  "noteNumber": 57,
  "noteName": "A3",
  "velocity": 79,
  "dtick": 48,
  "ins": 0
 },
 {
  "track": 3,
  "delta": 0,
  "tick": 33792,
  "byteIndex": 18815,
  "name": "Note on",
  "channel": 1,
  "noteNumber": 45,
  "noteName": "A2",
  "velocity": 79,
  "dtick": 48,
  "ins": 0
 },
 {
  "track": 3,
  "delta": 0,
  "tick": 33792,
  "byteIndex": 18819,
  "name": "Note on",
  "channel": 1,
  "noteNumber": 52,
  "noteName": "E3",
  "velocity": 79,
  "dtick": 48,
  "ins": 0
 },
 {
  "track": 3,
  "delta": 0,
  "tick": 33792,
  "byteIndex": 18823,
  "name": "Note on",
  "channel": 1,
  "noteNumber": 79,
  "noteName": "G5",
  "velocity": 79,
  "dtick": 48,
  "ins": 0
 },
 {
  "track": 3,
  "delta": 0,
  "tick": 33792,
  "byteIndex": 18827,
  "name": "Note on",
  "channel": 1,
  "noteNumber": 91,
  "noteName": "G6",
  "velocity": 79,
  "dtick": 48,
  "ins": 0
 },
 {
  "track": 3,
  "delta": 0,
  "tick": 33840,
  "byteIndex": 18851,
  "name": "Note on",
  "channel": 1,
  "noteNumber": 57,
  "noteName": "A3",
  "velocity": 79,
  "dtick": 48,
  "ins": 0
 },
 {
  "track": 3,
  "delta": 0,
  "tick": 33840,
  "byteIndex": 18855,
  "name": "Note on",
  "channel": 1,
  "noteNumber": 52,
  "noteName": "E3",
  "velocity": 79,
  "dtick": 48,
  "ins": 0
 },
 {
  "track": 3,
  "delta": 0,
  "tick": 33840,
  "byteIndex": 18859,
  "name": "Note on",
  "channel": 1,
  "noteNumber": 45,
  "noteName": "A2",
  "velocity": 79,
  "dtick": 48,
  "ins": 0
 },
 {
  "track": 3,
  "delta": 0,
  "tick": 33840,
  "byteIndex": 18863,
  "name": "Note on",
  "channel": 1,
  "noteNumber": 76,
  "noteName": "E5",
  "velocity": 79,
  "dtick": 48,
  "ins": 0
 },
 {
  "track": 3,
  "delta": 0,
  "tick": 33840,
  "byteIndex": 18867,
  "name": "Note on",
  "channel": 1,
  "noteNumber": 88,
  "noteName": "E6",
  "velocity": 79,
  "dtick": 48,
  "ins": 0
 },
 {
  "track": 3,
  "delta": 0,
  "tick": 33888,
  "byteIndex": 18891,
  "name": "Note on",
  "channel": 1,
  "noteNumber": 57,
  "noteName": "A3",
  "velocity": 79,
  "dtick": 48,
  "ins": 0
 },
 {
  "track": 3,
  "delta": 0,
  "tick": 33888,
  "byteIndex": 18895,
  "name": "Note on",
  "channel": 1,
  "noteNumber": 52,
  "noteName": "E3",
  "velocity": 79,
  "dtick": 48,
  "ins": 0
 },
 {
  "track": 3,
  "delta": 0,
  "tick": 33888,
  "byteIndex": 18899,
  "name": "Note on",
  "channel": 1,
  "noteNumber": 45,
  "noteName": "A2",
  "velocity": 79,
  "dtick": 48,
  "ins": 0
 },
 {
  "track": 3,
  "delta": 0,
  "tick": 33888,
  "byteIndex": 18903,
  "name": "Note on",
  "channel": 1,
  "noteNumber": 72,
  "noteName": "C5",
  "velocity": 79,
  "dtick": 48,
  "ins": 0
 },
 {
  "track": 3,
  "delta": 0,
  "tick": 33888,
  "byteIndex": 18907,
  "name": "Note on",
  "channel": 1,
  "noteNumber": 84,
  "noteName": "C6",
  "velocity": 79,
  "dtick": 48,
  "ins": 0
 },
 {
  "track": 3,
  "delta": 0,
  "tick": 33936,
  "byteIndex": 18931,
  "name": "Note on",
  "channel": 1,
  "noteNumber": 52,
  "noteName": "E3",
  "velocity": 79,
  "dtick": 48,
  "ins": 0
 },
 {
  "track": 3,
  "delta": 0,
  "tick": 33936,
  "byteIndex": 18935,
  "name": "Note on",
  "channel": 1,
  "noteNumber": 57,
  "noteName": "A3",
  "velocity": 79,
  "dtick": 48,
  "ins": 0
 },
 {
  "track": 3,
  "delta": 0,
  "tick": 33936,
  "byteIndex": 18939,
  "name": "Note on",
  "channel": 1,
  "noteNumber": 45,
  "noteName": "A2",
  "velocity": 79,
  "dtick": 48,
  "ins": 0
 },
 {
  "track": 3,
  "delta": 0,
  "tick": 33936,
  "byteIndex": 18943,
  "name": "Note on",
  "channel": 1,
  "noteNumber": 79,
  "noteName": "G5",
  "velocity": 79,
  "dtick": 48,
  "ins": 0
 },
 {
  "track": 3,
  "delta": 0,
  "tick": 33936,
  "byteIndex": 18947,
  "name": "Note on",
  "channel": 1,
  "noteNumber": 91,
  "noteName": "G6",
  "velocity": 79,
  "dtick": 48,
  "ins": 0
 },
 {
  "track": 3,
  "delta": 0,
  "tick": 33984,
  "byteIndex": 18971,
  "name": "Note on",
  "channel": 1,
  "noteNumber": 52,
  "noteName": "E3",
  "velocity": 79,
  "dtick": 48,
  "ins": 0
 },
 {
  "track": 3,
  "delta": 0,
  "tick": 33984,
  "byteIndex": 18975,
  "name": "Note on",
  "channel": 1,
  "noteNumber": 57,
  "noteName": "A3",
  "velocity": 79,
  "dtick": 48,
  "ins": 0
 },
 {
  "track": 3,
  "delta": 0,
  "tick": 33984,
  "byteIndex": 18979,
  "name": "Note on",
  "channel": 1,
  "noteNumber": 45,
  "noteName": "A2",
  "velocity": 79,
  "dtick": 48,
  "ins": 0
 },
 {
  "track": 3,
  "delta": 0,
  "tick": 33984,
  "byteIndex": 18983,
  "name": "Note on",
  "channel": 1,
  "noteNumber": 76,
  "noteName": "E5",
  "velocity": 79,
  "dtick": 48,
  "ins": 0
 },
 {
  "track": 3,
  "delta": 0,
  "tick": 33984,
  "byteIndex": 18987,
  "name": "Note on",
  "channel": 1,
  "noteNumber": 88,
  "noteName": "E6",
  "velocity": 79,
  "dtick": 48,
  "ins": 0
 },
 {
  "track": 3,
  "delta": 0,
  "tick": 34032,
  "byteIndex": 19011,
  "name": "Note on",
  "channel": 1,
  "noteNumber": 45,
  "noteName": "A2",
  "velocity": 79,
  "dtick": 48,
  "ins": 0
 },
 {
  "track": 3,
  "delta": 0,
  "tick": 34032,
  "byteIndex": 19015,
  "name": "Note on",
  "channel": 1,
  "noteNumber": 52,
  "noteName": "E3",
  "velocity": 79,
  "dtick": 48,
  "ins": 0
 },
 {
  "track": 3,
  "delta": 0,
  "tick": 34032,
  "byteIndex": 19019,
  "name": "Note on",
  "channel": 1,
  "noteNumber": 57,
  "noteName": "A3",
  "velocity": 79,
  "dtick": 48,
  "ins": 0
 },
 {
  "track": 3,
  "delta": 0,
  "tick": 34032,
  "byteIndex": 19023,
  "name": "Note on",
  "channel": 1,
  "noteNumber": 72,
  "noteName": "C5",
  "velocity": 79,
  "dtick": 48,
  "ins": 0
 },
 {
  "track": 3,
  "delta": 0,
  "tick": 34032,
  "byteIndex": 19027,
  "name": "Note on",
  "channel": 1,
  "noteNumber": 84,
  "noteName": "C6",
  "velocity": 79,
  "dtick": 48,
  "ins": 0
 },
 {
  "track": 3,
  "delta": 0,
  "tick": 34080,
  "byteIndex": 19051,
  "name": "Note on",
  "channel": 1,
  "noteNumber": 45,
  "noteName": "A2",
  "velocity": 79,
  "dtick": 48,
  "ins": 0
 },
 {
  "track": 3,
  "delta": 0,
  "tick": 34080,
  "byteIndex": 19055,
  "name": "Note on",
  "channel": 1,
  "noteNumber": 57,
  "noteName": "A3",
  "velocity": 79,
  "dtick": 48,
  "ins": 0
 },
 {
  "track": 3,
  "delta": 0,
  "tick": 34080,
  "byteIndex": 19059,
  "name": "Note on",
  "channel": 1,
  "noteNumber": 52,
  "noteName": "E3",
  "velocity": 79,
  "dtick": 48,
  "ins": 0
 },
 {
  "track": 3,
  "delta": 0,
  "tick": 34080,
  "byteIndex": 19063,
  "name": "Note on",
  "channel": 1,
  "noteNumber": 79,
  "noteName": "G5",
  "velocity": 79,
  "dtick": 48,
  "ins": 0
 },
 {
  "track": 3,
  "delta": 0,
  "tick": 34080,
  "byteIndex": 19067,
  "name": "Note on",
  "channel": 1,
  "noteNumber": 91,
  "noteName": "G6",
  "velocity": 79,
  "dtick": 48,
  "ins": 0
 },
 {
  "track": 3,
  "delta": 0,
  "tick": 34128,
  "byteIndex": 19091,
  "name": "Note on",
  "channel": 1,
  "noteNumber": 45,
  "noteName": "A2",
  "velocity": 79,
  "dtick": 48,
  "ins": 0
 },
 {
  "track": 3,
  "delta": 0,
  "tick": 34128,
  "byteIndex": 19095,
  "name": "Note on",
  "channel": 1,
  "noteNumber": 52,
  "noteName": "E3",
  "velocity": 79,
  "dtick": 48,
  "ins": 0
 },
 {
  "track": 3,
  "delta": 0,
  "tick": 34128,
  "byteIndex": 19099,
  "name": "Note on",
  "channel": 1,
  "noteNumber": 57,
  "noteName": "A3",
  "velocity": 79,
  "dtick": 48,
  "ins": 0
 },
 {
  "track": 3,
  "delta": 0,
  "tick": 34128,
  "byteIndex": 19103,
  "name": "Note on",
  "channel": 1,
  "noteNumber": 76,
  "noteName": "E5",
  "velocity": 79,
  "dtick": 48,
  "ins": 0
 },
 {
  "track": 3,
  "delta": 0,
  "tick": 34128,
  "byteIndex": 19107,
  "name": "Note on",
  "channel": 1,
  "noteNumber": 88,
  "noteName": "E6",
  "velocity": 79,
  "dtick": 48,
  "ins": 0
 },
 {
  "track": 3,
  "delta": 0,
  "tick": 34176,
  "byteIndex": 19131,
  "name": "Note on",
  "channel": 1,
  "noteNumber": 41,
  "noteName": "F2",
  "velocity": 79,
  "dtick": 48,
  "ins": 0
 },
 {
  "track": 3,
  "delta": 0,
  "tick": 34176,
  "byteIndex": 19135,
  "name": "Note on",
  "channel": 1,
  "noteNumber": 53,
  "noteName": "F3",
  "velocity": 79,
  "dtick": 48,
  "ins": 0
 },
 {
  "track": 3,
  "delta": 0,
  "tick": 34176,
  "byteIndex": 19139,
  "name": "Note on",
  "channel": 1,
  "noteNumber": 48,
  "noteName": "C3",
  "velocity": 79,
  "dtick": 48,
  "ins": 0
 },
 {
  "track": 3,
  "delta": 0,
  "tick": 34176,
  "byteIndex": 19143,
  "name": "Note on",
  "channel": 1,
  "noteNumber": 77,
  "noteName": "F5",
  "velocity": 79,
  "dtick": 48,
  "ins": 0
 },
 {
  "track": 3,
  "delta": 0,
  "tick": 34176,
  "byteIndex": 19147,
  "name": "Note on",
  "channel": 1,
  "noteNumber": 89,
  "noteName": "F6",
  "velocity": 79,
  "dtick": 48,
  "ins": 0
 },
 {
  "track": 3,
  "delta": 0,
  "tick": 34224,
  "byteIndex": 19171,
  "name": "Note on",
  "channel": 1,
  "noteNumber": 41,
  "noteName": "F2",
  "velocity": 79,
  "dtick": 48,
  "ins": 0
 },
 {
  "track": 3,
  "delta": 0,
  "tick": 34224,
  "byteIndex": 19175,
  "name": "Note on",
  "channel": 1,
  "noteNumber": 48,
  "noteName": "C3",
  "velocity": 79,
  "dtick": 48,
  "ins": 0
 },
 {
  "track": 3,
  "delta": 0,
  "tick": 34224,
  "byteIndex": 19179,
  "name": "Note on",
  "channel": 1,
  "noteNumber": 53,
  "noteName": "F3",
  "velocity": 79,
  "dtick": 48,
  "ins": 0
 },
 {
  "track": 3,
  "delta": 0,
  "tick": 34224,
  "byteIndex": 19183,
  "name": "Note on",
  "channel": 1,
  "noteNumber": 76,
  "noteName": "E5",
  "velocity": 79,
  "dtick": 48,
  "ins": 0
 },
 {
  "track": 3,
  "delta": 0,
  "tick": 34224,
  "byteIndex": 19187,
  "name": "Note on",
  "channel": 1,
  "noteNumber": 88,
  "noteName": "E6",
  "velocity": 79,
  "dtick": 48,
  "ins": 0
 },
 {
  "track": 3,
  "delta": 0,
  "tick": 34272,
  "byteIndex": 19211,
  "name": "Note on",
  "channel": 1,
  "noteNumber": 53,
  "noteName": "F3",
  "velocity": 79,
  "dtick": 48,
  "ins": 0
 },
 {
  "track": 3,
  "delta": 0,
  "tick": 34272,
  "byteIndex": 19215,
  "name": "Note on",
  "channel": 1,
  "noteNumber": 48,
  "noteName": "C3",
  "velocity": 79,
  "dtick": 48,
  "ins": 0
 },
 {
  "track": 3,
  "delta": 0,
  "tick": 34272,
  "byteIndex": 19219,
  "name": "Note on",
  "channel": 1,
  "noteNumber": 41,
  "noteName": "F2",
  "velocity": 79,
  "dtick": 48,
  "ins": 0
 },
 {
  "track": 3,
  "delta": 0,
  "tick": 34272,
  "byteIndex": 19223,
  "name": "Note on",
  "channel": 1,
  "noteNumber": 72,
  "noteName": "C5",
  "velocity": 79,
  "dtick": 48,
  "ins": 0
 },
 {
  "track": 3,
  "delta": 0,
  "tick": 34272,
  "byteIndex": 19227,
  "name": "Note on",
  "channel": 1,
  "noteNumber": 84,
  "noteName": "C6",
  "velocity": 79,
  "dtick": 48,
  "ins": 0
 },
 {
  "track": 3,
  "delta": 0,
  "tick": 34320,
  "byteIndex": 19251,
  "name": "Note on",
  "channel": 1,
  "noteNumber": 48,
  "noteName": "C3",
  "velocity": 79,
  "dtick": 48,
  "ins": 0
 },
 {
  "track": 3,
  "delta": 0,
  "tick": 34320,
  "byteIndex": 19255,
  "name": "Note on",
  "channel": 1,
  "noteNumber": 53,
  "noteName": "F3",
  "velocity": 79,
  "dtick": 48,
  "ins": 0
 },
 {
  "track": 3,
  "delta": 0,
  "tick": 34320,
  "byteIndex": 19259,
  "name": "Note on",
  "channel": 1,
  "noteNumber": 41,
  "noteName": "F2",
  "velocity": 79,
  "dtick": 48,
  "ins": 0
 },
 {
  "track": 3,
  "delta": 0,
  "tick": 34320,
  "byteIndex": 19263,
  "name": "Note on",
  "channel": 1,
  "noteNumber": 77,
  "noteName": "F5",
  "velocity": 79,
  "dtick": 48,
  "ins": 0
 },
 {
  "track": 3,
  "delta": 0,
  "tick": 34320,
  "byteIndex": 19267,
  "name": "Note on",
  "channel": 1,
  "noteNumber": 89,
  "noteName": "F6",
  "velocity": 79,
  "dtick": 48,
  "ins": 0
 },
 {
  "track": 3,
  "delta": 0,
  "tick": 34368,
  "byteIndex": 19291,
  "name": "Note on",
  "channel": 1,
  "noteNumber": 41,
  "noteName": "F2",
  "velocity": 79,
  "dtick": 48,
  "ins": 0
 },
 {
  "track": 3,
  "delta": 0,
  "tick": 34368,
  "byteIndex": 19295,
  "name": "Note on",
  "channel": 1,
  "noteNumber": 53,
  "noteName": "F3",
  "velocity": 79,
  "dtick": 48,
  "ins": 0
 },
 {
  "track": 3,
  "delta": 0,
  "tick": 34368,
  "byteIndex": 19299,
  "name": "Note on",
  "channel": 1,
  "noteNumber": 48,
  "noteName": "C3",
  "velocity": 79,
  "dtick": 48,
  "ins": 0
 },
 {
  "track": 3,
  "delta": 0,
  "tick": 34368,
  "byteIndex": 19303,
  "name": "Note on",
  "channel": 1,
  "noteNumber": 76,
  "noteName": "E5",
  "velocity": 79,
  "dtick": 48,
  "ins": 0
 },
 {
  "track": 3,
  "delta": 0,
  "tick": 34368,
  "byteIndex": 19307,
  "name": "Note on",
  "channel": 1,
  "noteNumber": 88,
  "noteName": "E6",
  "velocity": 79,
  "dtick": 48,
  "ins": 0
 },
 {
  "track": 3,
  "delta": 0,
  "tick": 34416,
  "byteIndex": 19331,
  "name": "Note on",
  "channel": 1,
  "noteNumber": 53,
  "noteName": "F3",
  "velocity": 79,
  "dtick": 48,
  "ins": 0
 },
 {
  "track": 3,
  "delta": 0,
  "tick": 34416,
  "byteIndex": 19335,
  "name": "Note on",
  "channel": 1,
  "noteNumber": 48,
  "noteName": "C3",
  "velocity": 79,
  "dtick": 48,
  "ins": 0
 },
 {
  "track": 3,
  "delta": 0,
  "tick": 34416,
  "byteIndex": 19339,
  "name": "Note on",
  "channel": 1,
  "noteNumber": 41,
  "noteName": "F2",
  "velocity": 79,
  "dtick": 48,
  "ins": 0
 },
 {
  "track": 3,
  "delta": 0,
  "tick": 34416,
  "byteIndex": 19343,
  "name": "Note on",
  "channel": 1,
  "noteNumber": 72,
  "noteName": "C5",
  "velocity": 79,
  "dtick": 48,
  "ins": 0
 },
 {
  "track": 3,
  "delta": 0,
  "tick": 34416,
  "byteIndex": 19347,
  "name": "Note on",
  "channel": 1,
  "noteNumber": 84,
  "noteName": "C6",
  "velocity": 79,
  "dtick": 48,
  "ins": 0
 },
 {
  "track": 3,
  "delta": 0,
  "tick": 34464,
  "byteIndex": 19371,
  "name": "Note on",
  "channel": 1,
  "noteNumber": 41,
  "noteName": "F2",
  "velocity": 79,
  "dtick": 48,
  "ins": 0
 },
 {
  "track": 3,
  "delta": 0,
  "tick": 34464,
  "byteIndex": 19375,
  "name": "Note on",
  "channel": 1,
  "noteNumber": 53,
  "noteName": "F3",
  "velocity": 79,
  "dtick": 48,
  "ins": 0
 },
 {
  "track": 3,
  "delta": 0,
  "tick": 34464,
  "byteIndex": 19379,
  "name": "Note on",
  "channel": 1,
  "noteNumber": 48,
  "noteName": "C3",
  "velocity": 79,
  "dtick": 48,
  "ins": 0
 },
 {
  "track": 3,
  "delta": 0,
  "tick": 34464,
  "byteIndex": 19383,
  "name": "Note on",
  "channel": 1,
  "noteNumber": 77,
  "noteName": "F5",
  "velocity": 79,
  "dtick": 48,
  "ins": 0
 },
 {
  "track": 3,
  "delta": 0,
  "tick": 34464,
  "byteIndex": 19387,
  "name": "Note on",
  "channel": 1,
  "noteNumber": 89,
  "noteName": "F6",
  "velocity": 79,
  "dtick": 48,
  "ins": 0
 },
 {
  "track": 3,
  "delta": 0,
  "tick": 34512,
  "byteIndex": 19411,
  "name": "Note on",
  "channel": 1,
  "noteNumber": 53,
  "noteName": "F3",
  "velocity": 79,
  "dtick": 48,
  "ins": 0
 },
 {
  "track": 3,
  "delta": 0,
  "tick": 34512,
  "byteIndex": 19415,
  "name": "Note on",
  "channel": 1,
  "noteNumber": 48,
  "noteName": "C3",
  "velocity": 79,
  "dtick": 48,
  "ins": 0
 },
 {
  "track": 3,
  "delta": 0,
  "tick": 34512,
  "byteIndex": 19419,
  "name": "Note on",
  "channel": 1,
  "noteNumber": 41,
  "noteName": "F2",
  "velocity": 79,
  "dtick": 48,
  "ins": 0
 },
 {
  "track": 3,
  "delta": 0,
  "tick": 34512,
  "byteIndex": 19423,
  "name": "Note on",
  "channel": 1,
  "noteNumber": 76,
  "noteName": "E5",
  "velocity": 79,
  "dtick": 48,
  "ins": 0
 },
 {
  "track": 3,
  "delta": 0,
  "tick": 34512,
  "byteIndex": 19427,
  "name": "Note on",
  "channel": 1,
  "noteNumber": 88,
  "noteName": "E6",
  "velocity": 79,
  "dtick": 48,
  "ins": 0
 },
 {
  "track": 3,
  "delta": 0,
  "tick": 34560,
  "byteIndex": 19451,
  "name": "Note on",
  "channel": 1,
  "noteNumber": 55,
  "noteName": "G3",
  "velocity": 79,
  "dtick": 48,
  "ins": 0
 },
 {
  "track": 3,
  "delta": 0,
  "tick": 34560,
  "byteIndex": 19455,
  "name": "Note on",
  "channel": 1,
  "noteNumber": 60,
  "noteName": "C4",
  "velocity": 79,
  "dtick": 48,
  "ins": 0
 },
 {
  "track": 3,
  "delta": 0,
  "tick": 34560,
  "byteIndex": 19459,
  "name": "Note on",
  "channel": 1,
  "noteNumber": 48,
  "noteName": "C3",
  "velocity": 79,
  "dtick": 48,
  "ins": 0
 },
 {
  "track": 3,
  "delta": 0,
  "tick": 34560,
  "byteIndex": 19463,
  "name": "Note on",
  "channel": 1,
  "noteNumber": 76,
  "noteName": "E5",
  "velocity": 79,
  "dtick": 48,
  "ins": 0
 },
 {
  "track": 3,
  "delta": 0,
  "tick": 34560,
  "byteIndex": 19467,
  "name": "Note on",
  "channel": 1,
  "noteNumber": 88,
  "noteName": "E6",
  "velocity": 79,
  "dtick": 48,
  "ins": 0
 },
 {
  "track": 3,
  "delta": 0,
  "tick": 34608,
  "byteIndex": 19491,
  "name": "Note on",
  "channel": 1,
  "noteNumber": 48,
  "noteName": "C3",
  "velocity": 79,
  "dtick": 48,
  "ins": 0
 },
 {
  "track": 3,
  "delta": 0,
  "tick": 34608,
  "byteIndex": 19495,
  "name": "Note on",
  "channel": 1,
  "noteNumber": 55,
  "noteName": "G3",
  "velocity": 79,
  "dtick": 48,
  "ins": 0
 },
 {
  "track": 3,
  "delta": 0,
  "tick": 34608,
  "byteIndex": 19499,
  "name": "Note on",
  "channel": 1,
  "noteNumber": 60,
  "noteName": "C4",
  "velocity": 79,
  "dtick": 48,
  "ins": 0
 },
 {
  "track": 3,
  "delta": 0,
  "tick": 34608,
  "byteIndex": 19503,
  "name": "Note on",
  "channel": 1,
  "noteNumber": 72,
  "noteName": "C5",
  "velocity": 79,
  "dtick": 48,
  "ins": 0
 },
 {
  "track": 3,
  "delta": 0,
  "tick": 34608,
  "byteIndex": 19507,
  "name": "Note on",
  "channel": 1,
  "noteNumber": 84,
  "noteName": "C6",
  "velocity": 79,
  "dtick": 48,
  "ins": 0
 },
 {
  "track": 3,
  "delta": 0,
  "tick": 34656,
  "byteIndex": 19531,
  "name": "Note on",
  "channel": 1,
  "noteNumber": 60,
  "noteName": "C4",
  "velocity": 79,
  "dtick": 48,
  "ins": 0
 },
 {
  "track": 3,
  "delta": 0,
  "tick": 34656,
  "byteIndex": 19535,
  "name": "Note on",
  "channel": 1,
  "noteNumber": 55,
  "noteName": "G3",
  "velocity": 79,
  "dtick": 48,
  "ins": 0
 },
 {
  "track": 3,
  "delta": 0,
  "tick": 34656,
  "byteIndex": 19539,
  "name": "Note on",
  "channel": 1,
  "noteNumber": 48,
  "noteName": "C3",
  "velocity": 79,
  "dtick": 48,
  "ins": 0
 },
 {
  "track": 3,
  "delta": 0,
  "tick": 34656,
  "byteIndex": 19543,
  "name": "Note on",
  "channel": 1,
  "noteNumber": 67,
  "noteName": "G4",
  "velocity": 79,
  "dtick": 48,
  "ins": 0
 },
 {
  "track": 3,
  "delta": 0,
  "tick": 34656,
  "byteIndex": 19547,
  "name": "Note on",
  "channel": 1,
  "noteNumber": 79,
  "noteName": "G5",
  "velocity": 79,
  "dtick": 48,
  "ins": 0
 },
 {
  "track": 3,
  "delta": 0,
  "tick": 34704,
  "byteIndex": 19571,
  "name": "Note on",
  "channel": 1,
  "noteNumber": 60,
  "noteName": "C4",
  "velocity": 79,
  "dtick": 48,
  "ins": 0
 },
 {
  "track": 3,
  "delta": 0,
  "tick": 34704,
  "byteIndex": 19575,
  "name": "Note on",
  "channel": 1,
  "noteNumber": 55,
  "noteName": "G3",
  "velocity": 79,
  "dtick": 48,
  "ins": 0
 },
 {
  "track": 3,
  "delta": 0,
  "tick": 34704,
  "byteIndex": 19579,
  "name": "Note on",
  "channel": 1,
  "noteNumber": 48,
  "noteName": "C3",
  "velocity": 79,
  "dtick": 48,
  "ins": 0
 },
 {
  "track": 3,
  "delta": 0,
  "tick": 34704,
  "byteIndex": 19583,
  "name": "Note on",
  "channel": 1,
  "noteNumber": 76,
  "noteName": "E5",
  "velocity": 79,
  "dtick": 48,
  "ins": 0
 },
 {
  "track": 3,
  "delta": 0,
  "tick": 34704,
  "byteIndex": 19587,
  "name": "Note on",
  "channel": 1,
  "noteNumber": 88,
  "noteName": "E6",
  "velocity": 79,
  "dtick": 48,
  "ins": 0
 },
 {
  "track": 3,
  "delta": 0,
  "tick": 34752,
  "byteIndex": 19611,
  "name": "Note on",
  "channel": 1,
  "noteNumber": 48,
  "noteName": "C3",
  "velocity": 79,
  "dtick": 48,
  "ins": 0
 },
 {
  "track": 3,
  "delta": 0,
  "tick": 34752,
  "byteIndex": 19615,
  "name": "Note on",
  "channel": 1,
  "noteNumber": 60,
  "noteName": "C4",
  "velocity": 79,
  "dtick": 48,
  "ins": 0
 },
 {
  "track": 3,
  "delta": 0,
  "tick": 34752,
  "byteIndex": 19619,
  "name": "Note on",
  "channel": 1,
  "noteNumber": 55,
  "noteName": "G3",
  "velocity": 79,
  "dtick": 48,
  "ins": 0
 },
 {
  "track": 3,
  "delta": 0,
  "tick": 34752,
  "byteIndex": 19623,
  "name": "Note on",
  "channel": 1,
  "noteNumber": 72,
  "noteName": "C5",
  "velocity": 79,
  "dtick": 48,
  "ins": 0
 },
 {
  "track": 3,
  "delta": 0,
  "tick": 34752,
  "byteIndex": 19627,
  "name": "Note on",
  "channel": 1,
  "noteNumber": 84,
  "noteName": "C6",
  "velocity": 79,
  "dtick": 48,
  "ins": 0
 },
 {
  "track": 3,
  "delta": 0,
  "tick": 34800,
  "byteIndex": 19651,
  "name": "Note on",
  "channel": 1,
  "noteNumber": 60,
  "noteName": "C4",
  "velocity": 79,
  "dtick": 48,
  "ins": 0
 },
 {
  "track": 3,
  "delta": 0,
  "tick": 34800,
  "byteIndex": 19655,
  "name": "Note on",
  "channel": 1,
  "noteNumber": 55,
  "noteName": "G3",
  "velocity": 79,
  "dtick": 48,
  "ins": 0
 },
 {
  "track": 3,
  "delta": 0,
  "tick": 34800,
  "byteIndex": 19659,
  "name": "Note on",
  "channel": 1,
  "noteNumber": 48,
  "noteName": "C3",
  "velocity": 79,
  "dtick": 48,
  "ins": 0
 },
 {
  "track": 3,
  "delta": 0,
  "tick": 34800,
  "byteIndex": 19663,
  "name": "Note on",
  "channel": 1,
  "noteNumber": 67,
  "noteName": "G4",
  "velocity": 79,
  "dtick": 48,
  "ins": 0
 },
 {
  "track": 3,
  "delta": 0,
  "tick": 34800,
  "byteIndex": 19667,
  "name": "Note on",
  "channel": 1,
  "noteNumber": 79,
  "noteName": "G5",
  "velocity": 79,
  "dtick": 48,
  "ins": 0
 },
 {
  "track": 3,
  "delta": 0,
  "tick": 34848,
  "byteIndex": 19691,
  "name": "Note on",
  "channel": 1,
  "noteNumber": 55,
  "noteName": "G3",
  "velocity": 79,
  "dtick": 48,
  "ins": 0
 },
 {
  "track": 3,
  "delta": 0,
  "tick": 34848,
  "byteIndex": 19695,
  "name": "Note on",
  "channel": 1,
  "noteNumber": 60,
  "noteName": "C4",
  "velocity": 79,
  "dtick": 48,
  "ins": 0
 },
 {
  "track": 3,
  "delta": 0,
  "tick": 34848,
  "byteIndex": 19699,
  "name": "Note on",
  "channel": 1,
  "noteNumber": 48,
  "noteName": "C3",
  "velocity": 79,
  "dtick": 48,
  "ins": 0
 },
 {
  "track": 3,
  "delta": 0,
  "tick": 34848,
  "byteIndex": 19703,
  "name": "Note on",
  "channel": 1,
  "noteNumber": 88,
  "noteName": "E6",
  "velocity": 79,
  "dtick": 48,
  "ins": 0
 },
 {
  "track": 3,
  "delta": 0,
  "tick": 34848,
  "byteIndex": 19707,
  "name": "Note on",
  "channel": 1,
  "noteNumber": 76,
  "noteName": "E5",
  "velocity": 79,
  "dtick": 48,
  "ins": 0
 },
 {
  "track": 3,
  "delta": 0,
  "tick": 34896,
  "byteIndex": 19731,
  "name": "Note on",
  "channel": 1,
  "noteNumber": 48,
  "noteName": "C3",
  "velocity": 79,
  "dtick": 48,
  "ins": 0
 },
 {
  "track": 3,
  "delta": 0,
  "tick": 34896,
  "byteIndex": 19735,
  "name": "Note on",
  "channel": 1,
  "noteNumber": 55,
  "noteName": "G3",
  "velocity": 79,
  "dtick": 48,
  "ins": 0
 },
 {
  "track": 3,
  "delta": 0,
  "tick": 34896,
  "byteIndex": 19739,
  "name": "Note on",
  "channel": 1,
  "noteNumber": 60,
  "noteName": "C4",
  "velocity": 79,
  "dtick": 48,
  "ins": 0
 },
 {
  "track": 3,
  "delta": 0,
  "tick": 34896,
  "byteIndex": 19743,
  "name": "Note on",
  "channel": 1,
  "noteNumber": 84,
  "noteName": "C6",
  "velocity": 79,
  "dtick": 48,
  "ins": 0
 },
 {
  "track": 3,
  "delta": 0,
  "tick": 34896,
  "byteIndex": 19747,
  "name": "Note on",
  "channel": 1,
  "noteNumber": 72,
  "noteName": "C5",
  "velocity": 79,
  "dtick": 48,
  "ins": 0
 },
 {
  "track": 3,
  "delta": 0,
  "tick": 34944,
  "byteIndex": 19771,
  "name": "Note on",
  "channel": 1,
  "noteNumber": 59,
  "noteName": "B3",
  "velocity": 79,
  "dtick": 48,
  "ins": 0
 },
 {
  "track": 3,
  "delta": 0,
  "tick": 34944,
  "byteIndex": 19775,
  "name": "Note on",
  "channel": 1,
  "noteNumber": 55,
  "noteName": "G3",
  "velocity": 79,
  "dtick": 48,
  "ins": 0
 },
 {
  "track": 3,
  "delta": 0,
  "tick": 34944,
  "byteIndex": 19779,
  "name": "Note on",
  "channel": 1,
  "noteNumber": 48,
  "noteName": "C3",
  "velocity": 79,
  "dtick": 48,
  "ins": 0
 },
 {
  "track": 3,
  "delta": 0,
  "tick": 34944,
  "byteIndex": 19783,
  "name": "Note on",
  "channel": 1,
  "noteNumber": 86,
  "noteName": "D6",
  "velocity": 79,
  "dtick": 48,
  "ins": 0
 },
 {
  "track": 3,
  "delta": 0,
  "tick": 34944,
  "byteIndex": 19787,
  "name": "Note on",
  "channel": 1,
  "noteNumber": 74,
  "noteName": "D5",
  "velocity": 79,
  "dtick": 48,
  "ins": 0
 },
 {
  "track": 3,
  "delta": 0,
  "tick": 34992,
  "byteIndex": 19811,
  "name": "Note on",
  "channel": 1,
  "noteNumber": 59,
  "noteName": "B3",
  "velocity": 79,
  "dtick": 48,
  "ins": 0
 },
 {
  "track": 3,
  "delta": 0,
  "tick": 34992,
  "byteIndex": 19815,
  "name": "Note on",
  "channel": 1,
  "noteNumber": 48,
  "noteName": "C3",
  "velocity": 79,
  "dtick": 48,
  "ins": 0
 },
 {
  "track": 3,
  "delta": 0,
  "tick": 34992,
  "byteIndex": 19819,
  "name": "Note on",
  "channel": 1,
  "noteNumber": 55,
  "noteName": "G3",
  "velocity": 79,
  "dtick": 48,
  "ins": 0
 },
 {
  "track": 3,
  "delta": 0,
  "tick": 34992,
  "byteIndex": 19823,
  "name": "Note on",
  "channel": 1,
  "noteNumber": 84,
  "noteName": "C6",
  "velocity": 79,
  "dtick": 48,
  "ins": 0
 },
 {
  "track": 3,
  "delta": 0,
  "tick": 34992,
  "byteIndex": 19827,
  "name": "Note on",
  "channel": 1,
  "noteNumber": 72,
  "noteName": "C5",
  "velocity": 79,
  "dtick": 48,
  "ins": 0
 },
 {
  "track": 3,
  "delta": 0,
  "tick": 35040,
  "byteIndex": 19851,
  "name": "Note on",
  "channel": 1,
  "noteNumber": 59,
  "noteName": "B3",
  "velocity": 79,
  "dtick": 48,
  "ins": 0
 },
 {
  "track": 3,
  "delta": 0,
  "tick": 35040,
  "byteIndex": 19855,
  "name": "Note on",
  "channel": 1,
  "noteNumber": 59,
  "noteName": "B3",
  "velocity": 79,
  "dtick": 48,
  "ins": 0
 },
 {
  "track": 3,
  "delta": 0,
  "tick": 35040,
  "byteIndex": 19859,
  "name": "Note on",
  "channel": 1,
  "noteNumber": 59,
  "noteName": "B3",
  "velocity": 79,
  "dtick": 48,
  "ins": 0
 },
 {
  "track": 3,
  "delta": 0,
  "tick": 35040,
  "byteIndex": 19863,
  "name": "Note on",
  "channel": 1,
  "noteNumber": 55,
  "noteName": "G3",
  "velocity": 79,
  "dtick": 48,
  "ins": 0
 },
 {
  "track": 3,
  "delta": 0,
  "tick": 35040,
  "byteIndex": 19867,
  "name": "Note on",
  "channel": 1,
  "noteNumber": 48,
  "noteName": "C3",
  "velocity": 79,
  "dtick": 48,
  "ins": 0
 },
 {
  "track": 3,
  "delta": 0,
  "tick": 35040,
  "byteIndex": 19871,
  "name": "Note on",
  "channel": 1,
  "noteNumber": 79,
  "noteName": "G5",
  "velocity": 79,
  "dtick": 48,
  "ins": 0
 },
 {
  "track": 3,
  "delta": 0,
  "tick": 35040,
  "byteIndex": 19875,
  "name": "Note on",
  "channel": 1,
  "noteNumber": 67,
  "noteName": "G4",
  "velocity": 79,
  "dtick": 48,
  "ins": 0
 },
 {
  "track": 3,
  "delta": 0,
  "tick": 35088,
  "byteIndex": 19907,
  "name": "Note on",
  "channel": 1,
  "noteNumber": 48,
  "noteName": "C3",
  "velocity": 79,
  "dtick": 48,
  "ins": 0
 },
 {
  "track": 3,
  "delta": 0,
  "tick": 35088,
  "byteIndex": 19911,
  "name": "Note on",
  "channel": 1,
  "noteNumber": 55,
  "noteName": "G3",
  "velocity": 79,
  "dtick": 48,
  "ins": 0
 },
 {
  "track": 3,
  "delta": 0,
  "tick": 35088,
  "byteIndex": 19915,
  "name": "Note on",
  "channel": 1,
  "noteNumber": 59,
  "noteName": "B3",
  "velocity": 79,
  "dtick": 48,
  "ins": 0
 },
 {
  "track": 3,
  "delta": 0,
  "tick": 35088,
  "byteIndex": 19919,
  "name": "Note on",
  "channel": 1,
  "noteNumber": 86,
  "noteName": "D6",
  "velocity": 79,
  "dtick": 48,
  "ins": 0
 },
 {
  "track": 3,
  "delta": 0,
  "tick": 35088,
  "byteIndex": 19923,
  "name": "Note on",
  "channel": 1,
  "noteNumber": 74,
  "noteName": "D5",
  "velocity": 79,
  "dtick": 48,
  "ins": 0
 },
 {
  "track": 3,
  "delta": 0,
  "tick": 35136,
  "byteIndex": 19947,
  "name": "Note on",
  "channel": 1,
  "noteNumber": 59,
  "noteName": "B3",
  "velocity": 79,
  "dtick": 48,
  "ins": 0
 },
 {
  "track": 3,
  "delta": 0,
  "tick": 35136,
  "byteIndex": 19951,
  "name": "Note on",
  "channel": 1,
  "noteNumber": 48,
  "noteName": "C3",
  "velocity": 79,
  "dtick": 48,
  "ins": 0
 },
 {
  "track": 3,
  "delta": 0,
  "tick": 35136,
  "byteIndex": 19955,
  "name": "Note on",
  "channel": 1,
  "noteNumber": 55,
  "noteName": "G3",
  "velocity": 79,
  "dtick": 48,
  "ins": 0
 },
 {
  "track": 3,
  "delta": 0,
  "tick": 35136,
  "byteIndex": 19959,
  "name": "Note on",
  "channel": 1,
  "noteNumber": 84,
  "noteName": "C6",
  "velocity": 79,
  "dtick": 48,
  "ins": 0
 },
 {
  "track": 3,
  "delta": 0,
  "tick": 35136,
  "byteIndex": 19963,
  "name": "Note on",
  "channel": 1,
  "noteNumber": 72,
  "noteName": "C5",
  "velocity": 79,
  "dtick": 48,
  "ins": 0
 },
 {
  "track": 3,
  "delta": 0,
  "tick": 35184,
  "byteIndex": 19987,
  "name": "Note on",
  "channel": 1,
  "noteNumber": 59,
  "noteName": "B3",
  "velocity": 79,
  "dtick": 48,
  "ins": 0
 },
 {
  "track": 3,
  "delta": 0,
  "tick": 35184,
  "byteIndex": 19991,
  "name": "Note on",
  "channel": 1,
  "noteNumber": 48,
  "noteName": "C3",
  "velocity": 79,
  "dtick": 48,
  "ins": 0
 },
 {
  "track": 3,
  "delta": 0,
  "tick": 35184,
  "byteIndex": 19995,
  "name": "Note on",
  "channel": 1,
  "noteNumber": 55,
  "noteName": "G3",
  "velocity": 79,
  "dtick": 48,
  "ins": 0
 },
 {
  "track": 3,
  "delta": 0,
  "tick": 35184,
  "byteIndex": 19999,
  "name": "Note on",
  "channel": 1,
  "noteNumber": 67,
  "noteName": "G4",
  "velocity": 79,
  "dtick": 48,
  "ins": 0
 },
 {
  "track": 3,
  "delta": 0,
  "tick": 35184,
  "byteIndex": 20003,
  "name": "Note on",
  "channel": 1,
  "noteNumber": 79,
  "noteName": "G5",
  "velocity": 79,
  "dtick": 48,
  "ins": 0
 },
 {
  "track": 3,
  "delta": 0,
  "tick": 35232,
  "byteIndex": 20027,
  "name": "Note on",
  "channel": 1,
  "noteNumber": 55,
  "noteName": "G3",
  "velocity": 79,
  "dtick": 48,
  "ins": 0
 },
 {
  "track": 3,
  "delta": 0,
  "tick": 35232,
  "byteIndex": 20031,
  "name": "Note on",
  "channel": 1,
  "noteNumber": 48,
  "noteName": "C3",
  "velocity": 79,
  "dtick": 48,
  "ins": 0
 },
 {
  "track": 3,
  "delta": 0,
  "tick": 35232,
  "byteIndex": 20035,
  "name": "Note on",
  "channel": 1,
  "noteNumber": 59,
  "noteName": "B3",
  "velocity": 79,
  "dtick": 48,
  "ins": 0
 },
 {
  "track": 3,
  "delta": 0,
  "tick": 35232,
  "byteIndex": 20039,
  "name": "Note on",
  "channel": 1,
  "noteNumber": 74,
  "noteName": "D5",
  "velocity": 79,
  "dtick": 48,
  "ins": 0
 },
 {
  "track": 3,
  "delta": 0,
  "tick": 35232,
  "byteIndex": 20043,
  "name": "Note on",
  "channel": 1,
  "noteNumber": 86,
  "noteName": "D6",
  "velocity": 79,
  "dtick": 48,
  "ins": 0
 },
 {
  "track": 3,
  "delta": 0,
  "tick": 35280,
  "byteIndex": 20067,
  "name": "Note on",
  "channel": 1,
  "noteNumber": 48,
  "noteName": "C3",
  "velocity": 79,
  "dtick": 48,
  "ins": 0
 },
 {
  "track": 3,
  "delta": 0,
  "tick": 35280,
  "byteIndex": 20071,
  "name": "Note on",
  "channel": 1,
  "noteNumber": 55,
  "noteName": "G3",
  "velocity": 79,
  "dtick": 48,
  "ins": 0
 },
 {
  "track": 3,
  "delta": 0,
  "tick": 35280,
  "byteIndex": 20075,
  "name": "Note on",
  "channel": 1,
  "noteNumber": 59,
  "noteName": "B3",
  "velocity": 79,
  "dtick": 48,
  "ins": 0
 },
 {
  "track": 3,
  "delta": 0,
  "tick": 35280,
  "byteIndex": 20079,
  "name": "Note on",
  "channel": 1,
  "noteNumber": 76,
  "noteName": "E5",
  "velocity": 79,
  "dtick": 48,
  "ins": 0
 },
 {
  "track": 3,
  "delta": 0,
  "tick": 35280,
  "byteIndex": 20083,
  "name": "Note on",
  "channel": 1,
  "noteNumber": 88,
  "noteName": "E6",
  "velocity": 79,
  "dtick": 48,
  "ins": 0
 },
 {
  "track": 3,
  "delta": 0,
  "tick": 35328,
  "byteIndex": 20107,
  "name": "Note on",
  "channel": 1,
  "noteNumber": 57,
  "noteName": "A3",
  "velocity": 79,
  "dtick": 48,
  "ins": 0
 },
 {
  "track": 3,
  "delta": 0,
  "tick": 35328,
  "byteIndex": 20111,
  "name": "Note on",
  "channel": 1,
  "noteNumber": 45,
  "noteName": "A2",
  "velocity": 79,
  "dtick": 48,
  "ins": 0
 },
 {
  "track": 3,
  "delta": 0,
  "tick": 35328,
  "byteIndex": 20115,
  "name": "Note on",
  "channel": 1,
  "noteNumber": 52,
  "noteName": "E3",
  "velocity": 79,
  "dtick": 48,
  "ins": 0
 },
 {
  "track": 3,
  "delta": 0,
  "tick": 35328,
  "byteIndex": 20119,
  "name": "Note on",
  "channel": 1,
  "noteNumber": 79,
  "noteName": "G5",
  "velocity": 79,
  "dtick": 48,
  "ins": 0
 },
 {
  "track": 3,
  "delta": 0,
  "tick": 35328,
  "byteIndex": 20123,
  "name": "Note on",
  "channel": 1,
  "noteNumber": 91,
  "noteName": "G6",
  "velocity": 79,
  "dtick": 48,
  "ins": 0
 },
 {
  "track": 3,
  "delta": 0,
  "tick": 35376,
  "byteIndex": 20147,
  "name": "Note on",
  "channel": 1,
  "noteNumber": 45,
  "noteName": "A2",
  "velocity": 79,
  "dtick": 48,
  "ins": 0
 },
 {
  "track": 3,
  "delta": 0,
  "tick": 35376,
  "byteIndex": 20151,
  "name": "Note on",
  "channel": 1,
  "noteNumber": 52,
  "noteName": "E3",
  "velocity": 79,
  "dtick": 48,
  "ins": 0
 },
 {
  "track": 3,
  "delta": 0,
  "tick": 35376,
  "byteIndex": 20155,
  "name": "Note on",
  "channel": 1,
  "noteNumber": 57,
  "noteName": "A3",
  "velocity": 79,
  "dtick": 48,
  "ins": 0
 },
 {
  "track": 3,
  "delta": 0,
  "tick": 35376,
  "byteIndex": 20159,
  "name": "Note on",
  "channel": 1,
  "noteNumber": 76,
  "noteName": "E5",
  "velocity": 79,
  "dtick": 48,
  "ins": 0
 },
 {
  "track": 3,
  "delta": 0,
  "tick": 35376,
  "byteIndex": 20163,
  "name": "Note on",
  "channel": 1,
  "noteNumber": 88,
  "noteName": "E6",
  "velocity": 79,
  "dtick": 48,
  "ins": 0
 },
 {
  "track": 3,
  "delta": 0,
  "tick": 35424,
  "byteIndex": 20187,
  "name": "Note on",
  "channel": 1,
  "noteNumber": 45,
  "noteName": "A2",
  "velocity": 79,
  "dtick": 48,
  "ins": 0
 },
 {
  "track": 3,
  "delta": 0,
  "tick": 35424,
  "byteIndex": 20191,
  "name": "Note on",
  "channel": 1,
  "noteNumber": 52,
  "noteName": "E3",
  "velocity": 79,
  "dtick": 48,
  "ins": 0
 },
 {
  "track": 3,
  "delta": 0,
  "tick": 35424,
  "byteIndex": 20195,
  "name": "Note on",
  "channel": 1,
  "noteNumber": 57,
  "noteName": "A3",
  "velocity": 79,
  "dtick": 48,
  "ins": 0
 },
 {
  "track": 3,
  "delta": 0,
  "tick": 35424,
  "byteIndex": 20199,
  "name": "Note on",
  "channel": 1,
  "noteNumber": 72,
  "noteName": "C5",
  "velocity": 79,
  "dtick": 48,
  "ins": 0
 },
 {
  "track": 3,
  "delta": 0,
  "tick": 35424,
  "byteIndex": 20203,
  "name": "Note on",
  "channel": 1,
  "noteNumber": 84,
  "noteName": "C6",
  "velocity": 79,
  "dtick": 48,
  "ins": 0
 },
 {
  "track": 3,
  "delta": 0,
  "tick": 35472,
  "byteIndex": 20227,
  "name": "Note on",
  "channel": 1,
  "noteNumber": 52,
  "noteName": "E3",
  "velocity": 79,
  "dtick": 48,
  "ins": 0
 },
 {
  "track": 3,
  "delta": 0,
  "tick": 35472,
  "byteIndex": 20231,
  "name": "Note on",
  "channel": 1,
  "noteNumber": 57,
  "noteName": "A3",
  "velocity": 79,
  "dtick": 48,
  "ins": 0
 },
 {
  "track": 3,
  "delta": 0,
  "tick": 35472,
  "byteIndex": 20235,
  "name": "Note on",
  "channel": 1,
  "noteNumber": 45,
  "noteName": "A2",
  "velocity": 79,
  "dtick": 48,
  "ins": 0
 },
 {
  "track": 3,
  "delta": 0,
  "tick": 35472,
  "byteIndex": 20239,
  "name": "Note on",
  "channel": 1,
  "noteNumber": 91,
  "noteName": "G6",
  "velocity": 79,
  "dtick": 48,
  "ins": 0
 },
 {
  "track": 3,
  "delta": 0,
  "tick": 35472,
  "byteIndex": 20243,
  "name": "Note on",
  "channel": 1,
  "noteNumber": 79,
  "noteName": "G5",
  "velocity": 79,
  "dtick": 48,
  "ins": 0
 },
 {
  "track": 3,
  "delta": 0,
  "tick": 35520,
  "byteIndex": 20267,
  "name": "Note on",
  "channel": 1,
  "noteNumber": 52,
  "noteName": "E3",
  "velocity": 79,
  "dtick": 48,
  "ins": 0
 },
 {
  "track": 3,
  "delta": 0,
  "tick": 35520,
  "byteIndex": 20271,
  "name": "Note on",
  "channel": 1,
  "noteNumber": 57,
  "noteName": "A3",
  "velocity": 79,
  "dtick": 48,
  "ins": 0
 },
 {
  "track": 3,
  "delta": 0,
  "tick": 35520,
  "byteIndex": 20275,
  "name": "Note on",
  "channel": 1,
  "noteNumber": 45,
  "noteName": "A2",
  "velocity": 79,
  "dtick": 48,
  "ins": 0
 },
 {
  "track": 3,
  "delta": 0,
  "tick": 35520,
  "byteIndex": 20279,
  "name": "Note on",
  "channel": 1,
  "noteNumber": 88,
  "noteName": "E6",
  "velocity": 79,
  "dtick": 48,
  "ins": 0
 },
 {
  "track": 3,
  "delta": 0,
  "tick": 35520,
  "byteIndex": 20283,
  "name": "Note on",
  "channel": 1,
  "noteNumber": 76,
  "noteName": "E5",
  "velocity": 79,
  "dtick": 48,
  "ins": 0
 },
 {
  "track": 3,
  "delta": 0,
  "tick": 35568,
  "byteIndex": 20307,
  "name": "Note on",
  "channel": 1,
  "noteNumber": 57,
  "noteName": "A3",
  "velocity": 79,
  "dtick": 48,
  "ins": 0
 },
 {
  "track": 3,
  "delta": 0,
  "tick": 35568,
  "byteIndex": 20311,
  "name": "Note on",
  "channel": 1,
  "noteNumber": 52,
  "noteName": "E3",
  "velocity": 79,
  "dtick": 48,
  "ins": 0
 },
 {
  "track": 3,
  "delta": 0,
  "tick": 35568,
  "byteIndex": 20315,
  "name": "Note on",
  "channel": 1,
  "noteNumber": 45,
  "noteName": "A2",
  "velocity": 79,
  "dtick": 48,
  "ins": 0
 },
 {
  "track": 3,
  "delta": 0,
  "tick": 35568,
  "byteIndex": 20319,
  "name": "Note on",
  "channel": 1,
  "noteNumber": 72,
  "noteName": "C5",
  "velocity": 79,
  "dtick": 48,
  "ins": 0
 },
 {
  "track": 3,
  "delta": 0,
  "tick": 35568,
  "byteIndex": 20323,
  "name": "Note on",
  "channel": 1,
  "noteNumber": 84,
  "noteName": "C6",
  "velocity": 79,
  "dtick": 48,
  "ins": 0
 },
 {
  "track": 3,
  "delta": 0,
  "tick": 35616,
  "byteIndex": 20347,
  "name": "Note on",
  "channel": 1,
  "noteNumber": 52,
  "noteName": "E3",
  "velocity": 79,
  "dtick": 48,
  "ins": 0
 },
 {
  "track": 3,
  "delta": 0,
  "tick": 35616,
  "byteIndex": 20351,
  "name": "Note on",
  "channel": 1,
  "noteNumber": 57,
  "noteName": "A3",
  "velocity": 79,
  "dtick": 48,
  "ins": 0
 },
 {
  "track": 3,
  "delta": 0,
  "tick": 35616,
  "byteIndex": 20355,
  "name": "Note on",
  "channel": 1,
  "noteNumber": 45,
  "noteName": "A2",
  "velocity": 79,
  "dtick": 48,
  "ins": 0
 },
 {
  "track": 3,
  "delta": 0,
  "tick": 35616,
  "byteIndex": 20359,
  "name": "Note on",
  "channel": 1,
  "noteNumber": 79,
  "noteName": "G5",
  "velocity": 79,
  "dtick": 48,
  "ins": 0
 },
 {
  "track": 3,
  "delta": 0,
  "tick": 35616,
  "byteIndex": 20363,
  "name": "Note on",
  "channel": 1,
  "noteNumber": 91,
  "noteName": "G6",
  "velocity": 79,
  "dtick": 48,
  "ins": 0
 },
 {
  "track": 3,
  "delta": 0,
  "tick": 35664,
  "byteIndex": 20387,
  "name": "Note on",
  "channel": 1,
  "noteNumber": 45,
  "noteName": "A2",
  "velocity": 79,
  "dtick": 48,
  "ins": 0
 },
 {
  "track": 3,
  "delta": 0,
  "tick": 35664,
  "byteIndex": 20391,
  "name": "Note on",
  "channel": 1,
  "noteNumber": 52,
  "noteName": "E3",
  "velocity": 79,
  "dtick": 48,
  "ins": 0
 },
 {
  "track": 3,
  "delta": 0,
  "tick": 35664,
  "byteIndex": 20395,
  "name": "Note on",
  "channel": 1,
  "noteNumber": 57,
  "noteName": "A3",
  "velocity": 79,
  "dtick": 48,
  "ins": 0
 },
 {
  "track": 3,
  "delta": 0,
  "tick": 35664,
  "byteIndex": 20399,
  "name": "Note on",
  "channel": 1,
  "noteNumber": 88,
  "noteName": "E6",
  "velocity": 79,
  "dtick": 48,
  "ins": 0
 },
 {
  "track": 3,
  "delta": 0,
  "tick": 35664,
  "byteIndex": 20403,
  "name": "Note on",
  "channel": 1,
  "noteNumber": 76,
  "noteName": "E5",
  "velocity": 79,
  "dtick": 48,
  "ins": 0
 },
 {
  "track": 3,
  "delta": 0,
  "tick": 35712,
  "byteIndex": 20427,
  "name": "Note on",
  "channel": 1,
  "noteNumber": 41,
  "noteName": "F2",
  "velocity": 79,
  "dtick": 48,
  "ins": 0
 },
 {
  "track": 3,
  "delta": 0,
  "tick": 35712,
  "byteIndex": 20431,
  "name": "Note on",
  "channel": 1,
  "noteNumber": 53,
  "noteName": "F3",
  "velocity": 79,
  "dtick": 48,
  "ins": 0
 },
 {
  "track": 3,
  "delta": 0,
  "tick": 35712,
  "byteIndex": 20435,
  "name": "Note on",
  "channel": 1,
  "noteNumber": 48,
  "noteName": "C3",
  "velocity": 79,
  "dtick": 48,
  "ins": 0
 },
 {
  "track": 3,
  "delta": 0,
  "tick": 35712,
  "byteIndex": 20439,
  "name": "Note on",
  "channel": 1,
  "noteNumber": 89,
  "noteName": "F6",
  "velocity": 79,
  "dtick": 48,
  "ins": 0
 },
 {
  "track": 3,
  "delta": 0,
  "tick": 35712,
  "byteIndex": 20443,
  "name": "Note on",
  "channel": 1,
  "noteNumber": 77,
  "noteName": "F5",
  "velocity": 79,
  "dtick": 48,
  "ins": 0
 },
 {
  "track": 3,
  "delta": 0,
  "tick": 35760,
  "byteIndex": 20467,
  "name": "Note on",
  "channel": 1,
  "noteNumber": 41,
  "noteName": "F2",
  "velocity": 79,
  "dtick": 48,
  "ins": 0
 },
 {
  "track": 3,
  "delta": 0,
  "tick": 35760,
  "byteIndex": 20471,
  "name": "Note on",
  "channel": 1,
  "noteNumber": 48,
  "noteName": "C3",
  "velocity": 79,
  "dtick": 48,
  "ins": 0
 },
 {
  "track": 3,
  "delta": 0,
  "tick": 35760,
  "byteIndex": 20475,
  "name": "Note on",
  "channel": 1,
  "noteNumber": 53,
  "noteName": "F3",
  "velocity": 79,
  "dtick": 48,
  "ins": 0
 },
 {
  "track": 3,
  "delta": 0,
  "tick": 35760,
  "byteIndex": 20479,
  "name": "Note on",
  "channel": 1,
  "noteNumber": 88,
  "noteName": "E6",
  "velocity": 79,
  "dtick": 48,
  "ins": 0
 },
 {
  "track": 3,
  "delta": 0,
  "tick": 35760,
  "byteIndex": 20483,
  "name": "Note on",
  "channel": 1,
  "noteNumber": 76,
  "noteName": "E5",
  "velocity": 79,
  "dtick": 48,
  "ins": 0
 },
 {
  "track": 3,
  "delta": 0,
  "tick": 35808,
  "byteIndex": 20507,
  "name": "Note on",
  "channel": 1,
  "noteNumber": 53,
  "noteName": "F3",
  "velocity": 79,
  "dtick": 48,
  "ins": 0
 },
 {
  "track": 3,
  "delta": 0,
  "tick": 35808,
  "byteIndex": 20511,
  "name": "Note on",
  "channel": 1,
  "noteNumber": 48,
  "noteName": "C3",
  "velocity": 79,
  "dtick": 48,
  "ins": 0
 },
 {
  "track": 3,
  "delta": 0,
  "tick": 35808,
  "byteIndex": 20515,
  "name": "Note on",
  "channel": 1,
  "noteNumber": 41,
  "noteName": "F2",
  "velocity": 79,
  "dtick": 48,
  "ins": 0
 },
 {
  "track": 3,
  "delta": 0,
  "tick": 35808,
  "byteIndex": 20519,
  "name": "Note on",
  "channel": 1,
  "noteNumber": 84,
  "noteName": "C6",
  "velocity": 79,
  "dtick": 48,
  "ins": 0
 },
 {
  "track": 3,
  "delta": 0,
  "tick": 35808,
  "byteIndex": 20523,
  "name": "Note on",
  "channel": 1,
  "noteNumber": 72,
  "noteName": "C5",
  "velocity": 79,
  "dtick": 48,
  "ins": 0
 },
 {
  "track": 3,
  "delta": 0,
  "tick": 35856,
  "byteIndex": 20547,
  "name": "Note on",
  "channel": 1,
  "noteNumber": 48,
  "noteName": "C3",
  "velocity": 79,
  "dtick": 48,
  "ins": 0
 },
 {
  "track": 3,
  "delta": 0,
  "tick": 35856,
  "byteIndex": 20551,
  "name": "Note on",
  "channel": 1,
  "noteNumber": 53,
  "noteName": "F3",
  "velocity": 79,
  "dtick": 48,
  "ins": 0
 },
 {
  "track": 3,
  "delta": 0,
  "tick": 35856,
  "byteIndex": 20555,
  "name": "Note on",
  "channel": 1,
  "noteNumber": 41,
  "noteName": "F2",
  "velocity": 79,
  "dtick": 48,
  "ins": 0
 },
 {
  "track": 3,
  "delta": 0,
  "tick": 35856,
  "byteIndex": 20559,
  "name": "Note on",
  "channel": 1,
  "noteNumber": 77,
  "noteName": "F5",
  "velocity": 79,
  "dtick": 48,
  "ins": 0
 },
 {
  "track": 3,
  "delta": 0,
  "tick": 35856,
  "byteIndex": 20563,
  "name": "Note on",
  "channel": 1,
  "noteNumber": 89,
  "noteName": "F6",
  "velocity": 79,
  "dtick": 48,
  "ins": 0
 },
 {
  "track": 3,
  "delta": 0,
  "tick": 35904,
  "byteIndex": 20587,
  "name": "Note on",
  "channel": 1,
  "noteNumber": 48,
  "noteName": "C3",
  "velocity": 79,
  "dtick": 48,
  "ins": 0
 },
 {
  "track": 3,
  "delta": 0,
  "tick": 35904,
  "byteIndex": 20591,
  "name": "Note on",
  "channel": 1,
  "noteNumber": 53,
  "noteName": "F3",
  "velocity": 79,
  "dtick": 48,
  "ins": 0
 },
 {
  "track": 3,
  "delta": 0,
  "tick": 35904,
  "byteIndex": 20595,
  "name": "Note on",
  "channel": 1,
  "noteNumber": 41,
  "noteName": "F2",
  "velocity": 79,
  "dtick": 48,
  "ins": 0
 },
 {
  "track": 3,
  "delta": 0,
  "tick": 35904,
  "byteIndex": 20599,
  "name": "Note on",
  "channel": 1,
  "noteNumber": 76,
  "noteName": "E5",
  "velocity": 79,
  "dtick": 48,
  "ins": 0
 },
 {
  "track": 3,
  "delta": 0,
  "tick": 35904,
  "byteIndex": 20603,
  "name": "Note on",
  "channel": 1,
  "noteNumber": 88,
  "noteName": "E6",
  "velocity": 79,
  "dtick": 48,
  "ins": 0
 },
 {
  "track": 3,
  "delta": 0,
  "tick": 35952,
  "byteIndex": 20627,
  "name": "Note on",
  "channel": 1,
  "noteNumber": 41,
  "noteName": "F2",
  "velocity": 79,
  "dtick": 48,
  "ins": 0
 },
 {
  "track": 3,
  "delta": 0,
  "tick": 35952,
  "byteIndex": 20631,
  "name": "Note on",
  "channel": 1,
  "noteNumber": 48,
  "noteName": "C3",
  "velocity": 79,
  "dtick": 48,
  "ins": 0
 },
 {
  "track": 3,
  "delta": 0,
  "tick": 35952,
  "byteIndex": 20635,
  "name": "Note on",
  "channel": 1,
  "noteNumber": 53,
  "noteName": "F3",
  "velocity": 79,
  "dtick": 48,
  "ins": 0
 },
 {
  "track": 3,
  "delta": 0,
  "tick": 35952,
  "byteIndex": 20639,
  "name": "Note on",
  "channel": 1,
  "noteNumber": 84,
  "noteName": "C6",
  "velocity": 79,
  "dtick": 48,
  "ins": 0
 },
 {
  "track": 3,
  "delta": 0,
  "tick": 35952,
  "byteIndex": 20643,
  "name": "Note on",
  "channel": 1,
  "noteNumber": 72,
  "noteName": "C5",
  "velocity": 79,
  "dtick": 48,
  "ins": 0
 },
 {
  "track": 3,
  "delta": 0,
  "tick": 36000,
  "byteIndex": 20667,
  "name": "Note on",
  "channel": 1,
  "noteNumber": 48,
  "noteName": "C3",
  "velocity": 79,
  "dtick": 48,
  "ins": 0
 },
 {
  "track": 3,
  "delta": 0,
  "tick": 36000,
  "byteIndex": 20671,
  "name": "Note on",
  "channel": 1,
  "noteNumber": 53,
  "noteName": "F3",
  "velocity": 79,
  "dtick": 48,
  "ins": 0
 },
 {
  "track": 3,
  "delta": 0,
  "tick": 36000,
  "byteIndex": 20675,
  "name": "Note on",
  "channel": 1,
  "noteNumber": 41,
  "noteName": "F2",
  "velocity": 79,
  "dtick": 48,
  "ins": 0
 },
 {
  "track": 3,
  "delta": 0,
  "tick": 36000,
  "byteIndex": 20679,
  "name": "Note on",
  "channel": 1,
  "noteNumber": 89,
  "noteName": "F6",
  "velocity": 79,
  "dtick": 48,
  "ins": 0
 },
 {
  "track": 3,
  "delta": 0,
  "tick": 36000,
  "byteIndex": 20683,
  "name": "Note on",
  "channel": 1,
  "noteNumber": 77,
  "noteName": "F5",
  "velocity": 79,
  "dtick": 48,
  "ins": 0
 },
 {
  "track": 3,
  "delta": 0,
  "tick": 36048,
  "byteIndex": 20707,
  "name": "Note on",
  "channel": 1,
  "noteNumber": 41,
  "noteName": "F2",
  "velocity": 79,
  "dtick": 48,
  "ins": 0
 },
 {
  "track": 3,
  "delta": 0,
  "tick": 36048,
  "byteIndex": 20711,
  "name": "Note on",
  "channel": 1,
  "noteNumber": 48,
  "noteName": "C3",
  "velocity": 79,
  "dtick": 48,
  "ins": 0
 },
 {
  "track": 3,
  "delta": 0,
  "tick": 36048,
  "byteIndex": 20715,
  "name": "Note on",
  "channel": 1,
  "noteNumber": 53,
  "noteName": "F3",
  "velocity": 79,
  "dtick": 48,
  "ins": 0
 },
 {
  "track": 3,
  "delta": 0,
  "tick": 36048,
  "byteIndex": 20719,
  "name": "Note on",
  "channel": 1,
  "noteNumber": 88,
  "noteName": "E6",
  "velocity": 79,
  "dtick": 48,
  "ins": 0
 },
 {
  "track": 3,
  "delta": 0,
  "tick": 36048,
  "byteIndex": 20723,
  "name": "Note on",
  "channel": 1,
  "noteNumber": 76,
  "noteName": "E5",
  "velocity": 79,
  "dtick": 48,
  "ins": 0
 },
 {
  "track": 3,
  "delta": 0,
  "tick": 36096,
  "byteIndex": 20747,
  "name": "Note on",
  "channel": 1,
  "noteNumber": 55,
  "noteName": "G3",
  "velocity": 79,
  "dtick": 48,
  "ins": 0
 },
 {
  "track": 3,
  "delta": 0,
  "tick": 36096,
  "byteIndex": 20751,
  "name": "Note on",
  "channel": 1,
  "noteNumber": 60,
  "noteName": "C4",
  "velocity": 79,
  "dtick": 48,
  "ins": 0
 },
 {
  "track": 3,
  "delta": 0,
  "tick": 36096,
  "byteIndex": 20755,
  "name": "Note on",
  "channel": 1,
  "noteNumber": 48,
  "noteName": "C3",
  "velocity": 79,
  "dtick": 48,
  "ins": 0
 },
 {
  "track": 3,
  "delta": 0,
  "tick": 36096,
  "byteIndex": 20759,
  "name": "Note on",
  "channel": 1,
  "noteNumber": 88,
  "noteName": "E6",
  "velocity": 79,
  "dtick": 48,
  "ins": 0
 },
 {
  "track": 3,
  "delta": 0,
  "tick": 36096,
  "byteIndex": 20763,
  "name": "Note on",
  "channel": 1,
  "noteNumber": 76,
  "noteName": "E5",
  "velocity": 79,
  "dtick": 48,
  "ins": 0
 },
 {
  "track": 3,
  "delta": 0,
  "tick": 36144,
  "byteIndex": 20787,
  "name": "Note on",
  "channel": 1,
  "noteNumber": 48,
  "noteName": "C3",
  "velocity": 79,
  "dtick": 48,
  "ins": 0
 },
 {
  "track": 3,
  "delta": 0,
  "tick": 36144,
  "byteIndex": 20791,
  "name": "Note on",
  "channel": 1,
  "noteNumber": 55,
  "noteName": "G3",
  "velocity": 79,
  "dtick": 48,
  "ins": 0
 },
 {
  "track": 3,
  "delta": 0,
  "tick": 36144,
  "byteIndex": 20795,
  "name": "Note on",
  "channel": 1,
  "noteNumber": 60,
  "noteName": "C4",
  "velocity": 79,
  "dtick": 48,
  "ins": 0
 },
 {
  "track": 3,
  "delta": 0,
  "tick": 36144,
  "byteIndex": 20799,
  "name": "Note on",
  "channel": 1,
  "noteNumber": 72,
  "noteName": "C5",
  "velocity": 79,
  "dtick": 48,
  "ins": 0
 },
 {
  "track": 3,
  "delta": 0,
  "tick": 36144,
  "byteIndex": 20803,
  "name": "Note on",
  "channel": 1,
  "noteNumber": 84,
  "noteName": "C6",
  "velocity": 79,
  "dtick": 48,
  "ins": 0
 },
 {
  "track": 3,
  "delta": 0,
  "tick": 36192,
  "byteIndex": 20827,
  "name": "Note on",
  "channel": 1,
  "noteNumber": 60,
  "noteName": "C4",
  "velocity": 79,
  "dtick": 48,
  "ins": 0
 },
 {
  "track": 3,
  "delta": 0,
  "tick": 36192,
  "byteIndex": 20831,
  "name": "Note on",
  "channel": 1,
  "noteNumber": 55,
  "noteName": "G3",
  "velocity": 79,
  "dtick": 48,
  "ins": 0
 },
 {
  "track": 3,
  "delta": 0,
  "tick": 36192,
  "byteIndex": 20835,
  "name": "Note on",
  "channel": 1,
  "noteNumber": 48,
  "noteName": "C3",
  "velocity": 79,
  "dtick": 48,
  "ins": 0
 },
 {
  "track": 3,
  "delta": 0,
  "tick": 36192,
  "byteIndex": 20839,
  "name": "Note on",
  "channel": 1,
  "noteNumber": 67,
  "noteName": "G4",
  "velocity": 79,
  "dtick": 48,
  "ins": 0
 },
 {
  "track": 3,
  "delta": 0,
  "tick": 36192,
  "byteIndex": 20843,
  "name": "Note on",
  "channel": 1,
  "noteNumber": 79,
  "noteName": "G5",
  "velocity": 79,
  "dtick": 48,
  "ins": 0
 },
 {
  "track": 3,
  "delta": 0,
  "tick": 36240,
  "byteIndex": 20867,
  "name": "Note on",
  "channel": 1,
  "noteNumber": 60,
  "noteName": "C4",
  "velocity": 79,
  "dtick": 48,
  "ins": 0
 },
 {
  "track": 3,
  "delta": 0,
  "tick": 36240,
  "byteIndex": 20871,
  "name": "Note on",
  "channel": 1,
  "noteNumber": 55,
  "noteName": "G3",
  "velocity": 79,
  "dtick": 48,
  "ins": 0
 },
 {
  "track": 3,
  "delta": 0,
  "tick": 36240,
  "byteIndex": 20875,
  "name": "Note on",
  "channel": 1,
  "noteNumber": 48,
  "noteName": "C3",
  "velocity": 79,
  "dtick": 48,
  "ins": 0
 },
 {
  "track": 3,
  "delta": 0,
  "tick": 36240,
  "byteIndex": 20879,
  "name": "Note on",
  "channel": 1,
  "noteNumber": 88,
  "noteName": "E6",
  "velocity": 79,
  "dtick": 48,
  "ins": 0
 },
 {
  "track": 3,
  "delta": 0,
  "tick": 36240,
  "byteIndex": 20883,
  "name": "Note on",
  "channel": 1,
  "noteNumber": 76,
  "noteName": "E5",
  "velocity": 79,
  "dtick": 48,
  "ins": 0
 },
 {
  "track": 3,
  "delta": 0,
  "tick": 36288,
  "byteIndex": 20907,
  "name": "Note on",
  "channel": 1,
  "noteNumber": 55,
  "noteName": "G3",
  "velocity": 79,
  "dtick": 48,
  "ins": 0
 },
 {
  "track": 3,
  "delta": 0,
  "tick": 36288,
  "byteIndex": 20911,
  "name": "Note on",
  "channel": 1,
  "noteNumber": 60,
  "noteName": "C4",
  "velocity": 79,
  "dtick": 48,
  "ins": 0
 },
 {
  "track": 3,
  "delta": 0,
  "tick": 36288,
  "byteIndex": 20915,
  "name": "Note on",
  "channel": 1,
  "noteNumber": 48,
  "noteName": "C3",
  "velocity": 79,
  "dtick": 48,
  "ins": 0
 },
 {
  "track": 3,
  "delta": 0,
  "tick": 36288,
  "byteIndex": 20919,
  "name": "Note on",
  "channel": 1,
  "noteNumber": 84,
  "noteName": "C6",
  "velocity": 79,
  "dtick": 48,
  "ins": 0
 },
 {
  "track": 3,
  "delta": 0,
  "tick": 36288,
  "byteIndex": 20923,
  "name": "Note on",
  "channel": 1,
  "noteNumber": 72,
  "noteName": "C5",
  "velocity": 79,
  "dtick": 48,
  "ins": 0
 },
 {
  "track": 3,
  "delta": 0,
  "tick": 36336,
  "byteIndex": 20947,
  "name": "Note on",
  "channel": 1,
  "noteNumber": 48,
  "noteName": "C3",
  "velocity": 79,
  "dtick": 48,
  "ins": 0
 },
 {
  "track": 3,
  "delta": 0,
  "tick": 36336,
  "byteIndex": 20951,
  "name": "Note on",
  "channel": 1,
  "noteNumber": 55,
  "noteName": "G3",
  "velocity": 79,
  "dtick": 48,
  "ins": 0
 },
 {
  "track": 3,
  "delta": 0,
  "tick": 36336,
  "byteIndex": 20955,
  "name": "Note on",
  "channel": 1,
  "noteNumber": 60,
  "noteName": "C4",
  "velocity": 79,
  "dtick": 48,
  "ins": 0
 },
 {
  "track": 3,
  "delta": 0,
  "tick": 36336,
  "byteIndex": 20959,
  "name": "Note on",
  "channel": 1,
  "noteNumber": 67,
  "noteName": "G4",
  "velocity": 79,
  "dtick": 48,
  "ins": 0
 },
 {
  "track": 3,
  "delta": 0,
  "tick": 36336,
  "byteIndex": 20963,
  "name": "Note on",
  "channel": 1,
  "noteNumber": 79,
  "noteName": "G5",
  "velocity": 79,
  "dtick": 48,
  "ins": 0
 },
 {
  "track": 3,
  "delta": 0,
  "tick": 36384,
  "byteIndex": 20987,
  "name": "Note on",
  "channel": 1,
  "noteNumber": 48,
  "noteName": "C3",
  "velocity": 79,
  "dtick": 48,
  "ins": 0
 },
 {
  "track": 3,
  "delta": 0,
  "tick": 36384,
  "byteIndex": 20991,
  "name": "Note on",
  "channel": 1,
  "noteNumber": 60,
  "noteName": "C4",
  "velocity": 79,
  "dtick": 48,
  "ins": 0
 },
 {
  "track": 3,
  "delta": 0,
  "tick": 36384,
  "byteIndex": 20995,
  "name": "Note on",
  "channel": 1,
  "noteNumber": 55,
  "noteName": "G3",
  "velocity": 79,
  "dtick": 48,
  "ins": 0
 },
 {
  "track": 3,
  "delta": 0,
  "tick": 36384,
  "byteIndex": 20999,
  "name": "Note on",
  "channel": 1,
  "noteNumber": 88,
  "noteName": "E6",
  "velocity": 79,
  "dtick": 48,
  "ins": 0
 },
 {
  "track": 3,
  "delta": 0,
  "tick": 36384,
  "byteIndex": 21003,
  "name": "Note on",
  "channel": 1,
  "noteNumber": 76,
  "noteName": "E5",
  "velocity": 79,
  "dtick": 48,
  "ins": 0
 },
 {
  "track": 3,
  "delta": 0,
  "tick": 36432,
  "byteIndex": 21027,
  "name": "Note on",
  "channel": 1,
  "noteNumber": 48,
  "noteName": "C3",
  "velocity": 79,
  "dtick": 48,
  "ins": 0
 },
 {
  "track": 3,
  "delta": 0,
  "tick": 36432,
  "byteIndex": 21031,
  "name": "Note on",
  "channel": 1,
  "noteNumber": 55,
  "noteName": "G3",
  "velocity": 79,
  "dtick": 48,
  "ins": 0
 },
 {
  "track": 3,
  "delta": 0,
  "tick": 36432,
  "byteIndex": 21035,
  "name": "Note on",
  "channel": 1,
  "noteNumber": 60,
  "noteName": "C4",
  "velocity": 79,
  "dtick": 48,
  "ins": 0
 },
 {
  "track": 3,
  "delta": 0,
  "tick": 36432,
  "byteIndex": 21039,
  "name": "Note on",
  "channel": 1,
  "noteNumber": 84,
  "noteName": "C6",
  "velocity": 79,
  "dtick": 48,
  "ins": 0
 },
 {
  "track": 3,
  "delta": 0,
  "tick": 36432,
  "byteIndex": 21043,
  "name": "Note on",
  "channel": 1,
  "noteNumber": 72,
  "noteName": "C5",
  "velocity": 79,
  "dtick": 48,
  "ins": 0
 },
 {
  "track": 3,
  "delta": 0,
  "tick": 36480,
  "byteIndex": 21067,
  "name": "Note on",
  "channel": 1,
  "noteNumber": 48,
  "noteName": "C3",
  "velocity": 79,
  "dtick": 48,
  "ins": 0
 },
 {
  "track": 3,
  "delta": 0,
  "tick": 36480,
  "byteIndex": 21071,
  "name": "Note on",
  "channel": 1,
  "noteNumber": 55,
  "noteName": "G3",
  "velocity": 79,
  "dtick": 48,
  "ins": 0
 },
 {
  "track": 3,
  "delta": 0,
  "tick": 36480,
  "byteIndex": 21075,
  "name": "Note on",
  "channel": 1,
  "noteNumber": 59,
  "noteName": "B3",
  "velocity": 79,
  "dtick": 48,
  "ins": 0
 },
 {
  "track": 3,
  "delta": 0,
  "tick": 36480,
  "byteIndex": 21079,
  "name": "Note on",
  "channel": 1,
  "noteNumber": 88,
  "noteName": "E6",
  "velocity": 79,
  "dtick": 48,
  "ins": 0
 },
 {
  "track": 3,
  "delta": 0,
  "tick": 36480,
  "byteIndex": 21083,
  "name": "Note on",
  "channel": 1,
  "noteNumber": 76,
  "noteName": "E5",
  "velocity": 79,
  "dtick": 48,
  "ins": 0
 },
 {
  "track": 3,
  "delta": 0,
  "tick": 36528,
  "byteIndex": 21107,
  "name": "Note on",
  "channel": 1,
  "noteNumber": 59,
  "noteName": "B3",
  "velocity": 79,
  "dtick": 48,
  "ins": 0
 },
 {
  "track": 3,
  "delta": 0,
  "tick": 36528,
  "byteIndex": 21111,
  "name": "Note on",
  "channel": 1,
  "noteNumber": 48,
  "noteName": "C3",
  "velocity": 79,
  "dtick": 48,
  "ins": 0
 },
 {
  "track": 3,
  "delta": 0,
  "tick": 36528,
  "byteIndex": 21115,
  "name": "Note on",
  "channel": 1,
  "noteNumber": 55,
  "noteName": "G3",
  "velocity": 79,
  "dtick": 48,
  "ins": 0
 },
 {
  "track": 3,
  "delta": 0,
  "tick": 36528,
  "byteIndex": 21119,
  "name": "Note on",
  "channel": 1,
  "noteNumber": 74,
  "noteName": "D5",
  "velocity": 79,
  "dtick": 48,
  "ins": 0
 },
 {
  "track": 3,
  "delta": 0,
  "tick": 36528,
  "byteIndex": 21123,
  "name": "Note on",
  "channel": 1,
  "noteNumber": 86,
  "noteName": "D6",
  "velocity": 79,
  "dtick": 48,
  "ins": 0
 },
 {
  "track": 3,
  "delta": 0,
  "tick": 36576,
  "byteIndex": 21147,
  "name": "Note on",
  "channel": 1,
  "noteNumber": 59,
  "noteName": "B3",
  "velocity": 79,
  "dtick": 48,
  "ins": 0
 },
 {
  "track": 3,
  "delta": 0,
  "tick": 36576,
  "byteIndex": 21151,
  "name": "Note on",
  "channel": 1,
  "noteNumber": 55,
  "noteName": "G3",
  "velocity": 79,
  "dtick": 48,
  "ins": 0
 },
 {
  "track": 3,
  "delta": 0,
  "tick": 36576,
  "byteIndex": 21155,
  "name": "Note on",
  "channel": 1,
  "noteNumber": 48,
  "noteName": "C3",
  "velocity": 79,
  "dtick": 48,
  "ins": 0
 },
 {
  "track": 3,
  "delta": 0,
  "tick": 36576,
  "byteIndex": 21159,
  "name": "Note on",
  "channel": 1,
  "noteNumber": 84,
  "noteName": "C6",
  "velocity": 79,
  "dtick": 48,
  "ins": 0
 },
 {
  "track": 3,
  "delta": 0,
  "tick": 36576,
  "byteIndex": 21163,
  "name": "Note on",
  "channel": 1,
  "noteNumber": 72,
  "noteName": "C5",
  "velocity": 79,
  "dtick": 48,
  "ins": 0
 },
 {
  "track": 3,
  "delta": 0,
  "tick": 36624,
  "byteIndex": 21187,
  "name": "Note on",
  "channel": 1,
  "noteNumber": 59,
  "noteName": "B3",
  "velocity": 79,
  "dtick": 48,
  "ins": 0
 },
 {
  "track": 3,
  "delta": 0,
  "tick": 36624,
  "byteIndex": 21191,
  "name": "Note on",
  "channel": 1,
  "noteNumber": 55,
  "noteName": "G3",
  "velocity": 79,
  "dtick": 48,
  "ins": 0
 },
 {
  "track": 3,
  "delta": 0,
  "tick": 36624,
  "byteIndex": 21195,
  "name": "Note on",
  "channel": 1,
  "noteNumber": 48,
  "noteName": "C3",
  "velocity": 79,
  "dtick": 48,
  "ins": 0
 },
 {
  "track": 3,
  "delta": 0,
  "tick": 36624,
  "byteIndex": 21199,
  "name": "Note on",
  "channel": 1,
  "noteNumber": 76,
  "noteName": "E5",
  "velocity": 79,
  "dtick": 48,
  "ins": 0
 },
 {
  "track": 3,
  "delta": 0,
  "tick": 36624,
  "byteIndex": 21203,
  "name": "Note on",
  "channel": 1,
  "noteNumber": 88,
  "noteName": "E6",
  "velocity": 79,
  "dtick": 48,
  "ins": 0
 },
 {
  "track": 3,
  "delta": 0,
  "tick": 36672,
  "byteIndex": 21227,
  "name": "Note on",
  "channel": 1,
  "noteNumber": 55,
  "noteName": "G3",
  "velocity": 79,
  "dtick": 48,
  "ins": 0
 },
 {
  "track": 3,
  "delta": 0,
  "tick": 36672,
  "byteIndex": 21231,
  "name": "Note on",
  "channel": 1,
  "noteNumber": 48,
  "noteName": "C3",
  "velocity": 79,
  "dtick": 48,
  "ins": 0
 },
 {
  "track": 3,
  "delta": 0,
  "tick": 36672,
  "byteIndex": 21235,
  "name": "Note on",
  "channel": 1,
  "noteNumber": 59,
  "noteName": "B3",
  "velocity": 79,
  "dtick": 48,
  "ins": 0
 },
 {
  "track": 3,
  "delta": 0,
  "tick": 36672,
  "byteIndex": 21239,
  "name": "Note on",
  "channel": 1,
  "noteNumber": 96,
  "noteName": "C7",
  "velocity": 79,
  "dtick": 48,
  "ins": 0
 },
 {
  "track": 3,
  "delta": 0,
  "tick": 36672,
  "byteIndex": 21243,
  "name": "Note on",
  "channel": 1,
  "noteNumber": 84,
  "noteName": "C6",
  "velocity": 79,
  "dtick": 48,
  "ins": 0
 },
 {
  "track": 3,
  "delta": 0,
  "tick": 36720,
  "byteIndex": 21267,
  "name": "Note on",
  "channel": 1,
  "noteNumber": 55,
  "noteName": "G3",
  "velocity": 79,
  "dtick": 48,
  "ins": 0
 },
 {
  "track": 3,
  "delta": 0,
  "tick": 36720,
  "byteIndex": 21271,
  "name": "Note on",
  "channel": 1,
  "noteNumber": 48,
  "noteName": "C3",
  "velocity": 79,
  "dtick": 48,
  "ins": 0
 },
 {
  "track": 3,
  "delta": 0,
  "tick": 36720,
  "byteIndex": 21275,
  "name": "Note on",
  "channel": 1,
  "noteNumber": 59,
  "noteName": "B3",
  "velocity": 79,
  "dtick": 48,
  "ins": 0
 },
 {
  "track": 3,
  "delta": 0,
  "tick": 36720,
  "byteIndex": 21279,
  "name": "Note on",
  "channel": 1,
  "noteNumber": 83,
  "noteName": "B5",
  "velocity": 79,
  "dtick": 48,
  "ins": 0
 },
 {
  "track": 3,
  "delta": 0,
  "tick": 36720,
  "byteIndex": 21283,
  "name": "Note on",
  "channel": 1,
  "noteNumber": 95,
  "noteName": "B6",
  "velocity": 79,
  "dtick": 48,
  "ins": 0
 },
 {
  "track": 3,
  "delta": 0,
  "tick": 36768,
  "byteIndex": 21307,
  "name": "Note on",
  "channel": 1,
  "noteNumber": 55,
  "noteName": "G3",
  "velocity": 79,
  "dtick": 48,
  "ins": 0
 },
 {
  "track": 3,
  "delta": 0,
  "tick": 36768,
  "byteIndex": 21311,
  "name": "Note on",
  "channel": 1,
  "noteNumber": 48,
  "noteName": "C3",
  "velocity": 79,
  "dtick": 48,
  "ins": 0
 },
 {
  "track": 3,
  "delta": 0,
  "tick": 36768,
  "byteIndex": 21315,
  "name": "Note on",
  "channel": 1,
  "noteNumber": 59,
  "noteName": "B3",
  "velocity": 79,
  "dtick": 48,
  "ins": 0
 },
 {
  "track": 3,
  "delta": 0,
  "tick": 36768,
  "byteIndex": 21319,
  "name": "Note on",
  "channel": 1,
  "noteNumber": 93,
  "noteName": "A6",
  "velocity": 79,
  "dtick": 48,
  "ins": 0
 },
 {
  "track": 3,
  "delta": 0,
  "tick": 36768,
  "byteIndex": 21323,
  "name": "Note on",
  "channel": 1,
  "noteNumber": 81,
  "noteName": "A5",
  "velocity": 79,
  "dtick": 48,
  "ins": 0
 },
 {
  "track": 3,
  "delta": 0,
  "tick": 36816,
  "byteIndex": 21347,
  "name": "Note on",
  "channel": 1,
  "noteNumber": 48,
  "noteName": "C3",
  "velocity": 79,
  "dtick": 48,
  "ins": 0
 },
 {
  "track": 3,
  "delta": 0,
  "tick": 36816,
  "byteIndex": 21351,
  "name": "Note on",
  "channel": 1,
  "noteNumber": 55,
  "noteName": "G3",
  "velocity": 79,
  "dtick": 48,
  "ins": 0
 },
 {
  "track": 3,
  "delta": 0,
  "tick": 36816,
  "byteIndex": 21355,
  "name": "Note on",
  "channel": 1,
  "noteNumber": 59,
  "noteName": "B3",
  "velocity": 79,
  "dtick": 48,
  "ins": 0
 },
 {
  "track": 3,
  "delta": 0,
  "tick": 36816,
  "byteIndex": 21359,
  "name": "Note on",
  "channel": 1,
  "noteNumber": 76,
  "noteName": "E5",
  "velocity": 79,
  "dtick": 48,
  "ins": 0
 },
 {
  "track": 3,
  "delta": 0,
  "tick": 36816,
  "byteIndex": 21363,
  "name": "Note on",
  "channel": 1,
  "noteNumber": 88,
  "noteName": "E6",
  "velocity": 79,
  "dtick": 48,
  "ins": 0
 },
 {
  "track": 3,
  "delta": 0,
  "tick": 36864,
  "byteIndex": 21387,
  "name": "Note on",
  "channel": 1,
  "noteNumber": 88,
  "noteName": "E6",
  "velocity": 79,
  "dtick": 24,
  "ins": 0
 },
 {
  "track": 3,
  "delta": 0,
  "tick": 36864,
  "byteIndex": 21391,
  "name": "Note on",
  "channel": 1,
  "noteNumber": 57,
  "noteName": "A3",
  "velocity": 79,
  "dtick": 48,
  "ins": 0
 },
 {
  "track": 3,
  "delta": 0,
  "tick": 36864,
  "byteIndex": 21395,
  "name": "Note on",
  "channel": 1,
  "noteNumber": 45,
  "noteName": "A2",
  "velocity": 79,
  "dtick": 48,
  "ins": 0
 },
 {
  "track": 3,
  "delta": 0,
  "tick": 36864,
  "byteIndex": 21399,
  "name": "Note on",
  "channel": 1,
  "noteNumber": 52,
  "noteName": "E3",
  "velocity": 79,
  "dtick": 48,
  "ins": 0
 },
 {
  "track": 3,
  "delta": 0,
  "tick": 36888,
  "byteIndex": 21407,
  "name": "Note on",
  "channel": 1,
  "noteNumber": 79,
  "noteName": "G5",
  "velocity": 79,
  "dtick": 24,
  "ins": 0
 },
 {
  "track": 3,
  "delta": 0,
  "tick": 36912,
  "byteIndex": 21427,
  "name": "Note on",
  "channel": 1,
  "noteNumber": 84,
  "noteName": "C6",
  "velocity": 79,
  "dtick": 24,
  "ins": 0
 },
 {
  "track": 3,
  "delta": 0,
  "tick": 36912,
  "byteIndex": 21431,
  "name": "Note on",
  "channel": 1,
  "noteNumber": 57,
  "noteName": "A3",
  "velocity": 79,
  "dtick": 48,
  "ins": 0
 },
 {
  "track": 3,
  "delta": 0,
  "tick": 36912,
  "byteIndex": 21435,
  "name": "Note on",
  "channel": 1,
  "noteNumber": 52,
  "noteName": "E3",
  "velocity": 79,
  "dtick": 48,
  "ins": 0
 },
 {
  "track": 3,
  "delta": 0,
  "tick": 36912,
  "byteIndex": 21439,
  "name": "Note on",
  "channel": 1,
  "noteNumber": 45,
  "noteName": "A2",
  "velocity": 79,
  "dtick": 48,
  "ins": 0
 },
 {
  "track": 3,
  "delta": 0,
  "tick": 36936,
  "byteIndex": 21447,
  "name": "Note on",
  "channel": 1,
  "noteNumber": 86,
  "noteName": "D6",
  "velocity": 79,
  "dtick": 24,
  "ins": 0
 },
 {
  "track": 3,
  "delta": 0,
  "tick": 36960,
  "byteIndex": 21467,
  "name": "Note on",
  "channel": 1,
  "noteNumber": 88,
  "noteName": "E6",
  "velocity": 79,
  "dtick": 24,
  "ins": 0
 },
 {
  "track": 3,
  "delta": 0,
  "tick": 36960,
  "byteIndex": 21471,
  "name": "Note on",
  "channel": 1,
  "noteNumber": 57,
  "noteName": "A3",
  "velocity": 79,
  "dtick": 48,
  "ins": 0
 },
 {
  "track": 3,
  "delta": 0,
  "tick": 36960,
  "byteIndex": 21475,
  "name": "Note on",
  "channel": 1,
  "noteNumber": 52,
  "noteName": "E3",
  "velocity": 79,
  "dtick": 48,
  "ins": 0
 },
 {
  "track": 3,
  "delta": 0,
  "tick": 36960,
  "byteIndex": 21479,
  "name": "Note on",
  "channel": 1,
  "noteNumber": 45,
  "noteName": "A2",
  "velocity": 79,
  "dtick": 48,
  "ins": 0
 },
 {
  "track": 3,
  "delta": 0,
  "tick": 36984,
  "byteIndex": 21487,
  "name": "Note on",
  "channel": 1,
  "noteNumber": 91,
  "noteName": "G6",
  "velocity": 79,
  "dtick": 24,
  "ins": 0
 },
 {
  "track": 3,
  "delta": 0,
  "tick": 37008,
  "byteIndex": 21507,
  "name": "Note on",
  "channel": 1,
  "noteNumber": 88,
  "noteName": "E6",
  "velocity": 79,
  "dtick": 24,
  "ins": 0
 },
 {
  "track": 3,
  "delta": 0,
  "tick": 37008,
  "byteIndex": 21511,
  "name": "Note on",
  "channel": 1,
  "noteNumber": 52,
  "noteName": "E3",
  "velocity": 79,
  "dtick": 48,
  "ins": 0
 },
 {
  "track": 3,
  "delta": 0,
  "tick": 37008,
  "byteIndex": 21515,
  "name": "Note on",
  "channel": 1,
  "noteNumber": 57,
  "noteName": "A3",
  "velocity": 79,
  "dtick": 48,
  "ins": 0
 },
 {
  "track": 3,
  "delta": 0,
  "tick": 37008,
  "byteIndex": 21519,
  "name": "Note on",
  "channel": 1,
  "noteNumber": 45,
  "noteName": "A2",
  "velocity": 79,
  "dtick": 48,
  "ins": 0
 },
 {
  "track": 3,
  "delta": 0,
  "tick": 37032,
  "byteIndex": 21527,
  "name": "Note on",
  "channel": 1,
  "noteNumber": 84,
  "noteName": "C6",
  "velocity": 79,
  "dtick": 24,
  "ins": 0
 },
 {
  "track": 3,
  "delta": 0,
  "tick": 37056,
  "byteIndex": 21547,
  "name": "Note on",
  "channel": 1,
  "noteNumber": 81,
  "noteName": "A5",
  "velocity": 79,
  "dtick": 24,
  "ins": 0
 },
 {
  "track": 3,
  "delta": 0,
  "tick": 37056,
  "byteIndex": 21551,
  "name": "Note on",
  "channel": 1,
  "noteNumber": 52,
  "noteName": "E3",
  "velocity": 79,
  "dtick": 48,
  "ins": 0
 },
 {
  "track": 3,
  "delta": 0,
  "tick": 37056,
  "byteIndex": 21555,
  "name": "Note on",
  "channel": 1,
  "noteNumber": 57,
  "noteName": "A3",
  "velocity": 79,
  "dtick": 48,
  "ins": 0
 },
 {
  "track": 3,
  "delta": 0,
  "tick": 37056,
  "byteIndex": 21559,
  "name": "Note on",
  "channel": 1,
  "noteNumber": 45,
  "noteName": "A2",
  "velocity": 79,
  "dtick": 48,
  "ins": 0
 },
 {
  "track": 3,
  "delta": 0,
  "tick": 37080,
  "byteIndex": 21567,
  "name": "Note on",
  "channel": 1,
  "noteNumber": 79,
  "noteName": "G5",
  "velocity": 79,
  "dtick": 24,
  "ins": 0
 },
 {
  "track": 3,
  "delta": 0,
  "tick": 37104,
  "byteIndex": 21587,
  "name": "Note on",
  "channel": 1,
  "noteNumber": 84,
  "noteName": "C6",
  "velocity": 79,
  "dtick": 24,
  "ins": 0
 },
 {
  "track": 3,
  "delta": 0,
  "tick": 37104,
  "byteIndex": 21591,
  "name": "Note on",
  "channel": 1,
  "noteNumber": 45,
  "noteName": "A2",
  "velocity": 79,
  "dtick": 48,
  "ins": 0
 },
 {
  "track": 3,
  "delta": 0,
  "tick": 37104,
  "byteIndex": 21595,
  "name": "Note on",
  "channel": 1,
  "noteNumber": 52,
  "noteName": "E3",
  "velocity": 79,
  "dtick": 48,
  "ins": 0
 },
 {
  "track": 3,
  "delta": 0,
  "tick": 37104,
  "byteIndex": 21599,
  "name": "Note on",
  "channel": 1,
  "noteNumber": 57,
  "noteName": "A3",
  "velocity": 79,
  "dtick": 48,
  "ins": 0
 },
 {
  "track": 3,
  "delta": 0,
  "tick": 37128,
  "byteIndex": 21607,
  "name": "Note on",
  "channel": 1,
  "noteNumber": 86,
  "noteName": "D6",
  "velocity": 79,
  "dtick": 24,
  "ins": 0
 },
 {
  "track": 3,
  "delta": 0,
  "tick": 37152,
  "byteIndex": 21627,
  "name": "Note on",
  "channel": 1,
  "noteNumber": 84,
  "noteName": "C6",
  "velocity": 79,
  "dtick": 24,
  "ins": 0
 },
 {
  "track": 3,
  "delta": 0,
  "tick": 37152,
  "byteIndex": 21631,
  "name": "Note on",
  "channel": 1,
  "noteNumber": 45,
  "noteName": "A2",
  "velocity": 79,
  "dtick": 48,
  "ins": 0
 },
 {
  "track": 3,
  "delta": 0,
  "tick": 37152,
  "byteIndex": 21635,
  "name": "Note on",
  "channel": 1,
  "noteNumber": 57,
  "noteName": "A3",
  "velocity": 79,
  "dtick": 48,
  "ins": 0
 },
 {
  "track": 3,
  "delta": 0,
  "tick": 37152,
  "byteIndex": 21639,
  "name": "Note on",
  "channel": 1,
  "noteNumber": 52,
  "noteName": "E3",
  "velocity": 79,
  "dtick": 48,
  "ins": 0
 },
 {
  "track": 3,
  "delta": 0,
  "tick": 37176,
  "byteIndex": 21647,
  "name": "Note on",
  "channel": 1,
  "noteNumber": 91,
  "noteName": "G6",
  "velocity": 79,
  "dtick": 24,
  "ins": 0
 },
 {
  "track": 3,
  "delta": 0,
  "tick": 37200,
  "byteIndex": 21667,
  "name": "Note on",
  "channel": 1,
  "noteNumber": 88,
  "noteName": "E6",
  "velocity": 79,
  "dtick": 24,
  "ins": 0
 },
 {
  "track": 3,
  "delta": 0,
  "tick": 37200,
  "byteIndex": 21671,
  "name": "Note on",
  "channel": 1,
  "noteNumber": 45,
  "noteName": "A2",
  "velocity": 79,
  "dtick": 48,
  "ins": 0
 },
 {
  "track": 3,
  "delta": 0,
  "tick": 37200,
  "byteIndex": 21675,
  "name": "Note on",
  "channel": 1,
  "noteNumber": 52,
  "noteName": "E3",
  "velocity": 79,
  "dtick": 48,
  "ins": 0
 },
 {
  "track": 3,
  "delta": 0,
  "tick": 37200,
  "byteIndex": 21679,
  "name": "Note on",
  "channel": 1,
  "noteNumber": 57,
  "noteName": "A3",
  "velocity": 79,
  "dtick": 48,
  "ins": 0
 },
 {
  "track": 3,
  "delta": 0,
  "tick": 37224,
  "byteIndex": 21687,
  "name": "Note on",
  "channel": 1,
  "noteNumber": 84,
  "noteName": "C6",
  "velocity": 79,
  "dtick": 24,
  "ins": 0
 },
 {
  "track": 3,
  "delta": 0,
  "tick": 37248,
  "byteIndex": 21707,
  "name": "Note on",
  "channel": 1,
  "noteNumber": 88,
  "noteName": "E6",
  "velocity": 79,
  "dtick": 24,
  "ins": 0
 },
 {
  "track": 3,
  "delta": 0,
  "tick": 37248,
  "byteIndex": 21711,
  "name": "Note on",
  "channel": 1,
  "noteNumber": 41,
  "noteName": "F2",
  "velocity": 79,
  "dtick": 48,
  "ins": 0
 },
 {
  "track": 3,
  "delta": 0,
  "tick": 37248,
  "byteIndex": 21715,
  "name": "Note on",
  "channel": 1,
  "noteNumber": 53,
  "noteName": "F3",
  "velocity": 79,
  "dtick": 48,
  "ins": 0
 },
 {
  "track": 3,
  "delta": 0,
  "tick": 37248,
  "byteIndex": 21719,
  "name": "Note on",
  "channel": 1,
  "noteNumber": 48,
  "noteName": "C3",
  "velocity": 79,
  "dtick": 48,
  "ins": 0
 },
 {
  "track": 3,
  "delta": 0,
  "tick": 37272,
  "byteIndex": 21727,
  "name": "Note on",
  "channel": 1,
  "noteNumber": 81,
  "noteName": "A5",
  "velocity": 79,
  "dtick": 24,
  "ins": 0
 },
 {
  "track": 3,
  "delta": 0,
  "tick": 37296,
  "byteIndex": 21747,
  "name": "Note on",
  "channel": 1,
  "noteNumber": 84,
  "noteName": "C6",
  "velocity": 79,
  "dtick": 24,
  "ins": 0
 },
 {
  "track": 3,
  "delta": 0,
  "tick": 37296,
  "byteIndex": 21751,
  "name": "Note on",
  "channel": 1,
  "noteNumber": 41,
  "noteName": "F2",
  "velocity": 79,
  "dtick": 48,
  "ins": 0
 },
 {
  "track": 3,
  "delta": 0,
  "tick": 37296,
  "byteIndex": 21755,
  "name": "Note on",
  "channel": 1,
  "noteNumber": 48,
  "noteName": "C3",
  "velocity": 79,
  "dtick": 48,
  "ins": 0
 },
 {
  "track": 3,
  "delta": 0,
  "tick": 37296,
  "byteIndex": 21759,
  "name": "Note on",
  "channel": 1,
  "noteNumber": 53,
  "noteName": "F3",
  "velocity": 79,
  "dtick": 48,
  "ins": 0
 },
 {
  "track": 3,
  "delta": 0,
  "tick": 37320,
  "byteIndex": 21767,
  "name": "Note on",
  "channel": 1,
  "noteNumber": 86,
  "noteName": "D6",
  "velocity": 79,
  "dtick": 24,
  "ins": 0
 },
 {
  "track": 3,
  "delta": 0,
  "tick": 37344,
  "byteIndex": 21787,
  "name": "Note on",
  "channel": 1,
  "noteNumber": 88,
  "noteName": "E6",
  "velocity": 79,
  "dtick": 24,
  "ins": 0
 },
 {
  "track": 3,
  "delta": 0,
  "tick": 37344,
  "byteIndex": 21791,
  "name": "Note on",
  "channel": 1,
  "noteNumber": 53,
  "noteName": "F3",
  "velocity": 79,
  "dtick": 48,
  "ins": 0
 },
 {
  "track": 3,
  "delta": 0,
  "tick": 37344,
  "byteIndex": 21795,
  "name": "Note on",
  "channel": 1,
  "noteNumber": 48,
  "noteName": "C3",
  "velocity": 79,
  "dtick": 48,
  "ins": 0
 },
 {
  "track": 3,
  "delta": 0,
  "tick": 37344,
  "byteIndex": 21799,
  "name": "Note on",
  "channel": 1,
  "noteNumber": 41,
  "noteName": "F2",
  "velocity": 79,
  "dtick": 48,
  "ins": 0
 },
 {
  "track": 3,
  "delta": 0,
  "tick": 37368,
  "byteIndex": 21807,
  "name": "Note on",
  "channel": 1,
  "noteNumber": 91,
  "noteName": "G6",
  "velocity": 79,
  "dtick": 24,
  "ins": 0
 },
 {
  "track": 3,
  "delta": 0,
  "tick": 37392,
  "byteIndex": 21827,
  "name": "Note on",
  "channel": 1,
  "noteNumber": 88,
  "noteName": "E6",
  "velocity": 79,
  "dtick": 24,
  "ins": 0
 },
 {
  "track": 3,
  "delta": 0,
  "tick": 37392,
  "byteIndex": 21831,
  "name": "Note on",
  "channel": 1,
  "noteNumber": 48,
  "noteName": "C3",
  "velocity": 79,
  "dtick": 48,
  "ins": 0
 },
 {
  "track": 3,
  "delta": 0,
  "tick": 37392,
  "byteIndex": 21835,
  "name": "Note on",
  "channel": 1,
  "noteNumber": 53,
  "noteName": "F3",
  "velocity": 79,
  "dtick": 48,
  "ins": 0
 },
 {
  "track": 3,
  "delta": 0,
  "tick": 37392,
  "byteIndex": 21839,
  "name": "Note on",
  "channel": 1,
  "noteNumber": 41,
  "noteName": "F2",
  "velocity": 79,
  "dtick": 48,
  "ins": 0
 },
 {
  "track": 3,
  "delta": 0,
  "tick": 37416,
  "byteIndex": 21847,
  "name": "Note on",
  "channel": 1,
  "noteNumber": 84,
  "noteName": "C6",
  "velocity": 79,
  "dtick": 24,
  "ins": 0
 },
 {
  "track": 3,
  "delta": 0,
  "tick": 37440,
  "byteIndex": 21867,
  "name": "Note on",
  "channel": 1,
  "noteNumber": 81,
  "noteName": "A5",
  "velocity": 79,
  "dtick": 24,
  "ins": 0
 },
 {
  "track": 3,
  "delta": 0,
  "tick": 37440,
  "byteIndex": 21871,
  "name": "Note on",
  "channel": 1,
  "noteNumber": 41,
  "noteName": "F2",
  "velocity": 79,
  "dtick": 48,
  "ins": 0
 },
 {
  "track": 3,
  "delta": 0,
  "tick": 37440,
  "byteIndex": 21875,
  "name": "Note on",
  "channel": 1,
  "noteNumber": 53,
  "noteName": "F3",
  "velocity": 79,
  "dtick": 48,
  "ins": 0
 },
 {
  "track": 3,
  "delta": 0,
  "tick": 37440,
  "byteIndex": 21879,
  "name": "Note on",
  "channel": 1,
  "noteNumber": 48,
  "noteName": "C3",
  "velocity": 79,
  "dtick": 48,
  "ins": 0
 },
 {
  "track": 3,
  "delta": 0,
  "tick": 37464,
  "byteIndex": 21887,
  "name": "Note on",
  "channel": 1,
  "noteNumber": 79,
  "noteName": "G5",
  "velocity": 79,
  "dtick": 24,
  "ins": 0
 },
 {
  "track": 3,
  "delta": 0,
  "tick": 37488,
  "byteIndex": 21907,
  "name": "Note on",
  "channel": 1,
  "noteNumber": 84,
  "noteName": "C6",
  "velocity": 79,
  "dtick": 24,
  "ins": 0
 },
 {
  "track": 3,
  "delta": 0,
  "tick": 37488,
  "byteIndex": 21911,
  "name": "Note on",
  "channel": 1,
  "noteNumber": 53,
  "noteName": "F3",
  "velocity": 79,
  "dtick": 48,
  "ins": 0
 },
 {
  "track": 3,
  "delta": 0,
  "tick": 37488,
  "byteIndex": 21915,
  "name": "Note on",
  "channel": 1,
  "noteNumber": 48,
  "noteName": "C3",
  "velocity": 79,
  "dtick": 48,
  "ins": 0
 },
 {
  "track": 3,
  "delta": 0,
  "tick": 37488,
  "byteIndex": 21919,
  "name": "Note on",
  "channel": 1,
  "noteNumber": 41,
  "noteName": "F2",
  "velocity": 79,
  "dtick": 48,
  "ins": 0
 },
 {
  "track": 3,
  "delta": 0,
  "tick": 37512,
  "byteIndex": 21927,
  "name": "Note on",
  "channel": 1,
  "noteNumber": 86,
  "noteName": "D6",
  "velocity": 79,
  "dtick": 24,
  "ins": 0
 },
 {
  "track": 3,
  "delta": 0,
  "tick": 37536,
  "byteIndex": 21947,
  "name": "Note on",
  "channel": 1,
  "noteNumber": 84,
  "noteName": "C6",
  "velocity": 79,
  "dtick": 24,
  "ins": 0
 },
 {
  "track": 3,
  "delta": 0,
  "tick": 37536,
  "byteIndex": 21951,
  "name": "Note on",
  "channel": 1,
  "noteNumber": 41,
  "noteName": "F2",
  "velocity": 79,
  "dtick": 48,
  "ins": 0
 },
 {
  "track": 3,
  "delta": 0,
  "tick": 37536,
  "byteIndex": 21955,
  "name": "Note on",
  "channel": 1,
  "noteNumber": 53,
  "noteName": "F3",
  "velocity": 79,
  "dtick": 48,
  "ins": 0
 },
 {
  "track": 3,
  "delta": 0,
  "tick": 37536,
  "byteIndex": 21959,
  "name": "Note on",
  "channel": 1,
  "noteNumber": 48,
  "noteName": "C3",
  "velocity": 79,
  "dtick": 48,
  "ins": 0
 },
 {
  "track": 3,
  "delta": 0,
  "tick": 37560,
  "byteIndex": 21967,
  "name": "Note on",
  "channel": 1,
  "noteNumber": 81,
  "noteName": "A5",
  "velocity": 79,
  "dtick": 24,
  "ins": 0
 },
 {
  "track": 3,
  "delta": 0,
  "tick": 37584,
  "byteIndex": 21987,
  "name": "Note on",
  "channel": 1,
  "noteNumber": 79,
  "noteName": "G5",
  "velocity": 79,
  "dtick": 24,
  "ins": 0
 },
 {
  "track": 3,
  "delta": 0,
  "tick": 37584,
  "byteIndex": 21991,
  "name": "Note on",
  "channel": 1,
  "noteNumber": 53,
  "noteName": "F3",
  "velocity": 79,
  "dtick": 48,
  "ins": 0
 },
 {
  "track": 3,
  "delta": 0,
  "tick": 37584,
  "byteIndex": 21995,
  "name": "Note on",
  "channel": 1,
  "noteNumber": 48,
  "noteName": "C3",
  "velocity": 79,
  "dtick": 48,
  "ins": 0
 },
 {
  "track": 3,
  "delta": 0,
  "tick": 37584,
  "byteIndex": 21999,
  "name": "Note on",
  "channel": 1,
  "noteNumber": 41,
  "noteName": "F2",
  "velocity": 79,
  "dtick": 48,
  "ins": 0
 },
 {
  "track": 3,
  "delta": 0,
  "tick": 37608,
  "byteIndex": 22007,
  "name": "Note on",
  "channel": 1,
  "noteNumber": 76,
  "noteName": "E5",
  "velocity": 79,
  "dtick": 23,
  "ins": 0
 },
 {
  "track": 3,
  "delta": 0,
  "tick": 37632,
  "byteIndex": 22027,
  "name": "Note on",
  "channel": 1,
  "noteNumber": 55,
  "noteName": "G3",
  "velocity": 79,
  "dtick": 48,
  "ins": 0
 },
 {
  "track": 3,
  "delta": 0,
  "tick": 37632,
  "byteIndex": 22031,
  "name": "Note on",
  "channel": 1,
  "noteNumber": 60,
  "noteName": "C4",
  "velocity": 79,
  "dtick": 48,
  "ins": 0
 },
 {
  "track": 3,
  "delta": 0,
  "tick": 37632,
  "byteIndex": 22035,
  "name": "Note on",
  "channel": 1,
  "noteNumber": 48,
  "noteName": "C3",
  "velocity": 79,
  "dtick": 48,
  "ins": 0
 },
 {
  "track": 3,
  "delta": 0,
  "tick": 37632,
  "byteIndex": 22039,
  "name": "Note on",
  "channel": 1,
  "noteNumber": 88,
  "noteName": "E6",
  "velocity": 79,
  "dtick": 24,
  "ins": 0
 },
 {
  "track": 3,
  "delta": 0,
  "tick": 37656,
  "byteIndex": 22047,
  "name": "Note on",
  "channel": 1,
  "noteNumber": 79,
  "noteName": "G5",
  "velocity": 79,
  "dtick": 24,
  "ins": 0
 },
 {
  "track": 3,
  "delta": 0,
  "tick": 37680,
  "byteIndex": 22067,
  "name": "Note on",
  "channel": 1,
  "noteNumber": 48,
  "noteName": "C3",
  "velocity": 79,
  "dtick": 48,
  "ins": 0
 },
 {
  "track": 3,
  "delta": 0,
  "tick": 37680,
  "byteIndex": 22071,
  "name": "Note on",
  "channel": 1,
  "noteNumber": 55,
  "noteName": "G3",
  "velocity": 79,
  "dtick": 48,
  "ins": 0
 },
 {
  "track": 3,
  "delta": 0,
  "tick": 37680,
  "byteIndex": 22075,
  "name": "Note on",
  "channel": 1,
  "noteNumber": 60,
  "noteName": "C4",
  "velocity": 79,
  "dtick": 48,
  "ins": 0
 },
 {
  "track": 3,
  "delta": 0,
  "tick": 37680,
  "byteIndex": 22079,
  "name": "Note on",
  "channel": 1,
  "noteNumber": 84,
  "noteName": "C6",
  "velocity": 79,
  "dtick": 24,
  "ins": 0
 },
 {
  "track": 3,
  "delta": 0,
  "tick": 37704,
  "byteIndex": 22087,
  "name": "Note on",
  "channel": 1,
  "noteNumber": 86,
  "noteName": "D6",
  "velocity": 79,
  "dtick": 24,
  "ins": 0
 },
 {
  "track": 3,
  "delta": 0,
  "tick": 37728,
  "byteIndex": 22107,
  "name": "Note on",
  "channel": 1,
  "noteNumber": 60,
  "noteName": "C4",
  "velocity": 79,
  "dtick": 48,
  "ins": 0
 },
 {
  "track": 3,
  "delta": 0,
  "tick": 37728,
  "byteIndex": 22111,
  "name": "Note on",
  "channel": 1,
  "noteNumber": 55,
  "noteName": "G3",
  "velocity": 79,
  "dtick": 48,
  "ins": 0
 },
 {
  "track": 3,
  "delta": 0,
  "tick": 37728,
  "byteIndex": 22115,
  "name": "Note on",
  "channel": 1,
  "noteNumber": 48,
  "noteName": "C3",
  "velocity": 79,
  "dtick": 48,
  "ins": 0
 },
 {
  "track": 3,
  "delta": 0,
  "tick": 37728,
  "byteIndex": 22119,
  "name": "Note on",
  "channel": 1,
  "noteNumber": 88,
  "noteName": "E6",
  "velocity": 79,
  "dtick": 24,
  "ins": 0
 },
 {
  "track": 3,
  "delta": 0,
  "tick": 37752,
  "byteIndex": 22127,
  "name": "Note on",
  "channel": 1,
  "noteNumber": 91,
  "noteName": "G6",
  "velocity": 79,
  "dtick": 24,
  "ins": 0
 },
 {
  "track": 3,
  "delta": 0,
  "tick": 37776,
  "byteIndex": 22147,
  "name": "Note on",
  "channel": 1,
  "noteNumber": 60,
  "noteName": "C4",
  "velocity": 79,
  "dtick": 48,
  "ins": 0
 },
 {
  "track": 3,
  "delta": 0,
  "tick": 37776,
  "byteIndex": 22151,
  "name": "Note on",
  "channel": 1,
  "noteNumber": 55,
  "noteName": "G3",
  "velocity": 79,
  "dtick": 48,
  "ins": 0
 },
 {
  "track": 3,
  "delta": 0,
  "tick": 37776,
  "byteIndex": 22155,
  "name": "Note on",
  "channel": 1,
  "noteNumber": 48,
  "noteName": "C3",
  "velocity": 79,
  "dtick": 48,
  "ins": 0
 },
 {
  "track": 3,
  "delta": 0,
  "tick": 37776,
  "byteIndex": 22159,
  "name": "Note on",
  "channel": 1,
  "noteNumber": 88,
  "noteName": "E6",
  "velocity": 79,
  "dtick": 24,
  "ins": 0
 },
 {
  "track": 3,
  "delta": 0,
  "tick": 37800,
  "byteIndex": 22167,
  "name": "Note on",
  "channel": 1,
  "noteNumber": 84,
  "noteName": "C6",
  "velocity": 79,
  "dtick": 24,
  "ins": 0
 },
 {
  "track": 3,
  "delta": 0,
  "tick": 37824,
  "byteIndex": 22187,
  "name": "Note on",
  "channel": 1,
  "noteNumber": 48,
  "noteName": "C3",
  "velocity": 79,
  "dtick": 48,
  "ins": 0
 },
 {
  "track": 3,
  "delta": 0,
  "tick": 37824,
  "byteIndex": 22191,
  "name": "Note on",
  "channel": 1,
  "noteNumber": 60,
  "noteName": "C4",
  "velocity": 79,
  "dtick": 48,
  "ins": 0
 },
 {
  "track": 3,
  "delta": 0,
  "tick": 37824,
  "byteIndex": 22195,
  "name": "Note on",
  "channel": 1,
  "noteNumber": 55,
  "noteName": "G3",
  "velocity": 79,
  "dtick": 48,
  "ins": 0
 },
 {
  "track": 3,
  "delta": 0,
  "tick": 37824,
  "byteIndex": 22199,
  "name": "Note on",
  "channel": 1,
  "noteNumber": 81,
  "noteName": "A5",
  "velocity": 79,
  "dtick": 24,
  "ins": 0
 },
 {
  "track": 3,
  "delta": 0,
  "tick": 37848,
  "byteIndex": 22207,
  "name": "Note on",
  "channel": 1,
  "noteNumber": 79,
  "noteName": "G5",
  "velocity": 79,
  "dtick": 24,
  "ins": 0
 },
 {
  "track": 3,
  "delta": 0,
  "tick": 37872,
  "byteIndex": 22227,
  "name": "Note on",
  "channel": 1,
  "noteNumber": 60,
  "noteName": "C4",
  "velocity": 79,
  "dtick": 48,
  "ins": 0
 },
 {
  "track": 3,
  "delta": 0,
  "tick": 37872,
  "byteIndex": 22231,
  "name": "Note on",
  "channel": 1,
  "noteNumber": 55,
  "noteName": "G3",
  "velocity": 79,
  "dtick": 48,
  "ins": 0
 },
 {
  "track": 3,
  "delta": 0,
  "tick": 37872,
  "byteIndex": 22235,
  "name": "Note on",
  "channel": 1,
  "noteNumber": 48,
  "noteName": "C3",
  "velocity": 79,
  "dtick": 48,
  "ins": 0
 },
 {
  "track": 3,
  "delta": 0,
  "tick": 37872,
  "byteIndex": 22239,
  "name": "Note on",
  "channel": 1,
  "noteNumber": 84,
  "noteName": "C6",
  "velocity": 79,
  "dtick": 24,
  "ins": 0
 },
 {
  "track": 3,
  "delta": 0,
  "tick": 37896,
  "byteIndex": 22247,
  "name": "Note on",
  "channel": 1,
  "noteNumber": 86,
  "noteName": "D6",
  "velocity": 79,
  "dtick": 24,
  "ins": 0
 },
 {
  "track": 3,
  "delta": 0,
  "tick": 37920,
  "byteIndex": 22267,
  "name": "Note on",
  "channel": 1,
  "noteNumber": 55,
  "noteName": "G3",
  "velocity": 79,
  "dtick": 48,
  "ins": 0
 },
 {
  "track": 3,
  "delta": 0,
  "tick": 37920,
  "byteIndex": 22271,
  "name": "Note on",
  "channel": 1,
  "noteNumber": 60,
  "noteName": "C4",
  "velocity": 79,
  "dtick": 48,
  "ins": 0
 },
 {
  "track": 3,
  "delta": 0,
  "tick": 37920,
  "byteIndex": 22275,
  "name": "Note on",
  "channel": 1,
  "noteNumber": 48,
  "noteName": "C3",
  "velocity": 79,
  "dtick": 48,
  "ins": 0
 },
 {
  "track": 3,
  "delta": 0,
  "tick": 37920,
  "byteIndex": 22279,
  "name": "Note on",
  "channel": 1,
  "noteNumber": 84,
  "noteName": "C6",
  "velocity": 79,
  "dtick": 24,
  "ins": 0
 },
 {
  "track": 3,
  "delta": 0,
  "tick": 37944,
  "byteIndex": 22287,
  "name": "Note on",
  "channel": 1,
  "noteNumber": 91,
  "noteName": "G6",
  "velocity": 79,
  "dtick": 24,
  "ins": 0
 },
 {
  "track": 3,
  "delta": 0,
  "tick": 37968,
  "byteIndex": 22307,
  "name": "Note on",
  "channel": 1,
  "noteNumber": 48,
  "noteName": "C3",
  "velocity": 79,
  "dtick": 48,
  "ins": 0
 },
 {
  "track": 3,
  "delta": 0,
  "tick": 37968,
  "byteIndex": 22311,
  "name": "Note on",
  "channel": 1,
  "noteNumber": 55,
  "noteName": "G3",
  "velocity": 79,
  "dtick": 48,
  "ins": 0
 },
 {
  "track": 3,
  "delta": 0,
  "tick": 37968,
  "byteIndex": 22315,
  "name": "Note on",
  "channel": 1,
  "noteNumber": 60,
  "noteName": "C4",
  "velocity": 79,
  "dtick": 48,
  "ins": 0
 },
 {
  "track": 3,
  "delta": 0,
  "tick": 37968,
  "byteIndex": 22319,
  "name": "Note on",
  "channel": 1,
  "noteNumber": 88,
  "noteName": "E6",
  "velocity": 79,
  "dtick": 24,
  "ins": 0
 },
 {
  "track": 3,
  "delta": 0,
  "tick": 37992,
  "byteIndex": 22327,
  "name": "Note on",
  "channel": 1,
  "noteNumber": 84,
  "noteName": "C6",
  "velocity": 79,
  "dtick": 24,
  "ins": 0
 },
 {
  "track": 3,
  "delta": 0,
  "tick": 38016,
  "byteIndex": 22347,
  "name": "Note on",
  "channel": 1,
  "noteNumber": 59,
  "noteName": "B3",
  "velocity": 79,
  "dtick": 48,
  "ins": 0
 },
 {
  "track": 3,
  "delta": 0,
  "tick": 38016,
  "byteIndex": 22351,
  "name": "Note on",
  "channel": 1,
  "noteNumber": 55,
  "noteName": "G3",
  "velocity": 79,
  "dtick": 48,
  "ins": 0
 },
 {
  "track": 3,
  "delta": 0,
  "tick": 38016,
  "byteIndex": 22355,
  "name": "Note on",
  "channel": 1,
  "noteNumber": 48,
  "noteName": "C3",
  "velocity": 79,
  "dtick": 48,
  "ins": 0
 },
 {
  "track": 3,
  "delta": 0,
  "tick": 38016,
  "byteIndex": 22359,
  "name": "Note on",
  "channel": 1,
  "noteNumber": 88,
  "noteName": "E6",
  "velocity": 79,
  "dtick": 24,
  "ins": 0
 },
 {
  "track": 3,
  "delta": 0,
  "tick": 38040,
  "byteIndex": 22367,
  "name": "Note on",
  "channel": 1,
  "noteNumber": 81,
  "noteName": "A5",
  "velocity": 79,
  "dtick": 24,
  "ins": 0
 },
 {
  "track": 3,
  "delta": 0,
  "tick": 38064,
  "byteIndex": 22387,
  "name": "Note on",
  "channel": 1,
  "noteNumber": 59,
  "noteName": "B3",
  "velocity": 79,
  "dtick": 48,
  "ins": 0
 },
 {
  "track": 3,
  "delta": 0,
  "tick": 38064,
  "byteIndex": 22391,
  "name": "Note on",
  "channel": 1,
  "noteNumber": 48,
  "noteName": "C3",
  "velocity": 79,
  "dtick": 48,
  "ins": 0
 },
 {
  "track": 3,
  "delta": 0,
  "tick": 38064,
  "byteIndex": 22395,
  "name": "Note on",
  "channel": 1,
  "noteNumber": 55,
  "noteName": "G3",
  "velocity": 79,
  "dtick": 48,
  "ins": 0
 },
 {
  "track": 3,
  "delta": 0,
  "tick": 38064,
  "byteIndex": 22399,
  "name": "Note on",
  "channel": 1,
  "noteNumber": 84,
  "noteName": "C6",
  "velocity": 79,
  "dtick": 24,
  "ins": 0
 },
 {
  "track": 3,
  "delta": 0,
  "tick": 38088,
  "byteIndex": 22407,
  "name": "Note on",
  "channel": 1,
  "noteNumber": 86,
  "noteName": "D6",
  "velocity": 79,
  "dtick": 24,
  "ins": 0
 },
 {
  "track": 3,
  "delta": 0,
  "tick": 38112,
  "byteIndex": 22427,
  "name": "Note on",
  "channel": 1,
  "noteNumber": 59,
  "noteName": "B3",
  "velocity": 79,
  "dtick": 48,
  "ins": 0
 },
 {
  "track": 3,
  "delta": 0,
  "tick": 38112,
  "byteIndex": 22431,
  "name": "Note on",
  "channel": 1,
  "noteNumber": 59,
  "noteName": "B3",
  "velocity": 79,
  "dtick": 48,
  "ins": 0
 },
 {
  "track": 3,
  "delta": 0,
  "tick": 38112,
  "byteIndex": 22435,
  "name": "Note on",
  "channel": 1,
  "noteNumber": 59,
  "noteName": "B3",
  "velocity": 79,
  "dtick": 48,
  "ins": 0
 },
 {
  "track": 3,
  "delta": 0,
  "tick": 38112,
  "byteIndex": 22439,
  "name": "Note on",
  "channel": 1,
  "noteNumber": 55,
  "noteName": "G3",
  "velocity": 79,
  "dtick": 48,
  "ins": 0
 },
 {
  "track": 3,
  "delta": 0,
  "tick": 38112,
  "byteIndex": 22443,
  "name": "Note on",
  "channel": 1,
  "noteNumber": 48,
  "noteName": "C3",
  "velocity": 79,
  "dtick": 48,
  "ins": 0
 },
 {
  "track": 3,
  "delta": 0,
  "tick": 38112,
  "byteIndex": 22447,
  "name": "Note on",
  "channel": 1,
  "noteNumber": 88,
  "noteName": "E6",
  "velocity": 79,
  "dtick": 24,
  "ins": 0
 },
 {
  "track": 3,
  "delta": 0,
  "tick": 38136,
  "byteIndex": 22455,
  "name": "Note on",
  "channel": 1,
  "noteNumber": 91,
  "noteName": "G6",
  "velocity": 79,
  "dtick": 24,
  "ins": 0
 },
 {
  "track": 3,
  "delta": 0,
  "tick": 38160,
  "byteIndex": 22483,
  "name": "Note on",
  "channel": 1,
  "noteNumber": 48,
  "noteName": "C3",
  "velocity": 79,
  "dtick": 48,
  "ins": 0
 },
 {
  "track": 3,
  "delta": 0,
  "tick": 38160,
  "byteIndex": 22487,
  "name": "Note on",
  "channel": 1,
  "noteNumber": 55,
  "noteName": "G3",
  "velocity": 79,
  "dtick": 48,
  "ins": 0
 },
 {
  "track": 3,
  "delta": 0,
  "tick": 38160,
  "byteIndex": 22491,
  "name": "Note on",
  "channel": 1,
  "noteNumber": 59,
  "noteName": "B3",
  "velocity": 79,
  "dtick": 48,
  "ins": 0
 },
 {
  "track": 3,
  "delta": 0,
  "tick": 38160,
  "byteIndex": 22495,
  "name": "Note on",
  "channel": 1,
  "noteNumber": 88,
  "noteName": "E6",
  "velocity": 79,
  "dtick": 24,
  "ins": 0
 },
 {
  "track": 3,
  "delta": 0,
  "tick": 38184,
  "byteIndex": 22503,
  "name": "Note on",
  "channel": 1,
  "noteNumber": 84,
  "noteName": "C6",
  "velocity": 79,
  "dtick": 24,
  "ins": 0
 },
 {
  "track": 3,
  "delta": 0,
  "tick": 38208,
  "byteIndex": 22523,
  "name": "Note on",
  "channel": 1,
  "noteNumber": 59,
  "noteName": "B3",
  "velocity": 79,
  "dtick": 48,
  "ins": 0
 },
 {
  "track": 3,
  "delta": 0,
  "tick": 38208,
  "byteIndex": 22527,
  "name": "Note on",
  "channel": 1,
  "noteNumber": 48,
  "noteName": "C3",
  "velocity": 79,
  "dtick": 48,
  "ins": 0
 },
 {
  "track": 3,
  "delta": 0,
  "tick": 38208,
  "byteIndex": 22531,
  "name": "Note on",
  "channel": 1,
  "noteNumber": 55,
  "noteName": "G3",
  "velocity": 79,
  "dtick": 48,
  "ins": 0
 },
 {
  "track": 3,
  "delta": 0,
  "tick": 38208,
  "byteIndex": 22535,
  "name": "Note on",
  "channel": 1,
  "noteNumber": 81,
  "noteName": "A5",
  "velocity": 79,
  "dtick": 24,
  "ins": 0
 },
 {
  "track": 3,
  "delta": 0,
  "tick": 38232,
  "byteIndex": 22543,
  "name": "Note on",
  "channel": 1,
  "noteNumber": 79,
  "noteName": "G5",
  "velocity": 79,
  "dtick": 24,
  "ins": 0
 },
 {
  "track": 3,
  "delta": 0,
  "tick": 38256,
  "byteIndex": 22563,
  "name": "Note on",
  "channel": 1,
  "noteNumber": 59,
  "noteName": "B3",
  "velocity": 79,
  "dtick": 48,
  "ins": 0
 },
 {
  "track": 3,
  "delta": 0,
  "tick": 38256,
  "byteIndex": 22567,
  "name": "Note on",
  "channel": 1,
  "noteNumber": 48,
  "noteName": "C3",
  "velocity": 79,
  "dtick": 48,
  "ins": 0
 },
 {
  "track": 3,
  "delta": 0,
  "tick": 38256,
  "byteIndex": 22571,
  "name": "Note on",
  "channel": 1,
  "noteNumber": 55,
  "noteName": "G3",
  "velocity": 79,
  "dtick": 48,
  "ins": 0
 },
 {
  "track": 3,
  "delta": 0,
  "tick": 38256,
  "byteIndex": 22575,
  "name": "Note on",
  "channel": 1,
  "noteNumber": 84,
  "noteName": "C6",
  "velocity": 79,
  "dtick": 24,
  "ins": 0
 },
 {
  "track": 3,
  "delta": 0,
  "tick": 38280,
  "byteIndex": 22583,
  "name": "Note on",
  "channel": 1,
  "noteNumber": 86,
  "noteName": "D6",
  "velocity": 79,
  "dtick": 24,
  "ins": 0
 },
 {
  "track": 3,
  "delta": 0,
  "tick": 38304,
  "byteIndex": 22603,
  "name": "Note on",
  "channel": 1,
  "noteNumber": 55,
  "noteName": "G3",
  "velocity": 79,
  "dtick": 48,
  "ins": 0
 },
 {
  "track": 3,
  "delta": 0,
  "tick": 38304,
  "byteIndex": 22607,
  "name": "Note on",
  "channel": 1,
  "noteNumber": 48,
  "noteName": "C3",
  "velocity": 79,
  "dtick": 48,
  "ins": 0
 },
 {
  "track": 3,
  "delta": 0,
  "tick": 38304,
  "byteIndex": 22611,
  "name": "Note on",
  "channel": 1,
  "noteNumber": 59,
  "noteName": "B3",
  "velocity": 79,
  "dtick": 48,
  "ins": 0
 },
 {
  "track": 3,
  "delta": 0,
  "tick": 38304,
  "byteIndex": 22615,
  "name": "Note on",
  "channel": 1,
  "noteNumber": 84,
  "noteName": "C6",
  "velocity": 79,
  "dtick": 24,
  "ins": 0
 },
 {
  "track": 3,
  "delta": 0,
  "tick": 38328,
  "byteIndex": 22623,
  "name": "Note on",
  "channel": 1,
  "noteNumber": 81,
  "noteName": "A5",
  "velocity": 79,
  "dtick": 24,
  "ins": 0
 },
 {
  "track": 3,
  "delta": 0,
  "tick": 38352,
  "byteIndex": 22643,
  "name": "Note on",
  "channel": 1,
  "noteNumber": 48,
  "noteName": "C3",
  "velocity": 79,
  "dtick": 48,
  "ins": 0
 },
 {
  "track": 3,
  "delta": 0,
  "tick": 38352,
  "byteIndex": 22647,
  "name": "Note on",
  "channel": 1,
  "noteNumber": 55,
  "noteName": "G3",
  "velocity": 79,
  "dtick": 48,
  "ins": 0
 },
 {
  "track": 3,
  "delta": 0,
  "tick": 38352,
  "byteIndex": 22651,
  "name": "Note on",
  "channel": 1,
  "noteNumber": 59,
  "noteName": "B3",
  "velocity": 79,
  "dtick": 48,
  "ins": 0
 },
 {
  "track": 3,
  "delta": 0,
  "tick": 38352,
  "byteIndex": 22655,
  "name": "Note on",
  "channel": 1,
  "noteNumber": 79,
  "noteName": "G5",
  "velocity": 79,
  "dtick": 24,
  "ins": 0
 },
 {
  "track": 3,
  "delta": 0,
  "tick": 38376,
  "byteIndex": 22663,
  "name": "Note on",
  "channel": 1,
  "noteNumber": 76,
  "noteName": "E5",
  "velocity": 79,
  "dtick": 23,
  "ins": 0
 },
 {
  "track": 3,
  "delta": 0,
  "tick": 38400,
  "byteIndex": 22683,
  "name": "Note on",
  "channel": 1,
  "noteNumber": 57,
  "noteName": "A3",
  "velocity": 79,
  "dtick": 48,
  "ins": 0
 },
 {
  "track": 3,
  "delta": 0,
  "tick": 38400,
  "byteIndex": 22687,
  "name": "Note on",
  "channel": 1,
  "noteNumber": 45,
  "noteName": "A2",
  "velocity": 79,
  "dtick": 48,
  "ins": 0
 },
 {
  "track": 3,
  "delta": 0,
  "tick": 38400,
  "byteIndex": 22691,
  "name": "Note on",
  "channel": 1,
  "noteNumber": 52,
  "noteName": "E3",
  "velocity": 79,
  "dtick": 48,
  "ins": 0
 },
 {
  "track": 3,
  "delta": 0,
  "tick": 38400,
  "byteIndex": 22695,
  "name": "Note on",
  "channel": 1,
  "noteNumber": 88,
  "noteName": "E6",
  "velocity": 79,
  "dtick": 24,
  "ins": 0
 },
 {
  "track": 3,
  "delta": 0,
  "tick": 38424,
  "byteIndex": 22703,
  "name": "Note on",
  "channel": 1,
  "noteNumber": 79,
  "noteName": "G5",
  "velocity": 79,
  "dtick": 24,
  "ins": 0
 },
 {
  "track": 3,
  "delta": 0,
  "tick": 38448,
  "byteIndex": 22723,
  "name": "Note on",
  "channel": 1,
  "noteNumber": 45,
  "noteName": "A2",
  "velocity": 79,
  "dtick": 48,
  "ins": 0
 },
 {
  "track": 3,
  "delta": 0,
  "tick": 38448,
  "byteIndex": 22727,
  "name": "Note on",
  "channel": 1,
  "noteNumber": 52,
  "noteName": "E3",
  "velocity": 79,
  "dtick": 48,
  "ins": 0
 },
 {
  "track": 3,
  "delta": 0,
  "tick": 38448,
  "byteIndex": 22731,
  "name": "Note on",
  "channel": 1,
  "noteNumber": 57,
  "noteName": "A3",
  "velocity": 79,
  "dtick": 48,
  "ins": 0
 },
 {
  "track": 3,
  "delta": 0,
  "tick": 38448,
  "byteIndex": 22735,
  "name": "Note on",
  "channel": 1,
  "noteNumber": 84,
  "noteName": "C6",
  "velocity": 79,
  "dtick": 24,
  "ins": 0
 },
 {
  "track": 3,
  "delta": 0,
  "tick": 38472,
  "byteIndex": 22743,
  "name": "Note on",
  "channel": 1,
  "noteNumber": 86,
  "noteName": "D6",
  "velocity": 79,
  "dtick": 24,
  "ins": 0
 },
 {
  "track": 3,
  "delta": 0,
  "tick": 38496,
  "byteIndex": 22763,
  "name": "Note on",
  "channel": 1,
  "noteNumber": 45,
  "noteName": "A2",
  "velocity": 79,
  "dtick": 48,
  "ins": 0
 },
 {
  "track": 3,
  "delta": 0,
  "tick": 38496,
  "byteIndex": 22767,
  "name": "Note on",
  "channel": 1,
  "noteNumber": 52,
  "noteName": "E3",
  "velocity": 79,
  "dtick": 48,
  "ins": 0
 },
 {
  "track": 3,
  "delta": 0,
  "tick": 38496,
  "byteIndex": 22771,
  "name": "Note on",
  "channel": 1,
  "noteNumber": 57,
  "noteName": "A3",
  "velocity": 79,
  "dtick": 48,
  "ins": 0
 },
 {
  "track": 3,
  "delta": 0,
  "tick": 38496,
  "byteIndex": 22775,
  "name": "Note on",
  "channel": 1,
  "noteNumber": 88,
  "noteName": "E6",
  "velocity": 79,
  "dtick": 24,
  "ins": 0
 },
 {
  "track": 3,
  "delta": 0,
  "tick": 38520,
  "byteIndex": 22783,
  "name": "Note on",
  "channel": 1,
  "noteNumber": 91,
  "noteName": "G6",
  "velocity": 79,
  "dtick": 24,
  "ins": 0
 },
 {
  "track": 3,
  "delta": 0,
  "tick": 38544,
  "byteIndex": 22803,
  "name": "Note on",
  "channel": 1,
  "noteNumber": 52,
  "noteName": "E3",
  "velocity": 79,
  "dtick": 48,
  "ins": 0
 },
 {
  "track": 3,
  "delta": 0,
  "tick": 38544,
  "byteIndex": 22807,
  "name": "Note on",
  "channel": 1,
  "noteNumber": 57,
  "noteName": "A3",
  "velocity": 79,
  "dtick": 48,
  "ins": 0
 },
 {
  "track": 3,
  "delta": 0,
  "tick": 38544,
  "byteIndex": 22811,
  "name": "Note on",
  "channel": 1,
  "noteNumber": 45,
  "noteName": "A2",
  "velocity": 79,
  "dtick": 48,
  "ins": 0
 },
 {
  "track": 3,
  "delta": 0,
  "tick": 38544,
  "byteIndex": 22815,
  "name": "Note on",
  "channel": 1,
  "noteNumber": 88,
  "noteName": "E6",
  "velocity": 79,
  "dtick": 24,
  "ins": 0
 },
 {
  "track": 3,
  "delta": 0,
  "tick": 38568,
  "byteIndex": 22823,
  "name": "Note on",
  "channel": 1,
  "noteNumber": 84,
  "noteName": "C6",
  "velocity": 79,
  "dtick": 24,
  "ins": 0
 },
 {
  "track": 3,
  "delta": 0,
  "tick": 38592,
  "byteIndex": 22843,
  "name": "Note on",
  "channel": 1,
  "noteNumber": 52,
  "noteName": "E3",
  "velocity": 79,
  "dtick": 48,
  "ins": 0
 },
 {
  "track": 3,
  "delta": 0,
  "tick": 38592,
  "byteIndex": 22847,
  "name": "Note on",
  "channel": 1,
  "noteNumber": 57,
  "noteName": "A3",
  "velocity": 79,
  "dtick": 48,
  "ins": 0
 },
 {
  "track": 3,
  "delta": 0,
  "tick": 38592,
  "byteIndex": 22851,
  "name": "Note on",
  "channel": 1,
  "noteNumber": 45,
  "noteName": "A2",
  "velocity": 79,
  "dtick": 48,
  "ins": 0
 },
 {
  "track": 3,
  "delta": 0,
  "tick": 38592,
  "byteIndex": 22855,
  "name": "Note on",
  "channel": 1,
  "noteNumber": 81,
  "noteName": "A5",
  "velocity": 79,
  "dtick": 24,
  "ins": 0
 },
 {
  "track": 3,
  "delta": 0,
  "tick": 38616,
  "byteIndex": 22863,
  "name": "Note on",
  "channel": 1,
  "noteNumber": 79,
  "noteName": "G5",
  "velocity": 79,
  "dtick": 24,
  "ins": 0
 },
 {
  "track": 3,
  "delta": 0,
  "tick": 38640,
  "byteIndex": 22883,
  "name": "Note on",
  "channel": 1,
  "noteNumber": 57,
  "noteName": "A3",
  "velocity": 79,
  "dtick": 48,
  "ins": 0
 },
 {
  "track": 3,
  "delta": 0,
  "tick": 38640,
  "byteIndex": 22887,
  "name": "Note on",
  "channel": 1,
  "noteNumber": 52,
  "noteName": "E3",
  "velocity": 79,
  "dtick": 48,
  "ins": 0
 },
 {
  "track": 3,
  "delta": 0,
  "tick": 38640,
  "byteIndex": 22891,
  "name": "Note on",
  "channel": 1,
  "noteNumber": 45,
  "noteName": "A2",
  "velocity": 79,
  "dtick": 48,
  "ins": 0
 },
 {
  "track": 3,
  "delta": 0,
  "tick": 38640,
  "byteIndex": 22895,
  "name": "Note on",
  "channel": 1,
  "noteNumber": 84,
  "noteName": "C6",
  "velocity": 79,
  "dtick": 24,
  "ins": 0
 },
 {
  "track": 3,
  "delta": 0,
  "tick": 38664,
  "byteIndex": 22903,
  "name": "Note on",
  "channel": 1,
  "noteNumber": 86,
  "noteName": "D6",
  "velocity": 79,
  "dtick": 24,
  "ins": 0
 },
 {
  "track": 3,
  "delta": 0,
  "tick": 38688,
  "byteIndex": 22923,
  "name": "Note on",
  "channel": 1,
  "noteNumber": 52,
  "noteName": "E3",
  "velocity": 79,
  "dtick": 48,
  "ins": 0
 },
 {
  "track": 3,
  "delta": 0,
  "tick": 38688,
  "byteIndex": 22927,
  "name": "Note on",
  "channel": 1,
  "noteNumber": 57,
  "noteName": "A3",
  "velocity": 79,
  "dtick": 48,
  "ins": 0
 },
 {
  "track": 3,
  "delta": 0,
  "tick": 38688,
  "byteIndex": 22931,
  "name": "Note on",
  "channel": 1,
  "noteNumber": 45,
  "noteName": "A2",
  "velocity": 79,
  "dtick": 48,
  "ins": 0
 },
 {
  "track": 3,
  "delta": 0,
  "tick": 38688,
  "byteIndex": 22935,
  "name": "Note on",
  "channel": 1,
  "noteNumber": 84,
  "noteName": "C6",
  "velocity": 79,
  "dtick": 24,
  "ins": 0
 },
 {
  "track": 3,
  "delta": 0,
  "tick": 38712,
  "byteIndex": 22943,
  "name": "Note on",
  "channel": 1,
  "noteNumber": 91,
  "noteName": "G6",
  "velocity": 79,
  "dtick": 24,
  "ins": 0
 },
 {
  "track": 3,
  "delta": 0,
  "tick": 38736,
  "byteIndex": 22963,
  "name": "Note on",
  "channel": 1,
  "noteNumber": 45,
  "noteName": "A2",
  "velocity": 79,
  "dtick": 48,
  "ins": 0
 },
 {
  "track": 3,
  "delta": 0,
  "tick": 38736,
  "byteIndex": 22967,
  "name": "Note on",
  "channel": 1,
  "noteNumber": 52,
  "noteName": "E3",
  "velocity": 79,
  "dtick": 48,
  "ins": 0
 },
 {
  "track": 3,
  "delta": 0,
  "tick": 38736,
  "byteIndex": 22971,
  "name": "Note on",
  "channel": 1,
  "noteNumber": 57,
  "noteName": "A3",
  "velocity": 79,
  "dtick": 48,
  "ins": 0
 },
 {
  "track": 3,
  "delta": 0,
  "tick": 38736,
  "byteIndex": 22975,
  "name": "Note on",
  "channel": 1,
  "noteNumber": 88,
  "noteName": "E6",
  "velocity": 79,
  "dtick": 24,
  "ins": 0
 },
 {
  "track": 3,
  "delta": 0,
  "tick": 38760,
  "byteIndex": 22983,
  "name": "Note on",
  "channel": 1,
  "noteNumber": 84,
  "noteName": "C6",
  "velocity": 79,
  "dtick": 24,
  "ins": 0
 },
 {
  "track": 3,
  "delta": 0,
  "tick": 38784,
  "byteIndex": 23003,
  "name": "Note on",
  "channel": 1,
  "noteNumber": 41,
  "noteName": "F2",
  "velocity": 79,
  "dtick": 48,
  "ins": 0
 },
 {
  "track": 3,
  "delta": 0,
  "tick": 38784,
  "byteIndex": 23007,
  "name": "Note on",
  "channel": 1,
  "noteNumber": 53,
  "noteName": "F3",
  "velocity": 79,
  "dtick": 48,
  "ins": 0
 },
 {
  "track": 3,
  "delta": 0,
  "tick": 38784,
  "byteIndex": 23011,
  "name": "Note on",
  "channel": 1,
  "noteNumber": 48,
  "noteName": "C3",
  "velocity": 79,
  "dtick": 48,
  "ins": 0
 },
 {
  "track": 3,
  "delta": 0,
  "tick": 38784,
  "byteIndex": 23015,
  "name": "Note on",
  "channel": 1,
  "noteNumber": 88,
  "noteName": "E6",
  "velocity": 79,
  "dtick": 24,
  "ins": 0
 },
 {
  "track": 3,
  "delta": 0,
  "tick": 38808,
  "byteIndex": 23023,
  "name": "Note on",
  "channel": 1,
  "noteNumber": 81,
  "noteName": "A5",
  "velocity": 79,
  "dtick": 24,
  "ins": 0
 },
 {
  "track": 3,
  "delta": 0,
  "tick": 38832,
  "byteIndex": 23043,
  "name": "Note on",
  "channel": 1,
  "noteNumber": 41,
  "noteName": "F2",
  "velocity": 79,
  "dtick": 48,
  "ins": 0
 },
 {
  "track": 3,
  "delta": 0,
  "tick": 38832,
  "byteIndex": 23047,
  "name": "Note on",
  "channel": 1,
  "noteNumber": 48,
  "noteName": "C3",
  "velocity": 79,
  "dtick": 48,
  "ins": 0
 },
 {
  "track": 3,
  "delta": 0,
  "tick": 38832,
  "byteIndex": 23051,
  "name": "Note on",
  "channel": 1,
  "noteNumber": 53,
  "noteName": "F3",
  "velocity": 79,
  "dtick": 48,
  "ins": 0
 },
 {
  "track": 3,
  "delta": 0,
  "tick": 38832,
  "byteIndex": 23055,
  "name": "Note on",
  "channel": 1,
  "noteNumber": 84,
  "noteName": "C6",
  "velocity": 79,
  "dtick": 24,
  "ins": 0
 },
 {
  "track": 3,
  "delta": 0,
  "tick": 38856,
  "byteIndex": 23063,
  "name": "Note on",
  "channel": 1,
  "noteNumber": 86,
  "noteName": "D6",
  "velocity": 79,
  "dtick": 24,
  "ins": 0
 },
 {
  "track": 3,
  "delta": 0,
  "tick": 38880,
  "byteIndex": 23083,
  "name": "Note on",
  "channel": 1,
  "noteNumber": 53,
  "noteName": "F3",
  "velocity": 79,
  "dtick": 48,
  "ins": 0
 },
 {
  "track": 3,
  "delta": 0,
  "tick": 38880,
  "byteIndex": 23087,
  "name": "Note on",
  "channel": 1,
  "noteNumber": 48,
  "noteName": "C3",
  "velocity": 79,
  "dtick": 48,
  "ins": 0
 },
 {
  "track": 3,
  "delta": 0,
  "tick": 38880,
  "byteIndex": 23091,
  "name": "Note on",
  "channel": 1,
  "noteNumber": 41,
  "noteName": "F2",
  "velocity": 79,
  "dtick": 48,
  "ins": 0
 },
 {
  "track": 3,
  "delta": 0,
  "tick": 38880,
  "byteIndex": 23095,
  "name": "Note on",
  "channel": 1,
  "noteNumber": 88,
  "noteName": "E6",
  "velocity": 79,
  "dtick": 24,
  "ins": 0
 },
 {
  "track": 3,
  "delta": 0,
  "tick": 38904,
  "byteIndex": 23103,
  "name": "Note on",
  "channel": 1,
  "noteNumber": 91,
  "noteName": "G6",
  "velocity": 79,
  "dtick": 24,
  "ins": 0
 },
 {
  "track": 3,
  "delta": 0,
  "tick": 38928,
  "byteIndex": 23123,
  "name": "Note on",
  "channel": 1,
  "noteNumber": 48,
  "noteName": "C3",
  "velocity": 79,
  "dtick": 48,
  "ins": 0
 },
 {
  "track": 3,
  "delta": 0,
  "tick": 38928,
  "byteIndex": 23127,
  "name": "Note on",
  "channel": 1,
  "noteNumber": 53,
  "noteName": "F3",
  "velocity": 79,
  "dtick": 48,
  "ins": 0
 },
 {
  "track": 3,
  "delta": 0,
  "tick": 38928,
  "byteIndex": 23131,
  "name": "Note on",
  "channel": 1,
  "noteNumber": 41,
  "noteName": "F2",
  "velocity": 79,
  "dtick": 48,
  "ins": 0
 },
 {
  "track": 3,
  "delta": 0,
  "tick": 38928,
  "byteIndex": 23135,
  "name": "Note on",
  "channel": 1,
  "noteNumber": 88,
  "noteName": "E6",
  "velocity": 79,
  "dtick": 24,
  "ins": 0
 },
 {
  "track": 3,
  "delta": 0,
  "tick": 38952,
  "byteIndex": 23143,
  "name": "Note on",
  "channel": 1,
  "noteNumber": 84,
  "noteName": "C6",
  "velocity": 79,
  "dtick": 24,
  "ins": 0
 },
 {
  "track": 3,
  "delta": 0,
  "tick": 38976,
  "byteIndex": 23163,
  "name": "Note on",
  "channel": 1,
  "noteNumber": 48,
  "noteName": "C3",
  "velocity": 79,
  "dtick": 48,
  "ins": 0
 },
 {
  "track": 3,
  "delta": 0,
  "tick": 38976,
  "byteIndex": 23167,
  "name": "Note on",
  "channel": 1,
  "noteNumber": 53,
  "noteName": "F3",
  "velocity": 79,
  "dtick": 48,
  "ins": 0
 },
 {
  "track": 3,
  "delta": 0,
  "tick": 38976,
  "byteIndex": 23171,
  "name": "Note on",
  "channel": 1,
  "noteNumber": 41,
  "noteName": "F2",
  "velocity": 79,
  "dtick": 48,
  "ins": 0
 },
 {
  "track": 3,
  "delta": 0,
  "tick": 38976,
  "byteIndex": 23175,
  "name": "Note on",
  "channel": 1,
  "noteNumber": 81,
  "noteName": "A5",
  "velocity": 79,
  "dtick": 24,
  "ins": 0
 },
 {
  "track": 3,
  "delta": 0,
  "tick": 39000,
  "byteIndex": 23183,
  "name": "Note on",
  "channel": 1,
  "noteNumber": 79,
  "noteName": "G5",
  "velocity": 79,
  "dtick": 24,
  "ins": 0
 },
 {
  "track": 3,
  "delta": 0,
  "tick": 39024,
  "byteIndex": 23203,
  "name": "Note on",
  "channel": 1,
  "noteNumber": 41,
  "noteName": "F2",
  "velocity": 79,
  "dtick": 48,
  "ins": 0
 },
 {
  "track": 3,
  "delta": 0,
  "tick": 39024,
  "byteIndex": 23207,
  "name": "Note on",
  "channel": 1,
  "noteNumber": 48,
  "noteName": "C3",
  "velocity": 79,
  "dtick": 48,
  "ins": 0
 },
 {
  "track": 3,
  "delta": 0,
  "tick": 39024,
  "byteIndex": 23211,
  "name": "Note on",
  "channel": 1,
  "noteNumber": 53,
  "noteName": "F3",
  "velocity": 79,
  "dtick": 48,
  "ins": 0
 },
 {
  "track": 3,
  "delta": 0,
  "tick": 39024,
  "byteIndex": 23215,
  "name": "Note on",
  "channel": 1,
  "noteNumber": 84,
  "noteName": "C6",
  "velocity": 79,
  "dtick": 24,
  "ins": 0
 },
 {
  "track": 3,
  "delta": 0,
  "tick": 39048,
  "byteIndex": 23223,
  "name": "Note on",
  "channel": 1,
  "noteNumber": 86,
  "noteName": "D6",
  "velocity": 79,
  "dtick": 24,
  "ins": 0
 },
 {
  "track": 3,
  "delta": 0,
  "tick": 39072,
  "byteIndex": 23243,
  "name": "Note on",
  "channel": 1,
  "noteNumber": 48,
  "noteName": "C3",
  "velocity": 79,
  "dtick": 48,
  "ins": 0
 },
 {
  "track": 3,
  "delta": 0,
  "tick": 39072,
  "byteIndex": 23247,
  "name": "Note on",
  "channel": 1,
  "noteNumber": 53,
  "noteName": "F3",
  "velocity": 79,
  "dtick": 48,
  "ins": 0
 },
 {
  "track": 3,
  "delta": 0,
  "tick": 39072,
  "byteIndex": 23251,
  "name": "Note on",
  "channel": 1,
  "noteNumber": 41,
  "noteName": "F2",
  "velocity": 79,
  "dtick": 48,
  "ins": 0
 },
 {
  "track": 3,
  "delta": 0,
  "tick": 39072,
  "byteIndex": 23255,
  "name": "Note on",
  "channel": 1,
  "noteNumber": 84,
  "noteName": "C6",
  "velocity": 79,
  "dtick": 24,
  "ins": 0
 },
 {
  "track": 3,
  "delta": 0,
  "tick": 39096,
  "byteIndex": 23263,
  "name": "Note on",
  "channel": 1,
  "noteNumber": 81,
  "noteName": "A5",
  "velocity": 79,
  "dtick": 24,
  "ins": 0
 },
 {
  "track": 3,
  "delta": 0,
  "tick": 39120,
  "byteIndex": 23283,
  "name": "Note on",
  "channel": 1,
  "noteNumber": 41,
  "noteName": "F2",
  "velocity": 79,
  "dtick": 48,
  "ins": 0
 },
 {
  "track": 3,
  "delta": 0,
  "tick": 39120,
  "byteIndex": 23287,
  "name": "Note on",
  "channel": 1,
  "noteNumber": 48,
  "noteName": "C3",
  "velocity": 79,
  "dtick": 48,
  "ins": 0
 },
 {
  "track": 3,
  "delta": 0,
  "tick": 39120,
  "byteIndex": 23291,
  "name": "Note on",
  "channel": 1,
  "noteNumber": 53,
  "noteName": "F3",
  "velocity": 79,
  "dtick": 48,
  "ins": 0
 },
 {
  "track": 3,
  "delta": 0,
  "tick": 39120,
  "byteIndex": 23295,
  "name": "Note on",
  "channel": 1,
  "noteNumber": 79,
  "noteName": "G5",
  "velocity": 79,
  "dtick": 24,
  "ins": 0
 },
 {
  "track": 3,
  "delta": 0,
  "tick": 39144,
  "byteIndex": 23303,
  "name": "Note on",
  "channel": 1,
  "noteNumber": 76,
  "noteName": "E5",
  "velocity": 79,
  "dtick": 23,
  "ins": 0
 },
 {
  "track": 3,
  "delta": 0,
  "tick": 39168,
  "byteIndex": 23323,
  "name": "Note on",
  "channel": 1,
  "noteNumber": 55,
  "noteName": "G3",
  "velocity": 79,
  "dtick": 48,
  "ins": 0
 },
 {
  "track": 3,
  "delta": 0,
  "tick": 39168,
  "byteIndex": 23327,
  "name": "Note on",
  "channel": 1,
  "noteNumber": 60,
  "noteName": "C4",
  "velocity": 79,
  "dtick": 48,
  "ins": 0
 },
 {
  "track": 3,
  "delta": 0,
  "tick": 39168,
  "byteIndex": 23331,
  "name": "Note on",
  "channel": 1,
  "noteNumber": 48,
  "noteName": "C3",
  "velocity": 79,
  "dtick": 48,
  "ins": 0
 },
 {
  "track": 3,
  "delta": 0,
  "tick": 39168,
  "byteIndex": 23335,
  "name": "Note on",
  "channel": 1,
  "noteNumber": 88,
  "noteName": "E6",
  "velocity": 79,
  "dtick": 24,
  "ins": 0
 },
 {
  "track": 3,
  "delta": 0,
  "tick": 39192,
  "byteIndex": 23343,
  "name": "Note on",
  "channel": 1,
  "noteNumber": 79,
  "noteName": "G5",
  "velocity": 79,
  "dtick": 24,
  "ins": 0
 },
 {
  "track": 3,
  "delta": 0,
  "tick": 39216,
  "byteIndex": 23363,
  "name": "Note on",
  "channel": 1,
  "noteNumber": 48,
  "noteName": "C3",
  "velocity": 79,
  "dtick": 48,
  "ins": 0
 },
 {
  "track": 3,
  "delta": 0,
  "tick": 39216,
  "byteIndex": 23367,
  "name": "Note on",
  "channel": 1,
  "noteNumber": 55,
  "noteName": "G3",
  "velocity": 79,
  "dtick": 48,
  "ins": 0
 },
 {
  "track": 3,
  "delta": 0,
  "tick": 39216,
  "byteIndex": 23371,
  "name": "Note on",
  "channel": 1,
  "noteNumber": 60,
  "noteName": "C4",
  "velocity": 79,
  "dtick": 48,
  "ins": 0
 },
 {
  "track": 3,
  "delta": 0,
  "tick": 39216,
  "byteIndex": 23375,
  "name": "Note on",
  "channel": 1,
  "noteNumber": 84,
  "noteName": "C6",
  "velocity": 79,
  "dtick": 24,
  "ins": 0
 },
 {
  "track": 3,
  "delta": 0,
  "tick": 39240,
  "byteIndex": 23383,
  "name": "Note on",
  "channel": 1,
  "noteNumber": 86,
  "noteName": "D6",
  "velocity": 79,
  "dtick": 24,
  "ins": 0
 },
 {
  "track": 3,
  "delta": 0,
  "tick": 39264,
  "byteIndex": 23403,
  "name": "Note on",
  "channel": 1,
  "noteNumber": 60,
  "noteName": "C4",
  "velocity": 79,
  "dtick": 48,
  "ins": 0
 },
 {
  "track": 3,
  "delta": 0,
  "tick": 39264,
  "byteIndex": 23407,
  "name": "Note on",
  "channel": 1,
  "noteNumber": 55,
  "noteName": "G3",
  "velocity": 79,
  "dtick": 48,
  "ins": 0
 },
 {
  "track": 3,
  "delta": 0,
  "tick": 39264,
  "byteIndex": 23411,
  "name": "Note on",
  "channel": 1,
  "noteNumber": 48,
  "noteName": "C3",
  "velocity": 79,
  "dtick": 48,
  "ins": 0
 },
 {
  "track": 3,
  "delta": 0,
  "tick": 39264,
  "byteIndex": 23415,
  "name": "Note on",
  "channel": 1,
  "noteNumber": 88,
  "noteName": "E6",
  "velocity": 79,
  "dtick": 24,
  "ins": 0
 },
 {
  "track": 3,
  "delta": 0,
  "tick": 39288,
  "byteIndex": 23423,
  "name": "Note on",
  "channel": 1,
  "noteNumber": 91,
  "noteName": "G6",
  "velocity": 79,
  "dtick": 24,
  "ins": 0
 },
 {
  "track": 3,
  "delta": 0,
  "tick": 39312,
  "byteIndex": 23443,
  "name": "Note on",
  "channel": 1,
  "noteNumber": 60,
  "noteName": "C4",
  "velocity": 79,
  "dtick": 48,
  "ins": 0
 },
 {
  "track": 3,
  "delta": 0,
  "tick": 39312,
  "byteIndex": 23447,
  "name": "Note on",
  "channel": 1,
  "noteNumber": 55,
  "noteName": "G3",
  "velocity": 79,
  "dtick": 48,
  "ins": 0
 },
 {
  "track": 3,
  "delta": 0,
  "tick": 39312,
  "byteIndex": 23451,
  "name": "Note on",
  "channel": 1,
  "noteNumber": 48,
  "noteName": "C3",
  "velocity": 79,
  "dtick": 48,
  "ins": 0
 },
 {
  "track": 3,
  "delta": 0,
  "tick": 39312,
  "byteIndex": 23455,
  "name": "Note on",
  "channel": 1,
  "noteNumber": 88,
  "noteName": "E6",
  "velocity": 79,
  "dtick": 24,
  "ins": 0
 },
 {
  "track": 3,
  "delta": 0,
  "tick": 39336,
  "byteIndex": 23463,
  "name": "Note on",
  "channel": 1,
  "noteNumber": 84,
  "noteName": "C6",
  "velocity": 79,
  "dtick": 24,
  "ins": 0
 },
 {
  "track": 3,
  "delta": 0,
  "tick": 39360,
  "byteIndex": 23483,
  "name": "Note on",
  "channel": 1,
  "noteNumber": 55,
  "noteName": "G3",
  "velocity": 79,
  "dtick": 48,
  "ins": 0
 },
 {
  "track": 3,
  "delta": 0,
  "tick": 39360,
  "byteIndex": 23487,
  "name": "Note on",
  "channel": 1,
  "noteNumber": 60,
  "noteName": "C4",
  "velocity": 79,
  "dtick": 48,
  "ins": 0
 },
 {
  "track": 3,
  "delta": 0,
  "tick": 39360,
  "byteIndex": 23491,
  "name": "Note on",
  "channel": 1,
  "noteNumber": 48,
  "noteName": "C3",
  "velocity": 79,
  "dtick": 48,
  "ins": 0
 },
 {
  "track": 3,
  "delta": 0,
  "tick": 39360,
  "byteIndex": 23495,
  "name": "Note on",
  "channel": 1,
  "noteNumber": 81,
  "noteName": "A5",
  "velocity": 79,
  "dtick": 24,
  "ins": 0
 },
 {
  "track": 3,
  "delta": 0,
  "tick": 39384,
  "byteIndex": 23503,
  "name": "Note on",
  "channel": 1,
  "noteNumber": 79,
  "noteName": "G5",
  "velocity": 79,
  "dtick": 24,
  "ins": 0
 },
 {
  "track": 3,
  "delta": 0,
  "tick": 39408,
  "byteIndex": 23523,
  "name": "Note on",
  "channel": 1,
  "noteNumber": 48,
  "noteName": "C3",
  "velocity": 79,
  "dtick": 48,
  "ins": 0
 },
 {
  "track": 3,
  "delta": 0,
  "tick": 39408,
  "byteIndex": 23527,
  "name": "Note on",
  "channel": 1,
  "noteNumber": 55,
  "noteName": "G3",
  "velocity": 79,
  "dtick": 48,
  "ins": 0
 },
 {
  "track": 3,
  "delta": 0,
  "tick": 39408,
  "byteIndex": 23531,
  "name": "Note on",
  "channel": 1,
  "noteNumber": 60,
  "noteName": "C4",
  "velocity": 79,
  "dtick": 48,
  "ins": 0
 },
 {
  "track": 3,
  "delta": 0,
  "tick": 39408,
  "byteIndex": 23535,
  "name": "Note on",
  "channel": 1,
  "noteNumber": 84,
  "noteName": "C6",
  "velocity": 79,
  "dtick": 24,
  "ins": 0
 },
 {
  "track": 3,
  "delta": 0,
  "tick": 39432,
  "byteIndex": 23543,
  "name": "Note on",
  "channel": 1,
  "noteNumber": 86,
  "noteName": "D6",
  "velocity": 79,
  "dtick": 24,
  "ins": 0
 },
 {
  "track": 3,
  "delta": 0,
  "tick": 39456,
  "byteIndex": 23563,
  "name": "Note on",
  "channel": 1,
  "noteNumber": 48,
  "noteName": "C3",
  "velocity": 79,
  "dtick": 48,
  "ins": 0
 },
 {
  "track": 3,
  "delta": 0,
  "tick": 39456,
  "byteIndex": 23567,
  "name": "Note on",
  "channel": 1,
  "noteNumber": 60,
  "noteName": "C4",
  "velocity": 79,
  "dtick": 48,
  "ins": 0
 },
 {
  "track": 3,
  "delta": 0,
  "tick": 39456,
  "byteIndex": 23571,
  "name": "Note on",
  "channel": 1,
  "noteNumber": 55,
  "noteName": "G3",
  "velocity": 79,
  "dtick": 48,
  "ins": 0
 },
 {
  "track": 3,
  "delta": 0,
  "tick": 39456,
  "byteIndex": 23575,
  "name": "Note on",
  "channel": 1,
  "noteNumber": 84,
  "noteName": "C6",
  "velocity": 79,
  "dtick": 24,
  "ins": 0
 },
 {
  "track": 3,
  "delta": 0,
  "tick": 39480,
  "byteIndex": 23583,
  "name": "Note on",
  "channel": 1,
  "noteNumber": 91,
  "noteName": "G6",
  "velocity": 79,
  "dtick": 24,
  "ins": 0
 },
 {
  "track": 3,
  "delta": 0,
  "tick": 39504,
  "byteIndex": 23603,
  "name": "Note on",
  "channel": 1,
  "noteNumber": 48,
  "noteName": "C3",
  "velocity": 79,
  "dtick": 48,
  "ins": 0
 },
 {
  "track": 3,
  "delta": 0,
  "tick": 39504,
  "byteIndex": 23607,
  "name": "Note on",
  "channel": 1,
  "noteNumber": 55,
  "noteName": "G3",
  "velocity": 79,
  "dtick": 48,
  "ins": 0
 },
 {
  "track": 3,
  "delta": 0,
  "tick": 39504,
  "byteIndex": 23611,
  "name": "Note on",
  "channel": 1,
  "noteNumber": 60,
  "noteName": "C4",
  "velocity": 79,
  "dtick": 48,
  "ins": 0
 },
 {
  "track": 3,
  "delta": 0,
  "tick": 39504,
  "byteIndex": 23615,
  "name": "Note on",
  "channel": 1,
  "noteNumber": 88,
  "noteName": "E6",
  "velocity": 79,
  "dtick": 24,
  "ins": 0
 },
 {
  "track": 3,
  "delta": 0,
  "tick": 39528,
  "byteIndex": 23623,
  "name": "Note on",
  "channel": 1,
  "noteNumber": 84,
  "noteName": "C6",
  "velocity": 79,
  "dtick": 24,
  "ins": 0
 },
 {
  "track": 3,
  "delta": 0,
  "tick": 39552,
  "byteIndex": 23643,
  "name": "Note on",
  "channel": 1,
  "noteNumber": 48,
  "noteName": "C3",
  "velocity": 79,
  "dtick": 48,
  "ins": 0
 },
 {
  "track": 3,
  "delta": 0,
  "tick": 39552,
  "byteIndex": 23647,
  "name": "Note on",
  "channel": 1,
  "noteNumber": 55,
  "noteName": "G3",
  "velocity": 79,
  "dtick": 48,
  "ins": 0
 },
 {
  "track": 3,
  "delta": 0,
  "tick": 39552,
  "byteIndex": 23651,
  "name": "Note on",
  "channel": 1,
  "noteNumber": 59,
  "noteName": "B3",
  "velocity": 79,
  "dtick": 48,
  "ins": 0
 },
 {
  "track": 3,
  "delta": 0,
  "tick": 39552,
  "byteIndex": 23655,
  "name": "Note on",
  "channel": 1,
  "noteNumber": 88,
  "noteName": "E6",
  "velocity": 79,
  "dtick": 24,
  "ins": 0
 },
 {
  "track": 3,
  "delta": 0,
  "tick": 39576,
  "byteIndex": 23663,
  "name": "Note on",
  "channel": 1,
  "noteNumber": 81,
  "noteName": "A5",
  "velocity": 79,
  "dtick": 24,
  "ins": 0
 },
 {
  "track": 3,
  "delta": 0,
  "tick": 39600,
  "byteIndex": 23683,
  "name": "Note on",
  "channel": 1,
  "noteNumber": 59,
  "noteName": "B3",
  "velocity": 79,
  "dtick": 48,
  "ins": 0
 },
 {
  "track": 3,
  "delta": 0,
  "tick": 39600,
  "byteIndex": 23687,
  "name": "Note on",
  "channel": 1,
  "noteNumber": 48,
  "noteName": "C3",
  "velocity": 79,
  "dtick": 48,
  "ins": 0
 },
 {
  "track": 3,
  "delta": 0,
  "tick": 39600,
  "byteIndex": 23691,
  "name": "Note on",
  "channel": 1,
  "noteNumber": 55,
  "noteName": "G3",
  "velocity": 79,
  "dtick": 48,
  "ins": 0
 },
 {
  "track": 3,
  "delta": 0,
  "tick": 39600,
  "byteIndex": 23695,
  "name": "Note on",
  "channel": 1,
  "noteNumber": 84,
  "noteName": "C6",
  "velocity": 79,
  "dtick": 24,
  "ins": 0
 },
 {
  "track": 3,
  "delta": 0,
  "tick": 39624,
  "byteIndex": 23703,
  "name": "Note on",
  "channel": 1,
  "noteNumber": 86,
  "noteName": "D6",
  "velocity": 79,
  "dtick": 24,
  "ins": 0
 },
 {
  "track": 3,
  "delta": 0,
  "tick": 39648,
  "byteIndex": 23723,
  "name": "Note on",
  "channel": 1,
  "noteNumber": 59,
  "noteName": "B3",
  "velocity": 79,
  "dtick": 48,
  "ins": 0
 },
 {
  "track": 3,
  "delta": 0,
  "tick": 39648,
  "byteIndex": 23727,
  "name": "Note on",
  "channel": 1,
  "noteNumber": 55,
  "noteName": "G3",
  "velocity": 79,
  "dtick": 48,
  "ins": 0
 },
 {
  "track": 3,
  "delta": 0,
  "tick": 39648,
  "byteIndex": 23731,
  "name": "Note on",
  "channel": 1,
  "noteNumber": 48,
  "noteName": "C3",
  "velocity": 79,
  "dtick": 48,
  "ins": 0
 },
 {
  "track": 3,
  "delta": 0,
  "tick": 39648,
  "byteIndex": 23735,
  "name": "Note on",
  "channel": 1,
  "noteNumber": 88,
  "noteName": "E6",
  "velocity": 79,
  "dtick": 24,
  "ins": 0
 },
 {
  "track": 3,
  "delta": 0,
  "tick": 39672,
  "byteIndex": 23743,
  "name": "Note on",
  "channel": 1,
  "noteNumber": 91,
  "noteName": "G6",
  "velocity": 79,
  "dtick": 24,
  "ins": 0
 },
 {
  "track": 3,
  "delta": 0,
  "tick": 39696,
  "byteIndex": 23763,
  "name": "Note on",
  "channel": 1,
  "noteNumber": 59,
  "noteName": "B3",
  "velocity": 79,
  "dtick": 48,
  "ins": 0
 },
 {
  "track": 3,
  "delta": 0,
  "tick": 39696,
  "byteIndex": 23767,
  "name": "Note on",
  "channel": 1,
  "noteNumber": 55,
  "noteName": "G3",
  "velocity": 79,
  "dtick": 48,
  "ins": 0
 },
 {
  "track": 3,
  "delta": 0,
  "tick": 39696,
  "byteIndex": 23771,
  "name": "Note on",
  "channel": 1,
  "noteNumber": 48,
  "noteName": "C3",
  "velocity": 79,
  "dtick": 48,
  "ins": 0
 },
 {
  "track": 3,
  "delta": 0,
  "tick": 39696,
  "byteIndex": 23775,
  "name": "Note on",
  "channel": 1,
  "noteNumber": 88,
  "noteName": "E6",
  "velocity": 79,
  "dtick": 24,
  "ins": 0
 },
 {
  "track": 3,
  "delta": 0,
  "tick": 39720,
  "byteIndex": 23783,
  "name": "Note on",
  "channel": 1,
  "noteNumber": 84,
  "noteName": "C6",
  "velocity": 79,
  "dtick": 24,
  "ins": 0
 },
 {
  "track": 3,
  "delta": 0,
  "tick": 39744,
  "byteIndex": 23803,
  "name": "Note on",
  "channel": 1,
  "noteNumber": 55,
  "noteName": "G3",
  "velocity": 79,
  "dtick": 48,
  "ins": 0
 },
 {
  "track": 3,
  "delta": 0,
  "tick": 39744,
  "byteIndex": 23807,
  "name": "Note on",
  "channel": 1,
  "noteNumber": 48,
  "noteName": "C3",
  "velocity": 79,
  "dtick": 48,
  "ins": 0
 },
 {
  "track": 3,
  "delta": 0,
  "tick": 39744,
  "byteIndex": 23811,
  "name": "Note on",
  "channel": 1,
  "noteNumber": 59,
  "noteName": "B3",
  "velocity": 79,
  "dtick": 48,
  "ins": 0
 },
 {
  "track": 3,
  "delta": 0,
  "tick": 39744,
  "byteIndex": 23815,
  "name": "Note on",
  "channel": 1,
  "noteNumber": 81,
  "noteName": "A5",
  "velocity": 79,
  "dtick": 24,
  "ins": 0
 },
 {
  "track": 3,
  "delta": 0,
  "tick": 39768,
  "byteIndex": 23823,
  "name": "Note on",
  "channel": 1,
  "noteNumber": 79,
  "noteName": "G5",
  "velocity": 79,
  "dtick": 24,
  "ins": 0
 },
 {
  "track": 3,
  "delta": 0,
  "tick": 39792,
  "byteIndex": 23843,
  "name": "Note on",
  "channel": 1,
  "noteNumber": 55,
  "noteName": "G3",
  "velocity": 79,
  "dtick": 48,
  "ins": 0
 },
 {
  "track": 3,
  "delta": 0,
  "tick": 39792,
  "byteIndex": 23847,
  "name": "Note on",
  "channel": 1,
  "noteNumber": 48,
  "noteName": "C3",
  "velocity": 79,
  "dtick": 48,
  "ins": 0
 },
 {
  "track": 3,
  "delta": 0,
  "tick": 39792,
  "byteIndex": 23851,
  "name": "Note on",
  "channel": 1,
  "noteNumber": 59,
  "noteName": "B3",
  "velocity": 79,
  "dtick": 48,
  "ins": 0
 },
 {
  "track": 3,
  "delta": 0,
  "tick": 39792,
  "byteIndex": 23855,
  "name": "Note on",
  "channel": 1,
  "noteNumber": 84,
  "noteName": "C6",
  "velocity": 79,
  "dtick": 24,
  "ins": 0
 },
 {
  "track": 3,
  "delta": 0,
  "tick": 39816,
  "byteIndex": 23863,
  "name": "Note on",
  "channel": 1,
  "noteNumber": 86,
  "noteName": "D6",
  "velocity": 79,
  "dtick": 24,
  "ins": 0
 },
 {
  "track": 3,
  "delta": 0,
  "tick": 39840,
  "byteIndex": 23883,
  "name": "Note on",
  "channel": 1,
  "noteNumber": 55,
  "noteName": "G3",
  "velocity": 79,
  "dtick": 48,
  "ins": 0
 },
 {
  "track": 3,
  "delta": 0,
  "tick": 39840,
  "byteIndex": 23887,
  "name": "Note on",
  "channel": 1,
  "noteNumber": 48,
  "noteName": "C3",
  "velocity": 79,
  "dtick": 48,
  "ins": 0
 },
 {
  "track": 3,
  "delta": 0,
  "tick": 39840,
  "byteIndex": 23891,
  "name": "Note on",
  "channel": 1,
  "noteNumber": 59,
  "noteName": "B3",
  "velocity": 79,
  "dtick": 48,
  "ins": 0
 },
 {
  "track": 3,
  "delta": 0,
  "tick": 39840,
  "byteIndex": 23895,
  "name": "Note on",
  "channel": 1,
  "noteNumber": 84,
  "noteName": "C6",
  "velocity": 79,
  "dtick": 24,
  "ins": 0
 },
 {
  "track": 3,
  "delta": 0,
  "tick": 39864,
  "byteIndex": 23903,
  "name": "Note on",
  "channel": 1,
  "noteNumber": 81,
  "noteName": "A5",
  "velocity": 79,
  "dtick": 24,
  "ins": 0
 },
 {
  "track": 3,
  "delta": 0,
  "tick": 39888,
  "byteIndex": 23923,
  "name": "Note on",
  "channel": 1,
  "noteNumber": 48,
  "noteName": "C3",
  "velocity": 79,
  "dtick": 48,
  "ins": 0
 },
 {
  "track": 3,
  "delta": 0,
  "tick": 39888,
  "byteIndex": 23927,
  "name": "Note on",
  "channel": 1,
  "noteNumber": 55,
  "noteName": "G3",
  "velocity": 79,
  "dtick": 48,
  "ins": 0
 },
 {
  "track": 3,
  "delta": 0,
  "tick": 39888,
  "byteIndex": 23931,
  "name": "Note on",
  "channel": 1,
  "noteNumber": 59,
  "noteName": "B3",
  "velocity": 79,
  "dtick": 48,
  "ins": 0
 },
 {
  "track": 3,
  "delta": 0,
  "tick": 39888,
  "byteIndex": 23935,
  "name": "Note on",
  "channel": 1,
  "noteNumber": 79,
  "noteName": "G5",
  "velocity": 79,
  "dtick": 24,
  "ins": 0
 }
]